<svg xmlns="http://www.w3.org/2000/svg" xmlns:xlink="http://www.w3.org/1999/xlink" version="1.1" id="Layer_1" x="0px" y="0px" width="100px" height="100px" viewBox="5.0 -10.0 100.0 135.0" enable-background="new 0 0 100 100" xml:space="preserve">
<g>
	<path fill="#000000" d="M25.893,71.758l-0.017-0.414c-0.316-6.982,4.937-8.182,10.017-9.341c0.692-0.158,1.392-0.317,2.086-0.492   c0.282-0.071,0.591-0.144,0.916-0.221c0.699-0.165,1.536-0.363,2.324-0.604c-2.691-1.532-6.647-1.718-9.768-2.618   c-0.772-0.223-2.021-0.74-2.265-1.409c-0.216-0.592,0-1.473-0.151-2.266c1.284-1.636,2.106-3.731,2.617-6.141   c0.399-0.444,0.887-0.742,1.286-1.61c0.207-0.45,0.996-2.19,0.728-2.745c-0.137-0.284-0.435-0.427-0.655-0.577   c1.449-6.828-3.644-11.426-10.218-10.973c-5.564,0.383-9.314,4.544-8.255,11.023c-0.48-0.014-0.732,0.322-0.855,0.577   c-0.26,0.537,0.48,1.938,0.728,2.494c0.17,0.38,0.493,0.71,0.755,1.007c0.295,0.333,0.471,0.58,0.631,0.906   c0.236,0.477,0.251,1.195,0.453,1.863c0.373,1.236,0.867,2.233,1.459,3.221c0.299,0.499,0.833,1.113,0.906,1.46   c0.124,0.587,0.039,1.367-0.101,1.711c-0.507,1.247-3.486,1.775-5.235,2.216c-4.922,1.239-10.15,1.574-9.866,7.843   c0.048,1.063-0.03,0.803,0.453,1.491c0.297,0.423,1.343,0.829,1.963,1.158c4.906,2.591,10.853,3.876,18.021,3.875   c0.843,0,1.668-0.021,2.479-0.056c-0.004-0.005-0.008-0.011-0.012-0.016C25.937,72.597,25.918,72.485,25.893,71.758z"/>
	<path fill="#000000" d="M82.561,58.069c-0.772-0.223-2.021-0.74-2.265-1.409c-0.217-0.592,0-1.473-0.152-2.266   c1.284-1.636,2.106-3.731,2.618-6.141c0.398-0.444,0.887-0.742,1.285-1.61c0.207-0.45,0.995-2.19,0.728-2.745   c-0.137-0.284-0.434-0.427-0.654-0.577c1.449-6.828-3.644-11.426-10.218-10.973c-5.563,0.383-9.314,4.544-8.255,11.023   c-0.481-0.014-0.733,0.322-0.855,0.577c-0.26,0.537,0.479,1.938,0.728,2.494c0.17,0.38,0.492,0.71,0.755,1.007   c0.294,0.333,0.47,0.58,0.631,0.906c0.236,0.477,0.251,1.195,0.453,1.863c0.373,1.236,0.867,2.233,1.46,3.221   c0.299,0.499,0.833,1.113,0.905,1.46c0.124,0.587,0.039,1.367-0.101,1.711c-0.507,1.247-3.485,1.775-5.234,2.216   c-1.916,0.482-3.878,0.829-5.543,1.44c0.299,0.131,0.627,0.252,0.979,0.353c1.294,0.374,2.69,0.639,4.17,0.918   c5.462,1.031,11.652,2.201,11.442,9.739c-0.006,0.193-0.008,0.347-0.009,0.47c-0.007,0.62-0.032,0.712-0.345,1.222   c-0.039,0.063-0.086,0.14-0.137,0.226c0.004,0,0.009,0,0.013,0c7.227,0,13.248-1.322,18.071-3.876   c0.598-0.316,1.738-0.828,1.963-1.209c0.469-0.79,0.375-0.475,0.403-1.491C95.608,59.057,87.872,59.602,82.561,58.069z"/>
	<path fill="#000000" d="M63.805,62.54c-1.438-0.271-2.923-0.553-4.264-0.939c-0.354-0.102-1.188-0.371-1.903-0.809   c-0.504-0.31-0.95-0.701-1.126-1.18c-0.171-0.469-0.159-0.994-0.146-1.549c0.009-0.413,0.018-0.839-0.055-1.222l-0.044-0.229   l0.144-0.183c1.392-1.772,2.376-4.089,3.011-7.083l0.028-0.134l0.092-0.102c0.132-0.146,0.271-0.281,0.414-0.418   c0.369-0.355,0.718-0.691,1.027-1.366c1.059-2.306,0.87-2.822,0.868-2.827c-0.067-0.14-0.246-0.253-0.435-0.373   c-0.059-0.037-0.116-0.073-0.169-0.109l-0.284-0.193l0.071-0.335c0.71-3.344,0.098-6.33-1.77-8.636   c-2.146-2.647-5.807-4.06-9.829-3.78c-3.14,0.216-5.796,1.506-7.48,3.631c-1.792,2.261-2.433,5.328-1.854,8.867l0.1,0.612   l-0.62-0.019c-0.115-0.006-0.349,0-0.541,0.396c-0.103,0.226,0.138,0.965,0.716,2.197c0.06,0.127,0.113,0.24,0.155,0.334   c0.142,0.318,0.416,0.624,0.682,0.919l0.13,0.146c0.387,0.437,0.618,0.77,0.826,1.188c0.193,0.39,0.274,0.847,0.36,1.33   c0.057,0.321,0.116,0.652,0.209,0.96c0.38,1.262,0.899,2.406,1.682,3.71c0.123,0.204,0.279,0.425,0.434,0.642   c0.337,0.474,0.627,0.884,0.704,1.251c0.169,0.801,0.056,1.832-0.146,2.329c-0.34,0.835-1.332,1.409-2.528,1.847   c-0.99,0.362-2.118,0.63-3.136,0.87c-0.32,0.075-0.624,0.146-0.901,0.217C37.527,62.679,36.82,62.84,36.12,63   c-5.098,1.164-9.5,2.169-9.222,8.299l0.017,0.424c0.018,0.507,0.018,0.507,0.229,0.798c0.056,0.077,0.122,0.168,0.2,0.279   c0.056,0.079,0.169,0.169,0.309,0.262c0.331,0.22,0.829,0.459,1.198,0.636c0.233,0.111,0.455,0.218,0.645,0.318   c5.789,3.057,12.708,4.543,21.153,4.543v0.511l0.009-0.511c8.389,0,15.528-1.529,21.22-4.544c0.139-0.073,0.302-0.155,0.476-0.243   c0.287-0.145,0.753-0.38,1.121-0.6c0.26-0.154,0.472-0.301,0.534-0.401c0.082-0.138,0.149-0.248,0.205-0.339   c0.189-0.31,0.189-0.31,0.193-0.697c0.002-0.128,0.003-0.286,0.009-0.487C74.6,64.58,69.357,63.589,63.805,62.54z"/>
</g>
<text x="0.0" y="117.5" font-size="5.0" font-weight="bold" font-family="Helvetica Neue, Helvetica, Arial-Unicode, Arial, Sans-serif" fill="#000000">Created by Wilson Joseph</text><text x="0.0" y="122.5" font-size="5.0" font-weight="bold" font-family="Helvetica Neue, Helvetica, Arial-Unicode, Arial, Sans-serif" fill="#000000">from the Noun Project</text></svg>