<svg xmlns="http://www.w3.org/2000/svg" xmlns:xlink="http://www.w3.org/1999/xlink" version="1.1" x="0px" y="0px" viewBox="5.0 -10.0 100.0 135.0" enable-background="new 0 0 100 100" xml:space="preserve" height="100px" width="100px">
<g id="Your_Icon">
	<g>
		<path fill="none" stroke="#000000" stroke-width="4" stroke-linecap="round" stroke-linejoin="round" stroke-miterlimit="10" d="    M47.802,36.469"/>
	</g>
	<g>
		<path fill="none" stroke="#000000" stroke-width="4" stroke-linecap="round" stroke-linejoin="round" stroke-miterlimit="10" d="    M39.277,44.994"/>
	</g>
	<path d="M94.014,19.128L81.086,6.298c-1.248-1.239-3.424-1.241-4.674,0L46.215,36.271L28.543,18.728   c-0.026-0.026-0.059-0.048-0.088-0.073c-0.014-0.013-0.029-0.024-0.044-0.037c-0.097-0.08-0.2-0.151-0.309-0.212   c-0.015-0.008-0.026-0.02-0.041-0.028l-15.426-8.122c-0.762-0.401-1.698-0.262-2.308,0.344c-0.61,0.605-0.751,1.534-0.346,2.291   l8.183,15.316c0.083,0.156,0.191,0.294,0.311,0.42c0.017,0.018,0.025,0.042,0.042,0.059l17.672,17.541L5.989,76.2   c-0.625,0.619-0.968,1.443-0.968,2.319c0,0.876,0.343,1.7,0.968,2.32l12.928,12.831c0.624,0.621,1.454,0.963,2.337,0.963   c0.884,0,1.714-0.342,2.337-0.962l30.197-29.974l22.629,22.462c0.002,0.002,0.003,0.004,0.004,0.005l1.726,1.711   c1.338,1.33,3.119,2.063,5.014,2.063c1.893,0,3.674-0.733,5.014-2.062c1.339-1.329,2.077-3.096,2.077-4.976   c0-1.88-0.738-3.647-2.077-4.977l-1.726-1.714L63.816,53.743l30.198-29.976C95.3,22.491,95.301,20.411,94.014,19.128z    M16.446,16.674l7.428,3.911l-3.487,3.464L16.446,16.674z M21.254,90.478L9.205,78.519l2.818-2.797l5.516,5.473   c0.192,0.19,0.443,0.285,0.694,0.285s0.502-0.095,0.694-0.285c0.383-0.381,0.383-0.997,0-1.378l-5.516-5.473l2.063-2.048   l5.512,5.476c0.192,0.19,0.443,0.285,0.694,0.285s0.502-0.095,0.694-0.285c0.383-0.38,0.383-0.997,0-1.378l-5.512-5.476   l2.061-2.046l5.515,5.472c0.192,0.19,0.443,0.285,0.694,0.285c0.251,0,0.502-0.095,0.694-0.285c0.383-0.381,0.383-0.997,0-1.378   l-5.515-5.472l2.063-2.048l5.513,5.475c0.192,0.19,0.443,0.285,0.694,0.285s0.502-0.095,0.694-0.285   c0.383-0.381,0.383-0.997,0-1.378l-5.513-5.475l2.061-2.046l5.516,5.472c0.192,0.19,0.443,0.285,0.694,0.285   c0.251,0,0.502-0.095,0.694-0.285c0.383-0.381,0.383-0.997,0-1.378l-5.516-5.472l2.064-2.048l5.512,5.475   c0.192,0.19,0.443,0.285,0.694,0.285s0.502-0.095,0.694-0.285c0.383-0.38,0.383-0.997,0-1.378l-5.512-5.475l2.061-2.046   l5.515,5.472c0.192,0.19,0.443,0.285,0.694,0.285s0.502-0.095,0.694-0.285c0.383-0.381,0.383-0.997,0-1.378l-5.515-5.472   l2.063-2.048l5.513,5.475c0.192,0.19,0.443,0.285,0.694,0.285c0.251,0,0.502-0.095,0.694-0.285c0.383-0.381,0.383-0.997,0-1.378   l-5.513-5.475l1.399-1.389l12.049,11.96L21.254,90.478z M85.06,80.344l0.338,0.336c0.597,0.594,0.927,1.382,0.927,2.221   c0,0.838-0.33,1.626-0.927,2.22c-1.196,1.186-3.279,1.188-4.474-0.001l-0.337-0.334L85.06,80.344z M77.81,82.03L22.669,27.295   l4.475-4.444l55.14,54.737L77.81,82.03z M61.04,50.988L48.991,39.027l0.986-0.979l5.513,5.475c0.192,0.19,0.443,0.285,0.694,0.285   s0.502-0.095,0.694-0.285c0.383-0.38,0.383-0.997,0-1.378l-5.513-5.475l2.061-2.046l5.516,5.472   c0.192,0.19,0.443,0.285,0.694,0.285s0.502-0.095,0.694-0.285c0.383-0.381,0.383-0.998,0-1.378l-5.515-5.472l2.063-2.048   l5.512,5.475c0.192,0.19,0.443,0.285,0.694,0.285s0.502-0.095,0.694-0.285c0.383-0.381,0.383-0.998,0-1.378l-5.512-5.475   l2.061-2.045l5.515,5.472c0.192,0.19,0.443,0.285,0.694,0.285c0.251,0,0.502-0.095,0.694-0.285c0.383-0.381,0.383-0.998,0-1.378   l-5.515-5.471l2.063-2.048l5.513,5.474c0.192,0.19,0.443,0.285,0.694,0.285c0.251,0,0.502-0.095,0.694-0.285   c0.383-0.38,0.383-0.997,0-1.378l-5.513-5.474l2.061-2.046l5.515,5.472c0.192,0.19,0.443,0.285,0.694,0.285   c0.251,0,0.502-0.095,0.694-0.285c0.383-0.381,0.383-0.998,0-1.378l-5.515-5.472l2.063-2.048l5.512,5.474   c0.192,0.19,0.443,0.285,0.694,0.285c0.251,0,0.502-0.095,0.694-0.285c0.383-0.381,0.383-0.998,0-1.378l-5.512-5.474l2.061-2.046   l5.515,5.472c0.192,0.19,0.443,0.285,0.694,0.285c0.251,0,0.502-0.095,0.694-0.285c0.383-0.381,0.383-0.998,0-1.378l-5.515-5.471   l3.232-3.208l12.049,11.958L61.04,50.988z"/>
</g>
<g id="Layer_2">
</g>
<text x="0.0" y="117.5" font-size="5.0" font-weight="bold" font-family="Helvetica Neue, Helvetica, Arial-Unicode, Arial, Sans-serif" fill="#000000">Created by Gabriela Rodr&#237;guez</text><text x="0.0" y="122.5" font-size="5.0" font-weight="bold" font-family="Helvetica Neue, Helvetica, Arial-Unicode, Arial, Sans-serif" fill="#000000">from the Noun Project</text></svg>