<?xml version="1.0" standalone="no"?>
<!DOCTYPE svg PUBLIC "-//W3C//DTD SVG 1.1//EN" "http://www.w3.org/Graphics/SVG/1.1/DTD/svg11.dtd" >
<svg xmlns="http://www.w3.org/2000/svg" xmlns:xlink="http://www.w3.org/1999/xlink" version="1.1">
<metadata></metadata>
<defs>
<font id="areal_blmedium" horiz-adv-x="1009" >
<font-face units-per-em="2048" ascent="1536" descent="-512" />
<missing-glyph horiz-adv-x="512" />
<glyph horiz-adv-x="0" />
<glyph horiz-adv-x="682" />
<glyph unicode=" "  horiz-adv-x="512" />
<glyph unicode="&#x09;" horiz-adv-x="512" />
<glyph unicode="&#xa0;" horiz-adv-x="512" />
<glyph unicode="!" horiz-adv-x="530" d="M135 113q0 55 37.5 93t91.5 38q55 0 93 -37.5t38 -91.5q0 -55 -37.5 -93t-91.5 -38q-55 0 -93 37.5t-38 91.5zM158 340v1001h209v-1001h-209z" />
<glyph unicode="&#x22;" horiz-adv-x="788" d="M154 932v409h174v-409h-174zM461 932v409h174v-409h-174z" />
<glyph unicode="#" horiz-adv-x="1708" d="M154 406v157h309l125 283h-271v158h340l152 337h170l-150 -337h287l152 337h170l-150 -337h266v-158h-335l-125 -283h297v-157h-367l-180 -406h-170l178 406h-287l-180 -406h-170l178 406h-239zM635 563h287l125 283h-287z" />
<glyph unicode="$" horiz-adv-x="1107" d="M102 401l207 17q0 -250 246 -250q62 0 108 12.5t71 31t40.5 46t20 51t4.5 51.5q0 65 -41 111.5t-137 83.5l-160 61q-161 62 -242.5 154t-81.5 229q0 41 9 82.5t33 87.5t60.5 83t97 65.5t136.5 38.5v149h160v-147q79 -8 140.5 -35.5t100.5 -65.5t64.5 -88t35.5 -98.5 t11 -101.5l-203 -11q0 45 -8 79t-29.5 67.5t-68 51.5t-115.5 18q-60 0 -103.5 -13.5t-64.5 -30.5t-33 -44t-14 -43.5t-2 -38.5q0 -34 9 -60t21.5 -43t38.5 -34t45.5 -25.5t57.5 -24.5l148 -59q179 -70 260.5 -162t81.5 -229q0 -161 -98.5 -262.5t-274.5 -120.5v-148h-160 v150q-183 21 -275.5 135.5t-95.5 279.5z" />
<glyph unicode="%" horiz-adv-x="1613" d="M154 1006q0 71 10.5 128.5t26.5 94t40.5 63t45.5 39.5t49.5 20.5t45 9t38.5 1.5t38.5 -1.5t44 -9t48 -20.5t43.5 -39.5t38 -63t25 -93t10 -127.5q0 -72 -10 -129.5t-25 -94t-38 -63.5t-43.5 -40.5t-48 -21t-44 -9t-38.5 -1.5t-38.5 1.5t-45 9t-49.5 21t-45.5 40t-40.5 63 t-26.5 94t-10.5 128.5zM307 1008q0 -69 8.5 -113.5t25 -64t32 -25.5t37.5 -6q16 0 27.5 3t25 14.5t21.5 33t14 61t6 95.5q0 70 -7.5 114.5t-23 63.5t-29 24.5t-34.5 5.5q-23 0 -37.5 -5.5t-31.5 -24.5t-25.5 -63t-8.5 -113zM375 -113l723 1633l139 -64l-725 -1636zM956 336 q0 71 10.5 128.5t26.5 94t40.5 63t45.5 39.5t49.5 20.5t45 9t38.5 1.5t38.5 -1.5t44 -9t48 -20.5t44 -39.5t38.5 -63t25 -93t10 -127.5q0 -72 -10 -129.5t-25 -94t-38.5 -63.5t-44 -40t-48 -20.5t-44 -9t-38.5 -1.5t-38.5 1.5t-45 9t-49.5 20.5t-45.5 39.5t-40.5 63 t-26.5 94t-10.5 128.5zM1116 338q0 -69 7.5 -113.5t22.5 -64t29.5 -25.5t36.5 -6q16 0 27.5 3t25 14.5t22 33t14.5 61t6 95.5t-6 96.5t-14.5 61.5t-22 33t-25 15t-27.5 3q-22 0 -36 -5.5t-29.5 -25t-23 -63.5t-7.5 -113z" />
<glyph unicode="&#x26;" horiz-adv-x="1288" d="M86 383q0 223 231 336q-83 76 -126.5 148t-43.5 157q0 44 13 89t43 90t73.5 79.5t109 56t144.5 21.5q80 0 147 -21.5t110.5 -56t74 -79.5t43.5 -90.5t13 -90.5q0 -112 -73.5 -201t-193.5 -149l256 -215q51 144 47 274l193 -4q0 -210 -88 -399l248 -209l-103 -142 l-239 199q-157 -196 -414 -196q-113 0 -203 31.5t-146.5 87t-86 128t-29.5 156.5zM289 381q0 -99 70.5 -158t189.5 -59q167 0 272 131l-356 297q-82 -38 -129 -85t-47 -126zM340 1024q0 -33 12 -63.5t38 -59.5t44.5 -46t54.5 -46q-1 0 2.5 -2.5l10.5 -7.5l22 8 q94 38 147.5 90t53.5 129q0 22 -9.5 46t-30 49.5t-61 42t-94.5 16.5q-44 0 -78.5 -11.5t-55 -28.5t-34 -39t-18 -41t-4.5 -36z" />
<glyph unicode="'" horiz-adv-x="493" d="M160 932v409h174v-409h-174z" />
<glyph unicode="(" horiz-adv-x="710" d="M184 662q0 129 16.5 242.5t41 195.5t62.5 154.5t71.5 117.5t77 86.5t70.5 61.5t61 41l75 -127q-66 -46 -107 -94q-194 -224 -194 -678q0 -566 296 -769q3 -3 5 -4l-75 -127q-34 21 -61 41t-70.5 61.5t-77 87t-71.5 118t-62.5 154.5t-41 195.5t-16.5 242.5z" />
<glyph unicode=")" horiz-adv-x="710" d="M51 -111q67 47 110 97q191 225 191 676q0 116 -14 218.5t-34 174t-50 134.5t-55.5 100t-58 70t-48.5 45.5t-35 25.5q-4 3 -6 4l76 127q34 -21 61 -41t70.5 -61t77 -86.5t71 -118t62 -154.5t41 -195.5t16.5 -242.5t-16.5 -242.5t-41 -195.5t-62 -154.5t-71 -118t-77 -87 t-70.5 -61.5t-61 -41z" />
<glyph unicode="*" horiz-adv-x="1132" d="M154 1006l49 135l282 -105v305h152v-305l287 107l55 -137l-287 -105l174 -239l-116 -93l-185 262l-176 -260l-129 88l172 240z" />
<glyph unicode="+" horiz-adv-x="1310" d="M154 551v166h417v420h166v-420h420v-166h-420v-418h-166v418h-417z" />
<glyph unicode="," horiz-adv-x="569" d="M131 125q0 53 37 90t92 37q68 0 113 -52t45 -145q0 -116 -65.5 -192t-166.5 -76l-30 2l-13 90q17 -2 25 -2q58 0 86 38t18 85h-14q-52 0 -89.5 37t-37.5 88z" />
<glyph unicode="-" horiz-adv-x="933" d="M154 467v176h632v-176h-632z" />
<glyph unicode="." horiz-adv-x="579" d="M152 131q0 57 40 97t97 40t97 -40t40 -97t-40 -97t-97 -40t-97 40t-40 97z" />
<glyph unicode="/" horiz-adv-x="972" d="M51 -111l723 1633l148 -68l-725 -1636z" />
<glyph unicode="0" horiz-adv-x="1155" d="M104 670q0 139 20 250t49 182t74.5 123t85 77.5t92 40t84 17t71.5 2.5q31 0 54.5 -1.5t62.5 -8.5t69 -19.5t68.5 -37.5t67.5 -59t58.5 -87t48 -119t30.5 -157.5t12 -200.5t-12 -201t-30.5 -158.5t-48 -119.5t-58.5 -87t-67.5 -59t-68.5 -37.5t-69 -19.5t-62.5 -8.5 t-54.5 -1.5q-40 0 -71.5 2.5t-84 17t-92 40t-85 77t-74.5 122.5t-49 181.5t-20 249.5zM313 672q0 -99 8.5 -177.5t22 -130.5t35.5 -89.5t43 -58t51 -31.5t52.5 -14t54.5 -3t55 2.5t52.5 14t49.5 31.5t41.5 57t34.5 89.5t21 130.5t8 177t-8 177t-21 130t-34.5 89.5t-42 58 t-49.5 32t-52 14.5t-55 3t-54.5 -3t-52.5 -14t-51 -31.5t-43 -57.5t-35.5 -89t-22 -130t-8.5 -177z" />
<glyph unicode="1" horiz-adv-x="815" d="M133 993v131q68 0 122 22.5t81.5 54t45.5 63.5t23 54l5 23h176v-1341h-205v993h-248z" />
<glyph unicode="2" horiz-adv-x="1036" d="M74 0v180q327 306 408 389q169 172 214 279q25 58 25 115q0 19 -0.5 31.5t-5 36.5t-12.5 41t-25 37.5t-40 33.5t-59.5 22t-82.5 9q-62 0 -107 -16.5t-67 -38t-34 -56t-14 -55.5t-2 -52l-196 11q0 26 2.5 52.5t12 67.5t26 76t48.5 73t74.5 64.5t109 44t147.5 17.5 q216 0 323 -108.5t107 -288.5q0 -42 -7.5 -80.5t-27.5 -81.5t-41 -79t-63.5 -86.5t-79 -90.5t-103.5 -105t-119.5 -114.5t-144.5 -134.5h592v-193h-858z" />
<glyph unicode="3" horiz-adv-x="1095" d="M78 401l201 13q-2 -53 9 -94.5t37 -76.5t76.5 -54t122.5 -19q141 0 202.5 55t61.5 156q0 40 -6 68t-27.5 58.5t-59.5 49t-106.5 30t-164.5 9.5v184q103 -2 170 11t100 42.5t44.5 64t11.5 87.5q0 186 -226 186q-121 0 -169 -55t-46 -158l-200 11q-3 77 20 146t71.5 125 t132 89t191.5 33q118 0 204.5 -31t135.5 -85t71.5 -119t22.5 -142q0 -102 -54 -179t-128 -112q39 -14 75 -37t70.5 -59.5t55 -92t20.5 -122.5q0 -79 -26.5 -149t-81 -128t-148.5 -92t-217 -34q-113 0 -202 35.5t-142 95.5t-79 134t-23 156z" />
<glyph unicode="4" horiz-adv-x="1153" d="M59 264v178l594 899h226v-890h194v-187h-194v-264h-205v264h-615zM258 451h416v630z" />
<glyph unicode="5" horiz-adv-x="1079" d="M84 383l201 14q2 -57 18.5 -99.5t39 -66.5t54 -39t59.5 -19.5t60 -4.5q34 0 62 5t62.5 23.5t58 49t39.5 87.5t16 134q0 278 -232 278q-34 0 -64.5 -6.5t-65 -23.5t-61 -53t-38.5 -87l-189 17l72 749h719v-192h-561l-31 -303q96 84 252 84q52 0 102 -10t107 -41t99 -79.5 t70 -134.5t28 -198q0 -234 -118 -360.5t-327 -126.5q-193 0 -308.5 108.5t-123.5 294.5z" />
<glyph unicode="6" horiz-adv-x="1091" d="M106 672q0 690 459 690q202 0 312.5 -104t107.5 -283l-197 -12q0 113 -53 162t-170 49q-250 0 -258 -386q108 123 275 123q28 0 56.5 -2.5t73 -13t82.5 -28t79 -51.5t69.5 -79.5t47 -115.5t18.5 -156q0 -95 -19.5 -172t-49 -126t-72 -86t-81.5 -55.5t-85 -29.5 t-74.5 -13.5t-57.5 -2.5q-73 0 -134.5 16t-106 41t-80 65.5t-58.5 80t-39.5 94.5t-25 99t-13 104.5t-5.5 99t-1 92.5zM324 467q0 -299 249 -299q34 0 61 5t60 23t55 48.5t37 87t15 133.5q0 266 -240 266q-39 0 -76.5 -11.5t-75.5 -38.5t-61.5 -82t-23.5 -132z" />
<glyph unicode="7" horiz-adv-x="1003" d="M63 1149v192h881v-180q-16 -20 -43.5 -58t-101.5 -160t-136 -250t-127 -318t-96 -375h-200q27 175 85.5 357.5t122 318.5t123 247t97.5 169l39 57h-644z" />
<glyph unicode="8" horiz-adv-x="1161" d="M125 383q0 34 6 67.5t24 80t59.5 90t102.5 73.5q-53 28 -89.5 68.5t-53 82.5t-23 74.5t-6.5 61.5q0 26 2 51t12 66t27 74.5t50 71t77.5 63t113.5 42.5t155 17t155 -17t113.5 -42.5t77.5 -63t49.5 -71t26.5 -74.5t12 -65.5t2 -51.5q0 -30 -6 -61t-21.5 -72.5t-52.5 -81.5 t-90 -70q61 -31 102.5 -74.5t59.5 -90t24 -80t6 -66.5q0 -28 -2 -54t-12.5 -69.5t-28 -78.5t-52 -74.5t-81 -66.5t-119.5 -44.5t-163 -17.5t-163 17.5t-119.5 44.5t-81 66.5t-52 74.5t-27.5 78t-12 68.5t-2 53.5zM330 383q0 -20 2.5 -40t17 -55t39 -60t75 -44.5t118.5 -19.5 t119 19.5t75.5 44.5t39 59.5t17.5 54.5t3 39q0 18 -3 38t-17.5 54.5t-39 60t-75.5 45t-119 19.5t-118.5 -19.5t-75 -45t-39 -59.5t-17 -53.5t-2.5 -37.5zM352 987q0 -17 2.5 -36.5t16 -52.5t36.5 -57.5t68.5 -43.5t106.5 -19t106.5 19t68 43.5t36 57.5t16 52.5t2.5 36.5 t-2.5 35t-16 49t-36 53.5t-68 40t-106.5 17.5t-106.5 -17.5t-68.5 -40t-36.5 -53.5t-16 -49t-2.5 -35z" />
<glyph unicode="9" horiz-adv-x="1087" d="M90 877q0 95 19.5 172t49 126t72 86t81 55.5t84.5 29.5t74.5 13.5t57.5 2.5q73 0 134.5 -16t106 -41t80 -65.5t58.5 -80t39.5 -94.5t25 -99t13 -104.5t5.5 -99t1 -92.5q0 -690 -459 -690q-202 0 -312 104t-107 283l196 12q0 -113 53 -162t170 -49q251 0 259 385 q-108 -123 -275 -123q-28 0 -56.5 2.5t-73 13t-82.5 28.5t-78.5 52t-69.5 79.5t-47.5 115.5t-18.5 156zM297 877q0 -267 240 -267q31 0 60.5 5.5t62.5 23.5t57.5 45.5t40.5 76.5t16 113q0 77 -17.5 134t-43 88t-61.5 49.5t-65.5 23.5t-62.5 5q-34 0 -61 -5t-59.5 -23 t-54.5 -48.5t-37 -87t-15 -133.5z" />
<glyph unicode=":" horiz-adv-x="579" d="M152 131q0 57 40 97t97 40t97 -40t40 -97t-40 -97t-97 -40t-97 40t-40 97zM152 801q0 57 40 97t97 40t97 -40t40 -97t-40 -97t-97 -40t-97 40t-40 97z" />
<glyph unicode=";" horiz-adv-x="577" d="M152 125q0 53 37 90t92 37q68 0 112.5 -52t44.5 -145q0 -116 -65 -192t-166 -76l-31 2l-12 90q16 -2 24 -2q58 0 86.5 38.5t18.5 84.5h-14q-52 0 -89.5 37t-37.5 88zM152 801q0 57 40 97t97 40t97 -40t40 -97t-40 -97t-97 -40t-97 40t-40 97z" />
<glyph unicode="&#x3c;" horiz-adv-x="1095" d="M154 547v178l788 451v-179l-633 -362l633 -361v-178z" />
<glyph unicode="=" horiz-adv-x="1157" d="M154 367v165h850v-165h-850zM154 739v166h850v-166h-850z" />
<glyph unicode="&#x3e;" horiz-adv-x="1095" d="M154 96v178l632 361l-632 362v179l788 -451v-178z" />
<glyph unicode="?" horiz-adv-x="1095" d="M145 961q0 28 1.5 53t10 68t23.5 77.5t44.5 74t70 66.5t104 44.5t142.5 17.5q100 0 177.5 -30.5t124 -84.5t70 -123t23.5 -149q0 -63 -19.5 -118.5t-51 -96.5t-69 -79.5t-73.5 -75.5t-65.5 -75t-45 -86.5t-10.5 -103.5h-176q-4 71 11 132t42 105t60.5 82.5t68 73t63 68 t46.5 75t18 87.5v10q0 30 -1 48.5t-10.5 52t-28.5 54t-58 36.5t-94 16q-43 0 -76.5 -10t-54 -22t-35.5 -36t-21.5 -39.5t-10 -45.5t-3.5 -40v-37zM391 113q0 55 37.5 93t91.5 38q55 0 93 -37.5t38 -91.5q0 -55 -37.5 -93t-91.5 -38q-55 0 -93 37.5t-38 91.5z" />
<glyph unicode="@" horiz-adv-x="2142" d="M154 477q0 188 71 357t194 292.5t298 196t375 72.5q189 0 353.5 -60t285 -167.5t189.5 -265t69 -343.5q0 -94 -21 -177t-57.5 -145.5t-85 -112t-105.5 -80.5t-117 -47.5t-120 -16.5q-209 0 -250 145q-109 -119 -291 -119q-133 0 -217 98t-84 246q0 269 131 424.5 t338 155.5q141 0 213 -105l20 86h181l-127 -637q-10 -53 -8.5 -90t26.5 -56t80 -19q43 0 89 14t94.5 48.5t86.5 84.5t62 128.5t24 174.5q0 158 -58 290t-160 221t-241 138t-300 49q-169 0 -319 -61.5t-255 -166.5t-166 -249t-61 -303q0 -158 62 -302.5t166.5 -249 t249 -166.5t302.5 -62q172 0 334 76l80 -115q-194 -98 -414 -98q-186 0 -356 72.5t-293 195.5t-195.5 293t-72.5 356zM825 367q0 -106 46 -146.5t120 -40.5q55 0 100.5 21.5t73.5 54t49.5 76t32 82t17 79t7.5 59.5t1 30q0 192 -172 192q-57 0 -104 -25t-78 -66t-52.5 -95 t-31 -109.5t-9.5 -111.5z" />
<glyph unicode="A" horiz-adv-x="1183" d="M23 0l440 1341h258l440 -1341h-215l-88 279h-534l-86 -279h-215zM383 467h418l-209 670z" />
<glyph unicode="B" horiz-adv-x="1193" d="M156 0v1341h501q84 0 152 -16.5t111.5 -41.5t75.5 -62t48 -70t25.5 -72.5t11.5 -63.5t2 -50q0 -30 -10 -66.5t-29 -76.5t-54.5 -75.5t-80.5 -54.5q60 -21 104 -62.5t65 -87.5t30.5 -83.5t9.5 -65.5q0 -27 -2 -52t-12 -66.5t-26.5 -76t-50 -73t-79 -64.5t-116 -43.5 t-158.5 -17.5h-518zM362 193h312q66 0 113 16t70.5 36.5t36.5 52t15 50.5t2 43q0 25 -2 44.5t-15 51t-36.5 52.5t-70.5 37t-113 16h-312v-399zM362 782h293q59 0 102.5 13.5t65.5 32t35 46t16 47.5t3 44t-3 44t-16 47.5t-35 46.5t-65.5 32.5t-102.5 13.5h-293v-367z" />
<glyph unicode="C" horiz-adv-x="1126" d="M94 670q0 49 2 93t9 99.5t18 103.5t31 100t46.5 94t66 80.5t87.5 64.5t113 41.5t141 15.5q400 0 451 -393l-209 -11q-26 213 -244 213q-56 0 -101.5 -15t-76.5 -40t-54 -64t-36 -79.5t-20.5 -94.5t-10 -100.5t-2.5 -105.5t2.5 -106.5t10 -101t20.5 -94.5t36 -80t54 -64 t76.5 -40.5t101.5 -15.5q121 0 179 60.5t69 172.5l211 -10q-4 -64 -21 -122t-52 -112t-86 -93t-127.5 -62.5t-170.5 -23.5q-76 0 -141 15.5t-113 41.5t-87.5 64.5t-66 80.5t-46.5 94t-31 99.5t-18 103t-9 99t-2 92.5z" />
<glyph unicode="D" horiz-adv-x="1218" d="M156 0v1341h452q94 0 171.5 -24.5t130 -64t92.5 -96t62.5 -114.5t36.5 -127.5t18.5 -125.5t4.5 -117t-4.5 -117.5t-18.5 -126t-36.5 -128t-62.5 -115.5t-92.5 -96.5t-130 -64t-171.5 -24.5h-452zM362 199h246q77 0 133.5 28.5t89 72.5t51.5 109.5t25 126t6 136.5 q0 75 -6 135.5t-25 126t-51.5 109t-89 72t-133.5 28.5h-246v-944z" />
<glyph unicode="E" horiz-adv-x="1062" d="M156 0v1341h794v-198h-588v-359h568v-196h-568v-389h599v-199h-805z" />
<glyph unicode="F" horiz-adv-x="1032" d="M156 0v1341h794v-198h-588v-359h568v-196h-568v-588h-206z" />
<glyph unicode="G" horiz-adv-x="1208" d="M94 670q0 49 2 93t9 99.5t18 103.5t31 100t46.5 94t66 80.5t87.5 64.5t113 41.5t141 15.5q91 0 164.5 -21t123 -56.5t85.5 -87t55 -107t27 -121.5q-35 -1 -104.5 -5.5t-104.5 -5.5q-26 213 -248 213q-57 0 -102.5 -15t-76.5 -40t-53.5 -64.5t-35.5 -79.5t-20.5 -94 t-10 -100.5t-2.5 -105.5q0 -68 4.5 -124t16 -116t34 -104.5t55.5 -81.5t84 -56.5t117 -19.5q136 0 204.5 91t68.5 235v10h-332v190h518v-696h-164l-12 109q-104 -129 -281 -129q-76 0 -141.5 15.5t-114 41.5t-88.5 64.5t-67.5 80.5t-48.5 93.5t-32.5 99.5t-19 103t-10 99.5 t-2.5 92.5z" />
<glyph unicode="H" horiz-adv-x="1212" d="M156 0v1341h206v-557h488v557h207v-1341h-207v588h-488v-588h-206z" />
<glyph unicode="I" horiz-adv-x="520" d="M156 0v1341h209v-1341h-209z" />
<glyph unicode="J" horiz-adv-x="950" d="M55 393l205 10q2 -61 15 -106t30.5 -69.5t42.5 -39t46 -18.5t46 -4q34 0 60.5 9.5t44 23t29.5 38.5t18.5 47t10.5 56.5t4.5 60t0.5 64.5v876h209v-876q0 -36 -0.5 -61t-4 -67t-10 -72t-19.5 -70t-31.5 -68t-46.5 -57.5t-63.5 -48t-84.5 -30t-108 -11.5q-26 0 -50.5 2 t-65.5 11t-75.5 25t-73 47t-65 73t-45 108t-19.5 147z" />
<glyph unicode="K" horiz-adv-x="1148" d="M156 0v1341h206v-624l484 624h250l-439 -548l480 -793h-244l-371 625l-160 -201v-424h-206z" />
<glyph unicode="L" horiz-adv-x="1001" d="M156 0v1341h206v-1142h568v-199h-774z" />
<glyph unicode="M" horiz-adv-x="1581" d="M156 0v1341h288l347 -993l346 993h288v-1341h-206v1030l-318 -893h-221l-318 893v-1030h-206z" />
<glyph unicode="N" horiz-adv-x="1253" d="M156 0v1341h223l512 -987v987h207v-1341h-224l-512 985v-985h-206z" />
<glyph unicode="O" horiz-adv-x="1214" d="M94 670q0 49 2 93t9 99.5t18 103.5t31 100t46.5 94t66 80.5t87.5 64.5t113 41.5t141 15.5q97 0 175.5 -25.5t131 -65.5t91.5 -99.5t60.5 -118.5t34 -132t16 -129.5t3.5 -121.5t-3.5 -121t-16 -129t-34 -131.5t-60.5 -118t-91.5 -99.5t-131 -65.5t-175.5 -25.5 q-76 0 -141 15.5t-113 41.5t-87.5 64.5t-66 80.5t-46.5 94t-31 99.5t-18 103t-9 99t-2 92.5zM305 672q0 -59 2.5 -106.5t10 -101t20.5 -94.5t36 -80t54 -64t76.5 -40.5t101.5 -15.5q66 0 116.5 19t83 56.5t54 81.5t31.5 105.5t14 115.5t4 124q0 59 -2.5 105.5t-10 100.5 t-21 94.5t-36.5 79.5t-54 64t-76.5 40t-102.5 15q-56 0 -101.5 -15t-76.5 -40t-54 -64t-36 -79.5t-20.5 -94.5t-10 -100.5t-2.5 -105.5z" />
<glyph unicode="P" horiz-adv-x="1132" d="M156 0v1341h479q216 0 322 -99t106 -271q0 -82 -25.5 -150t-76 -121t-134 -82.5t-192.5 -29.5h-273v-588h-206zM362 784h273q59 0 102 14t65.5 33t35 47.5t15.5 48.5t3 44t-3 42.5t-15.5 44.5t-35 43t-65.5 29.5t-102 12.5h-273v-359z" />
<glyph unicode="Q" horiz-adv-x="1220" d="M94 670q0 65 3.5 121.5t16 129.5t34 132t60.5 118.5t91.5 99.5t131.5 65.5t177 25.5q97 0 175.5 -25.5t131 -65.5t91.5 -99.5t60.5 -118.5t34 -132t16 -129.5t3.5 -121.5q0 -341 -121 -512l158 -162l-143 -131l-156 170q-104 -55 -250 -55q-98 0 -177 25.5t-131.5 65.5 t-91.5 99.5t-60.5 118t-34 131.5t-16 129t-3.5 121zM305 672q0 -59 2.5 -106.5t10 -101.5t20.5 -95t36 -80.5t54 -64.5t76.5 -40.5t101.5 -15.5q63 0 113 18l-154 164l140 129l149 -166q55 112 55 359q0 59 -2.5 106t-10 101t-21 94.5t-36.5 80t-54 64.5t-76.5 40.5 t-102.5 15.5q-56 0 -101.5 -15.5t-76.5 -40.5t-54 -64.5t-36 -80t-20.5 -94.5t-10 -101t-2.5 -106z" />
<glyph unicode="R" horiz-adv-x="1198" d="M156 0v1341h499q216 0 322 -99t106 -271q0 -128 -61 -222.5t-184 -134.5l288 -614h-233l-260 588h-271v-588h-206zM362 784h293q222 0 222 187q0 24 -3 43t-16 44.5t-35.5 42.5t-65.5 29.5t-102 12.5h-293v-359z" />
<glyph unicode="S" horiz-adv-x="1097" d="M76 401l209 17q0 -111 63.5 -180.5t200.5 -69.5q76 0 130.5 18t81.5 48t38.5 61t11.5 65q0 65 -42.5 112.5t-139.5 80.5l-187 61q-164 56 -248.5 149.5t-84.5 235.5q0 45 13 92t45.5 96.5t81.5 87.5t128 62.5t178 24.5t177 -24t127 -62.5t81 -91t45 -105.5t14 -110 l-204 -11q0 43 -11 79t-36 68t-74.5 50.5t-118.5 18.5q-60 0 -105 -13t-69.5 -31.5t-39 -43.5t-18.5 -44t-4 -38q0 -42 11.5 -71.5t37 -50.5t52.5 -33.5t72 -27.5l176 -59q181 -60 267.5 -156.5t86.5 -238.5q0 -178 -127 -282.5t-348 -104.5q-119 0 -210.5 34t-147 93.5 t-83.5 133.5t-30 160z" />
<glyph unicode="T" horiz-adv-x="1087" d="M63 1143v198h963v-198h-377v-1143h-207v1143h-379z" />
<glyph unicode="U" horiz-adv-x="1173" d="M133 463v878h207v-878q0 -29 1 -49.5t6 -54t14 -57t27.5 -50.5t43.5 -44t64.5 -28.5t89.5 -11.5t90 11.5t65.5 28.5t44 44t27.5 50.5t14 57t6 54t1 49.5v878h206v-878q0 -35 -1.5 -62t-10.5 -80.5t-25 -94t-50 -89.5t-80.5 -81t-120.5 -54t-166 -22t-165.5 22t-119.5 54 t-80 80.5t-50.5 89.5t-25.5 94t-10.5 81t-1.5 62z" />
<glyph unicode="V" horiz-adv-x="1120" d="M23 1341h217l321 -1132l324 1132h213l-402 -1341h-270z" />
<glyph unicode="W" horiz-adv-x="1753" d="M23 1341h219l258 -1083l266 1083h223l260 -1065l258 1065h224l-347 -1341h-241l-266 1053l-269 -1053h-237z" />
<glyph unicode="X" horiz-adv-x="1126" d="M29 0l411 696l-381 645h236l268 -469l268 469h240l-387 -645l416 -696h-240l-297 516l-295 -516h-239z" />
<glyph unicode="Y" horiz-adv-x="1083" d="M12 1341h236l297 -579l295 579h233l-426 -780v-561h-207v561z" />
<glyph unicode="Z" horiz-adv-x="1034" d="M51 0v180l664 963h-625v198h862v-180l-661 -962h682v-199h-922z" />
<glyph unicode="[" horiz-adv-x="634" d="M154 -279v1887h409v-158h-248v-1569h248v-160h-409z" />
<glyph unicode="\" horiz-adv-x="1134" d="M127 1454l147 68l723 -1633l-145 -71z" />
<glyph unicode="]" horiz-adv-x="634" d="M72 -119h247v1567h-247v160h409v-1887h-409v160z" />
<glyph unicode="^" horiz-adv-x="1216" d="M154 553l368 788h172l369 -788h-172l-283 604l-282 -604h-172z" />
<glyph unicode="_" horiz-adv-x="1259" d="M0 -272h1260v-158h-1260v158z" />
<glyph unicode="`" horiz-adv-x="718" d="M154 1362h227l184 -293h-207z" />
<glyph unicode="a" horiz-adv-x="946" d="M74 264q0 214 293 277l280 59v12q0 100 -42 136t-140 36q-97 0 -137 -30.5t-49 -110.5l-183 16q30 293 367 293q91 0 158.5 -19.5t107.5 -50.5t64.5 -76.5t32.5 -90t8 -97.5v-618h-172l-9 92q-97 -112 -258 -112q-147 0 -234 75.5t-87 208.5zM262 268q0 -63 38 -93 t118 -30q93 0 161 56t68 168v69q-141 -26 -241 -51q-144 -33 -144 -119z" />
<glyph unicode="b" horiz-adv-x="1024" d="M123 0v1341h194v-501q91 112 248 112q26 0 50 -2t64 -13t73 -29.5t69.5 -55t62 -86t42 -126.5t16.5 -173t-16.5 -173.5t-42 -127.5t-62 -86.5t-69.5 -55t-73 -29.5t-64 -13t-50 -2q-157 0 -248 112l-6 -92h-188zM305 467q0 -313 227 -313q32 0 58 5t57 24t52 51.5t35 92 t14 140.5t-14 140t-35 91t-52 51t-57 24t-58 5q-227 0 -227 -311z" />
<glyph unicode="c" horiz-adv-x="944" d="M82 465q0 96 18.5 173.5t46 127.5t68.5 86.5t77.5 55t81 29.5t71 13t55.5 2q25 0 49 -2t60 -9t67.5 -19t65.5 -34.5t59.5 -52.5t45 -76.5t25.5 -103.5l-192 -12q-19 137 -180 137q-32 0 -59.5 -5t-60 -24.5t-55 -51.5t-38 -91.5t-15.5 -140.5t15 -141t37.5 -92.5t55 -52 t59.5 -24.5t59 -5q30 0 58 6.5t58 21.5t51 45.5t27 73.5l191 -12q-8 -57 -27.5 -103.5t-45 -77.5t-59 -54.5t-65 -37t-67 -21.5t-61 -10.5t-50.5 -2.5q-22 0 -42 1t-52.5 6.5t-61.5 14.5t-63.5 27t-62.5 42t-56 61.5t-46.5 83.5t-30 110t-11.5 139z" />
<glyph unicode="d" horiz-adv-x="1024" d="M82 467q0 96 16.5 173t42 126.5t62 86t69.5 55t73 29.5t64 13t50 2q157 0 248 -112v501h194v-1341h-188l-6 92q-94 -112 -248 -112q-26 0 -50 2t-64 13t-73 29.5t-69.5 55t-62 86.5t-42 127.5t-16.5 173.5zM276 467q0 -81 14 -140.5t35 -92t52 -51.5t57 -24t58 -5 q227 0 227 313q0 311 -227 311q-26 0 -48 -4t-48.5 -14t-46.5 -32t-37 -55t-26.5 -85.5t-9.5 -120.5z" />
<glyph unicode="e" horiz-adv-x="999" d="M82 465q0 95 19 172t48.5 126.5t71.5 86.5t80.5 56t84 30t73.5 13.5t57 2.5q79 0 142.5 -19.5t105 -52.5t72.5 -78t45.5 -95.5t24.5 -104.5q8 -46 8 -90v-14q-2 -52 -3 -99h-637q7 -128 70.5 -187.5t167.5 -59.5q174 0 199 147l190 -12q-13 -73 -44.5 -129t-70.5 -89 t-88.5 -54t-93 -28t-88.5 -7q-22 0 -42 1t-53.5 6.5t-62.5 14.5t-64.5 27t-64.5 42t-57 61.5t-47 83.5t-31 110t-12 139zM279 565h434v7q0 53 -15 93q-16 43 -45 67t-63.5 36t-73.5 12q-104 0 -163.5 -55t-73.5 -160z" />
<glyph unicode="f" horiz-adv-x="643" d="M33 760v172h168v127q0 60 11 106t37.5 85t70 59t108.5 29q25 4 54 4q44 0 98 -9v-182q-36 3 -64 3q-60 0 -84 -14q-37 -22 -37 -93v-115h199v-172h-199v-760h-194v760h-168z" />
<glyph unicode="g" horiz-adv-x="1024" d="M82 467q0 96 16.5 173t42 126.5t62 86t69.5 55t73 29.5t64 13t50 2q165 0 254 -116l6 96h182v-899q0 -463 -399 -463q-88 0 -157 18.5t-112 47t-74 70.5t-45.5 82t-23.5 89l201 12q10 -67 57 -106t156 -39q33 0 61 6.5t48 17t36 29t26.5 35.5t18 43.5t11 47t5.5 52 t2.5 52t0.5 53.5v22q-91 -122 -254 -122q-26 0 -50 2t-64 13t-73 29.5t-69.5 55t-62 86.5t-42 127.5t-16.5 173.5zM276 467q0 -81 14 -140.5t35 -92t52 -51.5t57 -24t58 -5q227 0 227 313q0 311 -227 311q-26 0 -48 -4t-48.5 -14t-46.5 -32t-37 -55t-26.5 -85.5t-9.5 -120.5 z" />
<glyph unicode="h" d="M123 0v1341h194v-505q81 116 234 116q31 0 56 -2t62.5 -11t66.5 -24t60.5 -44t52.5 -69t34.5 -101.5t13.5 -137.5v-563h-195v563q0 59 -13 101t-30.5 63.5t-46.5 33.5t-50 14.5t-52 2.5q-16 0 -34 -2.5t-48.5 -14.5t-53 -33t-40 -64t-17.5 -101v-563h-194z" />
<glyph unicode="i" horiz-adv-x="440" d="M88 1223q0 55 38.5 94t92.5 39q55 0 94 -38.5t39 -92.5q0 -55 -38.5 -94t-92.5 -39q-55 0 -94 38.5t-39 92.5zM123 0v932h194v-932h-194z" />
<glyph unicode="j" horiz-adv-x="440" d="M-63 -227q35 -3 63 -3q61 0 86 15q37 22 37 92v1055h194v-1067q0 -60 -11 -106.5t-37.5 -85t-70 -59t-108.5 -29.5q-25 -4 -54 -4q-45 0 -99 9v183zM84 1223q0 55 38.5 94t92.5 39q55 0 94 -38.5t39 -92.5q0 -55 -38.5 -94t-92.5 -39q-55 0 -94 38.5t-39 92.5z" />
<glyph unicode="k" horiz-adv-x="933" d="M123 0v1341h194v-858l347 449h235l-315 -389l352 -543h-227l-246 393l-146 -180v-213h-194z" />
<glyph unicode="l" horiz-adv-x="440" d="M123 0v1341h194v-1341h-194z" />
<glyph unicode="m" horiz-adv-x="1441" d="M123 0v932h188l6 -92q80 112 213 112q169 0 242 -123q76 123 244 123q313 0 313 -321v-631h-194v631q0 39 -12.5 68t-29.5 43.5t-40.5 23t-38.5 10.5t-29 2q-15 0 -31 -2t-41 -10.5t-43.5 -23t-32.5 -43.5t-14 -68v-631h-194v631q0 39 -12.5 68t-29.5 43.5t-40.5 23 t-38.5 10.5t-29 2q-15 0 -31 -2t-41 -10t-43.5 -21.5t-32.5 -40.5t-14 -63v-641h-194z" />
<glyph unicode="n" d="M123 0v932h188l8 -92q82 112 232 112q31 0 56 -2t62.5 -11t66.5 -24t60.5 -44t52.5 -69t34.5 -101.5t13.5 -137.5v-563h-195v563q0 59 -13 101t-30.5 63.5t-46.5 33.5t-50 14.5t-52 2.5q-16 0 -34 -2t-48.5 -14t-53 -31.5t-40 -59t-17.5 -93.5v-578h-194z" />
<glyph unicode="o" horiz-adv-x="1015" d="M82 465q0 96 19 173.5t47.5 127.5t70 86.5t78.5 55t82.5 29.5t72.5 13t56 2q22 0 42 -1t52.5 -6.5t61.5 -14.5t63.5 -27t62.5 -42t56 -61.5t46.5 -83.5t30 -110t11.5 -139q0 -96 -19 -173.5t-47.5 -127.5t-70 -86.5t-78.5 -55t-82.5 -29.5t-72.5 -13t-56 -2q-22 0 -42 1 t-52.5 6.5t-61.5 14.5t-63.5 27t-62.5 42t-56 61.5t-46.5 83.5t-30 110t-11.5 139zM272 467q0 -315 236 -315q27 0 50 4t51.5 14t51 32.5t42 55.5t30 86t10.5 121q0 315 -235 315q-236 0 -236 -313z" />
<glyph unicode="p" horiz-adv-x="1024" d="M123 -410v1342h188l6 -92q91 112 248 112q26 0 50 -2t64 -13t73 -29.5t69.5 -55t62 -86t42 -126.5t16.5 -173t-16.5 -173.5t-42 -127.5t-62 -86.5t-69.5 -55t-73 -29.5t-64 -13t-50 -2q-92 0 -150 23t-98 89v-502h-194zM305 467q0 -313 227 -313q32 0 58 5t57 24t52 51.5 t35 92t14 140.5t-14 140t-35 91t-52 51t-57 24t-58 5q-227 0 -227 -311z" />
<glyph unicode="q" horiz-adv-x="1024" d="M82 467q0 96 16.5 173t42 126.5t62 86t69.5 55t73 29.5t64 13t50 2q157 0 248 -112l6 92h188v-1342h-194v502q-94 -112 -248 -112q-26 0 -50 2t-64 13t-73 29.5t-69.5 55t-62 86.5t-42 127.5t-16.5 173.5zM276 467q0 -81 14 -140.5t35 -92t52 -51.5t57 -24t58 -5 q227 0 227 313q0 311 -227 311q-26 0 -48 -4t-48.5 -14t-46.5 -32t-37 -55t-26.5 -85.5t-9.5 -120.5z" />
<glyph unicode="r" horiz-adv-x="651" d="M123 0v932h188l6 -115q82 135 262 135q20 0 42 -2v-202q-25 3 -50 3q-29 0 -56 -4q-51 -7 -97 -29.5t-73.5 -71t-27.5 -118.5v-528h-194z" />
<glyph unicode="s" horiz-adv-x="880" d="M72 287l184 10q0 -17 1.5 -30t11 -37.5t27 -40.5t54.5 -29t88 -13q49 0 85.5 10t55 23t29.5 30t13 27.5t2 18.5q0 18 -4.5 31t-18.5 30t-46.5 31.5t-82.5 26.5l-139 33q-65 15 -111.5 43t-70 55.5t-36.5 64.5t-15.5 60t-2.5 51q0 27 6 56.5t28 69.5t57 70.5t101.5 52 t153.5 21.5q71 0 128 -13.5t93 -33.5t62.5 -49.5t39.5 -55.5t20 -58t8.5 -49.5t1.5 -37.5l-185 -10q0 14 -1.5 26t-10.5 35t-25 38t-50 27.5t-81 12.5q-45 0 -77.5 -9t-48 -20.5t-24 -27.5t-10 -24.5t-1.5 -16.5q0 -45 24.5 -69t102.5 -42l129 -28q74 -16 127.5 -45 t80 -57.5t41.5 -67.5t18 -63t3 -56q0 -27 -6 -56.5t-29 -71t-60 -73t-108.5 -54.5t-165.5 -23q-71 0 -129 13t-95 33t-65 49t-42 55.5t-22.5 59t-10.5 53.5t-2 44z" />
<glyph unicode="t" horiz-adv-x="663" d="M35 760v172h168v317l194 11v-328h199v-172h-199v-479q0 -70 37 -91q26 -15 88 -14q27 0 60 2v-184q-57 -7 -104 -7q-44 0 -80 6q-76 13 -118 52t-59.5 93t-17.5 130v492h-168z" />
<glyph unicode="u" d="M113 369v563h194v-563q0 -59 13 -101t30.5 -63.5t46.5 -33.5t50.5 -14.5t52.5 -2.5q13 0 27 2t38 8t44.5 21t40 37t31 60t11.5 87v563h195v-932h-189l-6 92q-83 -112 -233 -112q-31 0 -56 2t-62.5 11t-66.5 24t-60.5 44t-52.5 69t-34.5 101.5t-13.5 137.5z" />
<glyph unicode="v" horiz-adv-x="860" d="M8 932h203l217 -735l221 735h203l-303 -932h-236z" />
<glyph unicode="w" horiz-adv-x="1349" d="M16 932h205l156 -709l174 709h248l172 -709l157 709h205l-235 -932h-226l-198 758l-197 -758h-225z" />
<glyph unicode="x" horiz-adv-x="925" d="M31 0l315 477l-295 455h225l185 -303l190 303h230l-308 -451l322 -481h-227l-207 328l-201 -328h-229z" />
<glyph unicode="y" horiz-adv-x="864" d="M12 932h203l217 -733l221 733h203l-348 -1075q-18 -55 -34 -94.5t-37 -73.5t-44.5 -54t-55.5 -37t-70.5 -21t-88.5 -7h-25q-41 0 -87 6v176q49 -4 84.5 -4t62.5 3t45.5 13t31 21.5t22.5 33.5t17.5 43t17.5 55q5 16 7 24l19 59h-56z" />
<glyph unicode="z" horiz-adv-x="819" d="M61 0v164l457 592h-440v176h661v-164l-456 -592h475v-176h-697z" />
<glyph unicode="{" horiz-adv-x="702" d="M154 592v143q60 2 84 25.5t24 93.5v322q0 116 38 205t122.5 144t208.5 56v-158q-63 -3 -104 -21.5t-62 -53.5t-29 -76t-8 -101v-319q0 -29 -4.5 -58t-14.5 -58t-30 -48.5t-47 -23.5q50 -7 73 -81.5t23 -148.5v-319q0 -60 8 -101t29 -76t62 -53.5t104 -21.5v-158 q-93 1 -165 32.5t-116 87t-66 128t-22 158.5v321q0 157 -108 160z" />
<glyph unicode="|" horiz-adv-x="479" d="M156 -164v1669h168v-1669h-168z" />
<glyph unicode="}" horiz-adv-x="702" d="M72 -137q63 3 104 21.5t62 53.5t28.5 76t7.5 101v319q0 73 23.5 148t73.5 82q-51 7 -74 64.5t-23 123.5v319q0 60 -7.5 101t-28.5 76t-62 53.5t-104 21.5v158q124 -1 208.5 -56t122 -144t37.5 -205v-322q0 -70 24.5 -93.5t84.5 -25.5v-143q-109 -3 -109 -160v-321 q0 -116 -37.5 -205t-122 -144.5t-208.5 -56.5v158z" />
<glyph unicode="~" horiz-adv-x="1257" d="M137 498q88 202 318 202q78 0 209 -51q5 -2 29.5 -11.5t32.5 -12t25.5 -8t29.5 -7.5t24 -2q50 0 87 30t50 73l166 -54q-85 -202 -315 -202q-78 0 -207 53q-90 39 -144 39q-50 0 -87 -30t-50 -73z" />
<glyph unicode="&#xa1;" horiz-adv-x="530" d="M135 821q0 55 37.5 93t91.5 38q55 0 93 -37.5t38 -91.5q0 -55 -37.5 -93t-91.5 -38q-55 0 -93 37.5t-38 91.5zM164 -406v1002h209v-1002h-209z" />
<glyph unicode="&#xa2;" horiz-adv-x="954" d="M82 465q0 107 22.5 191t56 134t81 85t88 49.5t86.5 21.5v150h159v-150q48 -6 91.5 -21.5t89 -47t76.5 -88.5t40 -134l-192 -12q-19 137 -180 137q-32 0 -59.5 -5t-60 -24.5t-55 -51.5t-38 -91.5t-15.5 -140.5t15 -141t37.5 -92.5t55 -52t59.5 -24.5t59 -5q30 0 58 6.5 t58 21.5t51 45.5t27 73.5l191 -12q-9 -65 -33.5 -116.5t-55.5 -83t-71 -54.5t-75 -33.5t-73 -15.5v-148h-159v152q-37 6 -72 17.5t-74.5 33.5t-71.5 58.5t-59 85.5t-42 121.5t-15 160.5z" />
<glyph unicode="&#xa3;" horiz-adv-x="1007" d="M82 0v184h45q60 0 84.5 24t24.5 95v275h-154v157h154v299q0 20 1 38t8.5 51t20.5 60t39.5 57.5t62 51.5t92.5 35t128 14t128 -14t92.5 -35t62 -51.5t39.5 -57.5t20.5 -60t8.5 -51t1 -38l-205 -10q0 14 -1 26t-9 35t-22.5 38t-44 27.5t-70.5 12.5q-39 0 -68 -11.5 t-43.5 -27t-23 -37t-10 -35t-1.5 -28.5v-289h293v-157h-293v-226q0 -40 -7.5 -74t-30 -62.5t-58.5 -33.5h610v-182h-874z" />
<glyph unicode="&#xa5;" horiz-adv-x="1083" d="M16 1341h232l297 -575l295 575h229l-336 -606h219v-157h-305v-168h305v-158h-305v-252h-207v252h-338v158h338v168h-338v157h250z" />
<glyph unicode="&#xa6;" horiz-adv-x="479" d="M154 -164v705h172v-705h-172zM154 801v704h172v-704h-172z" />
<glyph unicode="&#xa7;" horiz-adv-x="1128" d="M109 516q0 108 57.5 196t155.5 134q-103 76 -103 229q0 24 5 49t17 60t38.5 65t64.5 57t100 42.5t140 15.5q75 0 135.5 -14.5t98.5 -35.5t66 -52.5t42 -58.5t21.5 -61t9 -53t1.5 -40l-194 -11q0 15 -1.5 27t-11 36t-27 40.5t-54 29.5t-86.5 13q-48 0 -83 -10t-52 -22 t-26.5 -29.5t-11 -26t-1.5 -17.5q0 -41 27 -64t112 -52l182 -64q55 -19 100 -46t74.5 -55t51.5 -61.5t33.5 -62t18.5 -60t9 -53t2 -43.5v-2q0 -103 -54.5 -190.5t-146.5 -135.5q51 -27 84.5 -61.5t47.5 -72.5t18 -65t4 -61q0 -29 -6.5 -60.5t-31.5 -76t-65 -78.5t-115.5 -58 t-174.5 -24q-76 0 -137.5 13.5t-101 35t-69.5 52t-45.5 59t-25 63t-11.5 57t-2 46.5l197 10q0 -17 1.5 -30.5t12 -38.5t29 -42t58 -30.5t94.5 -13.5q52 0 91.5 10.5t58.5 24t30.5 32t13.5 28.5t2 19q0 17 -5 31t-20.5 32t-50 36.5t-88.5 35.5l-184 62q-138 44 -228.5 146.5 t-90.5 244.5zM309 518q0 -107 90 -168q131 -67 207 -67q89 0 150 68.5t61 162.5q0 154 -184 213q-65 21 -111 21q-90 0 -151.5 -68t-61.5 -162z" />
<glyph unicode="&#xa8;" horiz-adv-x="944" d="M160 1223q0 51 35.5 87t85.5 36q49 0 84.5 -35.5t35.5 -85.5q0 -51 -35 -87t-83 -36q-51 0 -87 35.5t-36 85.5zM543 1223q0 51 35.5 87t83.5 36q51 0 86.5 -35.5t35.5 -85.5q0 -51 -35 -87t-85 -36t-85.5 36t-35.5 85z" />
<glyph unicode="&#xa9;" horiz-adv-x="1720" d="M115 653q0 152 59 290t158.5 238t237.5 159t290 59q203 0 374.5 -100t271.5 -271.5t100 -374.5q0 -152 -59 -290t-159 -237.5t-238 -158.5t-290 -59t-290 59t-237.5 158.5t-158.5 237.5t-59 290zM236 653q0 -127 49.5 -242.5t133 -199t199 -133t242.5 -49.5 q169 0 313 83.5t228 227.5t84 313t-84 313t-228 228t-313 84t-313 -84t-227.5 -228t-83.5 -313zM446 651q0 96 18.5 174t46 127.5t68.5 86.5t77.5 55.5t80.5 29.5t71 13t56 2q25 0 49 -2t60.5 -9t67.5 -19t65.5 -34.5t60 -52.5t45 -76.5t25.5 -103.5l-193 -13 q-19 138 -180 138q-32 0 -59.5 -5.5t-60 -24.5t-54.5 -51.5t-37.5 -92t-15.5 -140.5t15 -141t37 -92.5t54.5 -52t59.5 -24.5t59 -5q41 0 78.5 10.5t73 45.5t43.5 91l190 -12q-8 -57 -27.5 -103.5t-45 -77.5t-59 -54.5t-65 -37t-67 -21.5t-61 -10.5t-50.5 -2.5q-22 0 -42 1 t-52.5 6.5t-61.5 14.5t-63.5 27t-62.5 42t-56 61.5t-46.5 83.5t-30 110t-11.5 139z" />
<glyph unicode="&#xaa;" horiz-adv-x="645" d="M63 938q0 69 49 113t128 63l172 39q-1 57 -26 77.5t-81 20.5q-47 0 -72 -21.5t-36 -64.5l-125 13q34 184 231 184q71 0 119 -17.5t71.5 -49.5t32.5 -66t9 -78v-379h-117l-2 33q-70 -45 -150 -45q-91 0 -147 47t-56 131zM193 942q0 -72 86 -72q55 0 94 32.5t39 98.5v41 q-125 -30 -144 -34q-75 -17 -75 -66z" />
<glyph unicode="&#xab;" horiz-adv-x="1189" d="M174 418v121l361 376l102 -108l-315 -330l315 -327l-102 -109zM584 418v121l360 376l103 -108l-316 -330l316 -327l-103 -109z" />
<glyph unicode="&#xac;" horiz-adv-x="1310" d="M154 551v166h1003v-584h-166v418h-837z" />
<glyph unicode="&#xad;" horiz-adv-x="933" d="M154 467v176h632v-176h-632z" />
<glyph unicode="&#xae;" horiz-adv-x="1720" d="M115 653q0 152 59 290t158.5 238t237.5 159t290 59q203 0 374.5 -100t271.5 -271.5t100 -374.5q0 -152 -59 -290t-159 -237.5t-238 -158.5t-290 -59t-290 59t-237.5 158.5t-158.5 237.5t-59 290zM236 653q0 -127 49.5 -242.5t133 -199t199 -133t242.5 -49.5 q169 0 313 83.5t228 227.5t84 313t-84 313t-228 228t-313 84t-313 -84t-227.5 -228t-83.5 -313zM575 193v925h277q346 0 346 -278q0 -187 -162 -256l181 -391h-197l-154 358h-114v-358h-177zM752 723h100q93 0 130.5 34.5t37.5 82.5q0 108 -168 108h-100v-225z" />
<glyph unicode="&#xaf;" horiz-adv-x="952" d="M172 1141v149h608v-149h-608z" />
<glyph unicode="&#xb0;" horiz-adv-x="884" d="M154 1147q0 120 84 204.5t204 84.5t204.5 -84.5t84.5 -204.5t-84.5 -204.5t-204.5 -84.5t-204 84.5t-84 204.5zM270 1147q0 -71 51 -121.5t121 -50.5t121 50.5t51 121.5t-51 121.5t-121 50.5t-121 -50.5t-51 -121.5z" />
<glyph unicode="&#xb1;" horiz-adv-x="1310" d="M154 0h1003v-160h-1003v160zM154 551v166h417v420h166v-420h420v-166h-420v-418h-166v418h-417z" />
<glyph unicode="&#xb2;" horiz-adv-x="628" d="M74 662v110l59 55q150 142 203 205.5t53 116.5q0 15 -2 26t-10 27.5t-29 25.5t-53 9q-89 0 -94 -88l-127 4q1 25 6 48.5t19.5 54t37 53t63.5 38t95 15.5q115 0 171 -57.5t56 -153.5q0 -77 -56.5 -151.5t-203.5 -211.5h262v-126h-450z" />
<glyph unicode="&#xb3;" horiz-adv-x="657" d="M78 862l129 12q3 -102 104 -102q115 0 115 88q0 22 -4.5 35.5t-19.5 27.5t-48.5 20t-85.5 5v123q61 -1 92 10t38.5 27t7.5 47q0 76 -95 76q-85 0 -88 -84l-129 2q2 89 56.5 148t160.5 59q120 0 175 -57t55 -144q0 -81 -70 -139q37 -20 62.5 -59.5t25.5 -96.5 q0 -89 -61 -151t-187 -62q-109 0 -169.5 62t-63.5 153z" />
<glyph unicode="&#xb4;" horiz-adv-x="718" d="M154 1069l184 293h227l-205 -293h-206z" />
<glyph unicode="&#xb5;" horiz-adv-x="1056" d="M123 -410v1342h194v-563q0 -215 215 -215q22 0 44 3t53 16t54 34.5t39.5 63.5t16.5 98v563h195v-932h-189l-6 92q-35 -51 -91 -81.5t-120 -30.5q-142 0 -211 102v-492h-194z" />
<glyph unicode="&#xb6;" horiz-adv-x="1132" d="M156 971q0 172 106 271t322 99h127v-1341h-207v592q-175 19 -261.5 121.5t-86.5 257.5zM362 971q0 -149 142 -180v344q-142 -27 -142 -164zM856 0v1341h207v-1341h-207z" />
<glyph unicode="&#xb7;" horiz-adv-x="579" d="M154 684q0 57 39.5 97t95.5 40q57 0 97 -39.5t40 -95.5q0 -57 -39.5 -97t-95.5 -40q-57 0 -97 39.5t-40 95.5z" />
<glyph unicode="&#xb8;" horiz-adv-x="575" d="M137 -338l25 131q39 -14 82 -14q34 0 56 16.5t22 50.5q0 40 -44.5 85t-103.5 69h203q4 -2 10.5 -6.5t23 -20t29 -33.5t23 -48.5t10.5 -63.5q0 -90 -53 -140t-139 -50q-34 0 -70 6t-55 12z" />
<glyph unicode="&#xb9;" horiz-adv-x="618" d="M133 1139v96q34 0 61 11t41 26.5t23 31t12 26.5l2 11h117v-679h-133v477h-123z" />
<glyph unicode="&#xba;" horiz-adv-x="690" d="M76 1059q0 60 11.5 108.5t29 79t43.5 53.5t49 34.5t51.5 18t45.5 8t36 1.5t36 -1.5t45.5 -8t52 -18t49.5 -34t44 -53t29.5 -79t11.5 -107.5q0 -83 -22.5 -144t-52 -90.5t-71.5 -47t-67.5 -20.5t-54.5 -3q-19 0 -36 1.5t-45.5 8t-51.5 18t-49 34.5t-43.5 53.5t-29 79 t-11.5 108.5zM207 1061q0 -189 135 -189q137 0 137 187q0 184 -137 184q-135 0 -135 -182z" />
<glyph unicode="&#xbb;" horiz-adv-x="1210" d="M143 150l314 327l-314 330l103 108l360 -376v-121l-360 -377zM573 150l314 327l-314 330l103 108l360 -376v-121l-360 -377z" />
<glyph unicode="&#xbc;" horiz-adv-x="1425" d="M133 1139v96q34 0 61 11t41 26.5t23 31t12 26.5l2 11h117v-679h-133v477h-123zM299 10l610 1374l127 -55l-610 -1370zM748 127v109l299 450h133v-434h94v-125h-94v-129h-133v129h-299zM877 252h170v258z" />
<glyph unicode="&#xbd;" horiz-adv-x="1429" d="M133 1139v96q34 0 61 11t41 26.5t23 31t12 26.5l2 11h117v-679h-133v477h-123zM301 10l610 1374l127 -55l-610 -1370zM879 -2v111l59 55q151 142 203.5 205t52.5 116q0 15 -2 26t-10 27.5t-29 25.5t-53 9q-89 0 -94 -88l-127 4q1 25 6 48.5t19.5 54t37 53t63.5 38 t95 15.5q115 0 171 -57.5t56 -153.5q0 -77 -56.5 -151t-203.5 -211h262v-127h-450z" />
<glyph unicode="&#xbe;" horiz-adv-x="1525" d="M78 862l129 12q3 -102 104 -102q115 0 115 88q0 22 -4.5 35.5t-19.5 27.5t-48.5 20t-85.5 5v123q61 -1 92 10t38.5 27t7.5 47q0 76 -95 76q-85 0 -88 -84l-129 2q2 89 56.5 148t160.5 59q120 0 175 -57t55 -144q0 -81 -70 -139q37 -20 62.5 -59.5t25.5 -96.5 q0 -89 -61 -151t-187 -62q-109 0 -169.5 62t-63.5 153zM410 10l610 1374l127 -55l-610 -1370zM864 127v109l299 450h133v-434h95v-125h-95v-129h-133v129h-299zM993 252h170v258z" />
<glyph unicode="&#xbf;" horiz-adv-x="1095" d="M145 -43q0 63 20 118.5t51.5 97.5t69.5 80.5t74.5 76t66 76t45.5 87t11 103.5h176q4 -71 -11 -132.5t-42.5 -105.5t-61.5 -83t-68.5 -73.5t-63.5 -68.5t-47.5 -76t-18.5 -88q0 -21 0.5 -31.5t4 -37.5t10 -43t21.5 -38.5t35.5 -35t54 -22t75.5 -9.5q41 0 73 8.5t52.5 20.5 t35 33.5t21 37.5t10 43t4 39.5t0.5 36.5v11l197 -11q0 -29 -1.5 -53t-9.5 -68t-22 -78t-43.5 -74t-69.5 -66t-103 -44t-142 -18q-197 0 -300.5 110t-103.5 277zM434 821q0 55 37.5 93t91.5 38q55 0 93 -37.5t38 -91.5q0 -55 -37.5 -93t-91.5 -38q-55 0 -93 37.5t-38 91.5z " />
<glyph unicode="&#xc0;" horiz-adv-x="1183" d="M23 0l440 1341h258l440 -1341h-215l-88 279h-534l-86 -279h-215zM301 1772h227l185 -293h-207zM383 467h418l-209 670z" />
<glyph unicode="&#xc1;" horiz-adv-x="1183" d="M23 0l440 1341h258l440 -1341h-215l-88 279h-534l-86 -279h-215zM383 467h418l-209 670zM485 1479l185 293h227l-205 -293h-207z" />
<glyph unicode="&#xc2;" horiz-adv-x="1183" d="M23 0l440 1341h258l440 -1341h-215l-88 279h-534l-86 -279h-215zM289 1475l174 276h252l174 -276h-180l-121 174l-119 -174h-180zM383 467h418l-209 670z" />
<glyph unicode="&#xc3;" horiz-adv-x="1183" d="M23 0l440 1341h258l440 -1341h-215l-88 279h-534l-86 -279h-215zM258 1532q60 188 215 188q34 0 68 -14.5t57 -31.5t51.5 -31.5t52.5 -14.5q36 0 60 27.5t35 64.5l121 -32q-21 -88 -78 -147.5t-146 -59.5q-44 0 -85.5 23t-77.5 46t-68 23t-54.5 -24t-31.5 -64zM383 467 h418l-209 670z" />
<glyph unicode="&#xc4;" horiz-adv-x="1183" d="M23 0l440 1341h258l440 -1341h-215l-88 279h-534l-86 -279h-215zM276 1632q0 51 35.5 87t85.5 36q49 0 85 -35.5t36 -85.5q0 -51 -35.5 -87t-83.5 -36q-51 0 -87 35.5t-36 85.5zM383 467h418l-209 670zM659 1632q0 51 35.5 87t83.5 36q51 0 87 -35.5t36 -85.5 q0 -51 -35.5 -87t-85.5 -36t-85.5 35.5t-35.5 85.5z" />
<glyph unicode="&#xc5;" horiz-adv-x="1183" d="M25 0l440 1341q-86 63 -86 170q0 88 62.5 150.5t150.5 62.5t150.5 -62.5t62.5 -150.5q0 -104 -86 -170l440 -1341h-213l-88 279h-534l-86 -279h-213zM383 467h418l-209 670zM494 1511q0 -40 29 -69t69 -29t68 29t28 69t-28 68.5t-68 28.5t-69 -28.5t-29 -68.5z" />
<glyph unicode="&#xc6;" horiz-adv-x="1476" d="M23 0l440 1341h901v-198h-465v-359h444v-196h-444v-389h475v-199h-682v279h-370l-86 -279h-213zM381 467h311v676h-98z" />
<glyph unicode="&#xc7;" horiz-adv-x="1126" d="M94 670q0 49 2 93t9 99.5t18 103.5t31 100t46.5 94t66 80.5t87.5 64.5t113 41.5t141 15.5q400 0 451 -393l-209 -11q-26 213 -244 213q-56 0 -101.5 -15t-76.5 -40t-54 -64t-36 -79.5t-20.5 -94.5t-10 -100.5t-2.5 -105.5t2.5 -106.5t10 -101t20.5 -94.5t36 -80t54 -64 t76.5 -40.5t101.5 -15.5q121 0 179 60.5t69 172.5l211 -10q-5 -72 -26 -135t-61.5 -119.5t-108 -96t-156.5 -54.5q80 -55 80 -160q0 -90 -53.5 -140t-139.5 -50q-34 0 -69.5 6t-54.5 12l-19 6l24 131q39 -14 82 -14q34 0 56 16.5t22 50.5t-34 73.5t-83 66.5 q-81 10 -146.5 40.5t-109.5 72.5t-77 100t-51 113.5t-29 124t-14 121t-3 112.5z" />
<glyph unicode="&#xc8;" horiz-adv-x="1062" d="M156 0v1341h794v-198h-588v-359h568v-196h-568v-389h599v-199h-805zM324 1772h227l184 -293h-207z" />
<glyph unicode="&#xc9;" horiz-adv-x="1062" d="M156 0v1341h794v-198h-588v-359h568v-196h-568v-389h599v-199h-805zM344 1479l184 293h228l-205 -293h-207z" />
<glyph unicode="&#xca;" horiz-adv-x="1062" d="M156 0v1341h794v-198h-588v-359h568v-196h-568v-389h599v-199h-805zM270 1485l174 276h252l174 -276h-180l-121 174l-118 -174h-181z" />
<glyph unicode="&#xcb;" horiz-adv-x="1062" d="M156 0v1341h794v-198h-588v-359h568v-196h-568v-389h599v-199h-805zM246 1622q0 51 35.5 87t85.5 36q49 0 84.5 -35.5t35.5 -85.5q0 -51 -35 -87t-83 -36q-51 0 -87 35.5t-36 85.5zM629 1622q0 51 35.5 87t83.5 36q51 0 86.5 -35.5t35.5 -85.5q0 -51 -35 -87t-85 -36 t-85.5 35.5t-35.5 85.5z" />
<glyph unicode="&#xcc;" horiz-adv-x="522" d="M-47 1772h227l185 -293h-207zM158 0v1341h209v-1341h-209z" />
<glyph unicode="&#xcd;" horiz-adv-x="522" d="M158 0v1341h209v-1341h-209zM164 1479l184 293h227l-204 -293h-207z" />
<glyph unicode="&#xce;" horiz-adv-x="522" d="M-39 1485l174 276h252l174 -276h-180l-121 174l-119 -174h-180zM158 0v1341h209v-1341h-209z" />
<glyph unicode="&#xcf;" horiz-adv-x="522" d="M-51 1622q0 51 35.5 87t85.5 36q49 0 84.5 -35.5t35.5 -85.5q0 -51 -35 -87t-83 -36q-51 0 -87 35.5t-36 85.5zM158 0v1341h209v-1341h-209zM332 1622q0 51 35.5 87t83.5 36q51 0 86.5 -35.5t35.5 -85.5q0 -51 -35 -87t-85 -36q-49 0 -85 35.5t-36 85.5z" />
<glyph unicode="&#xd0;" horiz-adv-x="1220" d="M0 596v176h158v569h452q94 0 171.5 -24.5t130 -64t92.5 -96t62.5 -114.5t36.5 -127.5t18.5 -125.5t4.5 -117t-4.5 -117.5t-18.5 -126t-36.5 -128t-62.5 -115.5t-92.5 -96.5t-130 -64t-171.5 -24.5h-452v596h-158zM365 199h245q77 0 133.5 28.5t89 72.5t51.5 109.5t25 126 t6 136.5q0 75 -6 135.5t-25 126t-51.5 109t-89 72t-133.5 28.5h-245v-371h309v-176h-309v-397z" />
<glyph unicode="&#xd1;" horiz-adv-x="1253" d="M156 0v1341h223l512 -987v987h207v-1341h-224l-512 985v-985h-206zM293 1532q60 188 215 188q34 0 68 -14.5t57 -31.5t51.5 -31.5t52.5 -14.5q36 0 59.5 27.5t34.5 64.5l121 -32q-21 -88 -77.5 -147.5t-145.5 -59.5q-44 0 -85.5 23t-77.5 46t-68 23t-54.5 -24t-31.5 -64z " />
<glyph unicode="&#xd2;" horiz-adv-x="1214" d="M94 670q0 49 2 93t9 99.5t18 103.5t31 100t46.5 94t66 80.5t87.5 64.5t113 41.5t141 15.5q97 0 175.5 -25.5t131 -65.5t91.5 -99.5t60.5 -118.5t34 -132t16 -129.5t3.5 -121.5t-3.5 -121t-16 -129t-34 -131.5t-60.5 -118t-91.5 -99.5t-131 -65.5t-175.5 -25.5 q-76 0 -141 15.5t-113 41.5t-87.5 64.5t-66 80.5t-46.5 94t-31 99.5t-18 103t-9 99t-2 92.5zM305 672q0 -59 2.5 -106.5t10 -101t20.5 -94.5t36 -80t54 -64t76.5 -40.5t101.5 -15.5q66 0 116.5 19t83 56.5t54 81.5t31.5 105.5t14 115.5t4 124q0 59 -2.5 105.5t-10 100.5 t-21 94.5t-36.5 79.5t-54 64t-76.5 40t-102.5 15q-56 0 -101.5 -15t-76.5 -40t-54 -64t-36 -79.5t-20.5 -94.5t-10 -100.5t-2.5 -105.5zM338 1772h227l185 -293h-207z" />
<glyph unicode="&#xd3;" horiz-adv-x="1214" d="M94 670q0 49 2 93t9 99.5t18 103.5t31 100t46.5 94t66 80.5t87.5 64.5t113 41.5t141 15.5q97 0 175.5 -25.5t131 -65.5t91.5 -99.5t60.5 -118.5t34 -132t16 -129.5t3.5 -121.5t-3.5 -121t-16 -129t-34 -131.5t-60.5 -118t-91.5 -99.5t-131 -65.5t-175.5 -25.5 q-76 0 -141 15.5t-113 41.5t-87.5 64.5t-66 80.5t-46.5 94t-31 99.5t-18 103t-9 99t-2 92.5zM305 672q0 -59 2.5 -106.5t10 -101t20.5 -94.5t36 -80t54 -64t76.5 -40.5t101.5 -15.5q66 0 116.5 19t83 56.5t54 81.5t31.5 105.5t14 115.5t4 124q0 59 -2.5 105.5t-10 100.5 t-21 94.5t-36.5 79.5t-54 64t-76.5 40t-102.5 15q-56 0 -101.5 -15t-76.5 -40t-54 -64t-36 -79.5t-20.5 -94.5t-10 -100.5t-2.5 -105.5zM461 1479l184 293h227l-204 -293h-207z" />
<glyph unicode="&#xd4;" horiz-adv-x="1214" d="M94 670q0 49 2 93t9 99.5t18 103.5t31 100t46.5 94t66 80.5t87.5 64.5t113 41.5t141 15.5q97 0 175.5 -25.5t131 -65.5t91.5 -99.5t60.5 -118.5t34 -132t16 -129.5t3.5 -121.5t-3.5 -121t-16 -129t-34 -131.5t-60.5 -118t-91.5 -99.5t-131 -65.5t-175.5 -25.5 q-76 0 -141 15.5t-113 41.5t-87.5 64.5t-66 80.5t-46.5 94t-31 99.5t-18 103t-9 99t-2 92.5zM305 672q0 -59 2.5 -106.5t10 -101t20.5 -94.5t36 -80t54 -64t76.5 -40.5t101.5 -15.5q66 0 116.5 19t83 56.5t54 81.5t31.5 105.5t14 115.5t4 124q0 59 -2.5 105.5t-10 100.5 t-21 94.5t-36.5 79.5t-54 64t-76.5 40t-102.5 15q-56 0 -101.5 -15t-76.5 -40t-54 -64t-36 -79.5t-20.5 -94.5t-10 -100.5t-2.5 -105.5zM313 1485l174 276h252l174 -276h-180l-121 174l-118 -174h-181z" />
<glyph unicode="&#xd5;" horiz-adv-x="1214" d="M94 670q0 49 2 93t9 99.5t18 103.5t31 100t46.5 94t66 80.5t87.5 64.5t113 41.5t141 15.5q97 0 175.5 -25.5t131 -65.5t91.5 -99.5t60.5 -118.5t34 -132t16 -129.5t3.5 -121.5t-3.5 -121t-16 -129t-34 -131.5t-60.5 -118t-91.5 -99.5t-131 -65.5t-175.5 -25.5 q-76 0 -141 15.5t-113 41.5t-87.5 64.5t-66 80.5t-46.5 94t-31 99.5t-18 103t-9 99t-2 92.5zM274 1532q60 188 215 188q43 0 85 -23t78.5 -46t66.5 -23q36 0 59.5 27.5t34.5 64.5l121 -32q-21 -88 -77.5 -147.5t-145.5 -59.5q-44 0 -85.5 23t-78 46t-68.5 23t-54.5 -24 t-31.5 -64zM305 672q0 -59 2.5 -106.5t10 -101t20.5 -94.5t36 -80t54 -64t76.5 -40.5t101.5 -15.5q66 0 116.5 19t83 56.5t54 81.5t31.5 105.5t14 115.5t4 124q0 59 -2.5 105.5t-10 100.5t-21 94.5t-36.5 79.5t-54 64t-76.5 40t-102.5 15q-56 0 -101.5 -15t-76.5 -40 t-54 -64t-36 -79.5t-20.5 -94.5t-10 -100.5t-2.5 -105.5z" />
<glyph unicode="&#xd6;" horiz-adv-x="1214" d="M94 670q0 49 2 93t9 99.5t18 103.5t31 100t46.5 94t66 80.5t87.5 64.5t113 41.5t141 15.5q97 0 175.5 -25.5t131 -65.5t91.5 -99.5t60.5 -118.5t34 -132t16 -129.5t3.5 -121.5t-3.5 -121t-16 -129t-34 -131.5t-60.5 -118t-91.5 -99.5t-131 -65.5t-175.5 -25.5 q-76 0 -141 15.5t-113 41.5t-87.5 64.5t-66 80.5t-46.5 94t-31 99.5t-18 103t-9 99t-2 92.5zM295 1622q0 51 35.5 87t85.5 36t85.5 -35.5t35.5 -85.5q0 -51 -35.5 -87t-83.5 -36q-51 0 -87 35.5t-36 85.5zM305 672q0 -59 2.5 -106.5t10 -101t20.5 -94.5t36 -80t54 -64 t76.5 -40.5t101.5 -15.5q66 0 116.5 19t83 56.5t54 81.5t31.5 105.5t14 115.5t4 124q0 59 -2.5 105.5t-10 100.5t-21 94.5t-36.5 79.5t-54 64t-76.5 40t-102.5 15q-56 0 -101.5 -15t-76.5 -40t-54 -64t-36 -79.5t-20.5 -94.5t-10 -100.5t-2.5 -105.5zM678 1622q0 51 35.5 87 t83.5 36q51 0 87 -35.5t36 -85.5q0 -51 -35.5 -87t-85.5 -36q-49 0 -85 35.5t-36 85.5z" />
<glyph unicode="&#xd7;" horiz-adv-x="1198" d="M154 305l327 328l-327 330l116 116l328 -329l330 329l116 -116l-329 -330l329 -328l-116 -117l-330 328l-328 -328z" />
<glyph unicode="&#xd8;" horiz-adv-x="1212" d="M94 670q0 49 2 93t9 99.5t18 103.5t31 100t46.5 94t66 80.5t87.5 64.5t113 41.5t141 15.5q110 0 201 -33l86 193l147 -68l-94 -213q172 -164 172 -571q0 -65 -3.5 -121t-16 -129t-34 -131.5t-60.5 -118t-91.5 -99.5t-131 -65.5t-175.5 -25.5q-114 0 -205 32l-86 -194 l-145 71l94 211q-172 166 -172 570zM305 672q0 -247 55 -359l369 836q-55 22 -123 22q-56 0 -101.5 -15t-76.5 -40t-54 -64t-36 -79.5t-20.5 -94.5t-10 -100.5t-2.5 -105.5zM483 193q54 -23 123 -23q66 0 116.5 19t83 56.5t54 81.5t31.5 105.5t14 115.5t4 124q0 244 -57 356 z" />
<glyph unicode="&#xd9;" horiz-adv-x="1173" d="M133 463v878h207v-878q0 -29 1 -49.5t6 -54t14 -57t27.5 -50.5t43.5 -44t64.5 -28.5t89.5 -11.5t90 11.5t65.5 28.5t44 44t27.5 50.5t14 57t6 54t1 49.5v878h206v-878q0 -35 -1.5 -62t-10.5 -80.5t-25 -94t-50 -89.5t-80.5 -81t-120.5 -54t-166 -22t-165.5 22t-119.5 54 t-80 80.5t-50.5 89.5t-25.5 94t-10.5 81t-1.5 62zM317 1772h228l184 -293h-207z" />
<glyph unicode="&#xda;" horiz-adv-x="1173" d="M133 463v878h207v-878q0 -29 1 -49.5t6 -54t14 -57t27.5 -50.5t43.5 -44t64.5 -28.5t89.5 -11.5t90 11.5t65.5 28.5t44 44t27.5 50.5t14 57t6 54t1 49.5v878h206v-878q0 -35 -1.5 -62t-10.5 -80.5t-25 -94t-50 -89.5t-80.5 -81t-120.5 -54t-166 -22t-165.5 22t-119.5 54 t-80 80.5t-50.5 89.5t-25.5 94t-10.5 81t-1.5 62zM440 1479l185 293h227l-205 -293h-207z" />
<glyph unicode="&#xdb;" horiz-adv-x="1173" d="M133 463v878h207v-878q0 -29 1 -49.5t6 -54t14 -57t27.5 -50.5t43.5 -44t64.5 -28.5t89.5 -11.5t90 11.5t65.5 28.5t44 44t27.5 50.5t14 57t6 54t1 49.5v878h206v-878q0 -35 -1.5 -62t-10.5 -80.5t-25 -94t-50 -89.5t-80.5 -81t-120.5 -54t-166 -22t-165.5 22t-119.5 54 t-80 80.5t-50.5 89.5t-25.5 94t-10.5 81t-1.5 62zM285 1485l174 276h252l174 -276h-180l-121 174l-119 -174h-180z" />
<glyph unicode="&#xdc;" horiz-adv-x="1173" d="M133 463v878h207v-878q0 -29 1 -49.5t6 -54t14 -57t27.5 -50.5t43.5 -44t64.5 -28.5t89.5 -11.5t90 11.5t65.5 28.5t44 44t27.5 50.5t14 57t6 54t1 49.5v878h206v-878q0 -35 -1.5 -62t-10.5 -80.5t-25 -94t-50 -89.5t-80.5 -81t-120.5 -54t-166 -22t-165.5 22t-119.5 54 t-80 80.5t-50.5 89.5t-25.5 94t-10.5 81t-1.5 62zM272 1622q0 51 35.5 87t85.5 36q49 0 85 -35.5t36 -85.5q0 -51 -35.5 -87t-83.5 -36q-51 0 -87 35.5t-36 85.5zM655 1622q0 51 35.5 87t83.5 36q51 0 87 -35.5t36 -85.5q0 -51 -35.5 -87t-85.5 -36t-85.5 35.5t-35.5 85.5z " />
<glyph unicode="&#xdd;" horiz-adv-x="1083" d="M12 1341h236l297 -579l295 579h233l-426 -780v-561h-207v561zM336 1479l184 293h228l-205 -293h-207z" />
<glyph unicode="&#xde;" horiz-adv-x="1134" d="M158 0v1341h207v-270h272q216 0 322 -99.5t106 -271.5q0 -82 -25.5 -150t-76 -121t-134 -82.5t-192.5 -29.5h-272v-317h-207zM365 514h272q59 0 102 14t65.5 33t35 47t15.5 48t3 44t-3 42.5t-15.5 44.5t-35 43t-65.5 29.5t-102 12.5h-272v-358z" />
<glyph unicode="&#xdf;" horiz-adv-x="1140" d="M168 0v965v8q0 32 1 52.5t8 63.5t21 73t43 67.5t70 60.5t105.5 39.5t146.5 16.5q80 0 145.5 -16.5t108 -41.5t74.5 -61t48.5 -69.5t26.5 -72t12.5 -63.5t2.5 -49q0 -41 -15 -87t-55.5 -94.5t-99.5 -74.5q80 -29 135 -86t76.5 -117t21.5 -121q0 -27 -2 -52t-12 -66.5 t-27 -76t-51 -73t-79 -64.5t-116 -43.5t-159 -17.5h-70v184h70q66 0 114 16.5t72 39t38 54.5t17 53t3 44t-3.5 45.5t-17.5 54.5t-38 55.5t-70.5 40.5t-108.5 17h-49v187q225 0 225 180q0 24 -3 44.5t-16.5 49t-35.5 48.5t-64.5 34t-99.5 14q-56 0 -95 -14.5t-58 -32 t-29 -48.5t-11 -47.5t-1 -45.5v-8v-965h-199z" />
<glyph unicode="&#xe0;" horiz-adv-x="946" d="M74 264q0 214 293 277l280 59v12q0 100 -42 136t-140 36q-97 0 -137 -30.5t-49 -110.5l-183 16q30 293 367 293q91 0 158.5 -19.5t107.5 -50.5t64.5 -76.5t32.5 -90t8 -97.5v-618h-172l-9 92q-97 -112 -258 -112q-147 0 -234 75.5t-87 208.5zM211 1362h227l185 -293h-207 zM262 268q0 -63 38 -93t118 -30q93 0 161 56t68 168v69q-141 -26 -241 -51q-144 -33 -144 -119z" />
<glyph unicode="&#xe1;" horiz-adv-x="946" d="M74 264q0 214 293 277l280 59v12q0 100 -42 136t-140 36q-97 0 -137 -30.5t-49 -110.5l-183 16q30 293 367 293q91 0 158.5 -19.5t107.5 -50.5t64.5 -76.5t32.5 -90t8 -97.5v-618h-172l-9 92q-97 -112 -258 -112q-147 0 -234 75.5t-87 208.5zM262 268q0 -63 38 -93 t118 -30q93 0 161 56t68 168v69q-141 -26 -241 -51q-144 -33 -144 -119zM309 1069l185 293h227l-205 -293h-207z" />
<glyph unicode="&#xe2;" horiz-adv-x="946" d="M74 264q0 214 293 277l280 59v12q0 100 -42 136t-140 36q-97 0 -137 -30.5t-49 -110.5l-183 16q30 293 367 293q91 0 158.5 -19.5t107.5 -50.5t64.5 -76.5t32.5 -90t8 -97.5v-618h-172l-9 92q-97 -112 -258 -112q-147 0 -234 75.5t-87 208.5zM180 1085l174 277h252 l174 -277h-180l-121 175l-119 -175h-180zM262 268q0 -63 38 -93t118 -30q93 0 161 56t68 168v69q-141 -26 -241 -51q-144 -33 -144 -119z" />
<glyph unicode="&#xe3;" horiz-adv-x="946" d="M74 264q0 214 293 277l280 59v12q0 100 -42 136t-140 36q-97 0 -137 -30.5t-49 -110.5l-183 16q30 293 367 293q91 0 158.5 -19.5t107.5 -50.5t64.5 -76.5t32.5 -90t8 -97.5v-618h-172l-9 92q-97 -112 -258 -112q-147 0 -234 75.5t-87 208.5zM147 1133q60 188 215 188 q43 0 85 -23t78.5 -46t66.5 -23q36 0 59.5 27.5t34.5 64.5l121 -33q-21 -88 -77.5 -147.5t-145.5 -59.5q-35 0 -69 14.5t-56.5 32t-51.5 32t-55 14.5q-32 0 -54.5 -24.5t-31.5 -64.5zM262 268q0 -63 38 -93t118 -30q93 0 161 56t68 168v69q-141 -26 -241 -51 q-144 -33 -144 -119z" />
<glyph unicode="&#xe4;" horiz-adv-x="946" d="M74 264q0 214 293 277l280 59v12q0 100 -42 136t-140 36q-97 0 -137 -30.5t-49 -110.5l-183 16q30 293 367 293q91 0 158.5 -19.5t107.5 -50.5t64.5 -76.5t32.5 -90t8 -97.5v-618h-172l-9 92q-97 -112 -258 -112q-147 0 -234 75.5t-87 208.5zM158 1223q0 51 35.5 87 t85.5 36q49 0 84.5 -35.5t35.5 -85.5q0 -51 -35 -87t-83 -36q-51 0 -87 35.5t-36 85.5zM262 268q0 -63 38 -93t118 -30q93 0 161 56t68 168v69q-141 -26 -241 -51q-144 -33 -144 -119zM541 1223q0 51 35 87t83 36q51 0 87 -35.5t36 -85.5q0 -51 -35 -87t-85 -36t-85.5 36 t-35.5 85z" />
<glyph unicode="&#xe5;" horiz-adv-x="944" d="M72 264q0 214 293 277l280 59v12q0 100 -42 136t-140 36q-97 0 -137.5 -30.5t-49.5 -110.5l-182 16q30 293 367 293q91 0 158.5 -19.5t107 -50.5t64 -77t32.5 -90t8 -97v-618h-172l-8 92q-97 -112 -258 -112q-147 0 -234 75.5t-87 208.5zM254 1241q0 88 62.5 150.5 t150.5 62.5t150.5 -62.5t62.5 -150.5t-62.5 -150.5t-150.5 -62.5t-150.5 62.5t-62.5 150.5zM260 268q0 -63 38 -93t118 -30q93 0 161 56t68 168v69q-142 -26 -242 -51q-143 -33 -143 -119zM369 1241q0 -40 29 -69t69 -29t68 29t28 69t-28 68t-68 28t-69 -28t-29 -68z" />
<glyph unicode="&#xe6;" horiz-adv-x="1550" d="M68 264q0 214 292 277l281 59v12q0 100 -42 136t-140 36q-97 0 -137.5 -30.5t-49.5 -110.5l-182 16q30 293 367 293q234 0 317 -129q102 129 295 129q79 0 142.5 -19.5t105 -52.5t72.5 -78t45.5 -95.5t24 -104t8 -105t-2.5 -98.5h-637q7 -128 70.5 -187.5t167.5 -59.5 q174 0 199 147l190 -12q-13 -73 -44.5 -129t-70.5 -89t-88.5 -54t-93 -28t-88.5 -7q-239 0 -334 186q-50 -96 -141 -141t-205 -45q-147 0 -234 75.5t-87 208.5zM256 268q0 -63 38 -93t118 -30q93 0 161 56t68 168v69l-242 -51q-143 -30 -143 -119zM831 565h435q1 57 -15 100 t-45 67t-63.5 36t-73.5 12q-104 0 -164 -55t-74 -160z" />
<glyph unicode="&#xe7;" horiz-adv-x="944" d="M82 465q0 96 18.5 173.5t46 127.5t68.5 86.5t77.5 55t81 29.5t71 13t55.5 2q25 0 49 -2t60 -9t67.5 -19t65.5 -34.5t59.5 -52.5t45 -76.5t25.5 -103.5l-192 -12q-19 137 -180 137q-32 0 -59.5 -5t-60 -24.5t-55 -51.5t-38 -91.5t-15.5 -140.5t15 -141t37.5 -92.5t55 -52 t59.5 -24.5t59 -5q30 0 58 6.5t58 21.5t51 45.5t27 73.5l191 -12q-10 -77 -41 -134.5t-75 -90.5t-86.5 -50.5t-90.5 -25.5q76 -65 76 -158q0 -90 -53.5 -140t-139.5 -50q-34 0 -69.5 6t-54.5 12l-19 6l24 131q39 -14 82 -14q34 0 56 16.5t22 50.5q0 37 -39.5 79.5 t-93.5 68.5q-43 10 -81.5 28t-80 54.5t-70.5 86t-48 127.5t-19 175z" />
<glyph unicode="&#xe8;" horiz-adv-x="999" d="M82 465q0 95 19 172t48.5 126.5t71.5 86.5t80.5 56t84 30t73.5 13.5t57 2.5q79 0 142.5 -19.5t105 -52.5t72.5 -78t45.5 -95.5t24 -104t8 -105t-2.5 -98.5h-637q7 -128 70.5 -187.5t167.5 -59.5q174 0 199 147l190 -12q-13 -73 -44.5 -129t-70.5 -89t-88.5 -54t-93 -28 t-88.5 -7q-22 0 -42 1t-53.5 6.5t-62.5 14.5t-64.5 27t-64.5 42t-57 61.5t-47 83.5t-31 110t-12 139zM272 1362h228l184 -293h-207zM279 565h434q1 57 -15 100t-45 67t-63.5 36t-73.5 12q-104 0 -163.5 -55t-73.5 -160z" />
<glyph unicode="&#xe9;" horiz-adv-x="999" d="M82 465q0 95 19 172t48.5 126.5t71.5 86.5t80.5 56t84 30t73.5 13.5t57 2.5q79 0 142.5 -19.5t105 -52.5t72.5 -78t45.5 -95.5t24 -104t8 -105t-2.5 -98.5h-637q7 -128 70.5 -187.5t167.5 -59.5q174 0 199 147l190 -12q-13 -73 -44.5 -129t-70.5 -89t-88.5 -54t-93 -28 t-88.5 -7q-22 0 -42 1t-53.5 6.5t-62.5 14.5t-64.5 27t-64.5 42t-57 61.5t-47 83.5t-31 110t-12 139zM279 565h434q1 57 -15 100t-45 67t-63.5 36t-73.5 12q-104 0 -163.5 -55t-73.5 -160zM354 1069l185 293h227l-205 -293h-207z" />
<glyph unicode="&#xea;" horiz-adv-x="999" d="M82 465q0 95 19 172t48.5 126.5t71.5 86.5t80.5 56t84 30t73.5 13.5t57 2.5q79 0 142.5 -19.5t105 -52.5t72.5 -78t45.5 -95.5t24 -104t8 -105t-2.5 -98.5h-637q7 -128 70.5 -187.5t167.5 -59.5q174 0 199 147l190 -12q-13 -73 -44.5 -129t-70.5 -89t-88.5 -54t-93 -28 t-88.5 -7q-22 0 -42 1t-53.5 6.5t-62.5 14.5t-64.5 27t-64.5 42t-57 61.5t-47 83.5t-31 110t-12 139zM217 1085l174 277h252l174 -277h-180l-121 175l-119 -175h-180zM279 565h434q1 57 -15 100t-45 67t-63.5 36t-73.5 12q-104 0 -163.5 -55t-73.5 -160z" />
<glyph unicode="&#xeb;" horiz-adv-x="999" d="M82 465q0 95 19 172t48.5 126.5t71.5 86.5t80.5 56t84 30t73.5 13.5t57 2.5q79 0 142.5 -19.5t105 -52.5t72.5 -78t45.5 -95.5t24 -104t8 -105t-2.5 -98.5h-637q7 -128 70.5 -187.5t167.5 -59.5q174 0 199 147l190 -12q-13 -73 -44.5 -129t-70.5 -89t-88.5 -54t-93 -28 t-88.5 -7q-22 0 -42 1t-53.5 6.5t-62.5 14.5t-64.5 27t-64.5 42t-57 61.5t-47 83.5t-31 110t-12 139zM203 1223q0 51 35.5 87t85.5 36q49 0 84.5 -35.5t35.5 -85.5q0 -51 -35 -87t-83 -36q-51 0 -87 35.5t-36 85.5zM279 565h434q1 57 -15 100t-45 67t-63.5 36t-73.5 12 q-104 0 -163.5 -55t-73.5 -160zM586 1223q0 51 35.5 87t83.5 36q51 0 86.5 -35.5t35.5 -85.5q0 -51 -35 -87t-85 -36q-49 0 -85 36t-36 85z" />
<glyph unicode="&#xec;" horiz-adv-x="440" d="M-92 1362h227l184 -293h-206zM123 0v932h194v-932h-194z" />
<glyph unicode="&#xed;" horiz-adv-x="440" d="M123 0v932h194v-932h-194zM125 1069l184 293h228l-205 -293h-207z" />
<glyph unicode="&#xee;" horiz-adv-x="440" d="M-80 1085l174 277h252l174 -277h-180l-121 175l-119 -175h-180zM123 0v932h194v-932h-194z" />
<glyph unicode="&#xef;" horiz-adv-x="440" d="M-92 1223q0 51 35.5 87t85.5 36q49 0 85 -36t36 -85q0 -51 -35.5 -87t-83.5 -36q-51 0 -87 35.5t-36 85.5zM123 0v932h194v-932h-194zM291 1223q0 51 35.5 87t83.5 36q51 0 86.5 -35.5t35.5 -85.5q0 -51 -35 -87t-85 -36t-85.5 36t-35.5 85z" />
<glyph unicode="&#xf0;" horiz-adv-x="1087" d="M106 455q0 85 18.5 153.5t47 113t69.5 77.5t79 50t82.5 27t72.5 12.5t57 2.5q76 0 146 -31t113 -84q-8 102 -30 181.5t-77 134.5l-92 -117l-111 88l78 98q-50 13 -100 13q-36 0 -80.5 -6t-70.5 -12l-27 -5l-31 188q94 23 209 23q130 0 223 -41l119 149l110 -88l-108 -137 q80 -72 127.5 -191t62.5 -238.5t15 -270.5q0 -83 -11.5 -157.5t-44 -151.5t-82.5 -131.5t-134 -89.5t-193 -35q-28 0 -57.5 3t-74 15t-84.5 31.5t-81.5 56t-71.5 84.5t-49 121.5t-19 163.5zM313 455q0 -85 21.5 -144.5t57.5 -89t72 -41.5t77 -12q250 0 250 289 q0 71 -23.5 123t-61.5 79t-76.5 39.5t-76.5 12.5q-32 0 -61.5 -5t-63.5 -21.5t-58 -43t-40.5 -74.5t-16.5 -112z" />
<glyph unicode="&#xf1;" d="M123 0v932h188l8 -92q82 112 232 112q31 0 56 -2t62.5 -11t66.5 -24t60.5 -44t52.5 -69t34.5 -101.5t13.5 -137.5v-563h-195v563q0 59 -13 101t-30.5 63.5t-46.5 33.5t-50 14.5t-52 2.5q-16 0 -34 -2t-48.5 -14t-53 -31.5t-40 -59t-17.5 -93.5v-578h-194zM172 1133 q60 188 215 188q34 0 68 -14.5t57 -31.5t51.5 -31.5t52.5 -14.5q36 0 60 27.5t35 64.5l120 -33q-21 -88 -77.5 -147.5t-145.5 -59.5q-44 0 -85.5 23.5t-77.5 46.5t-68 23t-54.5 -24.5t-31.5 -64.5z" />
<glyph unicode="&#xf2;" horiz-adv-x="1015" d="M82 465q0 96 19 173.5t47.5 127.5t70 86.5t78.5 55t82.5 29.5t72.5 13t56 2q22 0 42 -1t52.5 -6.5t61.5 -14.5t63.5 -27t62.5 -42t56 -61.5t46.5 -83.5t30 -110t11.5 -139q0 -96 -19 -173.5t-47.5 -127.5t-70 -86.5t-78.5 -55t-82.5 -29.5t-72.5 -13t-56 -2q-22 0 -42 1 t-52.5 6.5t-61.5 14.5t-63.5 27t-62.5 42t-56 61.5t-46.5 83.5t-30 110t-11.5 139zM240 1362h227l184 -293h-207zM272 467q0 -315 236 -315q27 0 50 4t51.5 14t51 32.5t42 55.5t30 86t10.5 121q0 315 -235 315q-236 0 -236 -313z" />
<glyph unicode="&#xf3;" horiz-adv-x="1015" d="M82 465q0 96 19 173.5t47.5 127.5t70 86.5t78.5 55t82.5 29.5t72.5 13t56 2q22 0 42 -1t52.5 -6.5t61.5 -14.5t63.5 -27t62.5 -42t56 -61.5t46.5 -83.5t30 -110t11.5 -139q0 -96 -19 -173.5t-47.5 -127.5t-70 -86.5t-78.5 -55t-82.5 -29.5t-72.5 -13t-56 -2q-22 0 -42 1 t-52.5 6.5t-61.5 14.5t-63.5 27t-62.5 42t-56 61.5t-46.5 83.5t-30 110t-11.5 139zM272 467q0 -315 236 -315q27 0 50 4t51.5 14t51 32.5t42 55.5t30 86t10.5 121q0 315 -235 315q-236 0 -236 -313zM362 1069l185 293h227l-205 -293h-207z" />
<glyph unicode="&#xf4;" horiz-adv-x="1015" d="M82 465q0 96 19 173.5t47.5 127.5t70 86.5t78.5 55t82.5 29.5t72.5 13t56 2q22 0 42 -1t52.5 -6.5t61.5 -14.5t63.5 -27t62.5 -42t56 -61.5t46.5 -83.5t30 -110t11.5 -139q0 -96 -19 -173.5t-47.5 -127.5t-70 -86.5t-78.5 -55t-82.5 -29.5t-72.5 -13t-56 -2q-22 0 -42 1 t-52.5 6.5t-61.5 14.5t-63.5 27t-62.5 42t-56 61.5t-46.5 83.5t-30 110t-11.5 139zM211 1085l174 277h252l174 -277h-180l-121 175l-119 -175h-180zM272 467q0 -315 236 -315q27 0 50 4t51.5 14t51 32.5t42 55.5t30 86t10.5 121q0 315 -235 315q-236 0 -236 -313z" />
<glyph unicode="&#xf5;" horiz-adv-x="1015" d="M82 465q0 96 19 173.5t47.5 127.5t70 86.5t78.5 55t82.5 29.5t72.5 13t56 2q22 0 42 -1t52.5 -6.5t61.5 -14.5t63.5 -27t62.5 -42t56 -61.5t46.5 -83.5t30 -110t11.5 -139q0 -96 -19 -173.5t-47.5 -127.5t-70 -86.5t-78.5 -55t-82.5 -29.5t-72.5 -13t-56 -2q-22 0 -42 1 t-52.5 6.5t-61.5 14.5t-63.5 27t-62.5 42t-56 61.5t-46.5 83.5t-30 110t-11.5 139zM176 1133q60 188 215 188q43 0 85 -23t78.5 -46t66.5 -23q36 0 59.5 27.5t34.5 64.5l121 -33q-21 -88 -78 -147.5t-146 -59.5q-44 0 -85.5 23.5t-77.5 46.5t-68 23t-54.5 -24.5t-31.5 -64.5 zM272 467q0 -315 236 -315q27 0 50 4t51.5 14t51 32.5t42 55.5t30 86t10.5 121q0 315 -235 315q-236 0 -236 -313z" />
<glyph unicode="&#xf6;" horiz-adv-x="1015" d="M82 465q0 96 19 173.5t47.5 127.5t70 86.5t78.5 55t82.5 29.5t72.5 13t56 2q22 0 42 -1t52.5 -6.5t61.5 -14.5t63.5 -27t62.5 -42t56 -61.5t46.5 -83.5t30 -110t11.5 -139q0 -96 -19 -173.5t-47.5 -127.5t-70 -86.5t-78.5 -55t-82.5 -29.5t-72.5 -13t-56 -2q-22 0 -42 1 t-52.5 6.5t-61.5 14.5t-63.5 27t-62.5 42t-56 61.5t-46.5 83.5t-30 110t-11.5 139zM199 1223q0 51 35 87t85 36q49 0 85 -36t36 -85q0 -51 -35 -87t-83 -36q-51 0 -87 35.5t-36 85.5zM272 467q0 -315 236 -315q27 0 50 4t51.5 14t51 32.5t42 55.5t30 86t10.5 121 q0 315 -235 315q-236 0 -236 -313zM582 1223q0 51 35 87t83 36q51 0 87 -35.5t36 -85.5q0 -51 -35.5 -87t-85.5 -36q-49 0 -84.5 35.5t-35.5 85.5z" />
<glyph unicode="&#xf7;" horiz-adv-x="1218" d="M154 555v166h911v-166h-911zM471 295q0 57 40 97t97 40t97 -40t40 -97t-40 -97t-97 -40t-97 40t-40 97zM471 965q0 57 40 97t97 40t97 -40t40 -97t-40 -97.5t-97 -40.5t-97 40.5t-40 97.5z" />
<glyph unicode="&#xf8;" horiz-adv-x="1015" d="M82 465q0 96 19 173.5t47.5 127.5t70 86.5t78.5 55t82.5 29.5t72.5 13t56 2q64 0 121 -14l61 137l139 -61l-61 -137q166 -116 166 -410q0 -96 -19 -173.5t-47.5 -127.5t-70 -86.5t-78.5 -55t-82.5 -29.5t-72.5 -13t-56 -2q-70 0 -131 16l-62 -141l-139 63l64 141 q-158 125 -158 406zM272 467q0 -147 50 -223l235 532q-32 4 -49 4q-236 0 -236 -313zM449 156q20 -4 59 -4q27 0 50 4t51.5 14t51 32.5t42 55.5t30 86t10.5 121q0 151 -55 229z" />
<glyph unicode="&#xf9;" d="M113 369v563h194v-563q0 -59 13 -101t30.5 -63.5t46.5 -33.5t50.5 -14.5t52.5 -2.5q13 0 27 2t38 8t44.5 21t40 37t31 60t11.5 87v563h195v-932h-189l-6 92q-83 -112 -233 -112q-31 0 -56 2t-62.5 11t-66.5 24t-60.5 44t-52.5 69t-34.5 101.5t-13.5 137.5zM258 1362h227 l185 -293h-207z" />
<glyph unicode="&#xfa;" d="M113 369v563h194v-563q0 -59 13 -101t30.5 -63.5t46.5 -33.5t50.5 -14.5t52.5 -2.5q13 0 27 2t38 8t44.5 21t40 37t31 60t11.5 87v563h195v-932h-189l-6 92q-83 -112 -233 -112q-31 0 -56 2t-62.5 11t-66.5 24t-60.5 44t-52.5 69t-34.5 101.5t-13.5 137.5zM340 1069 l184 293h228l-205 -293h-207z" />
<glyph unicode="&#xfb;" d="M113 369v563h194v-563q0 -59 13 -101t30.5 -63.5t46.5 -33.5t50.5 -14.5t52.5 -2.5q13 0 27 2t38 8t44.5 21t40 37t31 60t11.5 87v563h195v-932h-189l-6 92q-83 -112 -233 -112q-31 0 -56 2t-62.5 11t-66.5 24t-60.5 44t-52.5 69t-34.5 101.5t-13.5 137.5zM205 1085 l174 277h252l174 -277h-180l-121 175l-119 -175h-180z" />
<glyph unicode="&#xfc;" d="M113 369v563h194v-563q0 -59 13 -101t30.5 -63.5t46.5 -33.5t50.5 -14.5t52.5 -2.5q13 0 27 2t38 8t44.5 21t40 37t31 60t11.5 87v563h195v-932h-189l-6 92q-83 -112 -233 -112q-31 0 -56 2t-62.5 11t-66.5 24t-60.5 44t-52.5 69t-34.5 101.5t-13.5 137.5zM193 1223 q0 51 35 87t85 36q49 0 85 -36t36 -85q0 -51 -35.5 -87t-83.5 -36q-51 0 -86.5 35.5t-35.5 85.5zM575 1223q0 51 35.5 87t83.5 36q51 0 87 -35.5t36 -85.5q0 -51 -35.5 -87t-85.5 -36t-85.5 36t-35.5 85z" />
<glyph unicode="&#xfd;" horiz-adv-x="876" d="M16 932h203l217 -733l221 733h203l-348 -1075q-18 -55 -34 -94.5t-37 -73.5t-44.5 -54t-55.5 -37t-70.5 -21t-89 -6.5t-111.5 5.5v176q49 -4 84.5 -4t62.5 3t45.5 13t31 21.5t22.5 33.5t17.5 43t17.5 55q5 16 7 24l19 59h-55zM231 1069l185 293h227l-205 -293h-207z" />
<glyph unicode="&#xfe;" horiz-adv-x="1024" d="M123 -410v1751h194v-505q89 116 248 116q26 0 50 -2t64 -13t73 -29.5t69.5 -55t62 -86t42 -126.5t16.5 -173t-16.5 -173.5t-42 -127.5t-62 -86.5t-69.5 -55t-73 -29.5t-64 -13t-50 -2q-159 0 -248 116v-506h-194zM305 467q0 -313 227 -313q32 0 58 5t57 24t52 51.5t35 92 t14 140.5t-14 140t-35 91t-52 51t-57 24t-58 5q-227 0 -227 -311z" />
<glyph unicode="&#xff;" horiz-adv-x="876" d="M16 932h203l217 -733l221 733h203l-348 -1075q-18 -55 -34 -94.5t-37 -73.5t-44.5 -54t-55.5 -37t-70.5 -21t-89 -6.5t-111.5 5.5v176q49 -4 84.5 -4t62.5 3t45.5 13t31 21.5t22.5 33.5t17.5 43t17.5 55q5 16 7 24l19 59h-55zM127 1223q0 51 35.5 87t85.5 36t85.5 -36 t35.5 -85q0 -51 -35.5 -87t-83.5 -36q-51 0 -87 35.5t-36 85.5zM510 1223q0 51 35.5 87t83.5 36q51 0 87 -35.5t36 -85.5q0 -51 -35.5 -87t-85.5 -36q-49 0 -85 36t-36 85z" />
<glyph unicode="&#x152;" horiz-adv-x="1581" d="M104 670q0 66 3 121.5t14.5 129.5t30.5 132.5t54 118t82.5 99.5t119 65.5t159.5 25.5q135 0 230 -72v51h671v-198h-464v-359h444v-196h-444v-389h475v-199h-682v57q-98 -77 -230 -77q-88 0 -159.5 25.5t-119 65.5t-82.5 99.5t-54 118t-30.5 132t-14.5 129t-3 120.5z M315 672q0 -60 2 -106.5t8 -101t17 -95t29.5 -79.5t44.5 -64t64 -40.5t85 -15.5q38 0 69.5 9.5t54.5 24.5t41 41.5t30 51.5t20.5 64.5t12.5 70t6.5 78t3 79.5t0.5 83t-0.5 82.5t-3 79t-6.5 78t-12.5 69.5t-20.5 63.5t-30 51t-41 41.5t-54.5 24.5t-69.5 9.5q-47 0 -85 -15.5 t-64 -40t-44.5 -64t-29.5 -79.5t-17 -94t-8 -100.5t-2 -105.5z" />
<glyph unicode="&#x153;" horiz-adv-x="1656" d="M82 465q0 96 19 173.5t47.5 127.5t70 86.5t78.5 55t82.5 29.5t72.5 13t56 2q230 0 332 -168q106 168 336 168q79 0 142.5 -19.5t105 -52.5t72.5 -78t45.5 -95.5t24 -104t8 -105t-2.5 -98.5h-637q7 -128 70.5 -187.5t166.5 -59.5q174 0 199 147l191 -12 q-13 -73 -44.5 -129t-70.5 -89t-88.5 -54t-93 -28t-88.5 -7q-232 0 -338 163q-102 -163 -330 -163q-22 0 -42 1t-52.5 6.5t-61.5 14.5t-63.5 27t-62.5 42t-56 61.5t-46.5 83.5t-30 110t-11.5 139zM272 467q0 -315 236 -315q27 0 50 4t51.5 14t51 32.5t42 55.5t30 86 t10.5 121q0 315 -235 315q-236 0 -236 -313zM938 565h434q3 110 -54.5 162.5t-141.5 52.5q-104 0 -164 -55t-74 -160z" />
<glyph unicode="&#x178;" horiz-adv-x="1083" d="M12 1341h236l297 -579l295 579h233l-426 -780v-561h-207v561zM229 1622q0 51 35.5 87t85.5 36t85.5 -35.5t35.5 -85.5q0 -51 -35.5 -87t-83.5 -36q-51 0 -87 35.5t-36 85.5zM612 1622q0 51 35.5 87t83.5 36q51 0 87 -35.5t36 -85.5q0 -51 -35.5 -87t-85.5 -36 q-49 0 -85 35.5t-36 85.5z" />
<glyph unicode="&#x2c6;" horiz-adv-x="940" d="M170 1085l174 277h252l174 -277h-180l-121 175l-119 -175h-180z" />
<glyph unicode="&#x2dc;" horiz-adv-x="987" d="M162 1133q60 188 215 188q34 0 68 -14.5t57 -31.5t51.5 -31.5t52.5 -14.5q36 0 59.5 27.5t34.5 64.5l121 -33q-21 -88 -77.5 -147.5t-145.5 -59.5q-44 0 -85.5 23.5t-77.5 46.5t-68 23t-54.5 -24.5t-31.5 -64.5z" />
<glyph unicode="&#x2000;" horiz-adv-x="886" />
<glyph unicode="&#x2001;" horiz-adv-x="1772" />
<glyph unicode="&#x2002;" horiz-adv-x="886" />
<glyph unicode="&#x2003;" horiz-adv-x="1772" />
<glyph unicode="&#x2004;" horiz-adv-x="590" />
<glyph unicode="&#x2005;" horiz-adv-x="443" />
<glyph unicode="&#x2006;" horiz-adv-x="295" />
<glyph unicode="&#x2007;" horiz-adv-x="295" />
<glyph unicode="&#x2008;" horiz-adv-x="221" />
<glyph unicode="&#x2009;" horiz-adv-x="354" />
<glyph unicode="&#x200a;" horiz-adv-x="98" />
<glyph unicode="&#x2010;" horiz-adv-x="933" d="M154 467v176h632v-176h-632z" />
<glyph unicode="&#x2011;" horiz-adv-x="933" d="M154 467v176h632v-176h-632z" />
<glyph unicode="&#x2012;" horiz-adv-x="933" d="M154 467v176h632v-176h-632z" />
<glyph unicode="&#x2013;" horiz-adv-x="1259" d="M154 467v176h952v-176h-952z" />
<glyph unicode="&#x2014;" horiz-adv-x="2209" d="M154 467v176h1902v-176h-1902z" />
<glyph unicode="&#x2018;" horiz-adv-x="569" d="M152 1094q0 116 65 192t166 76l31 -2l12 -90q-17 2 -25 2q-58 0 -86.5 -39t-17.5 -86q10 2 16 2q49 0 87 -35.5t38 -89.5q0 -53 -37 -90t-92 -37q-71 0 -114 51.5t-43 145.5z" />
<glyph unicode="&#x2019;" horiz-adv-x="569" d="M131 1235q0 53 37 90t92 37q68 0 113 -52t45 -145q0 -116 -65.5 -192t-166.5 -76l-30 2l-13 90q17 -2 25 -2q58 0 86 38t18 85h-14q-52 0 -89.5 37t-37.5 88z" />
<glyph unicode="&#x201a;" horiz-adv-x="561" d="M131 121q0 51 35.5 87t89.5 36q66 0 110 -50.5t44 -140.5q0 -113 -64 -186.5t-162 -73.5l-28 2l-13 88q17 -2 25 -2q55 0 82.5 37t17.5 82h-14q-51 0 -87 35.5t-36 85.5z" />
<glyph unicode="&#x201c;" horiz-adv-x="958" d="M131 1094q0 116 65 192t166 76l31 -2l13 -90q-17 2 -25 2q-58 0 -87 -39t-18 -86q11 2 17 2q49 0 87 -35.5t38 -89.5q0 -53 -37 -90t-92 -37q-71 0 -114.5 51.5t-43.5 145.5zM520 1094q0 116 65.5 192t166.5 76l30 -2l13 -90q-17 2 -25 2q-58 0 -86.5 -39t-17.5 -86 q10 2 16 2q49 0 87 -35.5t38 -89.5q0 -53 -37 -90t-92 -37q-71 0 -114.5 51.5t-43.5 145.5z" />
<glyph unicode="&#x201d;" horiz-adv-x="958" d="M131 1235q0 53 37 90t92 37q68 0 113 -52t45 -145q0 -116 -65.5 -192t-166.5 -76l-30 2l-13 90q17 -2 25 -2q58 0 86 38t18 85h-14q-52 0 -89.5 37t-37.5 88zM520 1235q0 53 37 90t92 37q68 0 113 -52t45 -145q0 -116 -65.5 -192t-166.5 -76l-30 2l-13 90q17 -2 25 -2 q58 0 86.5 38.5t18.5 84.5h-15q-52 0 -89.5 37t-37.5 88z" />
<glyph unicode="&#x201e;" horiz-adv-x="950" d="M131 121q0 51 35.5 87t89.5 36q66 0 110 -50.5t44 -140.5q0 -113 -64 -186.5t-162 -73.5l-28 2l-13 88q17 -2 25 -2q55 0 82.5 37t17.5 82h-14q-51 0 -87 35.5t-36 85.5zM520 121q0 51 36 87t89 36q66 0 110 -50.5t44 -140.5q0 -113 -64 -186.5t-162 -73.5l-28 2l-13 88 q17 -2 25 -2q55 0 82.5 37t17.5 82h-14q-51 0 -87 35.5t-36 85.5z" />
<glyph unicode="&#x2022;" horiz-adv-x="778" d="M154 653q0 97 69 166.5t166 69.5t166.5 -69.5t69.5 -166.5t-69.5 -166t-166.5 -69t-166 69t-69 166z" />
<glyph unicode="&#x2026;" horiz-adv-x="1738" d="M152 131q0 57 40 97t97 40t97 -40t40 -97t-40 -97t-97 -40t-97 40t-40 97zM725 131q0 57 40 97t97 40t97 -40t40 -97t-40 -97t-97 -40t-97 40t-40 97zM1319 131q0 57 40 97t97 40t97 -40t40 -97t-40 -97t-97 -40t-97 40t-40 97z" />
<glyph unicode="&#x202f;" horiz-adv-x="354" />
<glyph unicode="&#x2039;" horiz-adv-x="739" d="M154 418v121l360 376l102 -108l-315 -330l315 -327l-102 -109z" />
<glyph unicode="&#x203a;" horiz-adv-x="739" d="M123 150l313 327l-313 330l102 108l361 -376v-121l-361 -377z" />
<glyph unicode="&#x205f;" horiz-adv-x="443" />
<glyph unicode="&#x20ac;" horiz-adv-x="1253" d="M72 420v158h180q-2 29 -2 92q0 57 2 86h-180v157h194q15 90 42.5 161.5t58 117.5t72 79.5t76 50.5t78.5 26.5t71 11.5t61 2q391 0 442 -393l-206 -11q-13 105 -68 160.5t-168 55.5q-36 0 -61.5 -3.5t-57.5 -18.5t-54.5 -42t-43.5 -77t-33 -120h348v-157h-362 q-2 -27 -2 -84q0 -65 2 -94h362v-158h-346q12 -68 33 -116.5t43.5 -74.5t54.5 -40t57 -17.5t60 -3.5q66 0 113.5 16.5t75.5 49.5t42.5 73.5t20.5 95.5l205 -10q-5 -81 -32.5 -152t-80 -131t-140.5 -95t-202 -35q-34 0 -61 2t-71 11t-78.5 25.5t-76 49.5t-72 78t-58 115.5 t-42.5 158.5h-196z" />
<glyph unicode="&#x2122;" horiz-adv-x="1265" d="M66 1243v109h405v-109h-147v-465h-113v465h-145zM584 778v574h137l125 -355l123 355h141v-574h-113v342l-98 -289h-106l-99 297v-350h-110z" />
<glyph unicode="&#x25fc;" horiz-adv-x="931" d="M0 0v932h932v-932h-932z" />
</font>
</defs>
</svg>
