<?xml version="1.0" standalone="no"?>
<!DOCTYPE svg PUBLIC "-//W3C//DTD SVG 1.1//EN" "http://www.w3.org/Graphics/SVG/1.1/DTD/svg11.dtd" >
<svg xmlns="http://www.w3.org/2000/svg" xmlns:xlink="http://www.w3.org/1999/xlink" version="1.1">
<metadata></metadata>
<defs>
<font id="areal_blblack" horiz-adv-x="972" >
<font-face units-per-em="2048" ascent="1536" descent="-512" />
<missing-glyph horiz-adv-x="512" />
<glyph horiz-adv-x="0" />
<glyph horiz-adv-x="682" />
<glyph unicode=" "  horiz-adv-x="512" />
<glyph unicode="&#x09;" horiz-adv-x="512" />
<glyph unicode="&#xa0;" horiz-adv-x="512" />
<glyph unicode="!" horiz-adv-x="565" d="M123 141q0 66 47 113t113 47t112.5 -47t46.5 -113t-46.5 -112.5t-112.5 -46.5t-113 46.5t-47 112.5zM139 387v963h283v-963h-283z" />
<glyph unicode="&#x22;" horiz-adv-x="847" d="M141 895v455h228v-455h-228zM479 895v455h228v-455h-228z" />
<glyph unicode="#" horiz-adv-x="1714" d="M141 391v209h312l94 213h-246v211h340l145 326h238l-145 -326h213l145 326h240l-146 -326h242v-211h-336l-96 -213h270v-209h-362l-175 -391h-237l174 391h-213l-174 -391h-238l174 391h-219zM690 600h213l94 213h-213z" />
<glyph unicode="$" horiz-adv-x="1093" d="M63 453l281 22q0 -248 201 -248q63 0 105 13.5t61.5 38.5t26.5 49.5t7 56.5q0 99 -149 158l-158 61q-169 66 -255.5 163t-86.5 241q0 42 9 84.5t33 89.5t60.5 85t96.5 68.5t135 44.5v156h229v-156q76 -13 137 -45.5t99.5 -75t64.5 -96.5t36.5 -107t11.5 -110l-279 -12 q0 35 -3 61.5t-14 55.5t-30 48t-52 31.5t-79 12.5q-170 0 -170 -131q0 -33 9 -57t31 -42t42.5 -28.5t58.5 -26.5q20 -8 69 -27t75 -30q190 -80 277 -175t87 -237q0 -162 -99 -268.5t-274 -132.5v-150h-229v152q-121 22 -205 92t-121.5 164t-38.5 207z" />
<glyph unicode="%" horiz-adv-x="1671" d="M141 995q0 75 12 134.5t29.5 98t45 66t51 41.5t55.5 22t51 9.5t43 1.5t43 -1.5t49.5 -9.5t53.5 -21.5t49.5 -41.5t43.5 -66t28.5 -97.5t11.5 -133.5q0 -75 -11.5 -135.5t-28.5 -98.5t-43.5 -66t-49.5 -42t-54 -21.5t-49 -9t-43 -1.5t-43.5 1.5t-50.5 9t-55.5 21.5t-51 42 t-45 66t-29.5 97.5t-12 134.5zM367 997q0 -58 5.5 -96t15.5 -54t18.5 -21t21.5 -5q15 0 24.5 8t19 49t9.5 117q0 77 -9.5 118.5t-19 49.5t-24.5 8q-13 0 -21.5 -4.5t-18.5 -20.5t-15.5 -53.5t-5.5 -95.5zM375 -92l725 1624l194 -88l-727 -1628zM965 352q0 75 12 134.5 t29.5 98t44.5 66t51 41.5t55.5 22t50.5 9.5t43 1.5t43 -1.5t49.5 -9.5t53.5 -21.5t49.5 -41.5t43.5 -66t28.5 -97.5t11.5 -133.5q0 -75 -11.5 -135.5t-28.5 -98.5t-43.5 -66t-49.5 -42t-54 -21.5t-49 -9t-43 -1.5t-43.5 1.5t-50 9t-55.5 21.5t-51 42t-44.5 66t-29.5 97.5 t-12 134.5zM1190 354q0 -58 5.5 -96t15.5 -54t18.5 -21t21.5 -5q9 0 15 2t14 12t13 27.5t8.5 51.5t3.5 81q0 48 -3.5 82t-8.5 52t-13 28t-14 12t-15 2q-13 0 -21.5 -4.5t-18.5 -20.5t-15.5 -53.5t-5.5 -95.5z" />
<glyph unicode="&#x26;" horiz-adv-x="1337" d="M63 391q0 105 60 196t166 150q-75 79 -115.5 150t-40.5 157q0 56 24.5 114.5t72 112.5t130.5 88t187 34q106 0 189.5 -34t131.5 -89t72.5 -115.5t24.5 -120.5q0 -76 -34.5 -142.5t-85 -112.5t-128.5 -97l211 -176q41 92 35 268l260 -2q0 -247 -93 -432l218 -182 l-152 -183l-203 168q-163 -166 -424 -166q-234 0 -370 118.5t-136 295.5zM344 395q0 -76 63 -126t160 -50q145 0 232 84l-320 266q-135 -67 -135 -174zM403 1032q0 -45 35 -91t103 -103q77 39 120.5 88t43.5 100t-38.5 95t-119.5 44q-73 0 -108.5 -40.5t-35.5 -92.5z" />
<glyph unicode="'" horiz-adv-x="522" d="M147 895v455h228v-455h-228z" />
<glyph unicode="(" horiz-adv-x="755" d="M172 674q0 645 440 903l107 -178q-25 -17 -34 -23.5t-38.5 -31t-44.5 -43t-43 -55t-44 -72.5t-36.5 -90t-31.5 -112t-19 -135t-8 -163q0 -108 12.5 -203.5t31 -162.5t47.5 -127t53 -96t58 -70t52.5 -48.5t44.5 -32.5l-107 -180q-35 20 -67 43t-78 66t-84.5 92t-79 123 t-68 158t-45.5 197.5t-18 240.5z" />
<glyph unicode=")" horiz-adv-x="755" d="M37 -66q26 18 45 33t52.5 49t58 70t53 96t47 127.5t31 163t12.5 203.5q0 107 -12 199.5t-29 157.5t-46 123.5t-50.5 91t-57.5 67.5t-51.5 46.5t-45.5 32.5q-5 3 -7 5l106 178q441 -259 441 -901q0 -126 -18 -239t-46 -197t-68 -158.5t-79 -124t-85 -93t-78.5 -67 t-66.5 -43.5z" />
<glyph unicode="*" horiz-adv-x="1136" d="M141 973l68 186l252 -94v274h205v-274l256 96l73 -186l-262 -96l160 -217l-160 -123l-164 235l-159 -231l-172 116l155 218z" />
<glyph unicode="+" horiz-adv-x="1329" d="M141 528v222h412v403h221v-403h414v-222h-414v-405h-221v405h-412z" />
<glyph unicode="," horiz-adv-x="610" d="M123 150q0 67 45 111t121 44q74 -3 126 -61t52 -162q0 -124 -71 -204.5t-177 -80.5l-67 6l-17 121q24 -4 47 -4q42 0 66.5 21.5t27.5 52.5q-65 2 -109 47t-44 109z" />
<glyph unicode="-" d="M141 449v229h690v-229h-690z" />
<glyph unicode="." horiz-adv-x="608" d="M139 156q0 67 48 115t116 48t116 -48t48 -115q0 -68 -48.5 -116t-115.5 -48t-115.5 48t-48.5 116z" />
<glyph unicode="/" horiz-adv-x="1001" d="M41 -92l725 1624l195 -88l-728 -1628z" />
<glyph unicode="0" horiz-adv-x="1191" d="M92 686q0 142 21 255.5t52 186t79 125.5t90 79t98 41t89.5 17.5t76.5 2.5q33 0 58 -1.5t66.5 -8.5t74 -20t73 -38.5t71.5 -60t62 -89t51.5 -122t33 -161t12.5 -204.5q0 -112 -12.5 -206t-32.5 -162t-51.5 -122t-62.5 -89t-72 -60.5t-73 -38.5t-73.5 -20t-66.5 -8.5 t-58 -1.5t-58 1.5t-67 8.5t-74.5 20t-73.5 38t-72.5 60t-63 89.5t-51.5 122t-33 161.5t-13 205zM377 688q0 -91 7 -162.5t18 -119.5t29.5 -82.5t35.5 -52.5t42 -28.5t44 -13t45 -2.5q27 0 45.5 2.5t43.5 12.5t41.5 28t34 52t28 82t17.5 119.5t7 162.5q0 125 -13 213.5 t-32 135.5t-50.5 72.5t-57.5 31.5t-64 6q-26 0 -45 -2.5t-44 -12.5t-42 -28.5t-35.5 -52.5t-29.5 -81.5t-18 -118.5t-7 -161z" />
<glyph unicode="1" horiz-adv-x="862" d="M121 969v192q50 0 92 11.5t69.5 30t49.5 41t33.5 45.5t19 41.5t9.5 29.5l3 12h248v-1372h-280v969h-244z" />
<glyph unicode="2" horiz-adv-x="1075" d="M61 0v219l91 86q120 111 191 179t147.5 147.5t115.5 133t64.5 107.5t25.5 99q0 23 -1.5 38.5t-11 44t-27 46t-53.5 31.5t-87 14q-42 0 -73.5 -10t-50 -29.5t-30.5 -39t-16.5 -47.5t-6 -45.5t-1.5 -41.5l-275 12q0 30 2.5 60t13 77t28.5 87t52.5 83t80.5 73t117 49.5 t159 19.5q119 0 208.5 -31.5t144 -88.5t81.5 -132t27 -168q0 -64 -23 -128.5t-60 -124t-109 -139.5t-144 -150.5t-190 -180.5h532v-250h-922z" />
<glyph unicode="3" horiz-adv-x="1136" d="M68 453l278 16q-8 -240 199 -240q119 0 169 45t50 129q0 46 -14.5 78t-39.5 51.5t-70 30.5t-96 15t-126 4v243q175 0 242 33.5t67 132.5q0 152 -182 152q-96 0 -135 -54.5t-37 -154.5l-275 12q-4 87 21 165.5t77.5 142t142.5 101.5t206 38q124 0 216 -33t144.5 -91 t77.5 -127.5t25 -150.5q0 -52 -15 -99.5t-36.5 -79t-43 -55.5t-36.5 -35l-15 -11q8 -4 20.5 -12t45 -36t57.5 -60.5t45.5 -85.5t20.5 -111q0 -66 -16.5 -125.5t-54.5 -115t-95 -96.5t-144.5 -65t-195.5 -24q-100 0 -182 26t-137.5 71t-92.5 106t-52.5 129t-12.5 141z" />
<glyph unicode="4" horiz-adv-x="1189" d="M47 256v217l600 899h283v-868h192v-248h-192v-256h-279v256h-604zM344 504h307v454z" />
<glyph unicode="5" horiz-adv-x="1118" d="M72 434l278 19q7 -226 189 -226q28 0 50.5 4t50.5 20t46.5 42.5t31.5 76t13 117.5q0 240 -188 240q-27 0 -52 -6.5t-53.5 -23t-51 -52t-34.5 -86.5l-260 21l74 792h784v-250h-553l-22 -211q91 60 200 60q57 0 110.5 -10.5t115 -42.5t106.5 -83t75 -141t30 -207 q0 -243 -125 -375t-348 -132q-207 0 -332.5 122.5t-134.5 331.5z" />
<glyph unicode="6" horiz-adv-x="1130" d="M94 688q0 705 490 705q204 0 320 -102.5t128 -284.5l-272 -15q-9 80 -52 117t-126 37q-94 0 -142.5 -74.5t-60.5 -191.5q98 73 242 73q28 0 58 -3.5t74.5 -15t84.5 -31t81.5 -55.5t71.5 -83t49 -119t19 -160q0 -99 -21 -178.5t-52.5 -131t-77.5 -90t-88 -58t-91.5 -31 t-80 -14t-62.5 -2.5q-78 0 -143 16t-112.5 42t-85 67.5t-62 81.5t-42 97t-26.5 101.5t-14 106.5t-6 101t-1 95zM387 487q0 -260 203 -260q28 0 50 4t48.5 19t44 41.5t29.5 76t12 117.5q0 228 -196 228q-31 0 -61 -10t-61 -33.5t-50 -70.5t-19 -112z" />
<glyph unicode="7" horiz-adv-x="1040" d="M51 1122v250h942v-217q-16 -20 -42.5 -57t-98.5 -157.5t-133 -247.5t-125.5 -317t-95.5 -376h-287q16 122 49 249.5t73.5 234t85.5 207.5t87 177.5t76 134.5t54 89l21 30h-606z" />
<glyph unicode="8" horiz-adv-x="1200" d="M113 406q0 31 6 64.5t22 77t50.5 87t84.5 76.5q-143 100 -143 276q0 28 2 54.5t12.5 69.5t28.5 79t53.5 75.5t83 66.5t122.5 45t167 18q91 0 165.5 -18t122 -45t83 -66.5t54 -75.5t29 -79t13 -69.5t2.5 -54.5q0 -174 -141 -276q50 -34 84.5 -77.5t50 -86.5t21.5 -76 t6 -63t-2 -57.5t-13 -73t-30 -83t-56 -79t-86.5 -70t-128 -47t-174.5 -18.5t-174 18.5t-128 47t-87 70t-55.5 78.5t-29.5 82.5t-13 72.5t-2 57zM395 403q0 -16 2 -33t14 -46.5t32 -50.5t61.5 -37.5t97.5 -16.5t97 16.5t62 38t33 50t14.5 45.5t2.5 32q0 14 -2.5 31t-14.5 46 t-33 51t-62 38.5t-97 16.5t-97.5 -16.5t-61.5 -38t-32 -50.5t-14 -45.5t-2 -30.5zM418 997q0 -14 2 -30.5t13 -44t29 -48t54.5 -36t85.5 -15.5t85.5 15.5t54.5 36t29 48t13 44t2 30.5t-2 29t-13 40t-29 44t-54.5 33t-85.5 14t-85.5 -14t-54.5 -33t-29 -44t-13 -40t-2 -29z " />
<glyph unicode="9" horiz-adv-x="1126" d="M80 887q0 99 21 179t52.5 131.5t77.5 89.5t88 58t91.5 31.5t80 14t62.5 2.5q78 0 143 -16.5t112 -42t85 -67t62 -82t41.5 -97t26.5 -101.5t14 -107t6 -101t1 -95q0 -704 -489 -704q-205 0 -321 102.5t-128 284.5l273 14q9 -80 52 -117t126 -37q64 0 109 39t65.5 96 t28.5 132q-100 -74 -242 -74q-28 0 -58 3.5t-74.5 15t-84.5 31t-81.5 55.5t-71.5 83t-49 119t-19 160zM365 887q0 -228 196 -228q31 0 61 10t61 33.5t50 70.5t19 112q0 260 -203 260q-28 0 -50 -4t-48.5 -19t-44 -41.5t-29.5 -76t-12 -117.5z" />
<glyph unicode=":" horiz-adv-x="608" d="M139 156q0 67 48 115t116 48t116 -48t48 -115q0 -68 -48.5 -116t-115.5 -48t-115.5 48t-48.5 116zM139 840q0 68 48.5 116t115.5 48t115.5 -48t48.5 -116t-48.5 -116t-115.5 -48t-115.5 48t-48.5 116z" />
<glyph unicode=";" horiz-adv-x="610" d="M139 150q0 67 45 111t121 44q74 -3 126 -61t52 -162q0 -124 -70.5 -204.5t-176.5 -80.5l-68 6l-16 121q24 -4 47 -4q42 0 66.5 21.5t27.5 52.5q-65 2 -109.5 47t-44.5 109zM139 840q0 68 48.5 116t115.5 48t115.5 -48t48.5 -116t-48.5 -116t-115.5 -48t-115.5 48 t-48.5 116z" />
<glyph unicode="&#x3c;" horiz-adv-x="1120" d="M141 539v202l838 480v-250l-580 -330l580 -332v-246z" />
<glyph unicode="=" horiz-adv-x="1181" d="M141 348v209h899v-209h-899zM141 725v209h899v-209h-899z" />
<glyph unicode="&#x3e;" horiz-adv-x="1120" d="M141 63v246l580 332l-580 330v250l838 -480v-202z" />
<glyph unicode="?" horiz-adv-x="1134" d="M133 942q0 32 1.5 60t10.5 77t25 88t48 83.5t75.5 74.5t112 50t153.5 20q109 0 193 -32.5t134.5 -89t75.5 -128.5t25 -156q0 -48 -12 -93.5t-26.5 -76t-45 -69.5t-48.5 -58t-56 -57q-35 -36 -52.5 -56.5t-41.5 -56.5t-34 -75t-9 -87h-250q-1 51 5 96t22 84.5t28 65.5 t40 61t40.5 49t44.5 48q34 36 47 50.5t35 45t30.5 59t8.5 62.5q0 36 -4.5 62t-19 54t-46.5 43t-82 15q-33 0 -58.5 -9.5t-41 -21.5t-27 -36t-16.5 -38.5t-7.5 -44.5t-2.5 -39v-36zM387 141q0 66 47 113t113 47t113 -47t47 -113t-47 -112.5t-113 -46.5t-113 46.5t-47 112.5z " />
<glyph unicode="@" horiz-adv-x="2105" d="M141 489q0 186 69 353.5t189.5 290t294.5 194.5t373 72q189 0 354 -59.5t285 -166.5t189 -264t69 -342q0 -141 -46.5 -255.5t-122 -184.5t-165.5 -107.5t-182 -37.5q-172 0 -238 122q-116 -98 -288 -98q-146 0 -238 103.5t-92 259.5q0 271 137 428t354 157q114 0 187 -63 l16 45h244l-133 -664q-10 -52 8.5 -80t64.5 -28q38 0 76 11.5t78.5 40.5t71.5 73t51 116t20 162q0 196 -89 341.5t-247 221.5t-364 76q-160 0 -296.5 -54.5t-231 -149.5t-148 -227.5t-53.5 -285.5t54 -286t148 -227.5t225.5 -148.5t281.5 -54q164 0 335 80l115 -160 q-233 -115 -450 -115q-149 0 -287.5 46t-249.5 130t-194.5 196t-129 251t-45.5 288zM848 383q0 -85 33.5 -116t87.5 -31q46 0 83.5 19t61 47.5t41.5 67t26.5 72.5t13.5 69.5t6 52t1 26.5q0 64 -29 107.5t-100 43.5q-58 0 -103 -33t-70.5 -87t-38.5 -114.5t-13 -123.5z" />
<glyph unicode="A" horiz-adv-x="1245" d="M14 0l453 1372h309l455 -1372h-291l-84 272h-467l-84 -272h-291zM465 520h313l-155 508z" />
<glyph unicode="B" horiz-adv-x="1236" d="M143 0v1372h535q90 0 162.5 -17.5t119.5 -44.5t81.5 -65.5t52.5 -73.5t28 -77t12.5 -68t2.5 -53q0 -61 -35.5 -138t-102.5 -126q47 -28 83 -70t53.5 -84.5t25.5 -77.5t8 -61q0 -29 -2 -55t-12.5 -70.5t-29 -81t-54.5 -77t-84.5 -68t-124.5 -46t-170 -18.5h-549zM428 250 h264q53 0 92 13.5t57.5 30.5t29.5 43.5t12.5 42t1.5 34.5q0 20 -1.5 35.5t-12.5 41.5t-29.5 43.5t-57.5 30.5t-92 13h-264v-328zM428 827h248q176 0 176 146q0 149 -176 149h-248v-295z" />
<glyph unicode="C" horiz-adv-x="1165" d="M82 686q0 66 4 123.5t17.5 132.5t36 135t64 121t97 102t138.5 67t186 26q429 0 487 -447l-285 -12q-13 102 -61.5 155.5t-142.5 53.5q-66 0 -113.5 -27t-74 -68t-42 -104.5t-20 -121.5t-4.5 -134q0 -78 4.5 -136t20 -122.5t42 -105.5t74 -68t113.5 -27q99 0 148 60 t60 170l285 -15q-4 -72 -22.5 -136.5t-57 -125.5t-93 -105t-136.5 -70.5t-182 -26.5q-103 0 -186 26t-138.5 67t-97 102t-64 121t-36 134.5t-17.5 132t-4 123.5z" />
<glyph unicode="D" horiz-adv-x="1257" d="M143 0v1372h486q100 0 181.5 -25t137.5 -65.5t98 -98.5t66.5 -117.5t39 -130.5t19.5 -128.5t5 -118.5q0 -62 -5 -120.5t-19.5 -129.5t-39 -130.5t-66.5 -118t-98 -99t-137.5 -65.5t-181.5 -25h-486zM428 256h201q66 0 114 26t75 66t43 100.5t21 115t5 124.5 q0 69 -5 123.5t-21 114t-43 99t-75 65.5t-114 26h-201v-860z" />
<glyph unicode="E" horiz-adv-x="1105" d="M143 0v1372h861v-256h-576v-287h555v-258h-555v-315h586v-256h-871z" />
<glyph unicode="F" horiz-adv-x="1075" d="M143 0v1372h861v-256h-576v-287h555v-258h-555v-571h-285z" />
<glyph unicode="G" horiz-adv-x="1245" d="M82 686q0 66 4 123.5t17.5 132.5t36 135t64 121t97 102t138.5 67t186 26q98 0 177 -24t132.5 -64.5t92 -98.5t59 -121.5t30.5 -138.5l-285 -10q-26 207 -208 207q-66 0 -114 -27t-74.5 -68t-42 -105t-19.5 -121t-4 -134q0 -76 5 -136t22 -123t45 -104.5t77 -68.5t115 -27 q109 0 165.5 73t61.5 192v6h-285v243h549v-743h-239l-11 76q-107 -96 -256 -96q-96 0 -175 25.5t-133 67.5t-96 101.5t-66.5 121.5t-39.5 134t-20.5 132.5t-5.5 123.5z" />
<glyph unicode="H" horiz-adv-x="1251" d="M143 0v1372h285v-543h397v543h283v-1372h-283v571h-397v-571h-285z" />
<glyph unicode="I" horiz-adv-x="573" d="M143 0v1372h287v-1372h-287z" />
<glyph unicode="J" horiz-adv-x="991" d="M43 444l281 15q2 -59 11.5 -103t22.5 -68.5t31.5 -39t35 -19t36.5 -4.5q29 0 50.5 9t35 28.5t21.5 40.5t12 54.5t5 60t1 67.5v887h284v-887q0 -38 -0.5 -64.5t-4.5 -70.5t-11.5 -75.5t-21.5 -72.5t-34 -70.5t-51 -60t-70 -49t-92.5 -30.5t-117.5 -12q-28 0 -54 2 t-70 12.5t-81 28t-78.5 52.5t-70.5 82.5t-48.5 121.5t-21.5 165z" />
<glyph unicode="K" horiz-adv-x="1210" d="M143 0v1372h283v-543l412 543h342l-457 -571l489 -801h-331l-340 575l-115 -141v-434h-283z" />
<glyph unicode="L" horiz-adv-x="1044" d="M143 0v1372h285v-1116h555v-256h-840z" />
<glyph unicode="M" horiz-adv-x="1613" d="M143 0v1372h349l317 -905l315 905h346v-1372h-286v834l-244 -697h-264l-246 705v-842h-287z" />
<glyph unicode="N" horiz-adv-x="1292" d="M143 0v1372h291l432 -858v858h283v-1372h-289l-432 852v-852h-285z" />
<glyph unicode="O" horiz-adv-x="1249" d="M82 686q0 66 4 123.5t17.5 132.5t36 135t64 121t97 102t138.5 67t186 26t186 -26t138.5 -67t97 -102t64 -121t36 -135t17 -132.5t3.5 -123.5t-3.5 -123.5t-17 -132t-36 -134.5t-64 -121t-97 -102t-138.5 -67t-186 -26t-186 26t-138.5 67t-97 102t-64 121t-36 134.5 t-17.5 132t-4 123.5zM369 688q0 -77 4.5 -136t20.5 -123t43 -105t74.5 -68t113.5 -27t113.5 27t74.5 68t43 105t20.5 123t4.5 136q0 76 -4.5 134t-20.5 121.5t-42.5 104.5t-74.5 68t-114 27t-114 -27t-74.5 -68t-42.5 -104.5t-20.5 -121.5t-4.5 -134z" />
<glyph unicode="P" horiz-adv-x="1173" d="M143 0v1372h512q231 0 345 -105.5t114 -287.5q0 -86 -27.5 -159t-82 -129t-144 -88t-205.5 -32h-227v-571h-285zM428 829h227q176 0 176 150q0 25 -5 44t-21 42.5t-54 37t-96 13.5h-227v-287z" />
<glyph unicode="Q" horiz-adv-x="1257" d="M82 686q0 66 4 123.5t17.5 132.5t36 135t64 121t97 102t138.5 67t186 26t186 -26t138.5 -67t97 -102t64 -121t36 -135t17 -132.5t3.5 -123.5q0 -330 -116 -504l155 -166l-180 -161l-158 172q-107 -47 -243 -47q-103 0 -186 26t-138.5 67t-97 102t-64 121t-36 134.5 t-17.5 132t-4 123.5zM369 688q0 -77 4.5 -136t20.5 -123t43 -105t74.5 -68t113.5 -27q19 0 51 4l-137 150l178 160l131 -142q33 100 33 287q0 76 -4.5 134t-20.5 121.5t-42.5 104.5t-74.5 68t-114 27t-114 -27t-74.5 -68t-42.5 -104.5t-20.5 -121.5t-4.5 -134z" />
<glyph unicode="R" horiz-adv-x="1251" d="M143 0v1372h533q231 0 346 -105.5t115 -287.5q0 -126 -58.5 -222.5t-173.5 -144.5l291 -612h-317l-252 571h-199v-571h-285zM428 829h248q176 0 176 150q0 25 -5 44t-21 42.5t-54 37t-96 13.5h-248v-287z" />
<glyph unicode="S" horiz-adv-x="1157" d="M74 453l286 22q0 -110 54 -178t170 -68q62 0 106 14.5t66 38.5t31.5 49.5t9.5 53.5q0 55 -36 91.5t-116 62.5l-182 61q-357 122 -357 408q0 48 14 98t49 102.5t87.5 92.5t137.5 66t190 26q106 0 190 -27t137 -71t88 -103.5t49 -120t15 -125.5l-283 -12q0 209 -196 209 q-57 0 -98 -14t-60 -36.5t-27 -42t-8 -38.5q0 -62 37 -93.5t107 -54.5l172 -57q192 -63 284 -165t92 -253q0 -188 -136.5 -298.5t-371.5 -110.5q-126 0 -223.5 38.5t-156.5 105.5t-89 150t-32 179z" />
<glyph unicode="T" horiz-adv-x="1126" d="M51 1116v256h1026v-256h-368v-1116h-285v1116h-373z" />
<glyph unicode="U" horiz-adv-x="1212" d="M121 483v889h285v-889q0 -26 0.5 -44t5 -46.5t12 -49t22 -44t35.5 -38t53 -24.5t72 -10q41 0 73.5 10t53 24.5t36 38t23 44t11.5 49t5 47t1 43.5v889h283v-889q0 -26 -1 -47t-5.5 -61t-13 -72t-25.5 -74.5t-41 -75.5t-61.5 -67t-84 -56t-112 -36t-142.5 -14t-142.5 14 t-112 36t-84 56t-61 66.5t-41 75.5t-25.5 75t-13 72.5t-5.5 61t-0.5 46.5z" />
<glyph unicode="V" horiz-adv-x="1179" d="M14 1372h295l281 -991l287 991h288l-413 -1372h-322z" />
<glyph unicode="W" horiz-adv-x="1794" d="M14 1372h293l223 -964l234 964h270l228 -948l223 948h295l-363 -1372h-282l-238 944l-235 -944h-285z" />
<glyph unicode="X" horiz-adv-x="1204" d="M18 0l426 713l-397 659h324l229 -418l234 418h319l-397 -651l436 -721h-324l-262 477l-260 -477h-328z" />
<glyph unicode="Y" horiz-adv-x="1161" d="M2 1372h315l263 -512l264 512h315l-436 -794v-578h-285v578z" />
<glyph unicode="Z" horiz-adv-x="1077" d="M41 0v213l633 903h-594v256h924v-213l-625 -903h647v-256h-985z" />
<glyph unicode="[" horiz-adv-x="673" d="M141 -264v1872h473v-215h-237v-1442h237v-215h-473z" />
<glyph unicode="\" horiz-adv-x="1159" d="M115 1444l194 88l725 -1624l-192 -92z" />
<glyph unicode="]" horiz-adv-x="675" d="M59 -49h242v1440h-242v217h476v-1872h-476v215z" />
<glyph unicode="^" horiz-adv-x="1273" d="M141 530l385 820h224l383 -820h-250l-246 519l-244 -519h-252z" />
<glyph unicode="_" horiz-adv-x="1294" d="M2 -207h1290v-205h-1290v205z" />
<glyph unicode="`" horiz-adv-x="765" d="M141 1368h293l191 -301h-267z" />
<glyph unicode="a" d="M63 281q0 119 83 185t227 99l243 51q0 79 -33 111.5t-104 32.5t-97.5 -26t-39.5 -91l-258 16q14 86 48 148.5t86 98.5t115.5 52.5t143.5 16.5q98 0 170 -20.5t114.5 -53t68 -82.5t34 -100t8.5 -115v-604h-237l-6 63q-84 -81 -219 -81q-157 0 -252 82t-95 217zM326 276 q0 -38 28 -63t82 -25q71 0 125.5 51t54.5 144v31q-100 -21 -190 -41q-52 -12 -76 -35.5t-24 -61.5z" />
<glyph unicode="b" horiz-adv-x="1044" d="M111 0v1350h266v-449q90 74 219 74q26 0 52.5 -3t66 -15.5t74 -32.5t70.5 -58t61.5 -88.5t42 -127.5t16.5 -171t-16.5 -171.5t-42 -128t-61.5 -88.5t-70.5 -58t-74 -32.5t-66 -15.5t-52.5 -3q-134 0 -225 75l-4 -57h-256zM367 479q0 -268 178 -268q26 0 46 4t44.5 20 t41 43.5t27.5 79t11 121.5q0 69 -11 120t-27.5 78.5t-41 43.5t-44.5 20t-46 4q-178 0 -178 -266z" />
<glyph unicode="c" horiz-adv-x="968" d="M66 477q0 98 19.5 177.5t48.5 130t72 88.5t81.5 56.5t85.5 29.5t75 13.5t58 2.5q27 0 52.5 -2t64 -10t72 -21.5t70.5 -40t65 -61.5t49.5 -89t29.5 -120l-264 -17q-21 134 -139 134q-25 0 -46.5 -4.5t-47 -21t-43 -44t-29.5 -79t-12 -120.5q0 -86 16.5 -144t45.5 -83.5 t55 -34t59 -8.5q52 0 96.5 31.5t56.5 109.5l263 -14q-7 -66 -27.5 -120.5t-48.5 -90.5t-64.5 -63.5t-71 -42t-73.5 -23.5t-66.5 -11.5t-54.5 -2.5q-31 0 -59.5 2t-76.5 13t-87 30t-82.5 56t-73.5 87.5t-49.5 129.5t-19.5 177z" />
<glyph unicode="d" horiz-adv-x="1044" d="M66 479q0 94 16.5 171t42 127.5t61.5 88.5t70.5 58t74 32.5t66 15.5t52.5 3q129 0 219 -74v449h266v-1350h-256l-6 57q-88 -75 -223 -75q-26 0 -52.5 3t-66 15.5t-74 32.5t-70.5 58t-61.5 88.5t-42 128t-16.5 171.5zM330 479q0 -70 11 -121.5t27.5 -79t41 -43.5t44.5 -20 t46 -4q178 0 178 268q0 266 -178 266q-26 0 -46 -4t-44.5 -20t-41 -43.5t-27.5 -78.5t-11 -120z" />
<glyph unicode="e" horiz-adv-x="1009" d="M66 477q0 97 20 175.5t51 129.5t75 88.5t84.5 57t88 31t77.5 14t60 2.5q102 0 180 -30.5t123 -77.5t72.5 -113.5t37 -128.5t9.5 -133l-4 -101h-608q10 -96 59.5 -144t126.5 -48q119 0 150 125l264 -19q-21 -95 -68 -162.5t-108 -100.5t-117.5 -46.5t-116.5 -13.5 q-31 0 -60 2t-77.5 13t-88.5 30t-84.5 56t-75 87.5t-50.5 129.5t-20 177zM336 592h336q-6 80 -47.5 124t-102.5 44q-76 0 -123 -45.5t-63 -122.5z" />
<glyph unicode="f" horiz-adv-x="681" d="M23 733v223h161v91q0 145 69.5 224t235.5 79q19 0 53.5 -3t59.5 -7l25 -3v-235q-81 6 -101 6q-45 0 -60 -16.5t-15 -57.5v-78h192v-223h-192v-733h-267v733h-161z" />
<glyph unicode="g" horiz-adv-x="1044" d="M66 479q0 94 16.5 171t42 127.5t61.5 88.5t70.5 58t74 32.5t66 15.5t52.5 3q135 0 223 -78l4 59h258v-903q0 -475 -426 -475q-89 0 -159.5 19t-116 49t-79 75t-50.5 88.5t-29 96.5l272 18q24 -125 164 -125q41 0 71 15t47 37t27 58.5t13 70t4 79.5q-90 -77 -223 -77 q-26 0 -52.5 3t-66 15.5t-74 32.5t-70.5 58t-61.5 88.5t-42 128t-16.5 171.5zM330 479q0 -70 11 -121.5t27.5 -79t41 -43.5t44.5 -20t46 -4q178 0 178 268q0 266 -178 266q-26 0 -46 -4t-44.5 -20t-41 -43.5t-27.5 -78.5t-11 -120z" />
<glyph unicode="h" horiz-adv-x="1036" d="M111 0v1350h266v-455q89 80 215 80q31 0 58.5 -2.5t64 -12.5t66 -27t59.5 -48t50 -72.5t33 -104t13 -139.5v-569h-266v569q0 48 -10 82.5t-24 52t-36 27.5t-38.5 12t-39.5 2q-12 0 -25 -2t-36 -14t-40.5 -32t-30.5 -61t-13 -97v-539h-266z" />
<glyph unicode="i" horiz-adv-x="475" d="M72 1227q0 69 48.5 117.5t117.5 48.5t117 -48.5t48 -117.5t-48 -117.5t-117 -48.5t-117.5 48.5t-48.5 117.5zM104 0v956h267v-956h-267z" />
<glyph unicode="j" horiz-adv-x="475" d="M-76 -162q87 -8 103 -8q44 0 60.5 17t16.5 57v1052h267v-1065q0 -146 -70.5 -224.5t-239.5 -78.5q-22 0 -56 3t-57 7l-24 3v237zM72 1227q0 69 48.5 117.5t117.5 48.5t117 -48.5t48 -117.5t-48 -117.5t-117 -48.5t-117.5 48.5t-48.5 117.5z" />
<glyph unicode="k" horiz-adv-x="978" d="M111 0v1350h264v-760l274 366h320l-330 -407l352 -549h-303l-213 348l-100 -125v-223h-264z" />
<glyph unicode="l" horiz-adv-x="487" d="M111 0v1350h266v-1350h-266z" />
<glyph unicode="m" horiz-adv-x="1452" d="M111 0v956h256l6 -65q81 84 200 84q150 0 224 -101q91 101 245 101q40 0 75 -5.5t80.5 -26.5t77.5 -55.5t54.5 -99.5t22.5 -153v-635h-267v635q0 36 -12.5 60t-32 33.5t-33 13t-26.5 3.5q-15 0 -30.5 -4t-37.5 -16t-35.5 -41t-13.5 -72v-612h-266v635q0 36 -12 60 t-31 33.5t-32.5 13t-26.5 3.5q-12 0 -24 -2t-30 -10.5t-31.5 -22.5t-23.5 -41.5t-10 -64.5v-604h-266z" />
<glyph unicode="n" horiz-adv-x="1036" d="M111 0v956h258l4 -65q87 84 219 84q45 0 84.5 -6.5t90 -31.5t85.5 -66.5t59.5 -119t24.5 -182.5v-569h-266v569q0 48 -10 82.5t-24 52t-36 27.5t-38.5 12t-39.5 2q-12 0 -25 -2t-36 -13.5t-40.5 -30t-30.5 -57t-13 -89.5v-553h-266z" />
<glyph unicode="o" horiz-adv-x="1030" d="M66 477q0 98 20 177.5t50 130t73.5 88.5t83 56.5t87.5 29.5t76.5 13.5t59.5 2.5q30 0 58.5 -2.5t76 -13.5t87 -29.5t83.5 -56t74 -88t50 -129.5t20 -177t-20 -177.5t-50 -130t-74 -88t-83 -56.5t-87 -30t-76 -13t-59 -2t-59.5 2t-76.5 13t-87.5 30t-83 56t-73.5 87.5 t-50 129.5t-20 177zM328 479q0 -86 18 -144t49.5 -83.5t59 -34t61.5 -8.5q189 0 189 268q0 69 -13.5 120.5t-32.5 79.5t-46.5 45t-49.5 21.5t-47 4.5q-188 0 -188 -269z" />
<glyph unicode="p" horiz-adv-x="1044" d="M111 -403v1359h258l4 -59q91 78 223 78q26 0 52.5 -3t66 -15.5t74 -32.5t70.5 -58t61.5 -88.5t42 -127.5t16.5 -171t-16.5 -171.5t-42 -128t-61.5 -88.5t-70.5 -58t-74 -32.5t-66 -15.5t-52.5 -3q-132 0 -219 71v-456h-266zM367 479q0 -268 178 -268q26 0 46 4t44.5 20 t41 43.5t27.5 79t11 121.5q0 69 -11 120t-27.5 78.5t-41 43.5t-44.5 20t-46 4q-178 0 -178 -266z" />
<glyph unicode="q" horiz-adv-x="1044" d="M66 479q0 94 16.5 171t42 127.5t61.5 88.5t70.5 58t74 32.5t66 15.5t52.5 3q128 0 223 -78l4 59h258v-1359h-266v456q-90 -71 -219 -71q-26 0 -52.5 3t-66 15.5t-74 32.5t-70.5 58t-61.5 88.5t-42 128t-16.5 171.5zM330 479q0 -70 11 -121.5t27.5 -79t41 -43.5t44.5 -20 t46 -4q178 0 178 268q0 266 -178 266q-26 0 -46 -4t-44.5 -20t-41 -43.5t-27.5 -78.5t-11 -120z" />
<glyph unicode="r" horiz-adv-x="700" d="M111 0v956h258l4 -94q80 111 248 112q24 0 49 -3v-260q-33 6 -65 6q-24 1 -46 -3q-53 -8 -93.5 -29t-64.5 -74t-24 -134v-477h-266z" />
<glyph unicode="s" horiz-adv-x="909" d="M53 307l258 15q1 -19 6.5 -37t20 -39t45.5 -34t76 -13t75.5 9t42 23.5t15.5 24.5t4 20q0 31 -30 48.5t-87 31.5l-141 35q-256 62 -256 295q0 29 6 60t29.5 74t61 75.5t108 56t164.5 23.5q92 0 162.5 -23t109.5 -55t64 -77.5t33 -79.5t11 -72l-258 -15q-6 48 -31.5 77.5 t-90.5 29.5q-39 0 -66 -8.5t-37.5 -22t-14 -23t-3.5 -18.5q0 -28 21.5 -45.5t74.5 -30.5q22 -5 70.5 -15t68.5 -15q76 -18 131 -48t83 -59.5t44 -69t19.5 -66t3.5 -60.5q0 -19 -3 -40t-13 -51t-27 -57t-47 -55t-70 -48t-100 -33t-133 -13q-97 0 -171 24.5t-115 59.5 t-68 82.5t-35.5 84t-10.5 74.5z" />
<glyph unicode="t" horiz-adv-x="700" d="M29 733v223h159v301l269 15v-316h190v-223h-190v-438q0 -41 16 -56.5t62 -15.5l98 10v-235q-82 -16 -135 -16q-170 0 -240 77.5t-70 223.5v450h-159z" />
<glyph unicode="u" horiz-adv-x="1036" d="M100 385v571h267v-571q0 -48 10 -82.5t23.5 -51.5t36 -26.5t38 -11.5t39.5 -2q11 0 24 2t36.5 13t40.5 29.5t30.5 56.5t13.5 89v555h267v-956h-254l-8 66q-87 -84 -222 -84q-30 0 -58 3t-63.5 13.5t-65 27t-59.5 47.5t-50 72t-33 102.5t-13 137.5z" />
<glyph unicode="v" horiz-adv-x="917" d="M4 956h281l174 -643l174 643h280l-311 -956h-287z" />
<glyph unicode="w" horiz-adv-x="1384" d="M12 956h277l119 -581l143 581h283l143 -581l119 581h276l-242 -956h-266l-172 659l-172 -659h-266z" />
<glyph unicode="x" horiz-adv-x="980" d="M8 0l330 487l-309 469h307l151 -258l160 258h314l-322 -464l334 -492h-309l-177 285l-168 -285h-311z" />
<glyph unicode="y" horiz-adv-x="917" d="M4 956h281l176 -634l174 634h278l-348 -1071q-28 -88 -54.5 -141.5t-67 -93.5t-96.5 -56t-138 -16l-146 8v230q89 -6 136 -6q20 0 36.5 4t28 7t22.5 15.5t16 18t13.5 26.5t11 28t11.5 36.5t12 38.5l4 16h-39z" />
<glyph unicode="z" horiz-adv-x="854" d="M51 0v195l418 538h-401v223h716v-194l-415 -539h434v-223h-752z" />
<glyph unicode="{" horiz-adv-x="739" d="M141 571v197q60 2 83.5 18t23.5 66v309q0 89 25.5 163.5t77 132t135.5 90.5t194 34v-213q-61 -2 -101 -17.5t-60.5 -45t-28 -64t-7.5 -84.5v-307q0 -131 -65 -184q35 -37 50 -99t15 -118v-306q0 -50 7.5 -84.5t28 -64.5t60.5 -45.5t101 -18.5v-211q-110 1 -194 34 t-135.5 90.5t-77 132t-25.5 163.5v310q0 119 -107 122z" />
<glyph unicode="|" horiz-adv-x="528" d="M152 -158v1663h225v-1663h-225z" />
<glyph unicode="}" horiz-adv-x="739" d="M59 -70q61 3 101 18.5t60.5 45.5t28 64.5t7.5 84.5v306q0 56 14.5 118t48.5 99q-63 53 -63 184v307q0 50 -7.5 84.5t-28 64t-60.5 45t-101 17.5v213q110 -1 194.5 -34t136 -90.5t77 -132t25.5 -163.5v-309q0 -50 23.5 -66t82.5 -18v-197q-106 -3 -106 -122v-310 q0 -89 -25.5 -163.5t-77 -132t-136 -90.5t-194.5 -34v211z" />
<glyph unicode="~" horiz-adv-x="1298" d="M133 549q47 114 125.5 176.5t206.5 62.5q72 0 186 -40q129 -48 166 -48q40 0 70.5 30.5t48.5 82.5l225 -78q-49 -113 -124.5 -174t-200.5 -61q-105 0 -220 45q-14 5 -39.5 14t-40.5 14t-32 9t-27 4q-42 0 -73.5 -32.5t-47.5 -76.5z" />
<glyph unicode="&#xa1;" horiz-adv-x="565" d="M123 819q0 66 47 113t113 47t112.5 -47t46.5 -113t-46.5 -113t-112.5 -47t-113 47t-47 113zM143 -389v962h283v-962h-283z" />
<glyph unicode="&#xa2;" horiz-adv-x="968" d="M66 477q0 101 20.5 182.5t52 132.5t76 88.5t85.5 55t87 27.5v151h231v-151q256 -55 291 -332l-264 -17q-21 134 -139 134q-25 0 -46.5 -4.5t-47 -21t-43 -44t-29.5 -79t-12 -120.5q0 -86 16.5 -144t45.5 -83.5t55 -34t59 -8.5q52 0 96.5 31.5t56.5 109.5l263 -14 q-7 -70 -29.5 -126.5t-52 -92.5t-69 -62.5t-75.5 -40.5t-76 -22v-150h-231v152q-47 10 -88 28.5t-85.5 55.5t-75.5 87.5t-51.5 131t-20.5 180.5z" />
<glyph unicode="&#xa3;" horiz-adv-x="1044" d="M70 0v244h84q37 0 51 16t14 68v235h-149v217h149v281q0 16 0.5 30t5 40t11 47.5t20.5 49.5t33 50t49 44t67 37t88.5 24.5t112.5 9.5q77 0 139.5 -16.5t102 -41t68 -61t42.5 -67.5t22 -70.5t9.5 -60.5t1.5 -46l-278 -12q0 17 -2.5 34t-11.5 43.5t-33 43t-60 16.5 q-102 0 -102 -104v-271h287v-217h-287v-186q0 -85 -33 -135h535v-242h-936z" />
<glyph unicode="&#xa5;" horiz-adv-x="1163" d="M4 1372h313l263 -512l264 512h315l-330 -592h191v-213h-297v-108h297v-213h-297v-246h-285v246h-332v213h332v108h-332v213h226z" />
<glyph unicode="&#xa6;" horiz-adv-x="507" d="M141 -158v740h226v-740h-226zM141 766v739h226v-739h-226z" />
<glyph unicode="&#xa7;" horiz-adv-x="1140" d="M104 532q0 107 54.5 190t148.5 128q-102 80 -102 223q0 29 6.5 61t30.5 76.5t62.5 78t112 57.5t169.5 24q69 0 126 -12.5t96 -31.5t69.5 -47.5t47.5 -56t29 -60t16.5 -57t6.5 -50.5l-264 -17q-6 49 -33.5 80t-93.5 31q-41 0 -68.5 -9t-38.5 -22.5t-14.5 -23.5t-3.5 -19 q0 -28 22 -46.5t78 -39.5q148 -58 178 -71q297 -134 297 -386q0 -101 -50 -183t-138 -130q47 -27 77.5 -61t43 -71t16.5 -64t4 -62q0 -29 -6.5 -61.5t-31.5 -78t-66 -80.5t-119.5 -60t-181.5 -25q-72 0 -132.5 13t-101.5 34t-73 51t-50.5 59.5t-31 64t-17.5 61t-6 53.5 l266 14q1 -20 6.5 -38.5t20.5 -40.5t47 -35t78 -13q141 0 141 86q0 53 -137 105l-199 73q-69 26 -123 65t-85 79.5t-50.5 86.5t-26.5 84t-6 74zM352 535q0 -51 37.5 -102t120.5 -79q56 -18 100 -18q74 0 124 57.5t50 136.5q0 128 -155 179q-59 18 -101 18q-74 0 -125 -57 t-51 -135z" />
<glyph unicode="&#xa8;" horiz-adv-x="952" d="M139 1217q0 60 43 102.5t103 42.5t101.5 -42.5t41.5 -102.5t-41.5 -103t-101.5 -43t-103 43t-43 103zM524 1217q0 60 42 102.5t102 42.5t102.5 -42.5t42.5 -102.5t-42.5 -103t-102.5 -43t-102 43t-42 103z" />
<glyph unicode="&#xa9;" horiz-adv-x="1720" d="M78 653q0 159 62 304t166.5 250t249.5 167t304 62t304 -62t249.5 -167t166.5 -250t62 -304t-62 -304t-166.5 -249.5t-249.5 -166.5t-304 -62t-304 62t-249.5 166.5t-166.5 249.5t-62 304zM236 653q0 -127 49.5 -242.5t133 -199t199 -133t242.5 -49.5q169 0 313 83.5 t228 227.5t84 313t-84 313t-228 228t-313 84t-313 -84t-227.5 -228t-83.5 -313zM424 653q0 98 19.5 177.5t48.5 130t72 88.5t81.5 56.5t85.5 29.5t75 13.5t58 2.5q27 0 52.5 -2t64.5 -10t72.5 -21.5t70.5 -40t64.5 -61.5t49.5 -89t30 -120l-264 -16q-21 133 -140 133 q-25 0 -46.5 -4.5t-47 -21t-43 -44t-29.5 -79t-12 -120.5q0 -86 16.5 -144t45.5 -83.5t55 -34t59 -8.5q52 0 97 31.5t57 109.5l262 -14q-7 -66 -27.5 -120.5t-48.5 -90.5t-64.5 -63.5t-71 -42t-73.5 -23.5t-66.5 -11.5t-54.5 -2.5q-31 0 -59.5 2t-76.5 13t-87 30t-82.5 56 t-73.5 87.5t-49.5 129.5t-19.5 177z" />
<glyph unicode="&#xaa;" horiz-adv-x="811" d="M84 872q0 86 59.5 134t163.5 75l166 35q-1 47 -22.5 65.5t-65.5 18.5q-46 0 -63 -17.5t-27 -62.5l-199 10q39 238 289 238q86 0 145 -21t88 -61t40.5 -84t11.5 -102v-432h-185l-2 34q-62 -49 -147 -49q-112 0 -182 61t-70 158zM285 870q0 -24 17.5 -39.5t51.5 -15.5 q47 0 83 33.5t36 95.5l4 19q-64 -19 -127 -33q-65 -16 -65 -60z" />
<glyph unicode="&#xab;" horiz-adv-x="1325" d="M197 424v133l391 404l145 -156l-303 -316l303 -313l-145 -158zM657 424v133l392 404l145 -156l-303 -316l303 -313l-145 -158z" />
<glyph unicode="&#xac;" horiz-adv-x="1329" d="M141 528v222h1047v-627h-221v405h-826z" />
<glyph unicode="&#xad;" d="M141 449v229h690v-229h-690z" />
<glyph unicode="&#xae;" horiz-adv-x="1720" d="M78 653q0 159 62 304t166.5 250t249.5 167t304 62t304 -62t249.5 -167t166.5 -250t62 -304t-62 -304t-166.5 -249.5t-249.5 -166.5t-304 -62t-304 62t-249.5 166.5t-166.5 249.5t-62 304zM236 653q0 -127 49.5 -242.5t133 -199t199 -133t242.5 -49.5q169 0 313 83.5 t228 227.5t84 313t-84 313t-228 228t-313 84t-313 -84t-227.5 -228t-83.5 -313zM539 219v883h295q189 0 283.5 -74.5t94.5 -214.5q0 -171 -143 -252l162 -342h-256l-129 289h-12h-52v-289h-243zM782 723h52q73 0 102 28t29 64q0 74 -131 74h-52v-166z" />
<glyph unicode="&#xaf;" horiz-adv-x="1005" d="M203 1110v205h608v-205h-608z" />
<glyph unicode="&#xb0;" horiz-adv-x="901" d="M141 1151q0 127 91 218t219 91q127 0 218 -91t91 -218t-91 -218t-218 -91q-128 0 -219 91t-91 218zM317 1151q0 -55 39 -94t95 -39q55 0 94 39t39 94t-39 94t-94 39q-56 0 -95 -39t-39 -94z" />
<glyph unicode="&#xb1;" horiz-adv-x="1329" d="M141 -23h1047v-213h-1047v213zM141 528v222h412v403h221v-403h414v-222h-414v-405h-221v405h-412z" />
<glyph unicode="&#xb2;" horiz-adv-x="638" d="M61 1169q2 27 8.5 53.5t24 58.5t42.5 56t68.5 40t98.5 16q122 0 182 -60.5t60 -161.5q0 -153 -254 -348h256v-153h-481v131l47 45q136 128 199 203t63 122q0 12 -1.5 20t-7.5 21t-22 20t-41 7q-36 0 -56 -25.5t-22 -56.5z" />
<glyph unicode="&#xb3;" horiz-adv-x="663" d="M66 895l167 8q2 -41 21 -67.5t59 -26.5q93 0 93 74q0 77 -138 80v139q66 1 92.5 20t26.5 56q0 28 -19 44.5t-55 16.5q-58 0 -65 -76l-168 11q7 94 65.5 156.5t167.5 62.5q125 0 183.5 -61.5t58.5 -153.5q0 -82 -74 -140q40 -18 68.5 -57t28.5 -98q0 -44 -14.5 -83 t-44.5 -73t-83 -54t-123 -20q-118 0 -181 70.5t-66 171.5z" />
<glyph unicode="&#xb4;" horiz-adv-x="765" d="M141 1067l191 301h293l-217 -301h-267z" />
<glyph unicode="&#xb5;" horiz-adv-x="1138" d="M111 -395v1349h266v-538q0 -207 209 -207q27 1 53 8.5t56 26t48.5 59t18.5 98.5v555h266v-956h-254l-8 66q-45 -44 -89 -64t-104 -20q-62 0 -106.5 18.5t-89.5 58.5v-454h-266z" />
<glyph unicode="&#xb6;" horiz-adv-x="1357" d="M100 979q0 178 108 282.5t327 110.5h284v-1372h-284v571q-216 6 -325.5 119.5t-109.5 288.5zM383 979q0 -139 152 -150v285q-40 -2 -69.5 -13t-45 -24.5t-24.5 -32.5t-11 -33.5t-2 -31.5zM930 0v1372h284v-1372h-284z" />
<glyph unicode="&#xb7;" horiz-adv-x="624" d="M143 690q0 70 49.5 120t120.5 50t120.5 -50t49.5 -120t-49.5 -120t-120.5 -50t-120.5 50t-49.5 120z" />
<glyph unicode="&#xb8;" horiz-adv-x="620" d="M125 -319l33 180q71 -23 110 -23q43 0 43 35q0 30 -42.5 67t-96.5 58l16 57h203q6 -3 15 -8t33 -23.5t42.5 -39.5t33.5 -55t15 -70q0 -101 -62 -157t-161 -56q-36 0 -81.5 9t-73.5 17z" />
<glyph unicode="&#xb9;" horiz-adv-x="624" d="M121 1147v127q33 0 59.5 10.5t40 25t22 29t11.5 25.5l2 10h152v-702h-170v475h-117z" />
<glyph unicode="&#xba;" horiz-adv-x="819" d="M86 1014q0 71 14.5 128t36 93.5t53 63.5t60 40.5t63.5 21.5t55.5 9.5t43.5 1.5q22 0 42 -1.5t54.5 -9.5t62.5 -21.5t59.5 -40t53 -63t35.5 -93.5t14 -127q0 -71 -14 -128t-35.5 -93.5t-53 -64t-59.5 -41t-62.5 -21.5t-54.5 -9.5t-42 -1.5q-23 0 -44 1.5t-55.5 9.5 t-63 21.5t-60 40.5t-53 63.5t-36 93.5t-14.5 127zM287 1016q0 -182 125 -182q123 0 123 180q0 57 -12.5 96t-33 56t-38.5 23.5t-39 6.5q-125 0 -125 -180z" />
<glyph unicode="&#xbb;" horiz-adv-x="1351" d="M174 176l303 313l-303 316l148 156l387 -404v-133l-387 -406zM655 176l303 313l-303 316l148 156l387 -404v-133l-387 -406z" />
<glyph unicode="&#xbc;" horiz-adv-x="1425" d="M121 1147v127q33 0 59.5 10.5t40 25t22 29t11.5 25.5l2 10h152v-702h-170v475h-117zM313 8l617 1376l170 -79l-615 -1379zM817 125v129l303 446h162v-426h94v-149h-94v-125h-168v125h-297zM989 274h125v191z" />
<glyph unicode="&#xbd;" horiz-adv-x="1525" d="M121 1147v127q33 0 59.5 10.5t40 25t22 29t11.5 25.5l2 10h152v-702h-170v475h-117zM315 8l617 1376l170 -79l-615 -1379zM948 496q3 35 14 68.5t36 71t74.5 60.5t117.5 23q122 0 182 -60t60 -161q0 -153 -254 -348h256v-154h-482v131l47 45q136 128 199.5 203.5 t63.5 122.5q0 12 -1.5 20t-7.5 20.5t-22 19.5t-41 7q-36 0 -56 -25.5t-22 -56.5z" />
<glyph unicode="&#xbe;" horiz-adv-x="1525" d="M66 895l167 8q2 -41 21 -67.5t59 -26.5q93 0 93 74q0 77 -138 80v139q66 1 92.5 20t26.5 56q0 28 -19 44.5t-55 16.5q-58 0 -65 -76l-168 11q7 94 65.5 156.5t167.5 62.5q125 0 183.5 -61.5t58.5 -153.5q0 -82 -74 -140q40 -18 68.5 -57t28.5 -98q0 -44 -14.5 -83 t-44.5 -73t-83 -54t-123 -20q-118 0 -181 70.5t-66 171.5zM403 8l617 1376l170 -79l-615 -1379zM934 125v129l303 446h162v-426h94v-149h-94v-125h-168v125h-297zM1106 274h125v191z" />
<glyph unicode="&#xbf;" horiz-adv-x="1116" d="M133 -12q0 46 11.5 89.5t26 74t44 67.5t48 57t54.5 56q71 72 105 130.5t27 127.5h249q5 -83 -22 -158t-62 -122t-92 -105q-2 -2 -18 -18.5t-18.5 -19t-16 -17.5t-16.5 -20t-14 -19t-13.5 -21.5t-9.5 -21.5t-9 -24.5t-4 -25t-2 -28.5q0 -24 1.5 -40.5t9.5 -43t22.5 -43 t44.5 -29t72 -12.5q25 0 46 6t36 13.5t26.5 23t18.5 26t12 32.5t7.5 31t3.5 33.5t1 29v26.5l271 -14q0 -31 -1.5 -58t-10.5 -75t-24.5 -86.5t-47 -82.5t-74.5 -73.5t-110.5 -49.5t-151.5 -20q-107 0 -189.5 32t-132 88.5t-74 128t-24.5 155.5zM410 815q0 66 46.5 113 t112.5 47t113 -47t47 -113t-47 -113t-113 -47t-112.5 47t-46.5 113z" />
<glyph unicode="&#xc0;" horiz-adv-x="1245" d="M14 0l453 1372h309l455 -1372h-291l-84 272h-467l-84 -272h-291zM285 1786h293l190 -301h-266zM465 520h313l-155 508z" />
<glyph unicode="&#xc1;" horiz-adv-x="1245" d="M14 0l453 1372h309l455 -1372h-291l-84 272h-467l-84 -272h-291zM465 520h313l-155 508zM494 1485l190 301h293l-217 -301h-266z" />
<glyph unicode="&#xc2;" horiz-adv-x="1245" d="M14 0l453 1372h309l455 -1372h-291l-84 272h-467l-84 -272h-291zM285 1483l200 295h285l193 -295h-242l-94 141l-95 -141h-247zM465 520h313l-155 508z" />
<glyph unicode="&#xc3;" horiz-adv-x="1245" d="M14 0l453 1372h309l455 -1372h-291l-84 272h-467l-84 -272h-291zM258 1559q70 213 246 213q70 0 127 -41q64 -43 82 -43q28 0 43.5 21t29.5 65l175 -48q-22 -98 -88 -164.5t-164 -66.5q-57 0 -123 41q-8 4 -27 17t-33 19.5t-26 6.5q-25 0 -40 -21t-30 -67zM465 520h313 l-155 508z" />
<glyph unicode="&#xc4;" horiz-adv-x="1245" d="M14 0l453 1372h309l455 -1372h-291l-84 272h-467l-84 -272h-291zM289 1634q0 60 42.5 103t102.5 43t102 -43t42 -103t-42 -102.5t-102 -42.5t-102.5 42.5t-42.5 102.5zM465 520h313l-155 508zM674 1634q0 60 41.5 103t101.5 43t103 -43t43 -103t-43 -102.5t-103 -42.5 t-101.5 42.5t-41.5 102.5z" />
<glyph unicode="&#xc5;" horiz-adv-x="1245" d="M14 0l449 1360q-64 64 -64 156t66 157.5t158 65.5t157.5 -65.5t65.5 -157.5t-66 -158l451 -1358h-291l-84 272h-467l-84 -272h-291zM465 520h313l-155 508zM539 1516q0 -35 24.5 -59.5t59.5 -24.5t59.5 24.5t24.5 59.5t-24.5 59t-59.5 24t-59.5 -24t-24.5 -59z" />
<glyph unicode="&#xc6;" horiz-adv-x="1525" d="M14 0l453 1372h956v-256h-456v-287h434v-258h-434v-315h467v-256h-752v272h-291l-84 -272h-293zM469 520h213v590h-27z" />
<glyph unicode="&#xc7;" horiz-adv-x="1165" d="M82 686q0 66 4 123.5t17.5 132.5t36 135t64 121t97 102t138.5 67t186 26q429 0 487 -447l-285 -12q-13 102 -61.5 155.5t-142.5 53.5q-66 0 -113.5 -27t-74 -68t-42 -104.5t-20 -121.5t-4.5 -134q0 -78 4.5 -136t20 -122.5t42 -105.5t74 -68t113.5 -27q99 0 148 60 t60 170l285 -15q-4 -61 -17.5 -116.5t-41 -110t-67 -97.5t-97 -76t-127.5 -48q59 -63 59 -137q0 -101 -62 -157t-161 -56q-36 0 -81.5 9t-72.5 17l-28 9l33 180q71 -23 110 -23q43 0 43 35q0 30 -41 66t-94 57q-101 23 -175.5 81.5t-114 127.5t-63.5 161.5t-30 164t-6 155.5 z" />
<glyph unicode="&#xc8;" horiz-adv-x="1105" d="M143 0v1372h861v-256h-576v-287h555v-258h-555v-315h586v-256h-871zM315 1786h293l191 -301h-267z" />
<glyph unicode="&#xc9;" horiz-adv-x="1105" d="M143 0v1372h861v-256h-576v-287h555v-258h-555v-315h586v-256h-871zM336 1485l190 301h293l-217 -301h-266z" />
<glyph unicode="&#xca;" horiz-adv-x="1105" d="M143 0v1372h861v-256h-576v-287h555v-258h-555v-315h586v-256h-871zM227 1491l201 295h285l192 -295h-241l-95 141l-94 -141h-248z" />
<glyph unicode="&#xcb;" horiz-adv-x="1105" d="M143 0v1372h861v-256h-576v-287h555v-258h-555v-315h586v-256h-871zM233 1634q0 60 43 103t103 43t101.5 -43t41.5 -103t-41.5 -102.5t-101.5 -42.5t-103 42.5t-43 102.5zM618 1634q0 60 42 103t102 43t102.5 -43t42.5 -103t-42.5 -102.5t-102.5 -42.5t-102 42.5 t-42 102.5z" />
<glyph unicode="&#xcc;" horiz-adv-x="573" d="M-59 1786h292l191 -301h-266zM143 0v1372h287v-1372h-287z" />
<glyph unicode="&#xcd;" horiz-adv-x="575" d="M145 0v1372h287v-1372h-287zM152 1485l190 301h293l-217 -301h-266z" />
<glyph unicode="&#xce;" horiz-adv-x="573" d="M-61 1491l200 295h285l192 -295h-241l-94 141l-95 -141h-247zM143 0v1372h287v-1372h-287z" />
<glyph unicode="&#xcf;" horiz-adv-x="573" d="M-53 1634q0 60 42.5 103t102.5 43t102 -43t42 -103t-42 -102.5t-102 -42.5t-102.5 42.5t-42.5 102.5zM143 0v1372h287v-1372h-287zM332 1634q0 60 41.5 103t101.5 43t103 -43t43 -103t-43 -102.5t-103 -42.5t-101.5 42.5t-41.5 102.5z" />
<glyph unicode="&#xd0;" horiz-adv-x="1253" d="M-12 582v235h153v555h484q100 0 182 -25t137.5 -65.5t98 -98.5t66 -117.5t38.5 -130.5t19.5 -128t4.5 -119q0 -63 -4.5 -120.5t-19.5 -129t-38.5 -131t-66 -118t-98 -99t-137.5 -65.5t-182 -25h-484v582h-153zM424 256h201q66 0 114 26t75 66t43 100.5t21 115t5 124.5 q0 69 -5 123.5t-21 114t-43 99t-75 65.5t-114 26h-201v-299h305v-235h-305v-326z" />
<glyph unicode="&#xd1;" horiz-adv-x="1292" d="M143 0v1372h291l432 -858v858h283v-1372h-289l-432 852v-852h-285zM283 1559q70 213 245 213q70 0 127 -41q64 -43 82 -43q28 0 44 21t30 65l174 -48q-22 -98 -88 -164.5t-164 -66.5q-57 0 -123 41q-8 4 -27 17t-33 19.5t-26 6.5q-24 0 -39 -21t-30 -67z" />
<glyph unicode="&#xd2;" horiz-adv-x="1249" d="M82 686q0 66 4 123.5t17.5 132.5t36 135t64 121t97 102t138.5 67t186 26t186 -26t138.5 -67t97 -102t64 -121t36 -135t17 -132.5t3.5 -123.5t-3.5 -123.5t-17 -132t-36 -134.5t-64 -121t-97 -102t-138.5 -67t-186 -26t-186 26t-138.5 67t-97 102t-64 121t-36 134.5 t-17.5 132t-4 123.5zM330 1786h293l190 -301h-266zM369 688q0 -77 4.5 -136t20.5 -123t43 -105t74.5 -68t113.5 -27t113.5 27t74.5 68t43 105t20.5 123t4.5 136q0 76 -4.5 134t-20.5 121.5t-42.5 104.5t-74.5 68t-114 27t-114 -27t-74.5 -68t-42.5 -104.5t-20.5 -121.5 t-4.5 -134z" />
<glyph unicode="&#xd3;" horiz-adv-x="1249" d="M82 686q0 66 4 123.5t17.5 132.5t36 135t64 121t97 102t138.5 67t186 26t186 -26t138.5 -67t97 -102t64 -121t36 -135t17 -132.5t3.5 -123.5t-3.5 -123.5t-17 -132t-36 -134.5t-64 -121t-97 -102t-138.5 -67t-186 -26t-186 26t-138.5 67t-97 102t-64 121t-36 134.5 t-17.5 132t-4 123.5zM369 688q0 -77 4.5 -136t20.5 -123t43 -105t74.5 -68t113.5 -27t113.5 27t74.5 68t43 105t20.5 123t4.5 136q0 76 -4.5 134t-20.5 121.5t-42.5 104.5t-74.5 68t-114 27t-114 -27t-74.5 -68t-42.5 -104.5t-20.5 -121.5t-4.5 -134zM457 1485l190 301h293 l-217 -301h-266z" />
<glyph unicode="&#xd4;" horiz-adv-x="1249" d="M82 686q0 66 4 123.5t17.5 132.5t36 135t64 121t97 102t138.5 67t186 26t186 -26t138.5 -67t97 -102t64 -121t36 -135t17 -132.5t3.5 -123.5t-3.5 -123.5t-17 -132t-36 -134.5t-64 -121t-97 -102t-138.5 -67t-186 -26t-186 26t-138.5 67t-97 102t-64 121t-36 134.5 t-17.5 132t-4 123.5zM289 1491l200 295h285l193 -295h-242l-94 141l-94 -141h-248zM369 688q0 -77 4.5 -136t20.5 -123t43 -105t74.5 -68t113.5 -27t113.5 27t74.5 68t43 105t20.5 123t4.5 136q0 76 -4.5 134t-20.5 121.5t-42.5 104.5t-74.5 68t-114 27t-114 -27t-74.5 -68 t-42.5 -104.5t-20.5 -121.5t-4.5 -134z" />
<glyph unicode="&#xd5;" horiz-adv-x="1249" d="M82 686q0 66 4 123.5t17.5 132.5t36 135t64 121t97 102t138.5 67t186 26t186 -26t138.5 -67t97 -102t64 -121t36 -135t17 -132.5t3.5 -123.5t-3.5 -123.5t-17 -132t-36 -134.5t-64 -121t-97 -102t-138.5 -67t-186 -26t-186 26t-138.5 67t-97 102t-64 121t-36 134.5 t-17.5 132t-4 123.5zM270 1559q70 213 246 213q70 0 127 -41q64 -43 82 -43q28 0 44 21t30 65l174 -48q-22 -98 -88 -164.5t-164 -66.5q-57 0 -123 41q-8 4 -27 17t-33 19.5t-26 6.5q-25 0 -40 -21t-30 -67zM369 688q0 -77 4.5 -136t20.5 -123t43 -105t74.5 -68t113.5 -27 t113.5 27t74.5 68t43 105t20.5 123t4.5 136q0 76 -4.5 134t-20.5 121.5t-42.5 104.5t-74.5 68t-114 27t-114 -27t-74.5 -68t-42.5 -104.5t-20.5 -121.5t-4.5 -134z" />
<glyph unicode="&#xd6;" horiz-adv-x="1249" d="M82 686q0 66 4 123.5t17.5 132.5t36 135t64 121t97 102t138.5 67t186 26t186 -26t138.5 -67t97 -102t64 -121t36 -135t17 -132.5t3.5 -123.5t-3.5 -123.5t-17 -132t-36 -134.5t-64 -121t-97 -102t-138.5 -67t-186 -26t-186 26t-138.5 67t-97 102t-64 121t-36 134.5 t-17.5 132t-4 123.5zM285 1634q0 60 42.5 103t102.5 43t101.5 -43t41.5 -103t-41.5 -102.5t-101.5 -42.5t-102.5 42.5t-42.5 102.5zM369 688q0 -77 4.5 -136t20.5 -123t43 -105t74.5 -68t113.5 -27t113.5 27t74.5 68t43 105t20.5 123t4.5 136q0 76 -4.5 134t-20.5 121.5 t-42.5 104.5t-74.5 68t-114 27t-114 -27t-74.5 -68t-42.5 -104.5t-20.5 -121.5t-4.5 -134zM670 1634q0 60 41.5 103t101.5 43t102.5 -43t42.5 -103t-42.5 -102.5t-102.5 -42.5t-101.5 42.5t-41.5 102.5z" />
<glyph unicode="&#xd7;" horiz-adv-x="1241" d="M145 317l322 320l-322 317l156 156l320 -319l321 319l154 -156l-322 -317l322 -320l-154 -149l-321 315l-320 -315z" />
<glyph unicode="&#xd8;" horiz-adv-x="1251" d="M82 686q0 66 4 123.5t17.5 132.5t36 135t64 121t97 102t138.5 67t186 26q97 0 186 -27l86 193l195 -89l-95 -210q172 -172 172 -574q0 -67 -3.5 -124t-17 -132t-36 -134.5t-64 -120.5t-97 -102t-139 -67t-187.5 -26q-95 0 -189 24l-84 -190l-192 92l92 207 q-170 172 -170 573zM369 688q0 -169 24 -260l314 702q-41 13 -82 13q-66 0 -114 -27t-74.5 -68t-42.5 -104.5t-20.5 -121.5t-4.5 -134zM543 242q41 -13 82 -13q67 0 115 27t75 68t42.5 105.5t19.5 122.5t4 136q0 161 -25 256z" />
<glyph unicode="&#xd9;" horiz-adv-x="1212" d="M121 483v889h285v-889q0 -26 0.5 -44t5 -46.5t12 -49t22 -44t35.5 -38t53 -24.5t72 -10q41 0 73.5 10t53 24.5t36 38t23 44t11.5 49t5 47t1 43.5v889h283v-889q0 -26 -1 -47t-5.5 -61t-13 -72t-25.5 -74.5t-41 -75.5t-61.5 -67t-84 -56t-112 -36t-142.5 -14t-142.5 14 t-112 36t-84 56t-61 66.5t-41 75.5t-25.5 75t-13 72.5t-5.5 61t-0.5 46.5zM309 1786h293l191 -301h-267z" />
<glyph unicode="&#xda;" horiz-adv-x="1212" d="M121 483v889h285v-889q0 -26 0.5 -44t5 -46.5t12 -49t22 -44t35.5 -38t53 -24.5t72 -10q41 0 73.5 10t53 24.5t36 38t23 44t11.5 49t5 47t1 43.5v889h283v-889q0 -26 -1 -47t-5.5 -61t-13 -72t-25.5 -74.5t-41 -75.5t-61.5 -67t-84 -56t-112 -36t-142.5 -14t-142.5 14 t-112 36t-84 56t-61 66.5t-41 75.5t-25.5 75t-13 72.5t-5.5 61t-0.5 46.5zM436 1485l191 301h293l-218 -301h-266z" />
<glyph unicode="&#xdb;" horiz-adv-x="1212" d="M121 483v889h285v-889q0 -26 0.5 -44t5 -46.5t12 -49t22 -44t35.5 -38t53 -24.5t72 -10q41 0 73.5 10t53 24.5t36 38t23 44t11.5 49t5 47t1 43.5v889h283v-889q0 -26 -1 -47t-5.5 -61t-13 -72t-25.5 -74.5t-41 -75.5t-61.5 -67t-84 -56t-112 -36t-142.5 -14t-142.5 14 t-112 36t-84 56t-61 66.5t-41 75.5t-25.5 75t-13 72.5t-5.5 61t-0.5 46.5zM266 1491l201 295h285l192 -295h-242l-94 141l-94 -141h-248z" />
<glyph unicode="&#xdc;" horiz-adv-x="1212" d="M121 483v889h285v-889q0 -26 0.5 -44t5 -46.5t12 -49t22 -44t35.5 -38t53 -24.5t72 -10q41 0 73.5 10t53 24.5t36 38t23 44t11.5 49t5 47t1 43.5v889h283v-889q0 -26 -1 -47t-5.5 -61t-13 -72t-25.5 -74.5t-41 -75.5t-61.5 -67t-84 -56t-112 -36t-142.5 -14t-142.5 14 t-112 36t-84 56t-61 66.5t-41 75.5t-25.5 75t-13 72.5t-5.5 61t-0.5 46.5zM260 1634q0 60 43 103t103 43t101.5 -43t41.5 -103t-41.5 -102.5t-101.5 -42.5t-103 42.5t-43 102.5zM645 1634q0 60 41.5 103t101.5 43t103 -43t43 -103t-43 -102.5t-103 -42.5t-101.5 42.5 t-41.5 102.5z" />
<glyph unicode="&#xdd;" horiz-adv-x="1161" d="M2 1372h315l263 -512l264 512h315l-436 -794v-578h-285v578zM338 1485l190 301h293l-217 -301h-266z" />
<glyph unicode="&#xde;" horiz-adv-x="1173" d="M145 0v1372h285v-262h227q230 0 344.5 -106.5t114.5 -288.5q0 -86 -27.5 -158.5t-82 -128.5t-144 -87.5t-205.5 -31.5h-227v-309h-285zM430 565h227q177 0 177 150q0 24 -5 43t-21 42t-54.5 36.5t-96.5 13.5h-227v-285z" />
<glyph unicode="&#xdf;" horiz-adv-x="1165" d="M156 0v956q0 28 0.5 45.5t4.5 52t11 58t21.5 57t34.5 56.5t52.5 48.5t73 41t97 25.5t124.5 10q84 0 153 -16.5t114 -42t79 -61t52.5 -69.5t29.5 -72.5t14 -64t3 -49.5q0 -46 -14 -89t-34 -71t-39.5 -49.5t-33.5 -31.5l-14 -9q8 -4 21 -12t47 -37.5t60 -63t47 -89 t21 -115.5q0 -28 -2 -54t-12.5 -69.5t-28.5 -79t-53.5 -75.5t-83.5 -67t-123 -45t-168 -18h-104v240h104q197 0 197 168q0 29 -3.5 49.5t-19.5 46t-44 41t-81.5 26.5t-128.5 11v239q51 2 86.5 8t68 20.5t49 43.5t16.5 72q0 149 -177 149q-42 0 -71 -11.5t-43 -25.5 t-21.5 -39t-8.5 -38.5t-1 -37.5v-6v-956h-272z" />
<glyph unicode="&#xe0;" d="M63 281q0 119 83 185t227 99l243 51q0 79 -33 111.5t-104 32.5t-97.5 -26t-39.5 -91l-258 16q14 86 48 148.5t86 98.5t115.5 52.5t143.5 16.5q98 0 170 -20.5t114.5 -53t68 -82.5t34 -100t8.5 -115v-604h-237l-6 63q-84 -81 -219 -81q-157 0 -252 82t-95 217zM203 1368 h293l190 -301h-266zM326 276q0 -38 28 -63t82 -25q71 0 125.5 51t54.5 144v31q-100 -21 -190 -41q-52 -12 -76 -35.5t-24 -61.5z" />
<glyph unicode="&#xe1;" d="M63 281q0 119 83 185t227 99l243 51q0 79 -33 111.5t-104 32.5t-97.5 -26t-39.5 -91l-258 16q14 86 48 148.5t86 98.5t115.5 52.5t143.5 16.5q98 0 170 -20.5t114.5 -53t68 -82.5t34 -100t8.5 -115v-604h-237l-6 63q-84 -81 -219 -81q-157 0 -252 82t-95 217zM303 1067 l191 301h292l-217 -301h-266zM326 276q0 -38 28 -63t82 -25q71 0 125.5 51t54.5 144v31q-100 -21 -190 -41q-52 -12 -76 -35.5t-24 -61.5z" />
<glyph unicode="&#xe2;" d="M63 281q0 119 83 185t227 99l243 51q0 79 -33 111.5t-104 32.5t-97.5 -26t-39.5 -91l-258 16q14 86 48 148.5t86 98.5t115.5 52.5t143.5 16.5q98 0 170 -20.5t114.5 -53t68 -82.5t34 -100t8.5 -115v-604h-237l-6 63q-84 -81 -219 -81q-157 0 -252 82t-95 217zM156 1073 l200 295h285l193 -295h-242l-94 141l-95 -141h-247zM326 276q0 -38 28 -63t82 -25q71 0 125.5 51t54.5 144v31q-100 -21 -190 -41q-52 -12 -76 -35.5t-24 -61.5z" />
<glyph unicode="&#xe3;" d="M63 281q0 119 83 185t227 99l243 51q0 79 -33 111.5t-104 32.5t-97.5 -26t-39.5 -91l-258 16q14 86 48 148.5t86 98.5t115.5 52.5t143.5 16.5q98 0 170 -20.5t114.5 -53t68 -82.5t34 -100t8.5 -115v-604h-237l-6 63q-84 -81 -219 -81q-157 0 -252 82t-95 217zM139 1141 q70 213 246 213q70 0 127 -41q64 -43 82 -43q28 0 44 21t30 65l174 -47q-22 -98 -88 -165t-164 -67q-57 0 -123 41q-8 4 -27 17t-33 19.5t-26 6.5q-25 0 -40 -21t-30 -67zM326 276q0 -38 28 -63t82 -25q71 0 125.5 51t54.5 144v31q-100 -21 -190 -41q-52 -12 -76 -35.5 t-24 -61.5z" />
<glyph unicode="&#xe4;" d="M63 281q0 119 83 185t227 99l243 51q0 79 -33 111.5t-104 32.5t-97.5 -26t-39.5 -91l-258 16q14 86 48 148.5t86 98.5t115.5 52.5t143.5 16.5q98 0 170 -20.5t114.5 -53t68 -82.5t34 -100t8.5 -115v-604h-237l-6 63q-84 -81 -219 -81q-157 0 -252 82t-95 217zM139 1217 q0 60 43 102.5t103 42.5t101.5 -42.5t41.5 -102.5t-41.5 -103t-101.5 -43t-103 43t-43 103zM326 276q0 -38 28 -63t82 -25q71 0 125.5 51t54.5 144v31q-100 -21 -190 -41q-52 -12 -76 -35.5t-24 -61.5zM524 1217q0 60 42 102.5t102 42.5t102.5 -42.5t42.5 -102.5t-42.5 -103 t-102.5 -43t-102 43t-42 103z" />
<glyph unicode="&#xe5;" d="M63 281q0 119 83 185t227 99l243 51q0 79 -33 111.5t-104 32.5t-97.5 -26t-39.5 -91l-258 16q14 86 48 148.5t86 98.5t115.5 52.5t143.5 16.5q98 0 170 -20.5t114.5 -53t68 -82.5t34 -100t8.5 -115v-604h-237l-6 63q-84 -81 -219 -81q-157 0 -252 82t-95 217zM260 1239 q0 92 65.5 157.5t157.5 65.5t158 -65.5t66 -157.5t-66 -157.5t-158 -65.5t-157.5 65.5t-65.5 157.5zM326 276q0 -38 28 -63t82 -25q71 0 125.5 51t54.5 144v31q-100 -21 -190 -41q-52 -12 -76 -35.5t-24 -61.5zM399 1239q0 -35 24.5 -59.5t59.5 -24.5t59.5 24.5t24.5 59.5 t-24.5 59.5t-59.5 24.5t-59.5 -24.5t-24.5 -59.5z" />
<glyph unicode="&#xe6;" horiz-adv-x="1548" d="M53 285q0 64 24 113.5t70 82t98.5 53t121.5 35.5l237 49q0 79 -32.5 109.5t-104.5 30.5t-98 -25.5t-39 -89.5l-258 16q14 86 48 148.5t86 98.5t115.5 52.5t143.5 16.5q220 0 311 -109q105 109 285 109q102 0 180 -30.5t123 -77.5t72.5 -113.5t37 -128.5t9.5 -133l-4 -101 h-609q10 -95 59.5 -141.5t127.5 -46.5q119 0 149 121l264 -19q-17 -77 -52 -136t-76.5 -93.5t-93 -56.5t-96 -29.5t-91.5 -7.5q-223 0 -326 157q-115 -157 -334 -157q-159 0 -253.5 80t-94.5 223zM315 281q0 -42 27 -66.5t82 -24.5q71 0 125.5 51t54.5 144v27 q-94 -19 -182 -37q-55 -11 -81 -32t-26 -62zM874 594h336q-6 80 -46.5 120t-102.5 40q-77 0 -124.5 -42t-62.5 -118z" />
<glyph unicode="&#xe7;" horiz-adv-x="968" d="M66 477q0 98 19.5 177.5t48.5 130t72 88.5t81.5 56.5t85.5 29.5t75 13.5t58 2.5q27 0 52.5 -2t64 -10t72 -21.5t70.5 -40t65 -61.5t49.5 -89t29.5 -120l-264 -17q-21 134 -139 134q-25 0 -46.5 -4.5t-47 -21t-43 -44t-29.5 -79t-12 -120.5q0 -86 16.5 -144t45.5 -83.5 t55 -34t59 -8.5q52 0 96.5 31.5t56.5 109.5l263 -14q-16 -147 -88.5 -226t-172.5 -108q68 -64 68 -143q0 -101 -62 -157t-161 -56q-36 0 -81.5 9t-72.5 17l-28 9l32 180q72 -23 111 -23q43 0 43 35q0 30 -42.5 67t-96.5 58v2q-45 12 -84.5 31t-81 56.5t-70.5 88t-48 128 t-19 173.5z" />
<glyph unicode="&#xe8;" horiz-adv-x="1009" d="M66 477q0 97 20 175.5t51 129.5t75 88.5t84.5 57t88 31t77.5 14t60 2.5q102 0 180 -30.5t123 -77.5t72.5 -113.5t37 -128.5t9.5 -133l-4 -101h-608q10 -96 59.5 -144t126.5 -48q119 0 150 125l264 -19q-21 -95 -68 -162.5t-108 -100.5t-117.5 -46.5t-116.5 -13.5 q-31 0 -60 2t-77.5 13t-88.5 30t-84.5 56t-75 87.5t-50.5 129.5t-20 177zM217 1368h293l190 -301h-266zM336 592h336q-6 80 -47.5 124t-102.5 44q-76 0 -123 -45.5t-63 -122.5z" />
<glyph unicode="&#xe9;" horiz-adv-x="1009" d="M66 477q0 97 20 175.5t51 129.5t75 88.5t84.5 57t88 31t77.5 14t60 2.5q102 0 180 -30.5t123 -77.5t72.5 -113.5t37 -128.5t9.5 -133l-4 -101h-608q10 -96 59.5 -144t126.5 -48q119 0 150 125l264 -19q-21 -95 -68 -162.5t-108 -100.5t-117.5 -46.5t-116.5 -13.5 q-31 0 -60 2t-77.5 13t-88.5 30t-84.5 56t-75 87.5t-50.5 129.5t-20 177zM336 592h336q-6 80 -47.5 124t-102.5 44q-76 0 -123 -45.5t-63 -122.5zM342 1067l190 301h293l-217 -301h-266z" />
<glyph unicode="&#xea;" horiz-adv-x="1009" d="M66 477q0 97 20 175.5t51 129.5t75 88.5t84.5 57t88 31t77.5 14t60 2.5q102 0 180 -30.5t123 -77.5t72.5 -113.5t37 -128.5t9.5 -133l-4 -101h-608q10 -96 59.5 -144t126.5 -48q119 0 150 125l264 -19q-21 -95 -68 -162.5t-108 -100.5t-117.5 -46.5t-116.5 -13.5 q-31 0 -60 2t-77.5 13t-88.5 30t-84.5 56t-75 87.5t-50.5 129.5t-20 177zM186 1073l201 295h285l192 -295h-241l-95 141l-94 -141h-248zM336 592h336q-6 80 -47.5 124t-102.5 44q-76 0 -123 -45.5t-63 -122.5z" />
<glyph unicode="&#xeb;" horiz-adv-x="1009" d="M66 477q0 97 20 175.5t51 129.5t75 88.5t84.5 57t88 31t77.5 14t60 2.5q102 0 180 -30.5t123 -77.5t72.5 -113.5t37 -128.5t9.5 -133l-4 -101h-608q10 -96 59.5 -144t126.5 -48q119 0 150 125l264 -19q-21 -95 -68 -162.5t-108 -100.5t-117.5 -46.5t-116.5 -13.5 q-31 0 -60 2t-77.5 13t-88.5 30t-84.5 56t-75 87.5t-50.5 129.5t-20 177zM184 1217q0 60 43 102.5t103 42.5t101.5 -42.5t41.5 -102.5t-41.5 -103t-101.5 -43t-103 43t-43 103zM336 592h336q-6 80 -47.5 124t-102.5 44q-76 0 -123 -45.5t-63 -122.5zM569 1217q0 60 42 102.5 t102 42.5t102.5 -42.5t42.5 -102.5t-42.5 -103t-102.5 -43t-102 43t-42 103z" />
<glyph unicode="&#xec;" horiz-adv-x="475" d="M104 0v956h267v-956h-267z" />
<glyph unicode="&#xed;" horiz-adv-x="475" d="M104 0v956h267v-956h-267zM113 1067l190 301h293l-217 -301h-266z" />
<glyph unicode="&#xee;" horiz-adv-x="475" d="M-104 1073l200 295h285l192 -295h-241l-94 141l-95 -141h-247zM104 0v956h267v-956h-267z" />
<glyph unicode="&#xef;" horiz-adv-x="475" d="M-102 1217q0 60 42.5 102.5t102.5 42.5t101.5 -42.5t41.5 -102.5t-41.5 -103t-101.5 -43t-102.5 43t-42.5 103zM104 0v956h267v-956h-267zM283 1217q0 60 41.5 102.5t101.5 42.5t102.5 -42.5t42.5 -102.5t-42.5 -103t-102.5 -43t-101.5 43t-41.5 103z" />
<glyph unicode="&#xf0;" horiz-adv-x="1107" d="M94 467q0 88 19.5 159t50 117t73.5 80t83 51.5t87.5 28t77 13t60.5 2.5q107 0 198 -56q-18 131 -73 191l-86 -109l-150 121l47 59h-8q-39 0 -89 -6.5t-80 -13.5l-30 -6l-49 241q127 29 248 29q99 0 182 -25l109 138l149 -119l-86 -109q120 -104 166.5 -283.5t46.5 -416.5 q0 -84 -12.5 -159t-46 -152.5t-86 -133.5t-140.5 -91t-202 -35q-29 0 -60 3t-78 15t-88.5 31.5t-85.5 56.5t-75.5 86t-51.5 125t-20 168zM373 467q0 -71 16.5 -122t44.5 -76t56.5 -35.5t60.5 -10.5q203 0 203 246q0 59 -18.5 103t-49 66.5t-61.5 33t-62 10.5q-33 0 -62 -8 t-60 -29t-49.5 -66.5t-18.5 -111.5z" />
<glyph unicode="&#xf1;" horiz-adv-x="1038" d="M111 0v956h258l4 -65q87 84 219 84q45 0 84.5 -6.5t90 -31.5t85.5 -66.5t59.5 -119t24.5 -182.5v-569h-266v569q0 48 -10 82.5t-24 52t-36 27.5t-38.5 12t-39.5 2q-12 0 -25 -2t-36 -13.5t-40.5 -30t-30.5 -57t-13 -89.5v-553h-266zM160 1141q70 213 246 213 q69 0 126 -41q64 -43 82 -43q28 0 44 21t30 65l174 -47q-22 -98 -88 -165t-164 -67q-57 0 -123 41q-8 4 -27 17t-33 19.5t-26 6.5q-24 0 -39 -21t-30 -67z" />
<glyph unicode="&#xf2;" horiz-adv-x="1030" d="M66 477q0 98 20 177.5t50 130t73.5 88.5t83 56.5t87.5 29.5t76.5 13.5t59.5 2.5q30 0 58.5 -2.5t76 -13.5t87 -29.5t83.5 -56t74 -88t50 -129.5t20 -177t-20 -177.5t-50 -130t-74 -88t-83 -56.5t-87 -30t-76 -13t-59 -2t-59.5 2t-76.5 13t-87.5 30t-83 56t-73.5 87.5 t-50 129.5t-20 177zM225 1368h293l191 -301h-267zM328 479q0 -86 18 -144t49.5 -83.5t59 -34t61.5 -8.5q189 0 189 268q0 69 -13.5 120.5t-32.5 79.5t-46.5 45t-49.5 21.5t-47 4.5q-188 0 -188 -269z" />
<glyph unicode="&#xf3;" horiz-adv-x="1030" d="M66 477q0 98 20 177.5t50 130t73.5 88.5t83 56.5t87.5 29.5t76.5 13.5t59.5 2.5q30 0 58.5 -2.5t76 -13.5t87 -29.5t83.5 -56t74 -88t50 -129.5t20 -177t-20 -177.5t-50 -130t-74 -88t-83 -56.5t-87 -30t-76 -13t-59 -2t-59.5 2t-76.5 13t-87.5 30t-83 56t-73.5 87.5 t-50 129.5t-20 177zM328 479q0 -86 18 -144t49.5 -83.5t59 -34t61.5 -8.5q189 0 189 268q0 69 -13.5 120.5t-32.5 79.5t-46.5 45t-49.5 21.5t-47 4.5q-188 0 -188 -269zM352 1067l191 301h293l-218 -301h-266z" />
<glyph unicode="&#xf4;" horiz-adv-x="1030" d="M66 477q0 98 20 177.5t50 130t73.5 88.5t83 56.5t87.5 29.5t76.5 13.5t59.5 2.5q30 0 58.5 -2.5t76 -13.5t87 -29.5t83.5 -56t74 -88t50 -129.5t20 -177t-20 -177.5t-50 -130t-74 -88t-83 -56.5t-87 -30t-76 -13t-59 -2t-59.5 2t-76.5 13t-87.5 30t-83 56t-73.5 87.5 t-50 129.5t-20 177zM178 1073l201 295h285l192 -295h-242l-94 141l-94 -141h-248zM328 479q0 -86 18 -144t49.5 -83.5t59 -34t61.5 -8.5q189 0 189 268q0 69 -13.5 120.5t-32.5 79.5t-46.5 45t-49.5 21.5t-47 4.5q-188 0 -188 -269z" />
<glyph unicode="&#xf5;" horiz-adv-x="1030" d="M66 477q0 98 20 177.5t50 130t73.5 88.5t83 56.5t87.5 29.5t76.5 13.5t59.5 2.5q30 0 58.5 -2.5t76 -13.5t87 -29.5t83.5 -56t74 -88t50 -129.5t20 -177t-20 -177.5t-50 -130t-74 -88t-83 -56.5t-87 -30t-76 -13t-59 -2t-59.5 2t-76.5 13t-87.5 30t-83 56t-73.5 87.5 t-50 129.5t-20 177zM160 1141q70 213 246 213q69 0 126 -41q64 -43 82 -43q28 0 44 21t30 65l174 -47q-22 -98 -88 -165t-164 -67q-57 0 -123 41q-8 4 -27 17t-33 19.5t-26 6.5q-24 0 -39 -21t-30 -67zM328 479q0 -86 18 -144t49.5 -83.5t59 -34t61.5 -8.5q189 0 189 268 q0 69 -13.5 120.5t-32.5 79.5t-46.5 45t-49.5 21.5t-47 4.5q-188 0 -188 -269z" />
<glyph unicode="&#xf6;" horiz-adv-x="1030" d="M66 477q0 98 20 177.5t50 130t73.5 88.5t83 56.5t87.5 29.5t76.5 13.5t59.5 2.5q30 0 58.5 -2.5t76 -13.5t87 -29.5t83.5 -56t74 -88t50 -129.5t20 -177t-20 -177.5t-50 -130t-74 -88t-83 -56.5t-87 -30t-76 -13t-59 -2t-59.5 2t-76.5 13t-87.5 30t-83 56t-73.5 87.5 t-50 129.5t-20 177zM178 1217q0 60 43 102.5t103 42.5t101.5 -42.5t41.5 -102.5t-41.5 -103t-101.5 -43t-103 43t-43 103zM328 479q0 -86 18 -144t49.5 -83.5t59 -34t61.5 -8.5q189 0 189 268q0 69 -13.5 120.5t-32.5 79.5t-46.5 45t-49.5 21.5t-47 4.5q-188 0 -188 -269z M563 1217q0 60 42 102.5t102 42.5t102.5 -42.5t42.5 -102.5t-42.5 -103t-102.5 -43t-102 43t-42 103z" />
<glyph unicode="&#xf7;" horiz-adv-x="1239" d="M141 547v221h957v-221h-957zM455 324q0 68 47.5 115.5t115.5 47.5t116 -48t48 -115q0 -68 -48 -116t-116 -48q-67 0 -115 48t-48 116zM455 1006q0 68 47.5 115.5t115.5 47.5t116 -48t48 -115q0 -68 -48 -116t-116 -48q-67 0 -115 48t-48 116z" />
<glyph unicode="&#xf8;" horiz-adv-x="1030" d="M66 477q0 98 20 177.5t50 130t73.5 88.5t83 56.5t87.5 29.5t76.5 13.5t59.5 2.5q45 0 102 -8l62 137l184 -82l-61 -135q162 -125 162 -408q0 -98 -20 -177.5t-50 -130t-74 -88t-83 -56.5t-87 -30t-76 -13t-59 -2q-56 0 -115 10l-65 -150l-182 86l65 146 q-153 125 -153 403zM328 479q0 -82 14 -131l178 400h-4q-188 0 -188 -269zM500 209h16q189 0 189 268q0 79 -21 144z" />
<glyph unicode="&#xf9;" horiz-adv-x="1036" d="M100 385v571h267v-571q0 -48 10 -82.5t23.5 -51.5t36 -26.5t38 -11.5t39.5 -2q11 0 24 2t36.5 13t40.5 29.5t30.5 56.5t13.5 89v555h267v-956h-254l-8 66q-87 -84 -222 -84q-30 0 -58 3t-63.5 13.5t-65 27t-59.5 47.5t-50 72t-33 102.5t-13 137.5zM207 1368h293l190 -301 h-266z" />
<glyph unicode="&#xfa;" horiz-adv-x="1036" d="M100 385v571h267v-571q0 -48 10 -82.5t23.5 -51.5t36 -26.5t38 -11.5t39.5 -2q11 0 24 2t36.5 13t40.5 29.5t30.5 56.5t13.5 89v555h267v-956h-254l-8 66q-87 -84 -222 -84q-30 0 -58 3t-63.5 13.5t-65 27t-59.5 47.5t-50 72t-33 102.5t-13 137.5zM352 1067l191 301h293 l-218 -301h-266z" />
<glyph unicode="&#xfb;" horiz-adv-x="1036" d="M100 385v571h267v-571q0 -48 10 -82.5t23.5 -51.5t36 -26.5t38 -11.5t39.5 -2q11 0 24 2t36.5 13t40.5 29.5t30.5 56.5t13.5 89v555h267v-956h-254l-8 66q-87 -84 -222 -84q-30 0 -58 3t-63.5 13.5t-65 27t-59.5 47.5t-50 72t-33 102.5t-13 137.5zM174 1073l201 295h284 l193 -295h-242l-94 141l-94 -141h-248z" />
<glyph unicode="&#xfc;" horiz-adv-x="1036" d="M100 385v571h267v-571q0 -48 10 -82.5t23.5 -51.5t36 -26.5t38 -11.5t39.5 -2q11 0 24 2t36.5 13t40.5 29.5t30.5 56.5t13.5 89v555h267v-956h-254l-8 66q-87 -84 -222 -84q-30 0 -58 3t-63.5 13.5t-65 27t-59.5 47.5t-50 72t-33 102.5t-13 137.5zM170 1217 q0 60 42.5 102.5t102.5 42.5t102 -42.5t42 -102.5t-42 -103t-102 -43t-102.5 43t-42.5 103zM555 1217q0 60 41.5 102.5t101.5 42.5t103 -42.5t43 -102.5t-43 -103t-103 -43t-101.5 43t-41.5 103z" />
<glyph unicode="&#xfd;" horiz-adv-x="917" d="M4 956h281l176 -634l174 634h278l-348 -1071q-28 -88 -54.5 -141.5t-67 -93.5t-96.5 -56t-138 -16l-146 8v230q89 -6 136 -6q20 0 36.5 4t28 7t22.5 15.5t16 18t13.5 26.5t11 28t11.5 36.5t12 38.5l4 16h-39zM256 1067l190 301h293l-217 -301h-266z" />
<glyph unicode="&#xfe;" horiz-adv-x="1044" d="M111 -393v1743h266v-449q90 74 219 74q26 0 52.5 -3t66 -15.5t74 -32.5t70.5 -58t61.5 -88.5t42 -127.5t16.5 -171t-16.5 -171.5t-42 -128t-61.5 -88.5t-70.5 -58t-74 -32.5t-66 -15.5t-52.5 -3q-132 0 -219 71v-446h-266zM367 479q0 -268 178 -268q26 0 46 4t44.5 20 t41 43.5t27.5 79t11 121.5q0 69 -11 120t-27.5 78.5t-41 43.5t-44.5 20t-46 4q-178 0 -178 -266z" />
<glyph unicode="&#xff;" horiz-adv-x="917" d="M4 956h281l176 -634l174 634h278l-348 -1071q-28 -88 -54.5 -141.5t-67 -93.5t-96.5 -56t-138 -16l-146 8v230q89 -6 136 -6q20 0 36.5 4t28 7t22.5 15.5t16 18t13.5 26.5t11 28t11.5 36.5t12 38.5l4 16h-39zM125 1217q0 60 42.5 102.5t102.5 42.5t102 -42.5t42 -102.5 t-42 -103t-102 -43t-102.5 43t-42.5 103zM510 1217q0 60 41.5 102.5t101.5 42.5t103 -42.5t43 -102.5t-43 -103t-103 -43t-101.5 43t-41.5 103z" />
<glyph unicode="&#x152;" horiz-adv-x="1603" d="M82 686q0 707 475 707q120 0 205 -62v41h739v-256h-457v-287h435v-258h-435v-315h467v-256h-749v49q-86 -69 -203 -69q-477 0 -477 706zM369 688q0 -65 2.5 -113.5t9 -105.5t21 -96.5t36 -74t56 -52t79.5 -17.5q40 0 70.5 14.5t51 36t35 60t22 72t11 87.5t4.5 91.5 t1 97.5q0 59 -1 96t-4.5 90.5t-11 87t-22 71.5t-35 59.5t-51 36t-70.5 14.5q-39 0 -70 -14t-52 -36.5t-36.5 -58.5t-24 -72.5t-13.5 -86t-6.5 -91.5t-1.5 -96z" />
<glyph unicode="&#x153;" horiz-adv-x="1665" d="M66 477q0 98 20 177.5t50 130t73.5 88.5t83 56.5t87.5 29.5t76.5 13.5t59.5 2.5q218 0 328 -141q114 141 334 141q102 0 180 -30.5t122.5 -77.5t72.5 -113.5t37 -128.5t9 -133l-4 -101h-608q10 -95 59.5 -141.5t127.5 -46.5q119 0 149 121l264 -19q-17 -77 -52 -136 t-76.5 -93.5t-93 -56.5t-96 -29.5t-91.5 -7.5q-222 0 -334 139q-110 -139 -328 -139q-31 0 -59.5 2t-76.5 13t-87.5 30t-83 56t-73.5 87.5t-50 129.5t-20 177zM328 479q0 -86 18 -144t49.5 -83.5t59 -34t61.5 -8.5q189 0 189 268q0 69 -13.5 120.5t-32.5 79.5t-46.5 45 t-49.5 21.5t-47 4.5q-188 0 -188 -269zM991 594h336q-6 80 -46.5 120t-102.5 40q-77 0 -124.5 -42t-62.5 -118z" />
<glyph unicode="&#x178;" horiz-adv-x="1161" d="M2 1372h315l263 -512l264 512h315l-436 -794v-578h-285v578zM244 1634q0 60 42.5 103t102.5 43t101.5 -43t41.5 -103t-41.5 -102.5t-101.5 -42.5t-102.5 42.5t-42.5 102.5zM629 1634q0 60 41.5 103t101.5 43t103 -43t43 -103t-43 -102.5t-103 -42.5t-101.5 42.5 t-41.5 102.5z" />
<glyph unicode="&#x2c6;" d="M145 1073l201 295h285l192 -295h-241l-95 141l-94 -141h-248z" />
<glyph unicode="&#x2dc;" horiz-adv-x="1005" d="M150 1141q70 213 245 213q70 0 127 -41q64 -43 82 -43q28 0 44 21t30 65l174 -47q-22 -98 -88 -165t-164 -67q-57 0 -123 41q-8 4 -27 17t-33 19.5t-26 6.5q-24 0 -39 -21t-30 -67z" />
<glyph unicode="&#x2000;" horiz-adv-x="893" />
<glyph unicode="&#x2001;" horiz-adv-x="1786" />
<glyph unicode="&#x2002;" horiz-adv-x="893" />
<glyph unicode="&#x2003;" horiz-adv-x="1786" />
<glyph unicode="&#x2004;" horiz-adv-x="595" />
<glyph unicode="&#x2005;" horiz-adv-x="446" />
<glyph unicode="&#x2006;" horiz-adv-x="297" />
<glyph unicode="&#x2007;" horiz-adv-x="297" />
<glyph unicode="&#x2008;" horiz-adv-x="223" />
<glyph unicode="&#x2009;" horiz-adv-x="357" />
<glyph unicode="&#x200a;" horiz-adv-x="99" />
<glyph unicode="&#x2010;" d="M141 449v229h690v-229h-690z" />
<glyph unicode="&#x2011;" d="M141 449v229h690v-229h-690z" />
<glyph unicode="&#x2012;" d="M141 449v229h690v-229h-690z" />
<glyph unicode="&#x2013;" horiz-adv-x="1282" d="M141 453v221h1000v-221h-1000z" />
<glyph unicode="&#x2014;" horiz-adv-x="2197" d="M141 453v221h1915v-221h-1915z" />
<glyph unicode="&#x2018;" horiz-adv-x="610" d="M143 1151q0 124 71 204.5t177 80.5l68 -6l16 -121q-24 4 -47 4q-42 0 -66.5 -21.5t-27.5 -52.5q63 -2 108 -47.5t45 -108.5q0 -65 -45.5 -110t-113.5 -45q-75 0 -130 58t-55 165z" />
<glyph unicode="&#x2019;" horiz-adv-x="610" d="M123 1282q0 67 45 111.5t121 44.5q73 -3 125.5 -61.5t52.5 -162.5q0 -124 -71 -204t-177 -80l-67 6l-17 121q24 -4 47 -4q42 0 66.5 21t27.5 52q-65 2 -109 47t-44 109z" />
<glyph unicode="&#x201a;" horiz-adv-x="600" d="M123 145q0 65 44 108.5t118 43.5q71 -3 121.5 -59.5t50.5 -157.5q0 -121 -68.5 -199t-171.5 -78l-65 7l-17 116q25 -4 45 -4q40 0 64.5 21t27.5 51q-63 2 -106 45t-43 106z" />
<glyph unicode="&#x201c;" horiz-adv-x="1009" d="M143 1151q0 124 71 204.5t177 80.5l68 -6l16 -121q-24 4 -47 4q-42 0 -66.5 -21.5t-27.5 -52.5q63 -2 108 -47.5t45 -108.5q0 -65 -45.5 -110t-113.5 -45q-75 0 -130 58t-55 165zM543 1151q0 124 71 204.5t177 80.5l67 -6l16 -121q-24 4 -47 4q-42 0 -66.5 -21.5 t-27.5 -52.5q63 -2 108.5 -47.5t45.5 -108.5q0 -65 -46 -110t-114 -45q-75 0 -129.5 58t-54.5 165z" />
<glyph unicode="&#x201d;" horiz-adv-x="1009" d="M123 1282q0 67 45 111.5t121 44.5q73 -3 125.5 -61.5t52.5 -162.5q0 -124 -71 -204t-177 -80l-67 6l-17 121q24 -4 47 -4q42 0 66.5 21t27.5 52q-65 2 -109 47t-44 109zM522 1282q0 67 45 111.5t121 44.5q73 -3 125.5 -61.5t52.5 -162.5q0 -124 -71 -204t-177 -80l-67 6 l-16 121q24 -4 47 -4q42 0 66.5 21t27.5 52q-65 2 -109.5 47t-44.5 109z" />
<glyph unicode="&#x201e;" horiz-adv-x="999" d="M123 145q0 65 44 108.5t118 43.5q71 -3 121.5 -59.5t50.5 -157.5q0 -121 -68.5 -199t-171.5 -78l-65 7l-17 116q25 -4 45 -4q40 0 64.5 21t27.5 51q-63 2 -106 45t-43 106zM522 145q0 65 44 108.5t118 43.5q71 -3 121.5 -59.5t50.5 -157.5q0 -121 -68.5 -199t-171.5 -78 l-65 7l-16 116q25 -4 45 -4q40 0 64.5 21t27.5 51q-63 2 -106.5 45t-43.5 106z" />
<glyph unicode="&#x2022;" horiz-adv-x="802" d="M141 655q0 107 76.5 183.5t183.5 76.5t184 -76.5t77 -183.5t-77 -183.5t-184 -76.5t-183.5 76.5t-76.5 183.5z" />
<glyph unicode="&#x2026;" horiz-adv-x="1796" d="M139 156q0 67 48 115t116 48t116 -48t48 -115q0 -68 -48.5 -116t-115.5 -48t-115.5 48t-48.5 116zM727 156q0 67 48 115t116 48t116 -48t48 -115q0 -68 -48.5 -116t-115.5 -48t-115.5 48t-48.5 116zM1335 156q0 67 48 115t116 48t116 -48t48 -115q0 -68 -48.5 -116 t-115.5 -48t-115.5 48t-48.5 116z" />
<glyph unicode="&#x202f;" horiz-adv-x="357" />
<glyph unicode="&#x2039;" horiz-adv-x="788" d="M141 424v133l391 404l146 -156l-303 -316l303 -313l-146 -158z" />
<glyph unicode="&#x203a;" horiz-adv-x="786" d="M111 176l303 313l-303 316l147 156l387 -404v-133l-387 -406z" />
<glyph unicode="&#x205f;" horiz-adv-x="446" />
<glyph unicode="&#x20ac;" horiz-adv-x="1277" d="M59 410v213h164q-2 20 -2 63v55h-162v213h183q17 88 46 158t61.5 115t76 77.5t80 49t82.5 26t74.5 11.5t64.5 2q419 0 477 -447l-282 -12q-26 211 -195 211q-35 0 -59.5 -5.5t-53.5 -23.5t-50.5 -58.5t-35.5 -103.5h310v-213h-332v-118h332v-213h-308q14 -61 35.5 -100 t50 -56t53 -22t58.5 -5q106 0 152.5 59.5t58.5 172.5l281 -15q-5 -71 -24 -136t-57.5 -126t-93 -105t-135.5 -70.5t-180 -26.5q-36 0 -64 2t-74.5 11t-82.5 25t-79.5 48t-76 76.5t-62 113t-46.5 154.5h-185z" />
<glyph unicode="&#x2122;" horiz-adv-x="1533" d="M86 1188v164h537v-164h-179v-520h-178v520h-180zM678 668v684h203l141 -402l139 402h201v-684h-178v286l-84 -219h-156l-88 230v-297h-178z" />
<glyph unicode="&#x25fc;" horiz-adv-x="952" d="M0 0v952h952v-952h-952z" />
</font>
</defs>
</svg>
