<?xml version="1.0" standalone="no"?>
<!DOCTYPE svg PUBLIC "-//W3C//DTD SVG 1.1//EN" "http://www.w3.org/Graphics/SVG/1.1/DTD/svg11.dtd" >
<svg xmlns="http://www.w3.org/2000/svg" xmlns:xlink="http://www.w3.org/1999/xlink" version="1.1">
<metadata></metadata>
<defs>
<font id="areal_blbook_italic" horiz-adv-x="1007" >
<font-face units-per-em="2048" ascent="1536" descent="-512" />
<missing-glyph horiz-adv-x="512" />
<glyph horiz-adv-x="0" />
<glyph horiz-adv-x="682" />
<glyph unicode=" "  horiz-adv-x="512" />
<glyph unicode="&#x09;" horiz-adv-x="512" />
<glyph unicode="&#xa0;" horiz-adv-x="512" />
<glyph unicode="!" horiz-adv-x="491" d="M102 80q0 50 38.5 87.5t86.5 37.5q43 0 72 -27t29 -67q0 -50 -35.5 -88.5t-85.5 -38.5q-46 0 -75.5 27.5t-29.5 68.5zM166 352l121 989h164l-121 -989h-164z" />
<glyph unicode="&#x22;" horiz-adv-x="733" d="M229 965l47 376h132l-48 -376h-131zM522 965l47 376h133l-47 -376h-133z" />
<glyph unicode="#" horiz-adv-x="1712" d="M164 420l14 121h320l188 331h-297l14 121h353l196 348h142l-199 -348h309l199 348h141l-198 -348h292l-14 -121h-346l-188 -331h323l-14 -121h-377l-238 -420h-143l238 420h-308l-237 -420h-141l237 420h-266zM639 541h309l189 331h-310z" />
<glyph unicode="$" horiz-adv-x="1081" d="M104 373l162 16q-8 -122 53.5 -193t192.5 -71q147 0 226 68t79 169q0 72 -35.5 120t-122.5 85q-53 23 -127.5 51t-87.5 33q-116 48 -177.5 122.5t-61.5 195.5q0 53 20.5 110t63.5 115t124.5 99.5t188.5 49.5l19 150h120l-18 -152q82 -9 143 -40t96 -77t51.5 -98.5 t16.5 -111.5v-25l-156 -10v20q0 201 -223 201q-68 0 -120.5 -16.5t-82 -41t-48 -57.5t-24 -60t-5.5 -54q0 -76 34.5 -110t118.5 -66q20 -8 80.5 -30.5t102.5 -39.5q138 -55 204 -137t66 -221q0 -158 -116 -265.5t-306 -119.5l-18 -150h-121l20 154q-164 20 -252.5 124 t-79.5 263z" />
<glyph unicode="%" horiz-adv-x="1626" d="M227 915q0 93 13 167.5t33 122t49.5 82.5t55 52t57.5 27t50 12t39 2q28 0 49.5 -2.5t54 -17t54 -40t37.5 -76t16 -120.5q0 -91 -13 -165t-32.5 -121.5t-47.5 -83t-54 -53.5t-57 -28.5t-50 -13t-39 -2.5q-19 0 -33.5 1t-38.5 6.5t-41.5 15t-38 29t-33.5 46t-21.5 67.5 t-8.5 93zM330 -125l934 1651l114 -56l-934 -1650zM354 926q0 -88 24.5 -116t70.5 -28q19 0 36 4.5t41 24t40.5 53t29 97.5t12.5 151q0 89 -23 116t-65 27q-166 0 -166 -329zM973 225q0 93 13 167.5t33 122t49.5 82.5t55 52t57.5 27t50 12t39 2q28 0 49.5 -2.5t54 -17t54 -40 t37.5 -76t16 -120.5q0 -91 -13 -165t-32.5 -121.5t-47.5 -83t-54 -53.5t-57 -28.5t-50 -13t-39 -2.5q-19 0 -33.5 1t-38.5 6.5t-41.5 15t-38 29t-33.5 46t-21.5 67.5t-8.5 93zM1100 236q0 -88 24 -116t70 -28q19 0 36 4.5t41 24t41 53t29.5 97.5t12.5 151q0 89 -23 116 t-65 27q-166 0 -166 -329z" />
<glyph unicode="&#x26;" horiz-adv-x="1253" d="M86 322q0 254 301 383q-158 151 -158 288q0 140 112.5 245t291.5 105q85 0 152.5 -27t107.5 -71t61 -95t21 -103q0 -117 -91.5 -211.5t-248.5 -163.5l285 -269q67 125 98 299l147 -4q-40 -229 -141 -395l229 -215l-92 -98l-217 200q-183 -213 -438 -213q-196 0 -308 98.5 t-112 246.5zM244 332q0 -98 72 -155.5t192 -57.5q198 0 334 166l-350 323q-55 -24 -90.5 -44.5t-76 -53.5t-61 -77.5t-20.5 -100.5zM381 1004q0 -62 39.5 -115.5t114.5 -122.5q156 68 222 125t66 153q0 64 -44 113t-150 49q-65 0 -115 -20t-77.5 -51.5t-41.5 -65t-14 -65.5z " />
<glyph unicode="'" horiz-adv-x="452" d="M236 965l47 376h133l-47 -376h-133z" />
<glyph unicode="(" horiz-adv-x="681" d="M209 438q0 178 26 336t83.5 307t159.5 272.5t243 207.5l61 -107q-104 -67 -182.5 -158t-126.5 -188.5t-78 -213.5t-41.5 -224.5t-11.5 -231.5q0 -220 54.5 -347t178.5 -224l-75 -105q-39 28 -69.5 55.5t-75 86t-74 126.5t-51 175t-21.5 233z" />
<glyph unicode=")" horiz-adv-x="681" d="M-23 -131q104 67 182.5 158t127 188.5t78.5 214.5t41.5 226t11.5 233q0 147 -26.5 252t-76 175.5t-133.5 135.5l74 102q28 -20 48.5 -36.5t53 -50t57 -68t51.5 -87.5t44.5 -112t29 -140t11.5 -171q0 -823 -512 -1127z" />
<glyph unicode="*" horiz-adv-x="1097" d="M236 1028l47 105l286 -117l41 323h119l-41 -321l307 115l35 -105l-309 -113l149 -253l-96 -66l-153 266l-224 -270l-92 72l209 251z" />
<glyph unicode="+" horiz-adv-x="1298" d="M182 569l15 127h430l53 434h129l-53 -434h432l-14 -127h-433l-53 -432h-129l53 432h-430z" />
<glyph unicode="," horiz-adv-x="530" d="M86 -139q61 2 101 38.5t40 104.5q-8 -4 -28 -4q-41 0 -70 28t-29 66q0 50 35 85.5t90 35.5q54 0 87.5 -35.5t33.5 -97.5q0 -124 -73.5 -209.5t-172.5 -85.5h-14v74z" />
<glyph unicode="-" horiz-adv-x="909" d="M172 485l16 133h609l-17 -133h-608z" />
<glyph unicode="." horiz-adv-x="542" d="M121 96q0 55 41 95t94 40q44 0 74 -30t30 -76q0 -52 -40 -91.5t-93 -39.5q-45 0 -75.5 29.5t-30.5 72.5z" />
<glyph unicode="/" horiz-adv-x="952" d="M-6 -125l934 1651l112 -58l-934 -1650z" />
<glyph unicode="0" horiz-adv-x="1132" d="M126.5 437q-4.5 122 10 247t50 246.5t87.5 202.5q130 213 394 213q302 0 379 -232q29 -81 34 -207.5t-11 -258t-55.5 -260.5t-94.5 -212q-130 -196 -388 -196q-165 0 -257 67.5t-121 179.5q-23 88 -27.5 210zM311 276q32 -151 213 -151q157 0 236 96q54 67 91 190.5 t49.5 250t10 240t-21.5 171.5q-42 127 -213 127q-94 0 -151.5 -32.5t-100.5 -94.5q-77 -127 -111.5 -385.5t-1.5 -411.5z" />
<glyph unicode="1" horiz-adv-x="778" d="M217 1026l12 98q69 0 125 20.5t86.5 50t50.5 59.5t27 50l6 21h146l-162 -1325h-162l125 1026h-254z" />
<glyph unicode="2" horiz-adv-x="1005" d="M33 0l16 150q384 331 451 392q192 175 256 280q57 95 57 200q0 178 -221 178q-43 0 -78.5 -5.5t-71.5 -20.5t-62 -39t-45 -64.5t-26 -93.5l-151 10q13 118 76.5 200.5t155.5 120.5t206 38q192 0 284.5 -90t92.5 -232q0 -47 -8 -89.5t-29.5 -88.5t-47.5 -87t-73.5 -95 t-96 -102.5t-127 -118.5t-153.5 -134.5t-188 -158.5h627l-17 -150h-827z" />
<glyph unicode="3" horiz-adv-x="1069" d="M76 309l4 58l162 8q-2 -27 -2 -47q0 -201 237 -201q173 0 253.5 75.5t80.5 196.5q0 123 -79.5 166t-266.5 43l18 144q193 0 278 56t85 198q0 89 -54 140.5t-171 51.5q-235 0 -275 -219l-160 10q11 72 42.5 134t83.5 113t132.5 80.5t180.5 29.5q102 0 179 -27.5t121.5 -76 t66.5 -108t22 -128.5q0 -106 -55 -189.5t-158 -134.5q83 -38 129.5 -112t46.5 -162q0 -80 -30 -154.5t-88 -136.5t-157 -99.5t-225 -37.5q-102 0 -180.5 26t-126 72t-71 104t-23.5 127z" />
<glyph unicode="4" horiz-adv-x="1128" d="M51 270l19 150l710 905h191l-113 -911h199l-17 -144h-198l-33 -270h-162l33 270h-629zM227 414h469l86 708z" />
<glyph unicode="5" horiz-adv-x="1050" d="M84 344l162 14v-18q0 -54 13 -94t33.5 -62.5t50 -36t57 -18t61.5 -4.5q39 0 75 6.5t83.5 31.5t82 67t58.5 120.5t24 184.5q0 121 -56.5 174t-164.5 53q-207 0 -278 -174l-148 16l158 721h692l-18 -151h-559l-82 -357q113 88 268 88q48 0 92 -8t94 -32.5t86 -63.5t60 -107 t24 -157q0 -130 -38.5 -236.5t-105 -176t-156 -107t-191.5 -37.5q-185 0 -281 96.5t-96 267.5z" />
<glyph unicode="6" horiz-adv-x="1064" d="M129 436q0 200 31.5 359t83.5 260.5t124 168.5t149 94.5t163 27.5q170 0 265 -82t95 -226l-2 -45l-155 -8q2 21 2 41q0 53 -16.5 89t-48 53.5t-65 24.5t-77.5 7q-78 0 -141 -32.5t-106 -92.5t-71 -137t-43 -174q56 56 140.5 89.5t173.5 33.5q49 0 94.5 -8t97 -33t89 -64 t62.5 -107.5t25 -158.5q0 -117 -28.5 -210t-74.5 -153t-109.5 -100t-129.5 -56.5t-137 -16.5q-94 0 -165 26t-113 68.5t-68.5 103.5t-35.5 122.5t-9 135.5zM291 377q0 -252 231 -252q37 0 71.5 6t81.5 29.5t80 63.5t57 115.5t24 176.5q0 232 -234 232q-38 0 -76 -8.5 t-82 -33.5t-76.5 -64.5t-54.5 -108t-22 -156.5z" />
<glyph unicode="7" horiz-adv-x="976" d="M166 1174l18 151h854l-18 -154q-10 -10 -27 -29.5t-68.5 -85t-102 -135.5t-118 -178.5t-125.5 -218t-116.5 -248.5t-97.5 -276h-172q43 165 126 346.5t170.5 322.5t169 259t133.5 182l52 64h-678z" />
<glyph unicode="8" horiz-adv-x="1136" d="M123 326q0 128 68.5 221t181.5 143q-77 45 -111.5 118.5t-34.5 145.5q0 80 30 151t86.5 126t145 87t197.5 32q105 0 181.5 -25t120 -70t63.5 -99.5t20 -119.5q0 -105 -62.5 -205t-166.5 -141q67 -33 109.5 -86.5t56.5 -102t14 -98.5q0 -129 -66 -226t-177 -147t-249 -50 q-197 0 -302 89.5t-105 256.5zM287 334q0 -92 57 -152.5t191 -60.5q141 0 231 74.5t90 205.5q0 26 -4.5 50t-20 54.5t-41.5 52.5t-73.5 37t-110.5 15q-80 0 -151.5 -31.5t-119.5 -96t-48 -148.5zM389 950q0 -25 4 -48t18 -52t37.5 -50t66 -35.5t99.5 -14.5q69 0 123 20 t85 49t51 67t27 69t7 59q0 89 -54 141.5t-171 52.5q-115 0 -204 -69t-89 -189z" />
<glyph unicode="9" horiz-adv-x="1060" d="M113 287l2 45l155 8q-2 -25 -2 -41q0 -53 16.5 -89t48 -53.5t65 -24.5t77.5 -7q151 0 239.5 117t121.5 317q-57 -56 -141 -88.5t-173 -32.5q-49 0 -94.5 8t-97 33t-89 64t-62.5 107.5t-25 158.5q0 115 27.5 208t73.5 153t108 100.5t127.5 58t136.5 17.5q397 0 397 -457 q0 -200 -31.5 -358.5t-83.5 -260t-124 -168.5t-149 -94.5t-163 -27.5q-171 0 -265.5 82t-94.5 225zM317 809q0 -231 234 -231q38 0 76 8.5t82 33.5t76.5 64t54.5 107.5t22 156.5q0 63 -16 110.5t-40 74t-57.5 42.5t-62 20.5t-61.5 4.5q-25 0 -48.5 -3t-56 -12.5t-59 -26 t-54.5 -46.5t-47 -69.5t-31 -99.5t-12 -134z" />
<glyph unicode=":" horiz-adv-x="542" d="M80 96q0 55 41 95t94 40q44 0 74 -30t30 -76q0 -52 -40 -91.5t-93 -39.5q-45 0 -75.5 29.5t-30.5 72.5zM164 782q0 55 41 95.5t94 40.5q44 0 74 -30.5t30 -76.5q0 -52 -40 -91.5t-93 -39.5q-45 0 -75.5 29.5t-30.5 72.5z" />
<glyph unicode=";" horiz-adv-x="552" d="M80 -139q61 2 101 38.5t40 104.5q-8 -4 -28 -4q-41 0 -70 28t-29 66q0 50 35 85.5t90 35.5q54 0 87.5 -35.5t33.5 -97.5q0 -124 -73.5 -209.5t-172.5 -85.5h-14v74zM164 784q0 55 41 95.5t94 40.5q44 0 74 -30.5t30 -76.5q0 -52 -40 -91.5t-93 -39.5q-45 0 -75.5 29.5 t-30.5 72.5z" />
<glyph unicode="&#x3c;" horiz-adv-x="1077" d="M180 563l19 144l825 452l-18 -147l-697 -381l604 -381l-18 -139z" />
<glyph unicode="=" horiz-adv-x="1142" d="M158 379l16 127h836l-17 -127h-835zM205 764l16 127h836l-17 -127h-835z" />
<glyph unicode="&#x3e;" horiz-adv-x="1077" d="M125 111l18 147l697 381l-604 381l18 139l715 -452l-19 -144z" />
<glyph unicode="?" horiz-adv-x="1067" d="M231 985q4 43 14.5 83t39 94t70.5 93.5t117 67t171 27.5q170 0 257 -89t87 -225q0 -71 -21.5 -133.5t-56.5 -108t-77.5 -87.5t-86.5 -81.5t-81 -79.5t-63.5 -91.5t-31.5 -108.5h-145q9 81 45.5 154.5t75 117t96.5 97.5q87 80 129 133t54 91t12 95q0 176 -197 176 q-64 0 -111.5 -17t-73 -39.5t-42.5 -58.5t-22 -60.5t-9 -59.5zM362 80q0 50 38.5 87.5t86.5 37.5q43 0 72 -27t29 -67q0 -50 -35.5 -88.5t-85.5 -38.5q-46 0 -75.5 27.5t-29.5 68.5z" />
<glyph unicode="@" horiz-adv-x="2160" d="M162 352q0 166 53.5 324t152 287.5t229.5 227.5t294.5 152t337.5 54q235 0 419.5 -85.5t290 -248.5t105.5 -379q0 -172 -50 -310t-133 -222t-183.5 -128t-207.5 -44q-95 0 -151.5 41.5t-67.5 111.5q-130 -127 -317 -127q-126 0 -202.5 80t-76.5 209q0 81 22 166.5 t67 166.5t105.5 145t146 103t180.5 39q171 0 241 -116l37 100h135l-207 -643q-28 -76 -3.5 -126t104.5 -50q57 0 116.5 19.5t119 65t106 111.5t75.5 168t29 226q0 140 -52.5 256t-145.5 194t-223 121t-283 43q-191 0 -366.5 -74t-302 -198t-202 -294.5t-75.5 -355.5 q0 -151 53 -282t146 -224.5t226 -146.5t287 -53q176 0 348 74l47 -99q-206 -88 -397 -88q-175 0 -328.5 61.5t-263 168t-172.5 257t-63 322.5zM801 297q0 -166 172 -166q85 0 157.5 47.5t118 122t71.5 161.5t26 169q0 170 -177 170q-83 0 -155 -50t-117 -126.5t-70.5 -163 t-25.5 -164.5z" />
<glyph unicode="A" horiz-adv-x="1144" d="M-20 0l608 1325h211l284 -1325h-165l-64 285h-575l-123 -285h-176zM344 432h479l-145 733z" />
<glyph unicode="B" horiz-adv-x="1177" d="M117 0l162 1325h489q94 0 164.5 -21.5t109 -53.5t62 -77.5t30.5 -84t7 -82.5q0 -41 -11.5 -86t-35 -90t-65 -84t-95.5 -62q82 -33 125 -108.5t43 -159.5q0 -193 -134.5 -304.5t-342.5 -111.5h-508zM299 154h344q136 2 215.5 67t79.5 193q0 188 -242 188h-342zM373 756 h327q273 0 273 250q0 165 -223 165h-326z" />
<glyph unicode="C" horiz-adv-x="1120" d="M121 475q0 267 65.5 460.5t201 302t331.5 108.5q84 0 150 -19.5t109 -52t72.5 -79t43.5 -97t18 -109.5l-168 -10q-5 107 -59.5 163t-177.5 56q-74 0 -135.5 -25.5t-104 -67t-75 -101.5t-52 -123t-32 -137t-17 -138t-4.5 -131q0 -78 12 -136.5t41 -108.5t85 -76.5 t138 -26.5q136 0 208.5 61t100.5 179l170 -11q-17 -75 -52.5 -139.5t-92 -119t-143.5 -86t-195 -31.5q-104 0 -183.5 29.5t-126.5 76t-77 113.5t-40.5 133t-10.5 143z" />
<glyph unicode="D" horiz-adv-x="1193" d="M117 0l162 1325h434q74 0 135.5 -15.5t106 -42.5t78.5 -65.5t56 -81.5t35.5 -94t19 -99.5t5.5 -101.5q0 -135 -21.5 -255t-68 -225t-114.5 -181.5t-167 -120t-219 -43.5h-442zM299 156h272q73 0 133 24t102 63.5t74 95.5t51 115t31 127t16.5 126t4.5 118t-7 108t-25.5 93 t-49 75.5t-79.5 49t-115 18.5h-283z" />
<glyph unicode="E" horiz-adv-x="1032" d="M113 0l161 1325h766l-18 -156h-602l-51 -413h581l-20 -156h-582l-53 -444h612l-18 -156h-776z" />
<glyph unicode="F" horiz-adv-x="1001" d="M113 0l161 1325h766l-18 -156h-602l-51 -413h581l-20 -156h-582l-72 -600h-163z" />
<glyph unicode="G" horiz-adv-x="1185" d="M121 489q0 401 158 629t440 228q104 0 181 -29t121.5 -80.5t67 -113t27.5 -136.5q-156 -8 -170 -8q-5 107 -60 163t-177 56q-73 0 -134 -24.5t-103.5 -65t-75.5 -99t-53 -120.5t-32.5 -134.5t-17 -136.5t-4.5 -131q0 -63 7.5 -113.5t27 -98t51 -79t82.5 -50.5t118 -19 q146 0 238.5 95t108.5 239l6 55h-338l18 150h484l-80 -666h-127v109q-57 -59 -142.5 -94t-179.5 -35q-103 0 -183 30.5t-128 78.5t-78.5 116.5t-41.5 137t-11 146.5z" />
<glyph unicode="H" horiz-adv-x="1183" d="M113 0l161 1325h164l-69 -569h549l69 569h164l-162 -1325h-164l72 600h-549l-72 -600h-163z" />
<glyph unicode="I" horiz-adv-x="477" d="M117 0l162 1325h163l-161 -1325h-164z" />
<glyph unicode="J" horiz-adv-x="919" d="M57 356l162 11q-1 -15 -1 -29q0 -45 8 -80q9 -46 24.5 -71.5t42 -40.5t50.5 -19t56 -4q50 0 85 12.5t67 46.5t53 99t33 165l106 879h164l-106 -872q-14 -112 -41.5 -196t-64 -136t-85.5 -84.5t-100.5 -44.5t-114.5 -12q-59 0 -109.5 11t-97 38t-77.5 68.5t-46 108.5 q-10 45 -10 98q0 25 2 52z" />
<glyph unicode="K" horiz-adv-x="1097" d="M113 0l161 1325h164l-82 -661l607 661h202l-499 -539l378 -786h-184l-313 657l-219 -237l-52 -420h-163z" />
<glyph unicode="L" horiz-adv-x="968" d="M113 0l161 1325h164l-143 -1169h579l-18 -156h-743z" />
<glyph unicode="M" horiz-adv-x="1552" d="M113 0l161 1325h226l270 -1036l520 1036h230l-162 -1325h-164l129 1065l-475 -936h-189l-249 963l-134 -1092h-163z" />
<glyph unicode="N" horiz-adv-x="1222" d="M113 0l161 1325h185l436 -1055l131 1055h164l-162 -1325h-182l-440 1057l-130 -1057h-163z" />
<glyph unicode="O" horiz-adv-x="1193" d="M124 451q-1 32 -2 65q0 89 11 179q15 123 53.5 241.5t94.5 196.5q150 213 426 213q161 0 251.5 -57t143.5 -173q37 -82 46 -212q3 -45 4 -91q0 -86 -12 -173q-17 -133 -60 -259.5t-103 -200.5q-159 -200 -418 -200q-167 0 -267 74t-136 188q-26 88 -32 209zM289 463 q1 -108 22 -174q52 -162 248 -162q100 0 159.5 29.5t102.5 79.5q56 67 96 183q39 116 55 235q12 92 13 180q1 24 -1 50q-4 112 -32 175q-26 63 -88 101t-155 38q-182 0 -281 -135q-42 -59 -75 -164t-49 -217q-15 -105 -15 -206v-13z" />
<glyph unicode="P" horiz-adv-x="1101" d="M113 0l161 1325h461q194 0 287.5 -84.5t93.5 -232.5q0 -174 -120 -291t-341 -117h-307l-72 -600h-163zM369 756h295q284 0 284 252q0 78 -57.5 118.5t-165.5 40.5h-307z" />
<glyph unicode="Q" horiz-adv-x="1202" d="M124 451q-2 32 -2 65q0 89 11 179q15 123 53.5 241.5t94.5 196.5q150 213 426 213q161 0 251.5 -57t143.5 -173q37 -82 46 -212q3 -46 3 -91q0 -86 -11 -173q-17 -133 -60 -259.5t-103 -200.5q-10 -14 -35 -39l137 -168l-123 -102l-137 170q-109 -61 -260 -61 q-167 0 -267 74t-136 188q-27 88 -32 209zM289 463q1 -108 22 -174q52 -162 248 -162q98 0 166 33l-137 174l119 100l135 -170q50 72 85 185.5t48 226.5q9 80 9 156q0 31 -2 62q-5 105 -30 165q-26 63 -88 101t-155 38q-182 0 -281 -135q-42 -59 -75 -164t-49 -217 q-15 -104 -15 -206v-13z" />
<glyph unicode="R" horiz-adv-x="1167" d="M113 0l161 1325h482q194 0 287.5 -84.5t93.5 -232.5q0 -140 -79.5 -246.5t-228.5 -143.5q134 -389 218 -618h-185l-194 600h-320l-72 -600h-163zM369 756h315q285 0 285 252q0 87 -56.5 123t-167.5 36h-327z" />
<glyph unicode="S" horiz-adv-x="1075" d="M78 373l170 16q-1 -14 -1 -28q0 -104 55 -166q62 -70 206 -70q154 0 237.5 68t83.5 169q0 73 -36 119.5t-127 83.5q-55 23 -134.5 51.5t-95.5 34.5q-123 48 -187.5 122.5t-64.5 195.5q0 44 14 91.5t49 99.5t86.5 92.5t135.5 67t188 26.5q107 0 186.5 -28t123.5 -77 t65 -105.5t21 -121.5v-25l-164 -10v20q0 201 -236 201q-72 0 -127 -16.5t-86 -41t-50.5 -57.5t-25.5 -60t-6 -54q0 -40 10 -68.5t34.5 -48t48.5 -31t69 -28.5q19 -7 84 -30t109 -40q144 -56 214 -137.5t70 -220.5q0 -167 -136.5 -277t-354.5 -110q-208 0 -322 108 q-106 100 -107 260q0 12 1 25z" />
<glyph unicode="T" horiz-adv-x="1058" d="M162 1167l20 158h936l-20 -158h-385l-142 -1167h-163l141 1167h-387z" />
<glyph unicode="U" horiz-adv-x="1148" d="M141 390q2 29 6 61l107 874h164l-107 -874q-3 -28 -4.5 -42.5t-3 -45t0.5 -49.5t8 -46.5t17 -45.5t29.5 -38t43 -31.5t60 -19.5t79.5 -8q56 0 102.5 12.5t78 31.5t56.5 48t39.5 56t25 62.5t15 60t8.5 55.5l107 874h164l-107 -874l-6.5 -45.5t-11.5 -57.5t-19.5 -68.5 t-31 -69.5t-45 -70t-62.5 -61.5t-82.5 -52.5t-105.5 -33t-131 -13q-89 0 -158.5 21t-111 52.5t-69.5 78t-39.5 87.5t-14.5 91q-2 30 -2 53q0 15 1 27z" />
<glyph unicode="V" horiz-adv-x="1081" d="M141 1325h166l205 -1161l494 1161h176l-576 -1325h-215z" />
<glyph unicode="W" horiz-adv-x="1710" d="M141 1325h172l138 -1137l430 1137h186l150 -1137l417 1137h176l-503 -1325h-203l-156 1104l-420 -1104h-206z" />
<glyph unicode="X" horiz-adv-x="1067" d="M-20 0l495 696l-305 629h180l238 -504l358 504h193l-471 -641l329 -684h-178l-260 551l-385 -551h-194z" />
<glyph unicode="Y" horiz-adv-x="1028" d="M133 1325h180l242 -620l393 620h191l-516 -776l-66 -549h-166l66 549z" />
<glyph unicode="Z" d="M10 0l19 154l815 1015h-651l18 156h836l-19 -154l-813 -1015h709l-19 -156h-895z" />
<glyph unicode="[" horiz-adv-x="602" d="M70 -311l233 1906h381l-14 -120h-248l-205 -1663h248l-14 -123h-381z" />
<glyph unicode="\" horiz-adv-x="1105" d="M264 1477l121 39l528 -1651l-120 -39z" />
<glyph unicode="]" horiz-adv-x="602" d="M-8 -311l14 123h250l205 1661h-250l14 122h381l-233 -1906h-381z" />
<glyph unicode="^" horiz-adv-x="1173" d="M182 571l457 770h141l269 -770h-129l-222 631l-374 -631h-142z" />
<glyph unicode="_" horiz-adv-x="1257" d="M-94 -446l14 118h1256l-15 -118h-1255z" />
<glyph unicode="`" horiz-adv-x="641" d="M276 1325h170l129 -256h-151z" />
<glyph unicode="a" d="M88 312q-3 32 -3 64q0 116 38 234q48 148 139 228q116 100 283 100q151 0 246 -102l20 82h145l-114 -918h-146l-2 84q-106 -104 -262 -104q-169 0 -258 100q-73 82 -86 232zM245 338q7 -117 58 -174q48 -53 129 -53q46 0 88.5 10.5t88 40.5t78.5 77.5t54 128t21 185.5 q0 254 -217 254q-98 0 -174 -68q-61 -54 -97 -169q-30 -96 -30 -194q0 -19 1 -38z" />
<glyph unicode="b" horiz-adv-x="1005" d="M82 0l164 1341h155l-63 -507q115 104 268 104q176 0 260 -100q68 -82 80 -232q2 -30 3 -59q1 -120 -37 -239q-46 -148 -134 -226q-115 -102 -286 -102q-160 0 -242 102l-23 -82h-145zM272 367q0 -256 222 -256q113 0 186 75q52 52 84 160q28 95 28 196v28q-4 116 -53 178 q-46 59 -141 59q-27 0 -51.5 -3t-58.5 -13.5t-62.5 -28.5t-58 -51.5t-49.5 -78.5t-33 -113t-13 -152z" />
<glyph unicode="c" horiz-adv-x="923" d="M90 356q0 114 22 207t55 152t80 103.5t89 66.5t91 35t77 15.5t55 2.5q24 0 46.5 -1.5t57 -7.5t63 -16.5t60 -30t53.5 -46t37 -67.5t17 -91l-156 -10q-14 139 -178 139q-27 0 -52 -3t-58 -14.5t-60 -29.5t-55 -51.5t-47 -78t-31 -111t-12 -148.5q0 -260 215 -260 q54 0 95.5 12t78.5 46.5t59 92.5l158 -12q-24 -69 -64.5 -120.5t-82.5 -79.5t-92 -44.5t-85 -21t-69 -4.5q-25 0 -49 2t-62.5 10.5t-71 22.5t-68 42.5t-60 67t-40.5 98t-16 133.5z" />
<glyph unicode="d" horiz-adv-x="1005" d="M86 312q-3 32 -3 64q0 116 38 234q48 148 139 228q116 100 285 100q147 0 241 -104l64 507h156l-164 -1341h-146l-2 84q-106 -104 -262 -104q-171 0 -260 100q-73 82 -86 232zM243 338q7 -117 58 -174q48 -53 131 -53q46 0 88.5 10.5t88 40.5t78.5 77.5t54 128t21 185.5 q0 254 -217 254q-100 0 -176 -68q-61 -54 -97 -169q-30 -96 -30 -194q0 -19 1 -38z" />
<glyph unicode="e" horiz-adv-x="970" d="M90 358q0 113 22 205t55 150.5t80.5 103t90.5 66.5t92.5 35.5t79 16.5t57.5 3q344 0 344 -340q0 -33 -3.5 -77t-8 -73.5t-6.5 -31.5h-651q-2 -24 -2 -47q0 -142 58.5 -202.5t166.5 -60.5q190 0 252 156l149 -10q-29 -81 -77.5 -137.5t-106 -84t-109.5 -39t-108 -11.5 q-26 0 -49.5 1.5t-63.5 10t-73 23t-69.5 43t-61.5 67t-41.5 99t-16.5 134.5zM260 549h498q6 34 6 65q0 70 -32 122q-46 74 -165 73q-54 0 -101.5 -14t-89 -43.5t-72 -81t-44.5 -121.5z" />
<glyph unicode="f" horiz-adv-x="614" d="M90 786l16 132h173l18 155q14 129 83.5 198.5t213.5 69.5l82 -6l-17 -133q-18 2 -45 2q-86 0 -119.5 -30.5t-41.5 -104.5l-19 -151h205l-16 -132h-205l-96 -786h-156l96 786h-172z" />
<glyph unicode="g" d="M31 -172q41 3 164 8q7 -71 53 -111t162 -40q49 0 89 11.5t67.5 29t49.5 47.5t34.5 57.5t22.5 68.5t15 71t10 75l7 49q-112 -114 -273 -114q-28 0 -51.5 2t-60.5 10.5t-66.5 23t-61.5 42.5t-54 66.5t-36 98t-14 133.5q0 111 19.5 201t50 149.5t73.5 104t84 68t88 38t79 18 t63 3.5q150 0 248 -113l20 93h143l-114 -918q-27 -218 -132 -332t-307 -114q-344 0 -372 274zM246 358q0 -247 186 -247q46 0 88.5 10.5t88 40.5t78.5 77.5t54 128t21 185.5q0 254 -217 254q-30 0 -59 -6.5t-64.5 -22.5t-65.5 -48.5t-55.5 -80t-40 -122.5t-14.5 -169z" />
<glyph unicode="h" horiz-adv-x="991" d="M82 0l164 1341h155l-61 -499q107 96 262 96q46 0 82 -4.5t87 -26t82 -59.5t48 -112q10 -42 9 -93q0 -39 -5 -84l-67 -559h-156l68 559q4 34 4.5 63.5t-3.5 52t-10 41t-16 31.5t-20.5 23t-24.5 16.5t-27 11t-29.5 6.5t-29.5 2.5t-29 0.5q-19 0 -41.5 -3t-59.5 -16t-67 -35 t-55.5 -65t-32.5 -100l-71 -588h-156z" />
<glyph unicode="i" horiz-adv-x="405" d="M84 0l113 918h155l-112 -918h-156zM197 1227q6 49 43 81.5t84 32.5q46 -1 76 -33q25 -27 25 -64q0 -8 -1 -15q-6 -47 -43.5 -81t-83.5 -34q-47 0 -77 34q-25 28 -24 64q0 7 1 15z" />
<glyph unicode="j" horiz-adv-x="413" d="M-156 -428l17 133q25 -2 45 -2q85 0 120 32t44 107l133 1076h155l-133 -1082q-16 -128 -84.5 -198t-212.5 -70zM205 1227q6 49 43 81.5t84 32.5t76 -33q25 -27 25 -64q0 -7 -1 -15q-6 -47 -43.5 -81t-83.5 -34q-47 0 -77 34q-24 27 -24 64q0 7 1 15z" />
<glyph unicode="k" horiz-adv-x="897" d="M82 0l164 1341h155l-110 -907l440 484h195l-355 -379l285 -539h-176l-217 422l-201 -213l-24 -209h-156z" />
<glyph unicode="l" horiz-adv-x="401" d="M82 0l164 1341h155l-163 -1341h-156z" />
<glyph unicode="m" horiz-adv-x="1441" d="M82 0l113 918h149l-4 -68q106 88 238 88q172 0 233 -117q49 55 121.5 86t150.5 31q19 0 35 -1t38.5 -3.5t41 -7.5t41 -13t38.5 -20t34.5 -29t28 -39t19.5 -51q9 -26 9 -58v-6q-1 -36 -4 -79l-76 -631h-155l75 631q2 19 2 37q0 139 -157 139q-18 0 -39 -3t-51 -13.5 t-54 -27t-44 -48t-25 -72.5l-78 -643h-154l76 631q2 19 2 37q0 139 -158 139q-24 0 -53.5 -7t-65.5 -23t-62 -50.5t-32 -81.5l-77 -645h-156z" />
<glyph unicode="n" horiz-adv-x="991" d="M82 0l113 918h151l-6 -76q53 46 123.5 71t140.5 25q46 0 82 -4.5t86.5 -26t81.5 -59.5q30 -38 47 -112q10 -42 9 -93q0 -39 -5 -84l-67 -559h-156l68 559q4 34 4.5 63.5t-3.5 52t-9.5 41t-15.5 31.5t-20.5 23t-24.5 16.5t-26.5 11t-29 6.5t-29.5 2.5t-29 0.5 q-18 0 -41.5 -3.5t-61 -17.5t-68 -36.5t-56.5 -65.5t-33 -100l-69 -584h-156z" />
<glyph unicode="o" horiz-adv-x="997" d="M86 360q-1 14 -1 29q0 131 46 253q51 134 139 204q116 92 293 92q219 0 311 -143q57 -87 63 -229q1 -15 1 -30q0 -127 -46 -253q-52 -141 -149 -217q-110 -86 -278 -86q-218 0 -307 133q-66 99 -72 247zM240 362q3 -113 49 -178q52 -73 176 -73q109 0 180 55 q47 35 81 108q33 74 46 154q9 54 9 107q-1 27 -3 53q-6 80 -35 133q-47 86 -180 86q-127 0 -205 -74q-54 -49 -88 -153q-31 -96 -30 -199v-19z" />
<glyph unicode="p" horiz-adv-x="1005" d="M29 -424l166 1342h151l-8 -84q115 104 268 104q176 0 260 -100q69 -82 80 -233q1 -28 1 -56q0 -122 -37 -243q-47 -148 -132 -224q-115 -102 -286 -102q-160 0 -244 104l-64 -508h-155zM272 367q0 -256 222 -256q113 0 186 75q52 52 84 160q28 95 28 196v28 q-5 116 -53 178q-46 59 -141 59q-27 0 -51.5 -3t-58.5 -13.5t-62.5 -28.5t-58 -51.5t-49.5 -78.5t-33 -113t-13 -152z" />
<glyph unicode="q" d="M84 312q-3 32 -3 64q0 118 38 234q48 149 139 228q116 100 287 100q149 0 243 -109l19 89h149l-165 -1342h-156l61 510q-108 -106 -264 -106q-173 0 -262 100q-73 83 -86 232zM241 338q7 -117 58 -174q48 -53 133 -53q46 0 88.5 10.5t88 40.5t78.5 77.5t54 128t21 185.5 q0 254 -217 254q-102 0 -178 -68q-62 -54 -97 -169q-30 -96 -30 -194q0 -19 1 -38z" />
<glyph unicode="r" horiz-adv-x="620" d="M82 0l113 918h149l-10 -111q114 132 287 132q16 0 32 -1l-20 -162q-19 1 -38 1q-22 1 -42 -1q-38 -4 -82 -19.5t-77 -42t-59 -75t-34 -113.5l-63 -526h-156z" />
<glyph unicode="s" horiz-adv-x="860" d="M55 258l146 12q-2 -15 -2 -29q-1 -31 9 -55q14 -34 44.5 -49.5t62.5 -21.5t74 -6q62 0 112 12.5t88 49.5t38 95q0 40 -28 68t-110 51q-33 9 -77.5 20t-81.5 21q-199 55 -199 215q0 139 100.5 218t264.5 79q76 0 134 -16.5t90.5 -41.5t53 -58.5t27 -62.5t6.5 -59v-20 l-141 -10q0 139 -174 139q-40 0 -75.5 -7.5t-68.5 -23.5t-52.5 -47t-19.5 -74q0 -36 25.5 -61t101.5 -45l140 -35q229 -58 229 -237q0 -141 -108 -220t-275 -79q-85 0 -148.5 18t-99 45.5t-55.5 66.5q-20 40 -26 74q-5 29 -5 62v12z" />
<glyph unicode="t" horiz-adv-x="634" d="M92 786l17 132h172l38 329l158 10l-41 -339h205l-16 -132h-205l-66 -526q-2 -21 -3 -39q0 -47 18 -68q24 -30 110 -30l47 2l-16 -133q-37 -4 -80 -4q-145 0 -196 69q-39 53 -39 140q0 28 4 59l65 530h-172z" />
<glyph unicode="u" horiz-adv-x="991" d="M115 358l69 560h156l-70 -560q-4 -34 -5 -63.5t3.5 -52t10.5 -40.5t16 -31.5t20.5 -23.5t25 -16.5t27 -10.5t29 -6t29 -2.5t29.5 -0.5q19 0 41.5 3t59.5 17.5t67 37.5t56 68.5t34 106.5l71 574h156l-113 -918h-151l2 76q-56 -47 -126 -71.5t-136 -24.5q-46 0 -82 4 t-86.5 25.5t-81 59t-47.5 111.5q-10 42 -10 94q0 39 6 84z" />
<glyph unicode="v" horiz-adv-x="806" d="M80 918h158l139 -768l332 768h161l-415 -918h-185z" />
<glyph unicode="w" horiz-adv-x="1314" d="M88 918h154l88 -766l295 766h204l103 -766l280 766h158l-352 -918h-187l-120 786l-310 -786h-186z" />
<glyph unicode="x" horiz-adv-x="870" d="M-10 0l368 471l-235 447h172l160 -328l254 328h188l-360 -443l262 -475h-174l-185 360l-264 -360h-186z" />
<glyph unicode="y" horiz-adv-x="819" d="M-53 -440l14 133q49 -2 86 -2q25 0 45 1.5t37.5 8.5t29 11t25 19t20 21.5t18.5 30.5t16.5 34t19 43t21.5 48l40 92h-40l-191 918h156l141 -771l332 771h162l-416 -918l-74 -166q-49 -110 -90 -165.5t-103.5 -84t-160.5 -28.5z" />
<glyph unicode="z" horiz-adv-x="796" d="M20 0l15 133l573 653h-473l17 132h636l-16 -134l-573 -653h510l-15 -131h-674z" />
<glyph unicode="{" horiz-adv-x="673" d="M188 625l13 106q60 5 90 38t39 112l41 331q21 174 119 281.5t268 116.5l-15 -121q-65 -5 -109.5 -27.5t-70.5 -63.5t-39.5 -87t-21.5 -113l-43 -352q-5 -40 -19 -72.5t-29.5 -51t-33 -31.5t-27.5 -17.5t-16 -5.5q11 -4 22.5 -13t29 -31t25.5 -65t1 -100l-41 -334 q-10 -60 -7 -111.5t18 -90t54.5 -62.5t102.5 -29l-15 -119q-111 7 -181.5 61t-95.5 139.5t-11 197.5l40 338q11 81 -10 124t-78 52z" />
<glyph unicode="|" horiz-adv-x="438" d="M92 -170l207 1683h127l-207 -1683h-127z" />
<glyph unicode="}" horiz-adv-x="673" d="M-6 -287l14 119q52 4 91.5 21t65 41.5t43 62.5t26.5 77t16 91l45 354q20 163 123 209q-9 2 -21 10.5t-28.5 27t-24.5 55.5t-2 85l39 332q9 82 4 144t-47 101t-125 46l14 121q167 -9 238.5 -116.5t50.5 -281.5l-41 -331q-9 -80 13 -112.5t79 -37.5l-12 -106 q-60 -9 -91 -51.5t-42 -124.5l-41 -338q-21 -172 -120 -280t-267 -118z" />
<glyph unicode="~" horiz-adv-x="1226" d="M178 588q113 164 295 164q81 0 207 -60q99 -45 160 -45q109 0 172 98l108 -51q-113 -164 -293 -164q-75 0 -206 58q-103 47 -158 47q-57 0 -103.5 -30t-74.5 -73z" />
<glyph unicode="&#xa1;" horiz-adv-x="491" d="M72 -420l121 989h163l-120 -989h-164zM195 811q0 51 35 89t85 38q46 0 75.5 -27.5t29.5 -68.5q0 -50 -38.5 -87.5t-86.5 -37.5q-43 0 -71.5 27t-28.5 67z" />
<glyph unicode="&#xa2;" horiz-adv-x="933" d="M90 356q0 97 15.5 178t40.5 137.5t60.5 102t71 73t77.5 46.5t74.5 28t66.5 13l20 156h123l-21 -156q36 -3 69 -10.5t71 -26t65.5 -45t47.5 -71.5t22 -103l-156 -10q-14 139 -178 139q-27 0 -52 -3t-58 -14.5t-60 -29.5t-55 -51.5t-47 -78t-31 -111t-12 -148.5 q0 -260 215 -260q54 0 95.5 12t78.5 46.5t59 92.5l158 -12q-21 -60 -54.5 -107t-69 -75t-78 -47.5t-76.5 -27.5t-70 -11l-19 -152h-123l21 156q-40 5 -75.5 16.5t-77 38.5t-70.5 66t-48.5 103t-19.5 146z" />
<glyph unicode="&#xa3;" horiz-adv-x="978" d="M41 0l16 141h21q74 0 108.5 30t44.5 116l37 303h-155l14 117h156l39 323q3 21 5.5 36.5t13 49t25.5 58t43 55t64 50t92 33t123 13.5q85 0 147 -20.5t93.5 -50t48.5 -69t20 -69.5t0 -59l-163 -10q4 62 -27.5 101.5t-124.5 39.5q-54 0 -93.5 -17t-60.5 -44.5t-30.5 -52.5 t-12.5 -50l-39 -317h299l-14 -117h-299l-37 -301q-7 -56 -24 -92.5t-58 -57.5h590l-16 -139h-846z" />
<glyph unicode="&#xa5;" horiz-adv-x="1028" d="M76 264l16 121h346l23 182h-346l14 123h281l-273 635h174l244 -616l391 616h189l-430 -635h245l-14 -123h-309l-23 -182h309l-16 -121h-309l-31 -264h-166l31 264h-346z" />
<glyph unicode="&#xa6;" horiz-adv-x="438" d="M90 -170l84 682h131l-84 -682h-131zM213 829l84 684h131l-84 -684h-131z" />
<glyph unicode="&#xa7;" horiz-adv-x="1114" d="M119 -86q0 4 1 13.5t1 13.5l155 14q-2 -8 -2 -27q0 -25 8 -46t28.5 -43t63.5 -35t105 -13q118 0 184 41t66 115q0 38 -32 70t-126 67l-161 57q-82 29 -140 70.5t-88 88.5t-42.5 91t-12.5 90q0 137 80.5 235.5t206.5 137.5q-113 72 -113 190q0 139 112.5 217t274.5 78 q63 0 119.5 -14.5t105 -45t77 -85.5t28.5 -129l-152 -10q0 20 -2 36t-12.5 37.5t-29 36t-54.5 25t-86 10.5q-41 0 -77.5 -6.5t-72 -22.5t-56.5 -47t-21 -75q0 -40 27.5 -72t107.5 -57l147 -46q291 -88 291 -342q0 -48 -16 -99.5t-47.5 -104t-89 -97t-132.5 -69.5 q140 -75 140 -215q0 -33 -11.5 -69.5t-41 -77.5t-73.5 -73t-117.5 -53.5t-164.5 -21.5q-82 0 -146.5 17.5t-103 44.5t-63.5 63t-34 69.5t-9 67.5zM289 483q0 -38 14.5 -76t46.5 -74.5t93.5 -59.5t144.5 -23q133 0 205.5 82t72.5 200q0 40 -16 79t-49 75.5t-94 59t-142 22.5 q-122 0 -199 -78t-77 -207z" />
<glyph unicode="&#xa8;" horiz-adv-x="878" d="M258 1212q0 49 36 84t83 35q40 0 68 -28t28 -68q0 -46 -35.5 -81.5t-79.5 -35.5q-41 0 -70.5 28t-29.5 66zM618 1212q0 49 35.5 84t85.5 35q40 0 68.5 -28t28.5 -68q0 -46 -35.5 -81.5t-79.5 -35.5q-43 0 -73 28t-30 66z" />
<glyph unicode="&#xa9;" horiz-adv-x="1720" d="M147 565q0 166 69.5 320.5t183.5 267t268 179.5t317 67q187 0 340 -87.5t239.5 -239t86.5 -333.5q0 -166 -70 -320.5t-185 -265.5t-269 -178t-316 -67q-187 0 -339.5 87t-238.5 237.5t-86 332.5zM268 571q0 -114 41.5 -214t114 -172t174.5 -114t219 -42q135 0 265.5 57 t228 152t157.5 225t60 268q0 153 -70 278t-196 197t-283 72q-137 0 -267.5 -57.5t-227.5 -153t-156.5 -226.5t-59.5 -270zM485 551q0 115 21.5 208t54.5 152.5t80 103.5t89 66.5t91 35.5t77.5 15.5t55.5 2.5q24 0 47 -1.5t57 -7.5t63 -16.5t60.5 -30.5t53.5 -46.5 t37.5 -67.5t17.5 -91l-155 -10q-12 140 -185 140q-25 0 -49.5 -3.5t-56.5 -15t-59 -30t-54.5 -52t-46.5 -78.5t-31 -111.5t-12 -148.5q0 -258 221 -258q72 0 133 35.5t92 116.5l160 -13q-24 -69 -64.5 -120.5t-82.5 -79.5t-92 -44.5t-85 -21t-69 -4.5q-26 0 -49.5 2 t-62.5 10t-71.5 22.5t-68 43t-60.5 66.5t-41 97.5t-16 133.5z" />
<glyph unicode="&#xaa;" horiz-adv-x="645" d="M143 920q0 147 193 190l184 39q9 69 -11.5 93t-84.5 24q-102 0 -131 -88l-109 12q49 172 240 172q69 0 115 -17.5t66 -48.5t25.5 -65t0.5 -76l-47 -375h-103l4 43q-70 -55 -157 -55q-83 0 -134 41t-51 111zM256 932q0 -68 86 -68q59 0 106.5 35.5t55.5 106.5l6 53 q-82 -23 -158 -39q-48 -11 -72 -31t-24 -57z" />
<glyph unicode="&#xab;" horiz-adv-x="1138" d="M143 424l13 94l393 369l80 -92l-357 -334l269 -326l-95 -80zM539 424l12 94l393 369l80 -92l-356 -334l268 -326l-94 -80z" />
<glyph unicode="&#xac;" horiz-adv-x="1247" d="M172 494l16 127h940l-67 -560h-125l53 433h-817z" />
<glyph unicode="&#xad;" horiz-adv-x="909" d="M172 485l16 133h609l-17 -133h-608z" />
<glyph unicode="&#xae;" horiz-adv-x="1720" d="M147 565q0 166 69.5 320.5t183.5 267t268 179.5t317 67q187 0 340 -87.5t239.5 -239t86.5 -333.5q0 -166 -70 -320.5t-185 -265.5t-269 -178t-316 -67q-187 0 -339.5 87t-238.5 237.5t-86 332.5zM268 571q0 -114 41.5 -214t114 -172t174.5 -114t219 -42q135 0 265.5 57 t228 152t157.5 225t60 268q0 153 -70 278t-196 197t-283 72q-137 0 -267.5 -57.5t-227.5 -153t-156.5 -226.5t-59.5 -270zM559 199l113 911h286q155 0 229.5 -59.5t74.5 -167.5q0 -107 -55 -182t-152 -109l135 -393h-162l-110 368h-170l-48 -368h-141zM764 702h143 q61 0 106 16.5t66.5 43t31 52.5t9.5 52q0 50 -35.5 79.5t-132.5 29.5h-155z" />
<glyph unicode="&#xaf;" horiz-adv-x="952" d="M272 1155l15 121h608l-14 -121h-609z" />
<glyph unicode="&#xb0;" horiz-adv-x="858" d="M250 1120q0 127 92.5 215t216.5 88q104 0 175 -72t71 -175q0 -125 -92 -214.5t-215 -89.5q-105 0 -176.5 72.5t-71.5 175.5zM367 1126q0 -60 40 -99.5t101 -39.5q72 0 127 54.5t55 127.5q0 60 -40.5 99t-100.5 39q-71 0 -126.5 -54t-55.5 -127z" />
<glyph unicode="&#xb1;" horiz-adv-x="1298" d="M96 -123l17 123h989l-17 -123h-989zM182 569l15 127h430l53 434h129l-53 -434h432l-14 -127h-433l-53 -432h-129l53 432h-430z" />
<glyph unicode="&#xb2;" horiz-adv-x="624" d="M115 674l12 100l137 119q147 129 195.5 186t48.5 119q0 76 -96 76q-113 0 -127 -111l-115 4q3 23 10.5 48t26 55.5t44.5 54t69 39.5t96 16q102 0 153.5 -48t51.5 -126q0 -38 -12 -72t-32 -66t-66.5 -78.5t-94.5 -89.5t-137 -118h294l-12 -108h-446z" />
<glyph unicode="&#xb3;" horiz-adv-x="655" d="M143 852l2 37l113 4q-2 -15 -2 -29q0 -94 104 -94q75 0 110.5 31t35.5 82q0 52 -36 73t-138 21l12 104q108 0 146 31t38 84q0 78 -98 78q-56 0 -87.5 -30.5t-37.5 -80.5l-117 4q13 89 76.5 150t167.5 61q107 0 158 -49.5t51 -124.5q0 -115 -98 -174q80 -49 80 -141 q0 -88 -69 -156.5t-198 -68.5q-107 0 -160 53t-53 135z" />
<glyph unicode="&#xb4;" horiz-adv-x="641" d="M244 1069l190 256h178l-209 -256h-159z" />
<glyph unicode="&#xb5;" horiz-adv-x="1042" d="M29 -424l166 1342h155l-71 -584q-7 -57 5 -100t34 -65.5t55 -36.5t59 -17.5t55 -3.5q46 0 89 11.5t83.5 37t68.5 73t36 111.5l72 574h155l-112 -918h-152l2 82q-110 -102 -248 -102q-156 0 -235 102l-62 -506h-155z" />
<glyph unicode="&#xb6;" horiz-adv-x="1187" d="M227 918q0 186 118 296.5t345 110.5h119l-162 -1325h-164l76 600q-166 10 -249 97t-83 221zM393 922q0 -152 187 -166l51 409q-119 -4 -178.5 -66.5t-59.5 -176.5zM829 0l162 1325h164l-162 -1325h-164z" />
<glyph unicode="&#xb7;" horiz-adv-x="542" d="M197 670q0 55 40 93t93 38q44 0 73 -28.5t29 -74.5q0 -52 -39 -90.5t-92 -38.5q-45 0 -74.5 29t-29.5 72z" />
<glyph unicode="&#xb8;" horiz-adv-x="548" d="M55 -334l19 101q57 -17 94 -17q43 0 69.5 21.5t26.5 68.5q0 69 -94 150h135q3 -3 8.5 -7.5t19 -20.5t23.5 -32.5t18.5 -41t8.5 -48.5q0 -92 -62.5 -142t-152.5 -50q-25 0 -53.5 4.5t-44.5 9.5z" />
<glyph unicode="&#xb9;" horiz-adv-x="569" d="M236 1184l10 82q35 0 63 10.5t43.5 25t26 29t13.5 25.5l3 10h103l-84 -694h-113l61 512h-126z" />
<glyph unicode="&#xba;" horiz-adv-x="690" d="M168 999q0 98 26 170t60 107t80.5 56t74 24.5t54.5 3.5q25 0 48 -2.5t59.5 -16t62.5 -36.5t45.5 -69.5t19.5 -109.5q0 -71 -13.5 -128.5t-34.5 -94.5t-50.5 -64t-56 -40.5t-58 -21.5t-49 -9.5t-35.5 -1.5q-25 0 -47.5 2.5t-59 15.5t-62 36t-45 69.5t-19.5 109.5z M281 1008q0 -46 11 -76.5t30.5 -44t37.5 -18.5t41 -5q22 0 42.5 4t48 19.5t47 41t33.5 74.5t14 115q0 144 -123 144q-22 0 -42 -4t-47 -19.5t-46.5 -41t-33 -74.5t-13.5 -115z" />
<glyph unicode="&#xbb;" horiz-adv-x="1159" d="M61 145l359 336l-264 324l92 82l303 -369l-12 -94l-394 -369zM477 145l359 336l-265 324l93 82l303 -369l-13 -94l-393 -369z" />
<glyph unicode="&#xbc;" horiz-adv-x="1425" d="M195 1184l10 82q35 0 63 10.5t43.5 25t26 29t13.5 25.5l3 10h103l-84 -694h-113l62 512h-127zM217 27l772 1351l94 -45l-770 -1349zM680 137l12 94l365 465h121l-58 -454h99l-13 -105h-98l-16 -135h-115l16 135h-313zM805 242h201l36 307z" />
<glyph unicode="&#xbd;" horiz-adv-x="1429" d="M195 1184l10 82q35 0 63 10.5t43.5 25t26 29t13.5 25.5l3 10h103l-84 -694h-113l62 512h-127zM219 27l772 1351l94 -45l-770 -1349zM795 0l12 100l137 119q147 129 195.5 186t48.5 119q0 76 -96 76q-113 0 -127 -111l-115 5q3 23 10.5 48t26 55.5t44.5 54t69 39.5t96 16 q102 0 153 -48.5t51 -126.5q0 -89 -66 -167t-276 -256h295l-12 -109h-446z" />
<glyph unicode="&#xbe;" horiz-adv-x="1525" d="M102 852l2 37l113 4q-2 -15 -2 -29q0 -94 104 -94q75 0 110.5 31t35.5 82q0 52 -36 73t-138 21l12 104q108 0 146 31t38 84q0 78 -98 78q-56 0 -87.5 -30.5t-37.5 -80.5l-117 4q13 89 76.5 150t167.5 61q107 0 158 -49.5t51 -124.5q0 -115 -98 -174q80 -49 80 -141 q0 -88 -69 -156.5t-198 -68.5q-107 0 -160 53t-53 135zM328 27l772 1351l94 -45l-770 -1349zM797 137l12 94l365 465h120l-57 -454h98l-12 -105h-98l-17 -135h-114l16 135h-313zM922 242h200l37 307z" />
<glyph unicode="&#xbf;" horiz-adv-x="1067" d="M106 -117q0 71 21.5 133.5t56.5 108t77.5 87.5t86.5 81.5t81 79.5t63.5 91.5t31.5 108.5h148q-7 -62 -28 -117t-54.5 -101t-63 -78t-73.5 -72q-87 -80 -129 -133.5t-54 -91.5t-12 -95q0 -176 197 -176q64 0 111.5 17t73 40t42.5 59t22 60.5t9 59.5l149 -11 q-3 -29 -8.5 -56.5t-19 -65.5t-32.5 -70t-51 -64.5t-72.5 -55.5t-99 -37.5t-128.5 -14.5q-115 0 -195 44t-115 113t-35 156zM506 809q0 50 35.5 88.5t85.5 38.5q46 0 75 -27.5t29 -68.5q0 -50 -38.5 -87.5t-86.5 -37.5q-43 0 -71.5 27t-28.5 67z" />
<glyph unicode="&#xc0;" horiz-adv-x="1144" d="M-61 0l608 1325h211l284 -1325h-165l-64 285h-575l-123 -285h-176zM303 432h479l-145 733zM436 1731h170l129 -256h-151z" />
<glyph unicode="&#xc1;" horiz-adv-x="1144" d="M-61 0l608 1325h211l284 -1325h-165l-64 285h-575l-123 -285h-176zM303 432h479l-145 733zM580 1475l190 256h178l-209 -256h-159z" />
<glyph unicode="&#xc2;" horiz-adv-x="1144" d="M-61 0l608 1325h211l284 -1325h-165l-64 285h-575l-123 -285h-176zM303 432h479l-145 733zM399 1468l215 242h174l152 -242h-137l-109 152l-145 -152h-150z" />
<glyph unicode="&#xc3;" horiz-adv-x="1144" d="M-61 0l608 1325h211l284 -1325h-165l-64 285h-575l-123 -285h-176zM303 432h479l-145 733zM369 1552q72 168 206 168q9 0 17.5 -1t18 -3.5t16 -4.5t16 -6.5t14.5 -7t14.5 -8.5t12 -7.5t12.5 -8t11 -6.5q9 -6 28 -18.5t27.5 -17.5t22.5 -10t28 -5q19 0 35 9t28.5 28 t19 32.5t15.5 36.5l99 -41q-25 -78 -77.5 -129t-125.5 -51q-61 0 -137 53q-4 3 -25 17.5t-28 19t-22.5 10t-29.5 5.5q-31 0 -52.5 -25.5t-43.5 -73.5z" />
<glyph unicode="&#xc4;" horiz-adv-x="1144" d="M-61 0l608 1325h211l284 -1325h-165l-64 285h-575l-123 -285h-176zM303 432h479l-145 733zM399 1597q0 49 36 84t83 35q40 0 68 -28t28 -68q0 -46 -35 -81.5t-79 -35.5q-41 0 -71 28t-30 66zM760 1597q0 49 35.5 84t85.5 35q40 0 68 -28t28 -68q0 -46 -35.5 -81.5 t-79.5 -35.5q-42 0 -72 27.5t-30 66.5z" />
<glyph unicode="&#xc5;" horiz-adv-x="1144" d="M-20 0l606 1323q-37 23 -57.5 62t-20.5 85q0 90 64.5 154t146.5 64q85 0 136.5 -51.5t51.5 -127.5q0 -59 -29.5 -108t-78.5 -78l284 -1323h-165l-64 285h-575l-123 -285h-176zM344 432h479l-145 733zM610 1477q0 -36 23 -60t59 -24q49 0 81 32t32 78q0 38 -23 62t-63 24 q-45 0 -77 -33.5t-32 -78.5z" />
<glyph unicode="&#xc6;" horiz-adv-x="1456" d="M-16 0l598 1325h882l-18 -156h-475l-51 -413h454l-20 -156h-455l-53 -444h485l-18 -156h-649l34 285h-415l-123 -285h-176zM346 432h369l92 737h-137z" />
<glyph unicode="&#xc7;" horiz-adv-x="1101" d="M121 475q0 267 65.5 460.5t201 302t331.5 108.5q84 0 150 -19.5t109 -52t72.5 -79t43.5 -97t18 -109.5l-168 -10q-5 107 -59.5 163t-177.5 56q-74 0 -135.5 -25.5t-104 -67t-75 -101.5t-52 -123t-32 -137t-17 -138t-4.5 -131q0 -78 12 -136.5t41 -108.5t85 -76.5 t138 -26.5q136 0 208.5 61t100.5 179l170 -11q-17 -73 -50.5 -135.5t-86.5 -116.5t-133.5 -87t-181.5 -37q67 -60 67 -140q0 -92 -62.5 -142t-152.5 -50q-25 0 -53 4.5t-43 9.5l-16 4l18 101q57 -17 94 -17q43 0 70 21.5t27 68.5q0 68 -95 150q-323 60 -323 485z" />
<glyph unicode="&#xc8;" horiz-adv-x="1032" d="M72 0l161 1325h766l-18 -156h-602l-51 -413h581l-20 -156h-582l-53 -444h612l-18 -156h-776zM457 1731h170l129 -256h-152z" />
<glyph unicode="&#xc9;" horiz-adv-x="1032" d="M72 0l161 1325h766l-18 -156h-602l-51 -413h581l-20 -156h-582l-53 -444h612l-18 -156h-776zM438 1475l191 256h178l-209 -256h-160z" />
<glyph unicode="&#xca;" horiz-adv-x="1032" d="M72 0l161 1325h766l-18 -156h-602l-51 -413h581l-20 -156h-582l-53 -444h612l-18 -156h-776zM367 1468l215 242h174l151 -242h-137l-108 152l-146 -152h-149z" />
<glyph unicode="&#xcb;" horiz-adv-x="1032" d="M72 0l161 1325h766l-18 -156h-602l-51 -413h581l-20 -156h-582l-53 -444h612l-18 -156h-776zM373 1597q0 49 36 84t83 35q40 0 68 -28t28 -68q0 -46 -35.5 -81.5t-79.5 -35.5q-41 0 -70.5 28t-29.5 66zM733 1597q0 49 35.5 84t85.5 35q40 0 68 -28t28 -68 q0 -46 -35 -81.5t-79 -35.5q-43 0 -73 28t-30 66z" />
<glyph unicode="&#xcc;" horiz-adv-x="477" d="M76 0l162 1325h163l-161 -1325h-164zM117 1731h170l129 -256h-152z" />
<glyph unicode="&#xcd;" horiz-adv-x="477" d="M76 0l162 1325h163l-161 -1325h-164zM262 1475l191 256h178l-209 -256h-160z" />
<glyph unicode="&#xce;" horiz-adv-x="477" d="M68 1468l215 242h174l151 -242h-137l-109 152l-145 -152h-149zM76 0l162 1325h163l-161 -1325h-164z" />
<glyph unicode="&#xcf;" horiz-adv-x="477" d="M66 1597q0 49 35.5 84t82.5 35q40 0 68.5 -28t28.5 -68q0 -46 -35.5 -81.5t-79.5 -35.5q-41 0 -70.5 28t-29.5 66zM76 0l162 1325h163l-161 -1325h-164zM426 1597q0 49 35.5 84t85.5 35q40 0 68 -28t28 -68q0 -46 -35.5 -81.5t-79.5 -35.5q-42 0 -72 27.5t-30 66.5z" />
<glyph unicode="&#xd0;" horiz-adv-x="1239" d="M74 608l16 135h160l72 582h434q74 0 135.5 -15.5t106 -42.5t78.5 -65.5t56 -81.5t35.5 -94t19 -99.5t5.5 -101.5q0 -135 -21.5 -255t-68 -225t-114.5 -181.5t-167 -120t-219 -43.5h-442l73 608h-159zM342 156h274q73 0 133 24t101.5 63.5t73.5 95.5t51 115t31 127t16 126 t4 118t-7 108t-25.5 93t-49 75.5t-79.5 49t-115 18.5h-283l-53 -426h319l-16 -135h-320z" />
<glyph unicode="&#xd1;" horiz-adv-x="1222" d="M72 0l161 1325h185l436 -1055l131 1055h164l-162 -1325h-182l-440 1057l-129 -1057h-164zM395 1552q72 168 207 168q10 0 20.5 -1.5t18.5 -3.5t18.5 -6.5t16.5 -7t17 -9t14 -8.5t14 -9t12 -8q9 -5 28.5 -18.5t27.5 -18t22.5 -9.5t28.5 -5q19 0 35 9t28.5 28t19 32.5 t15.5 36.5l98 -41q-25 -79 -77 -129.5t-125 -50.5q-62 0 -138 53q-6 4 -25.5 18t-27 18.5t-22.5 10t-29 5.5q-31 0 -52.5 -25.5t-43.5 -73.5z" />
<glyph unicode="&#xd2;" horiz-adv-x="1193" d="M82.5 451q-5.5 121 9.5 244t53.5 241.5t94.5 196.5q150 213 426 213q161 0 251.5 -57t143.5 -173q37 -82 46 -212.5t-8 -263.5t-60 -259.5t-103 -200.5q-159 -200 -418 -200q-167 0 -267 74t-136 188q-27 88 -32.5 209zM248 463q1 -108 22 -174q52 -162 248 -162 q100 0 159.5 29.5t102.5 79.5q56 67 96 183t55.5 235t11 230.5t-31.5 174.5q-26 63 -88 101t-155 38q-182 0 -281 -135q-42 -59 -75 -164t-49 -216.5t-15 -219.5zM473 1731h170l129 -256h-151z" />
<glyph unicode="&#xd3;" horiz-adv-x="1193" d="M82.5 451q-5.5 121 9.5 244t53.5 241.5t94.5 196.5q150 213 426 213q161 0 251.5 -57t143.5 -173q37 -82 46 -212.5t-8 -263.5t-60 -259.5t-103 -200.5q-159 -200 -418 -200q-167 0 -267 74t-136 188q-27 88 -32.5 209zM248 463q1 -108 22 -174q52 -162 248 -162 q100 0 159.5 29.5t102.5 79.5q56 67 96 183t55.5 235t11 230.5t-31.5 174.5q-26 63 -88 101t-155 38q-182 0 -281 -135q-42 -59 -75 -164t-49 -216.5t-15 -219.5zM567 1475l191 256h178l-209 -256h-160z" />
<glyph unicode="&#xd4;" horiz-adv-x="1193" d="M82.5 451q-5.5 121 9.5 244t53.5 241.5t94.5 196.5q150 213 426 213q161 0 251.5 -57t143.5 -173q37 -82 46 -212.5t-8 -263.5t-60 -259.5t-103 -200.5q-159 -200 -418 -200q-167 0 -267 74t-136 188q-27 88 -32.5 209zM248 463q1 -108 22 -174q52 -162 248 -162 q100 0 159.5 29.5t102.5 79.5q56 67 96 183t55.5 235t11 230.5t-31.5 174.5q-26 63 -88 101t-155 38q-182 0 -281 -135q-42 -59 -75 -164t-49 -216.5t-15 -219.5zM414 1468l215 242h174l151 -242h-137l-108 152l-146 -152h-149z" />
<glyph unicode="&#xd5;" horiz-adv-x="1191" d="M82.5 451q-5.5 121 9.5 244t53.5 241.5t94.5 196.5q150 213 426 213q161 0 251.5 -57t143.5 -173q37 -82 46 -212.5t-8 -263.5t-60 -259.5t-103 -200.5q-159 -200 -418 -200q-167 0 -267 74t-136 188q-27 88 -32.5 209zM248 463q1 -108 22 -174q52 -162 248 -162 q100 0 159.5 29.5t102.5 79.5q56 67 96 183t55.5 235t11 230.5t-31.5 174.5q-26 63 -88 101t-155 38q-182 0 -281 -135q-42 -59 -75 -164t-49 -216.5t-15 -219.5zM393 1573q72 168 207 168q10 0 20.5 -1.5t18.5 -3.5t18.5 -6.5t16.5 -7t17 -9t14 -8.5t14 -9t12 -8 q10 -6 28.5 -19t27.5 -18t23 -10t28 -5q19 0 35 9.5t28.5 28.5t19 32.5t15.5 36.5l98 -41q-25 -78 -77.5 -129t-125.5 -51q-61 0 -137 53q-6 4 -20.5 14.5t-21.5 15t-18.5 10.5t-22 8.5t-21.5 2.5q-31 0 -52.5 -25t-43.5 -73z" />
<glyph unicode="&#xd6;" horiz-adv-x="1191" d="M82.5 451q-5.5 121 9.5 244t53.5 241.5t94.5 196.5q150 213 426 213q161 0 251.5 -57t143.5 -173q37 -82 46 -212.5t-8 -263.5t-60 -259.5t-103 -200.5q-159 -200 -418 -200q-167 0 -267 74t-136 188q-27 88 -32.5 209zM248 463q1 -108 22 -174q52 -162 248 -162 q100 0 159.5 29.5t102.5 79.5q56 67 96 183t55.5 235t11 230.5t-31.5 174.5q-26 63 -88 101t-155 38q-182 0 -281 -135q-42 -59 -75 -164t-49 -216.5t-15 -219.5zM416 1597q0 49 36 84t83 35q40 0 68 -28t28 -68q0 -46 -35.5 -81.5t-79.5 -35.5q-41 0 -70.5 28t-29.5 66z M776 1597q0 49 35.5 84t85.5 35q40 0 68 -28t28 -68q0 -46 -35.5 -81.5t-78.5 -35.5t-73 28t-30 66z" />
<glyph unicode="&#xd7;" horiz-adv-x="1163" d="M152 305l374 334l-293 334l97 84l293 -334l381 340l83 -92l-382 -340l292 -334l-96 -84l-293 332l-375 -332z" />
<glyph unicode="&#xd8;" horiz-adv-x="1193" d="M111 -121l125 221q-59 65 -80 142q-27 88 -32.5 209t9.5 244t53.5 241.5t94.5 196.5q150 213 426 213q126 0 215 -39l110 196l121 -61l-121 -215q39 -45 70 -111q37 -82 46 -212.5t-8 -263.5t-60 -259.5t-103 -200.5q-159 -200 -418 -200q-122 0 -213 40l-117 -206z M289 463q1 -108 22 -174l13 -33l520 913q-60 29 -135 29q-182 0 -281 -135q-42 -59 -75 -164t-49 -216.5t-15 -219.5zM422 154q52 -27 137 -27q100 0 159.5 29.5t102.5 79.5q56 67 96 183t55.5 235t11 230.5t-31.5 174.5l-8 16z" />
<glyph unicode="&#xd9;" horiz-adv-x="1148" d="M100 390q2 29 6 61l107 874h164l-107 -874q-3 -28 -4.5 -42.5t-3 -45t0.5 -49.5t8 -46.5t17 -45.5t29.5 -38t43 -31.5t60 -19.5t79.5 -8q56 0 102.5 12.5t78 31.5t56.5 48t39.5 56t25 62.5t15 60t8.5 55.5l107 874h164l-107 -874l-6.5 -45.5t-11.5 -57.5t-19.5 -68.5 t-31 -69.5t-45 -70t-62.5 -61.5t-82.5 -52.5t-105.5 -33t-131 -13q-89 0 -158.5 21t-111 52.5t-69.5 78t-39.5 87.5t-14.5 91.5t-1 79.5zM453 1731h170l129 -256h-152z" />
<glyph unicode="&#xda;" horiz-adv-x="1148" d="M100 390q2 29 6 61l107 874h164l-107 -874q-3 -28 -4.5 -42.5t-3 -45t0.5 -49.5t8 -46.5t17 -45.5t29.5 -38t43 -31.5t60 -19.5t79.5 -8q56 0 102.5 12.5t78 31.5t56.5 48t39.5 56t25 62.5t15 60t8.5 55.5l107 874h164l-107 -874l-6.5 -45.5t-11.5 -57.5t-19.5 -68.5 t-31 -69.5t-45 -70t-62.5 -61.5t-82.5 -52.5t-105.5 -33t-131 -13q-89 0 -158.5 21t-111 52.5t-69.5 78t-39.5 87.5t-14.5 91.5t-1 79.5zM537 1475l190 256h178l-209 -256h-159z" />
<glyph unicode="&#xdb;" horiz-adv-x="1148" d="M100 390q2 29 6 61l107 874h164l-107 -874q-3 -28 -4.5 -42.5t-3 -45t0.5 -49.5t8 -46.5t17 -45.5t29.5 -38t43 -31.5t60 -19.5t79.5 -8q56 0 102.5 12.5t78 31.5t56.5 48t39.5 56t25 62.5t15 60t8.5 55.5l107 874h164l-107 -874l-6.5 -45.5t-11.5 -57.5t-19.5 -68.5 t-31 -69.5t-45 -70t-62.5 -61.5t-82.5 -52.5t-105.5 -33t-131 -13q-89 0 -158.5 21t-111 52.5t-69.5 78t-39.5 87.5t-14.5 91.5t-1 79.5zM395 1468l215 242h174l152 -242h-137l-109 152l-145 -152h-150z" />
<glyph unicode="&#xdc;" horiz-adv-x="1148" d="M100 390q2 29 6 61l107 874h164l-107 -874q-3 -28 -4.5 -42.5t-3 -45t0.5 -49.5t8 -46.5t17 -45.5t29.5 -38t43 -31.5t60 -19.5t79.5 -8q56 0 102.5 12.5t78 31.5t56.5 48t39.5 56t25 62.5t15 60t8.5 55.5l107 874h164l-107 -874l-6.5 -45.5t-11.5 -57.5t-19.5 -68.5 t-31 -69.5t-45 -70t-62.5 -61.5t-82.5 -52.5t-105.5 -33t-131 -13q-89 0 -158.5 21t-111 52.5t-69.5 78t-39.5 87.5t-14.5 91.5t-1 79.5zM395 1597q0 49 36 84t83 35q40 0 68 -28t28 -68q0 -46 -35 -81.5t-79 -35.5q-41 0 -71 28t-30 66zM756 1597q0 49 35.5 84t85.5 35 q40 0 68 -28t28 -68q0 -46 -35.5 -81.5t-79.5 -35.5q-42 0 -72 27.5t-30 66.5z" />
<glyph unicode="&#xdd;" horiz-adv-x="1028" d="M92 1325h180l242 -620l393 620h191l-516 -776l-66 -549h-166l66 549zM467 1475l190 256h179l-209 -256h-160z" />
<glyph unicode="&#xde;" horiz-adv-x="1110" d="M117 0l162 1325h165l-34 -276h301q193 0 287 -85t94 -233q0 -174 -120 -290.5t-341 -116.5h-309l-39 -324h-166zM340 479h299q285 0 285 252q0 78 -58.5 120t-165.5 42h-309z" />
<glyph unicode="&#xdf;" horiz-adv-x="1114" d="M127 0l117 963q0 3 1 9q3 31 6.5 50.5t15 60.5t28 69t48.5 63.5t73.5 57t105.5 37t142 15.5q93 0 162.5 -22.5t107.5 -54.5t61.5 -77t30 -81.5t6.5 -75.5q0 -52 -15.5 -106t-60.5 -113t-114 -93q91 -44 136.5 -120t45.5 -164q0 -187 -125 -302.5t-330 -115.5h-73l16 141 h45q90 0 155 28t93.5 62.5t43 81.5t15.5 66.5t0 35.5v1q0 35 -9 66.5t-32 65t-73 53.5t-123 20h-29l16 143h17q63 0 110.5 21t72 50t39 66.5t18 63t3.5 47.5q0 170 -217 170q-55 0 -98 -10.5t-69.5 -30.5t-44 -40t-27 -49t-13 -46.5t-6.5 -42.5l-116 -963h-156z" />
<glyph unicode="&#xe0;" d="M47 312.5q-13 149.5 35 298t139 227.5q116 100 283 100q151 0 246 -102l20 82h145l-114 -918h-146l-2 84q-106 -104 -262 -104q-169 0 -258 100q-73 83 -86 232.5zM204 338q7 -117 58 -174q48 -53 129 -53q46 0 88.5 10.5t88 40.5t78.5 77.5t54 128t21 185.5 q0 254 -217 254q-98 0 -174 -68q-62 -54 -97.5 -169t-28.5 -232zM365 1325h170l129 -256h-152z" />
<glyph unicode="&#xe1;" d="M47 312.5q-13 149.5 35 298t139 227.5q116 100 283 100q151 0 246 -102l20 82h145l-114 -918h-146l-2 84q-106 -104 -262 -104q-169 0 -258 100q-73 83 -86 232.5zM204 338q7 -117 58 -174q48 -53 129 -53q46 0 88.5 10.5t88 40.5t78.5 77.5t54 128t21 185.5 q0 254 -217 254q-98 0 -174 -68q-62 -54 -97.5 -169t-28.5 -232zM422 1069l190 256h179l-209 -256h-160z" />
<glyph unicode="&#xe2;" d="M47 312.5q-13 149.5 35 298t139 227.5q116 100 283 100q151 0 246 -102l20 82h145l-114 -918h-146l-2 84q-106 -104 -262 -104q-169 0 -258 100q-73 83 -86 232.5zM204 338q7 -117 58 -174q48 -53 129 -53q46 0 88.5 10.5t88 40.5t78.5 77.5t54 128t21 185.5 q0 254 -217 254q-98 0 -174 -68q-62 -54 -97.5 -169t-28.5 -232zM295 1083l215 242h174l152 -242h-138l-108 152l-146 -152h-149z" />
<glyph unicode="&#xe3;" d="M47 312.5q-13 149.5 35 298t139 227.5q116 100 283 100q151 0 246 -102l20 82h145l-114 -918h-146l-2 84q-106 -104 -262 -104q-169 0 -258 100q-73 83 -86 232.5zM204 338q7 -117 58 -174q48 -53 129 -53q46 0 88.5 10.5t88 40.5t78.5 77.5t54 128t21 185.5 q0 254 -217 254q-98 0 -174 -68q-62 -54 -97.5 -169t-28.5 -232zM272 1167q72 168 207 168q10 0 20.5 -1.5t18.5 -3.5t18.5 -6.5t16.5 -7t17 -9t14 -8.5t14 -9t12 -8q9 -5 28.5 -18.5t27.5 -18t22.5 -9.5t28.5 -5q19 0 35 9t28.5 28t19 32.5t15.5 36.5l98 -41 q-25 -79 -77 -129.5t-125 -50.5q-62 0 -138 53q-6 4 -25.5 18t-27 18.5t-22.5 10t-29 5.5q-31 0 -52.5 -25.5t-43.5 -73.5z" />
<glyph unicode="&#xe4;" d="M47 312.5q-13 149.5 35 298t139 227.5q116 100 283 100q151 0 246 -102l20 82h145l-114 -918h-146l-2 84q-106 -104 -262 -104q-169 0 -258 100q-73 83 -86 232.5zM204 338q7 -117 58 -174q48 -53 129 -53q46 0 88.5 10.5t88 40.5t78.5 77.5t54 128t21 185.5 q0 254 -217 254q-98 0 -174 -68q-62 -54 -97.5 -169t-28.5 -232zM301 1212q0 49 36 84t83 35q40 0 68 -28t28 -68q0 -46 -35.5 -81.5t-79.5 -35.5q-41 0 -70.5 28t-29.5 66zM662 1212q0 49 35 84t85 35q40 0 68.5 -28t28.5 -68q0 -46 -35.5 -81.5t-79.5 -35.5 q-42 0 -72 27.5t-30 66.5z" />
<glyph unicode="&#xe5;" d="M47 312.5q-13 149.5 35 298t139 227.5q116 100 283 100q151 0 246 -102l20 82h145l-114 -918h-146l-2 84q-106 -104 -262 -104q-169 0 -258 100q-73 83 -86 232.5zM204 338q7 -117 58 -174q48 -53 129 -53q46 0 88.5 10.5t88 40.5t78.5 77.5t54 128t21 185.5 q0 254 -217 254q-98 0 -174 -68q-62 -54 -97.5 -169t-28.5 -232zM391 1237q0 90 64.5 153.5t146.5 63.5q86 0 137.5 -51t51.5 -127q0 -88 -64.5 -151.5t-151.5 -63.5q-81 0 -132.5 51t-51.5 125zM494 1243q0 -36 22.5 -60t58.5 -24q49 0 81 32.5t32 78.5q0 38 -23 62t-63 24 q-45 0 -76.5 -34t-31.5 -79z" />
<glyph unicode="&#xe6;" horiz-adv-x="1544" d="M53 219q0 233 305 299q53 11 173.5 37.5t162.5 34.5l2 20q12 107 -30.5 154t-157.5 47q-102 0 -153 -33.5t-76 -111.5l-146 16q74 256 381 256q225 0 293 -152q124 152 342 152q336 0 336 -344q0 -41 -4.5 -85.5t-9.5 -68.5l-5 -24h-651v-49q0 -142 59 -200t168 -58 q42 0 76 6.5t68 22t60.5 47t43.5 77.5l150 -10q-29 -81 -77.5 -137.5t-106.5 -84t-110 -39t-108 -11.5q-34 0 -68.5 5t-86 21t-96 55t-68.5 97q-62 -92 -160 -135t-205 -43q-132 0 -216.5 64.5t-84.5 174.5zM209 229q0 -120 172 -120q49 0 94.5 14t86 42t68.5 77.5t36 115.5 l12 99q-119 -23 -295 -60q-87 -19 -130.5 -59t-43.5 -109zM834 549h497q4 26 4 65q0 103 -53 149t-141 46q-113 0 -194 -63t-113 -197z" />
<glyph unicode="&#xe7;" horiz-adv-x="923" d="M90 356q0 114 22 207t55 152t80 103.5t89 66.5t91 35t77 15.5t55 2.5q24 0 46.5 -1.5t57 -7.5t63 -16.5t60 -30t53.5 -46t37 -67.5t17 -91l-156 -10q-14 139 -178 139q-27 0 -52 -3t-58 -14.5t-60 -29.5t-55 -51.5t-47 -78t-31 -111t-12 -148.5q0 -260 215 -260 q54 0 95.5 12t78.5 46.5t59 92.5l158 -12q-24 -69 -63.5 -121t-86.5 -80.5t-89 -43.5t-87 -21q13 -11 26.5 -27t29.5 -50t16 -67q0 -92 -62.5 -142t-152.5 -50q-25 0 -53.5 4.5t-43.5 9.5l-16 4l19 101q57 -17 94 -17q43 0 69.5 21.5t26.5 68.5q0 68 -88 144 q-40 5 -76.5 15.5t-79 37.5t-72.5 65.5t-50.5 104t-20.5 149.5z" />
<glyph unicode="&#xe8;" horiz-adv-x="970" d="M49 358q0 113 22 205t55 150.5t80.5 103t90.5 66.5t92.5 35.5t79 16.5t57.5 3q344 0 344 -340q0 -33 -3.5 -77t-8 -73.5t-6.5 -31.5h-651q-2 -24 -2 -47q0 -142 58.5 -202.5t166.5 -60.5q190 0 252 156l149 -10q-29 -81 -77.5 -137.5t-106 -84t-109.5 -39t-108 -11.5 q-26 0 -49.5 1.5t-63.5 10t-73 23t-69.5 43t-61.5 67t-41.5 99t-16.5 134.5zM219 549h498q20 113 -26 186.5t-165 73.5q-54 0 -101.5 -14t-89 -43.5t-72 -81t-44.5 -121.5zM319 1325h170l129 -256h-151z" />
<glyph unicode="&#xe9;" horiz-adv-x="970" d="M49 358q0 113 22 205t55 150.5t80.5 103t90.5 66.5t92.5 35.5t79 16.5t57.5 3q344 0 344 -340q0 -33 -3.5 -77t-8 -73.5t-6.5 -31.5h-651q-2 -24 -2 -47q0 -142 58.5 -202.5t166.5 -60.5q190 0 252 156l149 -10q-29 -81 -77.5 -137.5t-106 -84t-109.5 -39t-108 -11.5 q-26 0 -49.5 1.5t-63.5 10t-73 23t-69.5 43t-61.5 67t-41.5 99t-16.5 134.5zM219 549h498q20 113 -26 186.5t-165 73.5q-54 0 -101.5 -14t-89 -43.5t-72 -81t-44.5 -121.5zM422 1069l190 256h179l-209 -256h-160z" />
<glyph unicode="&#xea;" horiz-adv-x="970" d="M49 358q0 113 22 205t55 150.5t80.5 103t90.5 66.5t92.5 35.5t79 16.5t57.5 3q344 0 344 -340q0 -33 -3.5 -77t-8 -73.5t-6.5 -31.5h-651q-2 -24 -2 -47q0 -142 58.5 -202.5t166.5 -60.5q190 0 252 156l149 -10q-29 -81 -77.5 -137.5t-106 -84t-109.5 -39t-108 -11.5 q-26 0 -49.5 1.5t-63.5 10t-73 23t-69.5 43t-61.5 67t-41.5 99t-16.5 134.5zM219 549h498q20 113 -26 186.5t-165 73.5q-54 0 -101.5 -14t-89 -43.5t-72 -81t-44.5 -121.5zM276 1083l216 242h174l151 -242h-137l-109 152l-145 -152h-150z" />
<glyph unicode="&#xeb;" horiz-adv-x="970" d="M49 358q0 113 22 205t55 150.5t80.5 103t90.5 66.5t92.5 35.5t79 16.5t57.5 3q344 0 344 -340q0 -33 -3.5 -77t-8 -73.5t-6.5 -31.5h-651q-2 -24 -2 -47q0 -142 58.5 -202.5t166.5 -60.5q190 0 252 156l149 -10q-29 -81 -77.5 -137.5t-106 -84t-109.5 -39t-108 -11.5 q-26 0 -49.5 1.5t-63.5 10t-73 23t-69.5 43t-61.5 67t-41.5 99t-16.5 134.5zM219 549h498q20 113 -26 186.5t-165 73.5q-54 0 -101.5 -14t-89 -43.5t-72 -81t-44.5 -121.5zM279 1212q0 49 35.5 84t82.5 35q40 0 68.5 -28t28.5 -68q0 -46 -35.5 -81.5t-79.5 -35.5 q-41 0 -70.5 28t-29.5 66zM639 1212q0 49 35.5 84t85.5 35q40 0 68 -28t28 -68q0 -46 -35.5 -81.5t-79.5 -35.5q-42 0 -72 27.5t-30 66.5z" />
<glyph unicode="&#xec;" horiz-adv-x="405" d="M27 1325h170l129 -256h-152zM43 0l113 918h155l-112 -918h-156z" />
<glyph unicode="&#xed;" horiz-adv-x="405" d="M43 0l113 918h155l-112 -918h-156zM174 1069l191 256h178l-209 -256h-160z" />
<glyph unicode="&#xee;" horiz-adv-x="405" d="M-20 1083l215 242h174l151 -242h-137l-109 152l-145 -152h-149zM43 0l113 918h155l-112 -918h-156z" />
<glyph unicode="&#xef;" horiz-adv-x="405" d="M-20 1212q0 49 35.5 84t82.5 35q40 0 68.5 -28t28.5 -68q0 -46 -35.5 -81.5t-79.5 -35.5q-41 0 -70.5 28t-29.5 66zM43 0l113 918h155l-112 -918h-156zM340 1212q0 49 35.5 84t85.5 35q40 0 68 -28t28 -68q0 -46 -35.5 -81.5t-79.5 -35.5q-42 0 -72 27.5t-30 66.5z" />
<glyph unicode="&#xf0;" horiz-adv-x="1073" d="M113 373q0 96 21 175t53 130t78 89.5t88.5 59t92 32.5t81.5 15t63 3q78 0 155.5 -31t124.5 -88q16 260 -96 379l-108 -119l-72 63l100 111q-57 22 -127 22q-44 0 -89 -4t-68 -8l-23 -4l-4 145q77 21 186 21q139 0 236 -51l139 151l72 -61l-131 -143q149 -139 149 -472 q0 -808 -534 -808q-83 0 -151.5 22.5t-122 68t-83.5 123t-30 179.5zM281 373q0 -72 20 -123t53.5 -76t69 -36t76.5 -11q37 0 72 5t85 27.5t86 60t62 110t26 170.5q0 65 -23 113.5t-60 73.5t-75.5 36.5t-78.5 11.5q-152 0 -232.5 -99.5t-80.5 -262.5z" />
<glyph unicode="&#xf1;" horiz-adv-x="991" d="M41 0l113 918h151l-6 -76q53 46 123.5 71t140.5 25q46 0 82 -4.5t86.5 -26t81 -59t47.5 -112t4 -177.5l-67 -559h-156l68 559q4 34 4.5 63.5t-3.5 52t-9.5 41t-15.5 31.5t-20.5 23t-24.5 16.5t-26.5 11t-29 6.5t-29.5 2.5t-29 0.5q-18 0 -41.5 -3.5t-61 -17.5t-68 -36.5 t-56.5 -65.5t-33 -100l-69 -584h-156zM258 1167q72 168 207 168q10 0 20.5 -1.5t18.5 -3.5t18.5 -6.5t16.5 -7t17 -9t14 -8.5t14 -9t12 -8q9 -6 28 -18.5t27.5 -17.5t22.5 -10t28 -5q25 0 46.5 19t31 37.5t21.5 49.5l98 -41q-25 -78 -77.5 -129t-125.5 -51q-61 0 -137 53 q-6 4 -25.5 18t-27 18.5t-22.5 10t-29 5.5q-31 0 -53 -25.5t-44 -73.5z" />
<glyph unicode="&#xf2;" horiz-adv-x="997" d="M44.5 360.5q-5.5 147.5 45.5 282t139 203.5q116 92 293 92q220 0 312 -143q57 -88 63 -229.5t-46 -282.5t-149 -217q-110 -86 -278 -86q-218 0 -307 133q-67 100 -72.5 247.5zM199 362q3 -113 49 -178q52 -73 176 -73q109 0 180 55q47 35 80.5 108t46.5 153.5t6.5 161 t-35.5 132.5q-47 86 -180 86q-127 0 -205 -74q-54 -49 -87.5 -153.5t-30.5 -217.5zM389 1325h170l129 -256h-151z" />
<glyph unicode="&#xf3;" horiz-adv-x="997" d="M44.5 360.5q-5.5 147.5 45.5 282t139 203.5q116 92 293 92q220 0 312 -143q57 -88 63 -229.5t-46 -282.5t-149 -217q-110 -86 -278 -86q-218 0 -307 133q-67 100 -72.5 247.5zM199 362q3 -113 49 -178q52 -73 176 -73q109 0 180 55q47 35 80.5 108t46.5 153.5t6.5 161 t-35.5 132.5q-47 86 -180 86q-127 0 -205 -74q-54 -49 -87.5 -153.5t-30.5 -217.5zM430 1069l191 256h178l-209 -256h-160z" />
<glyph unicode="&#xf4;" horiz-adv-x="997" d="M44.5 360.5q-5.5 147.5 45.5 282t139 203.5q116 92 293 92q220 0 312 -143q57 -88 63 -229.5t-46 -282.5t-149 -217q-110 -86 -278 -86q-218 0 -307 133q-67 100 -72.5 247.5zM199 362q3 -113 49 -178q52 -73 176 -73q109 0 180 55q47 35 80.5 108t46.5 153.5t6.5 161 t-35.5 132.5q-47 86 -180 86q-127 0 -205 -74q-54 -49 -87.5 -153.5t-30.5 -217.5zM281 1083l215 242h174l151 -242h-137l-109 152l-145 -152h-149z" />
<glyph unicode="&#xf5;" horiz-adv-x="997" d="M44.5 360.5q-5.5 147.5 45.5 282t139 203.5q116 92 293 92q220 0 312 -143q57 -88 63 -229.5t-46 -282.5t-149 -217q-110 -86 -278 -86q-218 0 -307 133q-67 100 -72.5 247.5zM199 362q3 -113 49 -178q52 -73 176 -73q109 0 180 55q47 35 80.5 108t46.5 153.5t6.5 161 t-35.5 132.5q-47 86 -180 86q-127 0 -205 -74q-54 -49 -87.5 -153.5t-30.5 -217.5zM248 1167q72 168 207 168q10 0 20.5 -1.5t18.5 -3.5t18.5 -6.5t16.5 -7t17 -9t14 -8.5t14 -9t12 -8q9 -6 28 -18.5t27.5 -17.5t22.5 -10t28 -5q25 0 46.5 19t31 37.5t21.5 49.5l98 -41 q-25 -78 -77.5 -129t-125.5 -51q-61 0 -137 53q-4 3 -25 17.5t-28 19t-22.5 10t-29.5 5.5q-31 0 -52.5 -25.5t-43.5 -73.5z" />
<glyph unicode="&#xf6;" horiz-adv-x="997" d="M44.5 360.5q-5.5 147.5 45.5 282t139 203.5q116 92 293 92q220 0 312 -143q57 -88 63 -229.5t-46 -282.5t-149 -217q-110 -86 -278 -86q-218 0 -307 133q-67 100 -72.5 247.5zM199 362q3 -113 49 -178q52 -73 176 -73q109 0 180 55q47 35 80.5 108t46.5 153.5t6.5 161 t-35.5 132.5q-47 86 -180 86q-127 0 -205 -74q-54 -49 -87.5 -153.5t-30.5 -217.5zM281 1212q0 49 35.5 84t82.5 35q40 0 68.5 -28t28.5 -68q0 -46 -35.5 -81.5t-79.5 -35.5q-41 0 -70.5 28t-29.5 66zM641 1212q0 49 35.5 84t85.5 35q40 0 68 -28t28 -68q0 -46 -35.5 -81.5 t-79.5 -35.5q-42 0 -72 27.5t-30 66.5z" />
<glyph unicode="&#xf7;" horiz-adv-x="1206" d="M125 569l14 127h899l-14 -127h-899zM418 293q0 55 41 95t94 40q44 0 74 -30t30 -76q0 -52 -40 -92t-93 -40q-45 0 -75.5 30t-30.5 73zM500 956q0 55 41 95.5t94 40.5q44 0 74 -30.5t30 -76.5q0 -52 -40 -91.5t-93 -39.5q-45 0 -75.5 29.5t-30.5 72.5z" />
<glyph unicode="&#xf8;" horiz-adv-x="997" d="M85.5 360.5q-5.5 147.5 45.5 282t139 203.5q116 92 293 92q75 0 135 -18l84 147l105 -59l-80 -142q36 -26 67 -71q57 -88 63 -229.5t-45.5 -282.5t-148.5 -217q-110 -86 -278 -86q-84 0 -150 20l-84 -147l-102 59l80 143q-30 23 -51 58q-67 100 -72.5 247.5zM239.5 366.5 q2.5 -111.5 45.5 -178.5l346 611q-33 8 -68 8q-127 0 -205 -74q-54 -49 -87.5 -152t-31 -214.5zM383 119q29 -8 82 -8q109 0 180 55q47 35 80.5 108t46.5 153.5t6.5 161t-35.5 132.5l-10 16z" />
<glyph unicode="&#xf9;" horiz-adv-x="991" d="M74 358l69 560h156l-70 -560q-4 -34 -4.5 -63.5t3.5 -52t10 -40.5t16 -31.5t20.5 -23.5t25 -16.5t27 -10.5t29 -6t29 -2.5t29.5 -0.5q19 0 41.5 3t59.5 17.5t67 37.5t56 68.5t34 106.5l71 574h156l-113 -918h-151l2 76q-56 -47 -126 -71.5t-136 -24.5q-46 0 -82 4 t-86.5 25.5t-81 59t-47.5 112t-4 177.5zM334 1325h170l129 -256h-152z" />
<glyph unicode="&#xfa;" horiz-adv-x="991" d="M74 358l69 560h156l-70 -560q-4 -34 -4.5 -63.5t3.5 -52t10 -40.5t16 -31.5t20.5 -23.5t25 -16.5t27 -10.5t29 -6t29 -2.5t29.5 -0.5q19 0 41.5 3t59.5 17.5t67 37.5t56 68.5t34 106.5l71 574h156l-113 -918h-151l2 76q-56 -47 -126 -71.5t-136 -24.5q-46 0 -82 4 t-86.5 25.5t-81 59t-47.5 112t-4 177.5zM397 1069l191 256h178l-209 -256h-160z" />
<glyph unicode="&#xfb;" horiz-adv-x="991" d="M74 358l69 560h156l-70 -560q-4 -34 -4.5 -63.5t3.5 -52t10 -40.5t16 -31.5t20.5 -23.5t25 -16.5t27 -10.5t29 -6t29 -2.5t29.5 -0.5q19 0 41.5 3t59.5 17.5t67 37.5t56 68.5t34 106.5l71 574h156l-113 -918h-151l2 76q-56 -47 -126 -71.5t-136 -24.5q-46 0 -82 4 t-86.5 25.5t-81 59t-47.5 112t-4 177.5zM268 1083l215 242h174l152 -242h-137l-109 152l-145 -152h-150z" />
<glyph unicode="&#xfc;" horiz-adv-x="991" d="M74 358l69 560h156l-70 -560q-4 -34 -4.5 -63.5t3.5 -52t10 -40.5t16 -31.5t20.5 -23.5t25 -16.5t27 -10.5t29 -6t29 -2.5t29.5 -0.5q19 0 41.5 3t59.5 17.5t67 37.5t56 68.5t34 106.5l71 574h156l-113 -918h-151l2 76q-56 -47 -126 -71.5t-136 -24.5q-46 0 -82 4 t-86.5 25.5t-81 59t-47.5 112t-4 177.5zM270 1212q0 49 36 84t83 35q40 0 68 -28t28 -68q0 -47 -35.5 -82t-78.5 -35q-41 0 -71 28t-30 66zM631 1212q0 49 35.5 84t85.5 35q40 0 68 -28t28 -68q0 -46 -35.5 -81.5t-79.5 -35.5q-42 0 -72 27.5t-30 66.5z" />
<glyph unicode="&#xfd;" horiz-adv-x="823" d="M-94 -440l14 133q49 -2 86 -2q25 0 45 1.5t37.5 8.5t29 11t25 19t20 21.5t18.5 30.5t16.5 34t19 43t21.5 48l41 92h-41l-191 918h156l141 -771l332 771h162l-416 -918l-74 -166q-49 -110 -90 -165.5t-103.5 -84t-160.5 -28.5zM315 1069l191 256h178l-209 -256h-160z" />
<glyph unicode="&#xfe;" horiz-adv-x="1005" d="M29 -424l217 1765h157l-63 -505q113 102 266 102q29 0 54 -2t61.5 -11t65.5 -24t60 -43.5t51.5 -67t34 -97t13.5 -130.5q0 -88 -12.5 -163.5t-32.5 -130t-49.5 -99.5t-60 -74.5t-67 -51.5t-67.5 -34t-65 -19t-56 -9t-44 -2q-160 0 -244 104v-2l-62 -506h-157zM272 367 q0 -256 222 -256q38 0 73 8.5t77 37t72.5 74.5t51 128.5t20.5 191.5q0 67 -13 116t-32 75t-46.5 41.5t-49.5 19.5t-49 4t-51.5 -3t-58.5 -13.5t-62.5 -28.5t-58 -51.5t-49.5 -78.5t-33 -113t-13 -152z" />
<glyph unicode="&#xff;" horiz-adv-x="823" d="M-94 -440l14 133q49 -2 86 -2q25 0 45 1.5t37.5 8.5t29 11t25 19t20 21.5t18.5 30.5t16.5 34t19 43t21.5 48l41 92h-41l-191 918h156l141 -771l332 771h162l-416 -918l-74 -166q-49 -110 -90 -165.5t-103.5 -84t-160.5 -28.5zM190 1212q0 49 36 84t83 35q40 0 68.5 -28 t28.5 -68q0 -46 -35.5 -81.5t-79.5 -35.5q-41 0 -71 28t-30 66zM551 1212q0 49 35.5 84t85.5 35q40 0 68 -28t28 -68q0 -46 -35.5 -81.5t-79.5 -35.5q-42 0 -72 27.5t-30 66.5z" />
<glyph unicode="&#x152;" horiz-adv-x="1564" d="M129 455q0 151 19 282t61 244t104.5 193.5t154 126t204.5 45.5q71 0 139.5 -25t112.5 -72l10 76h639l-19 -156h-475l-51 -413h455l-21 -156h-454l-54 -444h486l-19 -156h-649l8 80q-56 -50 -126.5 -75t-137.5 -25q-92 0 -162 28t-111.5 72.5t-68 108.5t-36 128t-9.5 138z M297 451q0 -74 9.5 -129t33.5 -101t69 -70t111 -24q212 0 283 231q27 86 51 260q22 154 25 293q3 134 -45 210.5t-170 76.5q-65 0 -119.5 -29t-92 -76t-66 -113t-45 -133t-27 -142.5t-14 -135.5t-3.5 -118z" />
<glyph unicode="&#x153;" horiz-adv-x="1654" d="M90 360q0 114 22 206.5t55.5 151t81.5 102.5t90.5 65.5t92.5 34.5t78 15.5t55 2.5q240 0 322 -193q131 193 373 193q335 0 335 -344q0 -41 -4.5 -85.5t-8.5 -68.5l-5 -24h-651v-49q0 -142 59 -200t168 -58q42 0 76 6.5t68 22t60.5 47t43.5 77.5l149 -10 q-29 -81 -77.5 -137.5t-106 -84t-109.5 -39t-108 -11.5q-27 0 -54 2.5t-70.5 14t-79 30.5t-70.5 57t-54 90q-32 -52 -75 -90t-81 -57.5t-82 -30.5t-70.5 -13.5t-53.5 -2.5q-25 0 -49 2t-63 10.5t-71.5 23t-68 43t-60.5 67.5t-41 99.5t-16 134.5zM244 362q0 -65 14.5 -113 t35.5 -74t52.5 -41t58 -19t58.5 -4q61 0 114 21t101 68.5t76 137.5t28 215q0 65 -14.5 112.5t-36 74t-53 42.5t-58.5 20.5t-59 4.5q-38 0 -73.5 -7.5t-82 -35t-80.5 -73t-57.5 -130.5t-23.5 -199zM944 549h498q4 26 4 65q0 103 -53.5 149t-141.5 46q-113 0 -194 -63 t-113 -197z" />
<glyph unicode="&#x178;" horiz-adv-x="1028" d="M92 1325h180l242 -620l393 620h191l-516 -776l-66 -549h-166l66 549zM340 1597q0 49 36 84t83 35q40 0 68 -28t28 -68q0 -46 -35.5 -81.5t-79.5 -35.5q-41 0 -70.5 28t-29.5 66zM700 1597q0 49 35.5 84t85.5 35q40 0 68.5 -28t28.5 -68q0 -46 -35.5 -81.5t-79.5 -35.5 q-43 0 -73 28t-30 66z" />
<glyph unicode="&#x2c6;" horiz-adv-x="880" d="M260 1083l215 242h174l152 -242h-137l-109 152l-145 -152h-150z" />
<glyph unicode="&#x2dc;" horiz-adv-x="952" d="M262 1167q72 168 207 168q10 0 20.5 -1.5t18.5 -3.5t18.5 -6.5t16.5 -7t17 -9t14 -8.5t14 -9t12 -8q9 -5 28.5 -18.5t27.5 -18t22.5 -9.5t28.5 -5q19 0 35 9t28.5 28t19 32.5t15.5 36.5l98 -41q-25 -78 -77.5 -129t-125.5 -51q-61 0 -137 53q-6 4 -25.5 18t-27 18.5 t-22.5 10t-29 5.5q-31 0 -53 -25.5t-44 -73.5z" />
<glyph unicode="&#x2000;" horiz-adv-x="871" />
<glyph unicode="&#x2001;" horiz-adv-x="1743" />
<glyph unicode="&#x2002;" horiz-adv-x="871" />
<glyph unicode="&#x2003;" horiz-adv-x="1743" />
<glyph unicode="&#x2004;" horiz-adv-x="581" />
<glyph unicode="&#x2005;" horiz-adv-x="435" />
<glyph unicode="&#x2006;" horiz-adv-x="290" />
<glyph unicode="&#x2007;" horiz-adv-x="290" />
<glyph unicode="&#x2008;" horiz-adv-x="217" />
<glyph unicode="&#x2009;" horiz-adv-x="348" />
<glyph unicode="&#x200a;" horiz-adv-x="96" />
<glyph unicode="&#x2010;" horiz-adv-x="909" d="M172 485l16 133h609l-17 -133h-608z" />
<glyph unicode="&#x2011;" horiz-adv-x="909" d="M172 485l16 133h609l-17 -133h-608z" />
<glyph unicode="&#x2012;" horiz-adv-x="909" d="M172 485l16 133h609l-17 -133h-608z" />
<glyph unicode="&#x2013;" horiz-adv-x="1247" d="M172 492l16 129h940l-16 -129h-940z" />
<glyph unicode="&#x2014;" horiz-adv-x="2230" d="M172 492l16 129h1923l-16 -129h-1923z" />
<glyph unicode="&#x2018;" horiz-adv-x="530" d="M244 1061q0 131 71.5 213t171.5 82h15l-2 -74q-64 -2 -102 -38t-38 -105q8 4 29 4q41 0 68.5 -27.5t27.5 -66.5q0 -51 -34.5 -86t-88.5 -35q-53 0 -85.5 35.5t-32.5 97.5z" />
<glyph unicode="&#x2019;" horiz-adv-x="530" d="M178 887v74q61 2 101 38.5t40 104.5q-8 -4 -28 -4q-41 0 -69.5 27.5t-28.5 66.5q0 51 35 86t89 35t87.5 -35.5t33.5 -97.5q0 -124 -73 -209.5t-172 -85.5h-15z" />
<glyph unicode="&#x201a;" horiz-adv-x="522" d="M47 -135q60 2 98.5 37t38.5 102q-8 -4 -28 -4q-40 0 -67.5 27t-27.5 65q0 48 34 82.5t87 34.5q52 0 84.5 -34.5t32.5 -94.5q0 -121 -71 -204t-167 -83h-14v72z" />
<glyph unicode="&#x201c;" horiz-adv-x="874" d="M203 1061q0 131 71.5 213t171.5 82h15l-2 -74q-64 -2 -102 -38t-38 -105q8 4 29 4q41 0 68.5 -27.5t27.5 -66.5q0 -51 -34 -86t-88 -35q-53 0 -86 35.5t-33 97.5zM547 1061q0 131 72 213t172 82h14l-2 -74q-64 -2 -101.5 -37.5t-37.5 -105.5q8 4 28 4q41 0 68.5 -27.5 t27.5 -66.5q0 -51 -34 -86t-88 -35q-53 0 -86 35.5t-33 97.5z" />
<glyph unicode="&#x201d;" horiz-adv-x="874" d="M178 887v74q61 2 101 38.5t40 104.5q-8 -4 -28 -4q-41 0 -69.5 27.5t-28.5 66.5q0 51 35 86t89 35t87.5 -35.5t33.5 -97.5q0 -124 -73 -209.5t-172 -85.5h-15zM522 887v74q61 2 101.5 38.5t40.5 104.5q-8 -4 -29 -4q-41 0 -69.5 27.5t-28.5 66.5q0 50 35.5 85.5 t89.5 35.5t87 -35.5t33 -97.5q0 -124 -73 -209.5t-172 -85.5h-15z" />
<glyph unicode="&#x201e;" horiz-adv-x="866" d="M47 -135q60 2 98.5 37t38.5 102q-8 -4 -28 -4q-40 0 -67.5 27t-27.5 65q0 48 34 82.5t87 34.5q52 0 84.5 -34.5t32.5 -94.5q0 -121 -71 -204t-167 -83h-14v72zM391 -135q60 2 98.5 37t38.5 102q-8 -4 -28 -4q-40 0 -67 27t-27 65q0 49 33.5 83t86.5 34q52 0 84.5 -34.5 t32.5 -94.5q0 -121 -70.5 -204t-166.5 -83h-15v72z" />
<glyph unicode="&#x2022;" horiz-adv-x="747" d="M190 627q0 99 74.5 173t171.5 74q84 0 141.5 -57t57.5 -141q0 -97 -77 -170.5t-173 -73.5q-82 0 -138.5 56.5t-56.5 138.5z" />
<glyph unicode="&#x2026;" horiz-adv-x="1738" d="M80 96q0 55 41 95t94 40q44 0 74 -30t30 -76q0 -52 -40 -91.5t-93 -39.5q-45 0 -75.5 29.5t-30.5 72.5zM647 96q0 55 41 95t94 40q44 0 74.5 -30.5t30.5 -75.5q0 -52 -40 -91.5t-93 -39.5q-46 0 -76.5 29.5t-30.5 72.5zM1235 96q0 55 41 95t94 40q44 0 74.5 -30.5 t30.5 -75.5q0 -52 -40.5 -91.5t-93.5 -39.5q-45 0 -75.5 29.5t-30.5 72.5z" />
<glyph unicode="&#x202f;" horiz-adv-x="348" />
<glyph unicode="&#x2039;" horiz-adv-x="702" d="M164 424l12 94l393 369l80 -92l-356 -334l268 -326l-94 -80z" />
<glyph unicode="&#x203a;" horiz-adv-x="702" d="M82 145l358 336l-264 324l92 82l303 -369l-12 -94l-393 -369z" />
<glyph unicode="&#x205f;" horiz-adv-x="435" />
<glyph unicode="&#x20ac;" horiz-adv-x="1226" d="M86 449l16 118h177q3 97 18 185h-172l14 122h183q59 226 186.5 349t322.5 123q82 0 147 -19.5t108 -52t72.5 -79t43.5 -97t17 -109.5l-164 -10q-6 109 -57.5 165t-172.5 56q-125 0 -209 -86t-127 -240h371l-14 -122h-383q-17 -126 -19 -185h379l-16 -118h-365 q1 -183 55.5 -253.5t184.5 -70.5q142 0 213.5 61t99.5 181l162 -11q-18 -76 -52.5 -140t-90.5 -118.5t-142 -86t-194 -31.5q-194 0 -296.5 110.5t-105.5 358.5h-190z" />
<glyph unicode="&#x2122;" horiz-adv-x="1267" d="M172 1249l14 103h414l-14 -103h-154l-57 -469h-107l58 469h-154zM631 780l71 572h119l97 -377l190 377h131l-72 -572h-108l45 365l-150 -305h-94l-76 305l-45 -365h-108z" />
<glyph unicode="&#x25fc;" horiz-adv-x="921" d="M0 0v922h922v-922h-922z" />
</font>
</defs>
</svg>
