<?xml version="1.0" standalone="no"?>
<!DOCTYPE svg PUBLIC "-//W3C//DTD SVG 1.1//EN" "http://www.w3.org/Graphics/SVG/1.1/DTD/svg11.dtd" >
<svg xmlns="http://www.w3.org/2000/svg" xmlns:xlink="http://www.w3.org/1999/xlink" version="1.1">
<metadata></metadata>
<defs>
<font id="areal_blmedium_italic" horiz-adv-x="1024" >
<font-face units-per-em="2048" ascent="1536" descent="-512" />
<missing-glyph horiz-adv-x="512" />
<glyph horiz-adv-x="0" />
<glyph horiz-adv-x="682" />
<glyph unicode=" "  horiz-adv-x="512" />
<glyph unicode="&#x09;" horiz-adv-x="512" />
<glyph unicode="&#xa0;" horiz-adv-x="512" />
<glyph unicode="!" horiz-adv-x="530" d="M104 98q0 59 44.5 102.5t103.5 43.5q51 0 83 -32.5t32 -82.5q0 -59 -43 -102t-101 -43q-52 0 -85.5 32t-33.5 82zM168 340l123 1001h188l-123 -1001h-188z" />
<glyph unicode="&#x22;" horiz-adv-x="788" d="M225 932l51 409h175l-52 -409h-174zM532 932l52 409h174l-51 -409h-175z" />
<glyph unicode="#" horiz-adv-x="1708" d="M162 406l18 157h312l159 283h-272l20 158h342l191 337h178l-190 -337h286l191 337h178l-191 -337h252l-20 -158h-322l-159 -283h282l-18 -157h-352l-230 -406h-178l229 406h-286l-230 -406h-178l229 406h-241zM670 563h286l160 283h-287z" />
<glyph unicode="$" horiz-adv-x="1107" d="M106 346l5 55l200 17q-29 -250 226 -250q78 0 134.5 20.5t85 54t41.5 67.5t13 69q0 59 -36.5 102t-117.5 76q-40 16 -97.5 37t-84.5 31q-134 52 -201 133t-67 203q0 42 10.5 87.5t39 97.5t71 94.5t112.5 75t158 42.5l18 147h160l-18 -149q85 -10 147 -43t95.5 -81 t49 -100.5t15.5 -113.5l-2 -49l-199 -11q8 110 -35 163t-172 53q-67 0 -117 -19t-76.5 -49.5t-39 -62.5t-12.5 -64q0 -63 31.5 -98t101.5 -60q156 -57 172 -63q152 -59 225.5 -141.5t73.5 -208.5q0 -177 -115.5 -292t-312.5 -132l-17 -148h-159l18 150q-161 22 -242.5 121 t-81.5 239z" />
<glyph unicode="%" horiz-adv-x="1613" d="M229 909q0 89 13 161.5t33 118.5t49.5 80t55.5 51.5t57.5 27.5t50.5 12t40 2q28 0 50 -2.5t55.5 -17t56 -40t39 -76t16.5 -120.5q0 -90 -12.5 -163t-32 -119.5t-47.5 -81t-53.5 -52t-56.5 -27.5t-50 -12t-40 -2q-28 0 -50.5 2.5t-57 17t-58 40.5t-41 77.5t-17.5 122.5z M324 -109l923 1633l125 -68l-926 -1636zM381 913q0 -37 6.5 -61.5t18.5 -35t24 -14t29 -3.5q133 0 133 301q0 71 -18 92.5t-52 21.5q-19 0 -34.5 -4t-36.5 -21.5t-35.5 -48t-24.5 -89t-10 -138.5zM950 240q0 89 13 161.5t33 118.5t49.5 80t55.5 51t57.5 27t50.5 12t40 2 q28 0 50 -2.5t55.5 -17t56 -40t39 -76t16.5 -120.5q0 -90 -12.5 -163t-32 -119.5t-47.5 -80.5t-53.5 -51.5t-56.5 -27.5t-50 -12t-40 -2q-28 0 -50.5 2.5t-57 17t-58 40.5t-41 77.5t-17.5 122.5zM1102 244q0 -70 21 -92.5t57 -22.5q133 0 133 301q0 71 -18 93t-52 22 q-19 0 -34.5 -4t-36.5 -21.5t-35.5 -48t-24.5 -89t-10 -138.5z" />
<glyph unicode="&#x26;" horiz-adv-x="1288" d="M86 346q0 247 285 373q-70 70 -106 134.5t-36 147.5q0 51 14 100t45.5 96.5t78 83t118 57.5t158.5 22q91 0 162.5 -28t112.5 -73.5t62 -97.5t21 -106q0 -125 -87.5 -224t-225.5 -163l238 -226q62 135 78 289l190 -4q-25 -219 -133 -412l219 -204l-117 -129l-207 190 q-176 -195 -434 -195q-206 0 -321 102.5t-115 266.5zM291 352q0 -85 65 -137.5t174 -52.5q179 0 297 131l-321 299q-47 -20 -78 -37t-66.5 -45.5t-53 -68t-17.5 -89.5zM422 1004q0 -39 21.5 -79.5t43.5 -64.5t60 -59l8 -10l25 10q50 19 86 38t71 47.5t53.5 67t18.5 86.5 q0 56 -42.5 98t-133.5 42q-106 0 -158.5 -52t-52.5 -124z" />
<glyph unicode="'" horiz-adv-x="493" d="M231 932l52 409h174l-51 -409h-175z" />
<glyph unicode="(" horiz-adv-x="710" d="M209 469q0 155 22 294t56 240t83.5 190.5t94 147t99.5 108.5t89 75t72 47l68 -137q-26 -15 -52 -34.5t-69 -62t-79.5 -92.5t-76.5 -128.5t-68 -168.5t-46.5 -214.5t-18.5 -264.5q0 -215 57 -354t168 -234l-96 -119q-35 24 -69 55.5t-78.5 93.5t-77 135.5t-55.5 184.5 t-23 238z" />
<glyph unicode=")" horiz-adv-x="710" d="M-18 -106q109 84 164 144q260 281 260 808q0 109 -15.5 200.5t-37 151t-54.5 109.5t-58.5 76.5t-58.5 52.5l99 123q44 -32 84 -73.5t80 -105.5t69.5 -139t47.5 -178t18 -219q0 -764 -527 -1080z" />
<glyph unicode="*" horiz-adv-x="1132" d="M240 1006l61 135l268 -105l37 305h154l-37 -303l299 105l43 -137l-305 -107l145 -244l-127 -80l-147 259l-211 -263l-119 93l195 237z" />
<glyph unicode="+" horiz-adv-x="1310" d="M180 551l19 166h417l54 420h166l-54 -420h420l-18 -166h-420l-53 -418h-166l53 418h-418z" />
<glyph unicode="," horiz-adv-x="569" d="M86 -121q15 -2 27 -2q59 0 91 33t32 82v8h-15q-49 0 -83 32.5t-34 78.5q0 58 41.5 99.5t102.5 41.5q59 0 98 -42.5t39 -117.5q0 -140 -78.5 -222.5t-179.5 -82.5l-39 4z" />
<glyph unicode="-" horiz-adv-x="933" d="M168 467l22 176h633l-22 -176h-633z" />
<glyph unicode="." horiz-adv-x="579" d="M123 115q0 62 48.5 107.5t109.5 45.5q52 0 85 -33.5t33 -84.5q0 -63 -45 -109.5t-108 -46.5q-54 0 -88.5 35t-34.5 86z" />
<glyph unicode="/" horiz-adv-x="972" d="M-2 -102l922 1628l137 -76l-924 -1632z" />
<glyph unicode="0" horiz-adv-x="1155" d="M131 440q-4 124 10.5 250.5t51 250t88.5 206.5q135 215 401 215q160 0 254 -59t133 -175q29 -83 34 -211.5t-11 -262t-56 -264t-96 -214.5q-133 -199 -393 -199q-169 0 -264 68.5t-125 181.5q-23 89 -27 213zM352 301q12 -67 58 -100t137 -33q141 0 211 90 q48 62 81.5 178.5t45.5 235t10 225t-18 160.5q-35 114 -195 114q-86 0 -139 -31t-88 -89q-69 -117 -100 -361t-3 -389z" />
<glyph unicode="1" horiz-adv-x="815" d="M213 993l16 131q68 0 124.5 22.5t88 54t53.5 63.5t29 54l8 23h177l-164 -1341h-205l121 993h-248z" />
<glyph unicode="2" horiz-adv-x="1036" d="M33 0l20 180q378 317 480 411q177 163 230 270q38 76 38 159q0 154 -197 154q-237 0 -256 -218l-196 11q8 169 130 282t330 113q194 0 294 -92.5t100 -239.5q0 -64 -12.5 -119t-47.5 -116t-81 -117t-129 -134.5t-173.5 -156.5t-232.5 -194h583l-22 -193h-858z" />
<glyph unicode="3" horiz-adv-x="1095" d="M80 332l6 69l201 13q-6 -44 -6 -64q0 -180 233 -180q141 0 211 62t70 171q0 46 -12 79t-43 60t-89 40.5t-145 13.5h-51l22 184h62q154 0 223 59.5t69 157.5q0 85 -46.5 129.5t-151.5 44.5q-228 0 -248 -213l-201 11q6 80 37 150t85 125t138.5 86.5t190.5 31.5 q104 0 183.5 -27.5t127 -75t71 -107t23.5 -128.5q0 -107 -55 -202t-166 -138q81 -32 133 -100t52 -166q0 -65 -18.5 -127.5t-58 -119t-96.5 -99t-140.5 -67.5t-182.5 -25q-108 0 -192 28.5t-134.5 78t-76 111.5t-25.5 134z" />
<glyph unicode="4" horiz-adv-x="1153" d="M49 264l23 178l704 899h225l-108 -890h194l-24 -187h-195l-30 -264h-205l31 264h-615zM276 451h412l76 620z" />
<glyph unicode="5" horiz-adv-x="1079" d="M88 383l203 14q-11 -118 42.5 -173.5t155.5 -55.5q283 0 283 373q0 108 -50 156t-144 48q-34 0 -66.5 -6.5t-70 -23.5t-69 -53t-50.5 -87l-187 17l164 749h719l-25 -192h-561l-67 -303q100 84 256 84q47 0 91.5 -8.5t95 -33.5t87.5 -65t61.5 -109.5t24.5 -160.5 q0 -116 -27 -212.5t-73 -162t-109 -111t-134 -66.5t-149 -21q-124 0 -218 47.5t-144 140t-39 215.5z" />
<glyph unicode="6" horiz-adv-x="1091" d="M131 444q0 72 4.5 142.5t19 165t38 176t66 163.5t98.5 140t140.5 94.5t186.5 36.5q203 0 303.5 -104.5t75.5 -282.5l-199 -12q13 113 -31 162t-155 49q-71 0 -125.5 -28t-91 -81.5t-59 -118t-37.5 -149.5q114 114 286 114q25 0 51.5 -2.5t65 -12.5t72.5 -26t69.5 -45.5 t61 -68.5t41.5 -99t16 -133q0 -139 -42 -247t-112.5 -171t-154.5 -94.5t-178 -31.5q-410 0 -410 464zM334 391q0 -55 14.5 -97t36 -65t51.5 -37.5t56 -19t55 -4.5q33 0 63.5 5t70.5 26.5t68.5 57t49 103.5t20.5 160q0 52 -14 91.5t-35 61.5t-51 36t-56 18t-55 4 q-34 0 -68 -8t-72.5 -31t-67 -59t-47.5 -98.5t-19 -143.5z" />
<glyph unicode="7" horiz-adv-x="1003" d="M162 1149l24 192h881l-23 -180q-19 -20 -50.5 -58t-120.5 -160t-167 -250t-166 -318t-141 -375h-211q35 145 110 319t164 329t175 283.5t158 217.5h-633z" />
<glyph unicode="8" horiz-adv-x="1161" d="M125 330q0 125 61 221.5t170 146.5q-70 46 -102.5 115.5t-32.5 138.5q0 61 16 118.5t52 111.5t89.5 94.5t133.5 65t178 24.5q99 0 175 -23.5t119.5 -58t70.5 -82.5t36 -90t9 -86q0 -62 -20 -122.5t-70 -120.5t-125 -95q87 -42 125.5 -112.5t38.5 -147.5 q0 -199 -138.5 -323.5t-351.5 -124.5q-218 0 -326 96.5t-108 253.5zM332 346q0 -84 56 -133t171 -49q129 0 206 70.5t77 177.5q0 87 -54.5 136.5t-171.5 49.5q-132 0 -208 -74t-76 -178zM430 963q0 -90 57 -137.5t146 -47.5q110 0 185 56t75 165q0 51 -18 88.5t-48.5 57 t-64.5 28.5t-72 9q-68 0 -125 -22.5t-96 -74t-39 -122.5z" />
<glyph unicode="9" horiz-adv-x="1087" d="M115 367l198 12q-13 -113 31.5 -162t155.5 -49q70 0 125.5 29t92.5 82t60 118.5t35 147.5q-62 -62 -139.5 -88.5t-147.5 -26.5q-25 0 -51.5 2.5t-65 12.5t-72 26t-69 45.5t-61 68.5t-41.5 99t-16 133q0 139 42 247t112.5 171.5t155 95t177.5 31.5q410 0 410 -465 q0 -72 -4.5 -142.5t-19 -165t-38 -175.5t-66 -163.5t-98.5 -140t-140.5 -94t-186.5 -36.5q-203 0 -303.5 104.5t-75.5 282.5zM358 821q0 -52 14 -91.5t35 -61.5t51 -36t56 -18t55 -4q34 0 68 8t72.5 31t67.5 59t48 98.5t19 143.5q0 68 -20.5 115.5t-55.5 69.5t-67.5 30.5 t-69.5 8.5q-33 0 -63.5 -5.5t-71 -26.5t-69 -57t-49 -104t-20.5 -160z" />
<glyph unicode=":" horiz-adv-x="579" d="M82 115q0 62 48.5 107.5t109.5 45.5q52 0 85 -33.5t33 -84.5q0 -63 -45 -109.5t-108 -46.5q-53 0 -88 35t-35 86zM164 784q0 62 48.5 108t109.5 46q52 0 85 -34t33 -85q0 -63 -45 -109t-108 -46q-54 0 -88.5 34.5t-34.5 85.5z" />
<glyph unicode=";" horiz-adv-x="577" d="M66 -121q14 -2 26 -2q59 0 91 33t32 82v8h-14q-49 0 -83 32.5t-34 78.5q0 58 41 99.5t102 41.5q60 0 99 -42.5t39 -117.5q0 -140 -79 -222.5t-180 -82.5l-38 4zM164 784q0 62 48.5 108t109.5 46q52 0 85 -34t33 -85q0 -63 -45 -109t-108 -46q-54 0 -88.5 34.5t-34.5 85.5 z" />
<glyph unicode="&#x3c;" horiz-adv-x="1095" d="M178 547l23 178l843 451l-22 -185l-678 -362l590 -361l-23 -172z" />
<glyph unicode="=" horiz-adv-x="1157" d="M156 367l20 165h850l-20 -165h-850zM203 739l20 166h850l-20 -166h-850z" />
<glyph unicode="&#x3e;" horiz-adv-x="1095" d="M123 96l24 183l678 360l-589 362l20 175l733 -451l-22 -178z" />
<glyph unicode="?" horiz-adv-x="1095" d="M223 961q6 82 34 152t78.5 127t132 89.5t185.5 32.5q182 0 273.5 -91.5t91.5 -238.5q0 -74 -22.5 -138t-58.5 -110t-79.5 -87.5t-87.5 -80t-81 -77.5t-61 -90t-26 -109h-186q4 78 28 144t60 113t78 88.5t84 78t76 73t55.5 82t21.5 97.5q0 78 -35.5 121t-132.5 43 q-216 0 -233 -230zM365 98q0 60 45 103t102 43q50 0 83.5 -32.5t33.5 -78.5q0 -60 -41.5 -104.5t-104.5 -44.5q-52 0 -85 32t-33 82z" />
<glyph unicode="@" horiz-adv-x="2142" d="M164 371q0 214 81.5 404t221 326t334 215t413.5 79q233 0 415.5 -88t287 -255.5t104.5 -387.5q0 -133 -35.5 -247.5t-94.5 -193t-135.5 -134.5t-157 -82.5t-160.5 -26.5q-85 0 -151 33.5t-79 103.5q-70 -63 -139.5 -87t-153.5 -24q-125 0 -201.5 85t-76.5 231 q0 82 21.5 166t66.5 163.5t107 141.5t151.5 99.5t192.5 37.5q65 0 121 -27t85 -80l31 88h180l-204 -637q-12 -38 -16.5 -62.5t-0.5 -50.5t27.5 -39t66.5 -13q46 0 99 17.5t110.5 60t103.5 104t75.5 159t29.5 214.5q0 183 -86.5 318.5t-238 205t-349.5 69.5 q-193 0 -363.5 -71t-289 -191t-187.5 -282t-69 -340q0 -198 88 -352.5t243 -239t351 -84.5q187 0 358 76l60 -115q-207 -98 -420 -98q-232 0 -418.5 103.5t-292.5 289t-106 418.5zM823 322q0 -142 140 -142q75 0 141 43t109 110t67.5 146t24.5 152q0 143 -146 143 q-74 0 -139 -44.5t-107 -112.5t-66 -146.5t-24 -148.5z" />
<glyph unicode="A" horiz-adv-x="1183" d="M-18 0l604 1341h258l276 -1341h-211l-53 279h-534l-121 -279h-219zM403 467h418l-127 670z" />
<glyph unicode="B" horiz-adv-x="1193" d="M115 0l164 1341h495q96 0 168.5 -21.5t113 -53.5t66 -76t33.5 -82.5t8 -79.5q0 -119 -55.5 -205t-157.5 -133q83 -32 129.5 -105t46.5 -167q0 -180 -131 -299t-340 -119h-540zM344 193h326q125 0 187.5 63.5t62.5 167.5q0 33 -8 59t-29 52.5t-66.5 41.5t-111.5 15h-312z M416 782h303q62 0 109 18.5t73.5 50.5t39.5 69t13 79q0 150 -198 150h-295z" />
<glyph unicode="C" horiz-adv-x="1126" d="M121 479q0 142 18.5 266t63 239t112 197.5t173.5 131.5t241 49q113 0 194.5 -31t126.5 -87.5t65.5 -124t21.5 -150.5l-211 -11q0 104 -48 158.5t-163 54.5q-67 0 -123 -23.5t-95 -63t-69 -95.5t-47.5 -115.5t-29 -129.5t-15.5 -131t-4 -126q0 -71 10.5 -124.5t37 -99 t76.5 -69.5t124 -24q122 0 190 60t92 173l209 -10q-15 -82 -49.5 -152t-93 -130.5t-150.5 -95.5t-209 -35q-106 0 -187 29.5t-129.5 77t-79 115t-41.5 134t-11 143.5z" />
<glyph unicode="D" horiz-adv-x="1218" d="M115 0l164 1341h452q106 0 187 -31t129 -79.5t78 -118t40.5 -136.5t10.5 -145q0 -86 -9 -168t-30.5 -165.5t-53.5 -156t-81 -136t-110.5 -108.5t-145 -71t-181.5 -26h-450zM344 199h248q65 0 119.5 22t92.5 58t67 87.5t46.5 106t28.5 118t15 118.5t4 112q0 55 -6.5 100 t-23.5 87.5t-45 71t-73.5 46t-105.5 17.5h-250z" />
<glyph unicode="E" horiz-adv-x="1062" d="M115 0l164 1341h794l-24 -198h-588l-43 -359h567l-24 -196h-568l-49 -389h598l-22 -199h-805z" />
<glyph unicode="F" horiz-adv-x="1032" d="M115 0l164 1341h794l-24 -198h-588l-43 -359h567l-24 -196h-568l-71 -588h-207z" />
<glyph unicode="G" horiz-adv-x="1208" d="M121 479q0 142 18.5 266t63 239t112 197.5t173.5 131.5t241 49q113 0 195.5 -31.5t128 -87.5t66.5 -123.5t22 -150.5l-211 -11q0 104 -49.5 158.5t-165.5 54.5q-67 0 -123 -23.5t-95 -63t-69 -95.5t-47.5 -115.5t-29 -129.5t-15.5 -131t-4 -126q0 -71 11.5 -124.5t39 -99 t78.5 -69.5t125 -24q137 0 220 93t103 243h-331l22 190h518l-84 -696h-164l2 106q-47 -53 -125.5 -89.5t-175.5 -36.5q-102 0 -182 29.5t-129.5 77t-81.5 114.5t-44.5 134.5t-12.5 143.5z" />
<glyph unicode="H" horiz-adv-x="1212" d="M115 0l164 1341h206l-67 -557h487l68 557h207l-164 -1341h-207l72 588h-488l-71 -588h-207z" />
<glyph unicode="I" horiz-adv-x="520" d="M115 0l164 1341h208l-163 -1341h-209z" />
<glyph unicode="J" horiz-adv-x="950" d="M56 330q1 31 5 63l207 10q-3 -35 -3.5 -54t1 -52t10.5 -52t24.5 -39.5t44 -30t67.5 -9.5q59 0 97.5 19t60 59.5t31 81t17.5 106.5l113 909h209l-111 -897q-9 -74 -23 -133t-45 -124t-74.5 -108t-114.5 -71t-162 -28q-74 0 -132.5 16.5t-96 43t-63.5 63.5t-38.5 73.5 t-17.5 79.5q-6 39 -6 69v5z" />
<glyph unicode="K" horiz-adv-x="1148" d="M115 0l164 1341h206l-77 -624l559 624h258l-516 -557l383 -784h-234l-297 625l-188 -205l-51 -420h-207z" />
<glyph unicode="L" horiz-adv-x="1001" d="M115 0l164 1341h206l-141 -1142h567l-22 -199h-774z" />
<glyph unicode="M" horiz-adv-x="1581" d="M115 0l164 1341h284l223 -995l469 995h293l-164 -1341h-206l125 1022l-424 -885h-222l-211 895l-124 -1032h-207z" />
<glyph unicode="N" horiz-adv-x="1253" d="M115 0l164 1341h221l391 -993l123 993h207l-164 -1341h-221l-394 981l-120 -981h-207z" />
<glyph unicode="O" horiz-adv-x="1220" d="M120 461q-1 31 -1 63q0 90 12 182q16 124 56.5 243t97.5 198q156 215 436 215q115 0 195.5 -31t125.5 -80.5t82 -128.5q52 -112 53 -295v-7q1 -179 -47 -357q-48 -181 -131 -283q-76 -95 -177.5 -149t-248.5 -54q-171 0 -275 78.5t-142 194.5q-30 89 -36 211zM339 688 q-16 -111 -16 -198q0 -104 23 -171q24 -74 79.5 -112.5t152.5 -38.5q93 0 148.5 28t96.5 76q51 60 87 171t49 225q10 87 10 167q0 25 -1 49q-4 104 -26 154q-59 133 -225 133q-171 0 -262 -127q-81 -111 -116 -356z" />
<glyph unicode="P" horiz-adv-x="1132" d="M115 0l164 1341h475q195 0 293 -84t98 -237q0 -90 -29.5 -167.5t-86.5 -137t-149.5 -93.5t-209.5 -34h-277l-71 -588h-207zM418 784h272q60 0 105 13.5t71 35t42.5 51t22 57.5t5.5 60q0 29 -7 51t-26.5 44t-61.5 34.5t-104 12.5h-276z" />
<glyph unicode="Q" horiz-adv-x="1228" d="M120 461q-1 31 -1 63q0 91 12 182q16 124 56.5 243t97.5 198q156 215 436 215q115 0 195.5 -31t125.5 -80.5t82 -128.5q52 -112 53 -295v-7q0 -180 -47 -357q-49 -181 -131 -283q-12 -16 -20 -24l133 -162l-156 -127l-133 164q-111 -54 -250 -54q-171 0 -275 78.5 t-142 194.5q-30 89 -36 211zM339 688q-16 -111 -16 -198q0 -103 23 -171q24 -74 79.5 -112.5t152.5 -38.5q69 0 122 16l-133 168l152 125l133 -164q43 69 72 176.5t39 211.5q6 67 6 130q0 34 -1 67q-6 93 -26 140q-59 133 -225 133q-171 0 -262 -127q-81 -111 -116 -356z " />
<glyph unicode="R" horiz-adv-x="1198" d="M115 0l164 1341h495q195 0 293 -84t98 -237q0 -146 -75.5 -256.5t-221.5 -153.5l213 -610h-227l-188 588h-273l-71 -588h-207zM418 784h293q74 0 125 19.5t75.5 53.5t34.5 68.5t10 75.5q0 29 -7 51t-26 44t-61 34.5t-104 12.5h-297z" />
<glyph unicode="S" horiz-adv-x="1097" d="M80 346l4 55l211 17q-3 -27 -3 -51q0 -199 236 -199q81 0 140.5 20.5t89.5 54t43.5 67.5t13.5 69q0 59 -38 102t-122 76q-40 16 -98.5 36t-91.5 32q-140 52 -210.5 133.5t-70.5 202.5q0 37 10 78t31 87.5t59.5 87.5t90.5 74.5t130 53.5t171 20q112 0 193.5 -29.5 t125.5 -80.5t64 -109t20 -125l-2 -49l-207 -11q1 17 1 32q0 86 -38 131q-45 53 -178 53q-70 0 -122.5 -19t-80 -49.5t-40.5 -62.5t-13 -64q0 -63 33 -98t105 -60q19 -7 51.5 -18t63 -21.5t65.5 -23.5q158 -59 234.5 -141.5t76.5 -208.5q0 -192 -140.5 -310t-375.5 -118 q-214 0 -323 103t-109 263z" />
<glyph unicode="T" horiz-adv-x="1087" d="M162 1143l24 198h963l-25 -198h-376l-140 -1143h-207l140 1143h-379z" />
<glyph unicode="U" horiz-adv-x="1173" d="M141.5 358.5q-0.5 38.5 1 59t4.5 45.5l109 878h207l-109 -878q-3 -25 -4 -38t-2.5 -40.5t0.5 -44.5t7.5 -42.5t15 -41.5t26 -34.5t38.5 -29t53.5 -17.5t70.5 -7q58 0 104.5 14t76 40t50 53.5t32.5 65t17 63.5t9 59l108 878h207l-108 -878q-4 -35 -8.5 -62t-19.5 -80.5 t-35.5 -94.5t-60 -89.5t-89.5 -80.5t-126.5 -54t-168.5 -22q-72 0 -131.5 13.5t-100.5 34.5t-72.5 53.5t-50 63.5t-30 72t-16 72t-5 69.5z" />
<glyph unicode="V" horiz-adv-x="1120" d="M145 1341h213l183 -1134l463 1134h217l-566 -1341h-270z" />
<glyph unicode="W" horiz-adv-x="1753" d="M145 1341h217l127 -1075l398 1075h223l129 -1071l389 1071h225l-510 -1341h-241l-137 1053l-398 -1053h-237z" />
<glyph unicode="X" horiz-adv-x="1126" d="M-14 0l497 700l-301 641h232l211 -469l325 469h244l-467 -647l330 -694h-236l-235 516l-357 -516h-243z" />
<glyph unicode="Y" horiz-adv-x="1083" d="M135 1341h232l225 -579l366 579h238l-522 -780l-68 -561h-207l68 561z" />
<glyph unicode="Z" horiz-adv-x="1034" d="M10 0l21 180l776 963h-619l25 198h862l-22 -180l-774 -962h675l-22 -199h-922z" />
<glyph unicode="[" horiz-adv-x="634" d="M78 -279l231 1887h410l-21 -158h-247l-193 -1569h248l-19 -160h-409z" />
<glyph unicode="\" horiz-adv-x="1134" d="M260 1458l164 60l522 -1633l-162 -63z" />
<glyph unicode="]" horiz-adv-x="634" d="M-4 -279l18 160h248l193 1567h-248l20 160h410l-231 -1887h-410z" />
<glyph unicode="^" horiz-adv-x="1216" d="M180 553l465 788h172l273 -788h-166l-209 606l-357 -606h-178z" />
<glyph unicode="_" horiz-adv-x="1259" d="M-92 -430l18 158h1258l-19 -158h-1257z" />
<glyph unicode="`" horiz-adv-x="718" d="M283 1362h221l149 -293h-200z" />
<glyph unicode="a" d="M82 434q9 122 56 240t122 182q111 96 268 96q167 0 246 -118l17 98h182l-115 -932h-184l10 100q-102 -120 -262 -120q-111 0 -195 55q-80 53 -117 165q-30 90 -30 187q0 23 2 47zM281 339q10 -108 65 -153q39 -32 115 -32q34 0 65.5 7t72.5 32t70 66t49.5 117.5 t20.5 178.5q0 57 -12 99t-29.5 65t-44 37t-49.5 18t-51 4q-96 0 -160 -59q-57 -53 -89 -163q-25 -84 -26 -166q1 -26 3 -51z" />
<glyph unicode="b" d="M82 0l164 1341h194l-63 -505q100 116 260 116q36 0 64.5 -3.5t68.5 -14.5t75 -38.5t60 -70.5q61 -99 63 -255v-11q0 -151 -56 -293q-58 -148 -158 -217t-215 -69q-179 0 -254 120l-15 -100h-188zM313 379q0 -225 191 -225q85 0 145 45q42 33 72.5 99t42.5 139q8 52 8 103 q0 22 -1 44q-5 74 -30 121q-39 73 -151 73q-22 0 -44 -3t-50.5 -14t-52.5 -28t-49 -48t-42 -71.5t-28 -100.5t-11 -134z" />
<glyph unicode="c" horiz-adv-x="944" d="M90 365q0 115 22 208.5t55 153.5t80.5 104.5t90.5 66.5t93 35.5t79.5 16t58.5 2.5q25 0 49.5 -2t60 -9t65.5 -19t62 -34.5t54 -52.5t36.5 -76.5t14.5 -103.5l-192 -12q-5 137 -160 137q-23 0 -44.5 -3t-50.5 -13.5t-53.5 -27t-49 -47.5t-41.5 -71.5t-28 -101.5t-11 -135 q0 -73 17 -121.5t47.5 -70.5t58.5 -29.5t65 -7.5q175 0 215 147l193 -12q-20 -78 -61 -136.5t-84.5 -90t-97 -51t-91 -24.5t-74.5 -5q-27 0 -51 1.5t-64.5 10.5t-73.5 23.5t-70 43.5t-62 68t-41.5 100.5t-16.5 137.5z" />
<glyph unicode="d" d="M82 434q9 122 56 240t122 182q111 96 268 96q163 0 238 -121l63 510h195l-164 -1341h-188l6 94q-98 -114 -256 -114q-111 0 -195 55q-80 53 -117 165q-30 90 -30 187q0 23 2 47zM281 339q10 -108 65 -153q39 -32 115 -32q34 0 65.5 7t72.5 32t70 66t49.5 117.5 t20.5 178.5q0 57 -12 99t-29.5 65t-44 37t-49.5 18t-51 4q-96 0 -160 -59q-57 -53 -89 -163q-25 -84 -26 -166q1 -26 3 -51z" />
<glyph unicode="e" horiz-adv-x="999" d="M90 369q0 108 21 197.5t54.5 148.5t79.5 104t91 69.5t95 39.5t85 19.5t68 4.5q31 0 58.5 -2.5t64.5 -12t67.5 -24.5t61.5 -43t52 -65.5t34.5 -94.5t13.5 -126q0 -39 -4.5 -85.5t-9.5 -72.5l-4 -27h-639v-22q0 -225 204 -225q88 0 142.5 32.5t79.5 114.5l190 -12 q-22 -73 -60.5 -129t-80.5 -89t-93 -54t-95 -28t-89 -7q-49 0 -95 7.5t-101.5 33t-95.5 66t-67.5 113.5t-27.5 169zM299 561h440q4 25 4 48q0 65 -30 110q-40 61 -138 61q-216 0 -276 -219z" />
<glyph unicode="f" horiz-adv-x="643" d="M84 760l20 172h168l17 127q8 60 24.5 106t47.5 85t76.5 59t110.5 29q26 4 55 4q45 0 97 -9l-20 -182q-35 3 -63 3q-61 0 -87 -14q-40 -22 -49 -93l-14 -115h199l-21 -172h-199l-92 -760h-194l92 760h-168z" />
<glyph unicode="g" d="M33 -123l203 12q3 -73 40 -110t146 -37q59 0 103.5 21t70.5 51.5t44.5 79.5t26 89t13.5 97l2 16q-98 -116 -256 -116q-23 0 -46.5 2.5t-58.5 11.5t-65 24.5t-62 44t-54.5 67t-37 97.5t-14.5 131q0 117 20.5 212t51 155.5t75 105.5t83.5 67.5t85.5 35.5t72.5 15.5t52 2.5 q172 0 244 -131l19 111h182l-111 -899q-54 -463 -446 -463q-366 0 -383 307zM285 381q0 -71 14 -118.5t41 -70t55 -30.5t66 -8q34 0 65.5 7t72.5 32t70 66t49.5 117.5t20.5 178.5q0 57 -12 99t-29.5 65t-44 37t-49.5 18t-51 4t-54.5 -6t-58.5 -20.5t-58 -44t-49 -71 t-35.5 -107.5t-12.5 -148z" />
<glyph unicode="h" horiz-adv-x="1009" d="M82 0l164 1341h194l-63 -501q96 112 250 112q45 0 80.5 -4.5t85.5 -26.5t81 -61q30 -40 46 -116q9 -43 10 -94q0 -41 -6 -87l-68 -563h-194l67 563q6 34 4 61.5t-4 48.5t-11.5 37t-17 27t-20.5 18.5t-23 12t-24 7t-23.5 3t-21.5 0.5q-24 0 -45.5 -2.5t-56.5 -14.5 t-61.5 -33.5t-49.5 -64t-31 -100.5l-68 -563h-194z" />
<glyph unicode="i" horiz-adv-x="440" d="M82 0l113 932h194l-113 -932h-194zM195 1208q0 59 45.5 103.5t103.5 44.5q51 0 84 -33.5t33 -83.5q0 -59 -45 -103t-103 -44q-52 0 -85 33t-33 83z" />
<glyph unicode="j" horiz-adv-x="440" d="M-154 -410l23 183q35 -6 62 -6q11 0 20 1q34 3 54.5 7.5t33.5 20t18.5 33.5t8.5 48l129 1055h194l-131 -1067q-7 -60 -24 -106.5t-48 -85t-77 -59t-111 -29.5q-26 -4 -55 -4q-45 0 -97 9zM195 1208q0 59 45.5 103.5t103.5 44.5q51 0 84 -33.5t33 -83.5q0 -59 -45 -103 t-103 -44q-52 0 -85 33t-33 83z" />
<glyph unicode="k" horiz-adv-x="933" d="M82 0l164 1341h194l-104 -847l393 438h244l-365 -393l285 -539h-221l-199 393l-172 -184l-25 -209h-194z" />
<glyph unicode="l" horiz-adv-x="440" d="M82 0l164 1341h194l-164 -1341h-194z" />
<glyph unicode="m" horiz-adv-x="1441" d="M82 0l113 932h188l-4 -88q92 108 235 108q154 0 217 -123q45 62 114.5 92.5t146.5 30.5q276 0 277 -253q0 -32 -5 -68l-76 -631h-194l75 631q2 14 2 27q0 23 -6 41q-9 29 -24 43.5t-36.5 23t-35.5 10.5t-27 2t-26.5 -1.5t-34.5 -6t-39.5 -15t-36.5 -25.5t-30.5 -40.5 t-16.5 -58.5l-76 -631h-194l76 631q2 14 2 27q0 23 -6 41q-9 29 -24 43.5t-37.5 23t-37 10.5t-29.5 2t-31 -2t-42 -10t-46 -21.5t-37 -40.5t-22 -63l-78 -641h-194z" />
<glyph unicode="n" horiz-adv-x="1009" d="M82 0l113 932h188l-2 -88q97 108 252 108q43 0 77.5 -4.5t83.5 -26.5t80 -61q30 -40 46 -116q9 -43 10 -94q0 -41 -6 -87l-68 -563h-194l67 563q6 34 4 61.5t-4 48.5t-11.5 37t-17 27t-21 18.5t-23.5 12t-24.5 7t-24 3t-21.5 0.5q-23 0 -44.5 -2.5t-56 -13.5t-60.5 -31 t-49 -59.5t-30 -93.5l-70 -578h-194z" />
<glyph unicode="o" horiz-adv-x="1015" d="M88 366q-1 14 0 29q0 134 47 257q52 136 141 206q117 94 299 94q221 0 316 -145q61 -95 67 -241q1 -13 1 -27q1 -132 -49 -260q-54 -141 -156 -216q-45 -34 -106.5 -54t-100 -24.5t-72.5 -4.5q-222 0 -313 135q-68 101 -74 251zM276 378q2 -102 43 -159q48 -67 162 -67 q101 0 168 53q38 31 67 95t42 136q9 52 9 105q0 21 -1 41q-5 74 -31 120q-24 43 -70.5 60.5t-95.5 17.5q-112 0 -184 -67q-49 -45 -80 -139q-29 -88 -29 -183v-13z" />
<glyph unicode="p" d="M31 -410l164 1342h188l-8 -98q100 118 262 118q36 0 64.5 -3.5t68.5 -14.5t75 -38.5t60 -70.5q61 -99 63 -255v-11q0 -151 -56 -293q-57 -148 -158 -217q-100 -69 -215 -69q-177 0 -252 116l-62 -506h-194zM313 379q0 -225 191 -225q85 0 145 45q42 33 72.5 99t42.5 139 q8 52 8 103q0 22 -1 44q-5 73 -30 121q-39 73 -151 73q-22 0 -44 -3t-50.5 -14t-52.5 -28t-49 -48t-42 -71.5t-28 -100.5t-11 -134z" />
<glyph unicode="q" d="M82 434q9 122 56 240t122 182q111 96 268 96q169 0 240 -123l16 103h189l-164 -1342h-195l62 502q-98 -112 -254 -112q-111 0 -195 55q-80 52 -117 165q-30 90 -30 187q0 23 2 47zM281 339q10 -108 65 -153q39 -32 115 -32q34 0 65.5 7t72.5 32t70 66t49.5 117.5 t20.5 178.5q0 57 -12 99t-29.5 65t-44 37t-49.5 18t-51 4q-96 0 -160 -59q-57 -53 -89 -163q-25 -83 -25 -166q0 -26 2 -51z" />
<glyph unicode="r" horiz-adv-x="651" d="M82 0l113 932h188l-6 -101q62 75 146 103q58 19 118 20q26 0 53 -4l-24 -202q-25 3 -49 3q-29 0 -57 -4q-52 -7 -100 -29.5t-81.5 -71t-42.5 -118.5l-64 -528h-194z" />
<glyph unicode="s" horiz-adv-x="880" d="M61 240l5 47l184 10q-5 -25 -0.5 -52t16.5 -48.5t48 -35.5t94 -14q93 0 148.5 37.5t55.5 89.5q0 39 -27.5 61.5t-95.5 41.5l-149 37q-63 15 -107 43t-65 62.5t-29 65t-8 62.5q0 51 21 102t64 97.5t120 76t176 29.5q82 0 143.5 -18t95 -44t54 -62t26 -65.5t5.5 -62.5 l-2 -45l-187 -10q1 11 1 22q0 55 -26 83q-32 34 -118 34q-87 0 -134.5 -32t-47.5 -82q0 -38 22.5 -60.5t81.5 -36.5l135 -30q242 -55 242 -244q0 -36 -10 -74.5t-38.5 -83.5t-71.5 -79.5t-116.5 -58t-167.5 -23.5q-83 0 -146.5 18t-98.5 44.5t-57 63.5t-29 68.5t-7 65.5z " />
<glyph unicode="t" horiz-adv-x="663" d="M86 760l20 172h168l39 317l197 11l-41 -328h199l-21 -172h-198l-60 -479q-3 -30 -2 -47.5t11 -33t29.5 -20t52.5 -6.5q9 -1 18 -1q27 0 63 5l-22 -184q-56 -7 -103 -7q-28 1 -52 3q-66 6 -105 28.5t-61 59t-26 84.5q-1 18 -1 37q0 33 4 69l59 492h-168z" />
<glyph unicode="u" horiz-adv-x="1009" d="M117 369l67 563h195l-68 -563q-6 -34 -4 -61.5t4 -48.5t11.5 -37t17.5 -27t21 -18.5t23.5 -12t24.5 -7t24 -3t22 -0.5q23 0 44 2.5t56 13.5t60.5 31t48.5 59.5t30 93.5l70 578h194l-112 -932h-189l2 86q-95 -106 -251 -106q-43 0 -77.5 4.5t-83.5 26.5t-79 61 q-32 40 -48 116q-9 43 -9 94q0 41 6 87z" />
<glyph unicode="v" horiz-adv-x="860" d="M80 932h201l129 -737l309 737h205l-416 -932h-236z" />
<glyph unicode="w" horiz-adv-x="1349" d="M88 932h203l69 -705l261 705h247l86 -709l244 709h207l-348 -932h-226l-106 758l-289 -758h-225z" />
<glyph unicode="x" horiz-adv-x="925" d="M-12 0l379 485l-242 447h215l154 -303l229 303h233l-368 -463l266 -469h-213l-174 330l-244 -330h-235z" />
<glyph unicode="y" horiz-adv-x="864" d="M-29 -424l23 176q42 -4 73 -5t58 4t44.5 9t35 19t27 25t23.5 36.5t22 44t24 56.5l25 59h-50l-192 932h201l129 -737l307 737h207l-479 -1075q-57 -129 -111 -190t-138 -83q-51 -13 -125 -13q-48 0 -104 5z" />
<glyph unicode="z" horiz-adv-x="819" d="M20 0l19 164l520 592h-430l21 176h661l-18 -164l-521 -592h465l-20 -176h-697z" />
<glyph unicode="{" horiz-adv-x="702" d="M184 592l19 143q60 2 87 25.5t36 93.5l41 338q10 86 40.5 155.5t81 122t125 81.5t168.5 30l-18 -158q-64 -3 -107.5 -21.5t-68.5 -53.5t-38 -76t-20 -101l-43 -342q-16 -143 -118 -172q90 -37 71 -204l-43 -353q-7 -55 -3.5 -98t20.5 -72.5t55.5 -46.5t101.5 -20 l-18 -158q-124 1 -202 56.5t-105 144.5t-13 205l39 321q19 157 -88 160z" />
<glyph unicode="|" horiz-adv-x="479" d="M94 -164l205 1669h168l-205 -1669h-168z" />
<glyph unicode="}" horiz-adv-x="702" d="M-6 -295l18 158q122 6 171.5 68t62.5 184l43 348q22 194 121 211q-55 20 -68 66t-4 118l39 320q15 126 -18.5 182.5t-153.5 62.5l18 158q124 -1 202 -56t105 -144t13 -205l-39 -322q-9 -70 12.5 -93.5t81.5 -25.5l-18 -143q-110 -3 -129 -160l-41 -336 q-10 -86 -40.5 -156t-81 -123t-125.5 -82t-169 -30z" />
<glyph unicode="~" horiz-adv-x="1257" d="M156 498q105 202 329 202q56 0 124.5 -23t130 -46t98.5 -23q60 0 96 27t61 82l152 -60q-102 -202 -328 -202q-67 0 -183.5 46t-164.5 46q-62 0 -102 -31.5t-60 -77.5z" />
<glyph unicode="&#xa1;" horiz-adv-x="530" d="M82 -406l123 1002h188l-123 -1002h-188zM195 807q0 59 42.5 102t100.5 43q52 0 85.5 -32t33.5 -82q0 -59 -44.5 -102.5t-103.5 -43.5q-51 0 -82.5 32.5t-31.5 82.5z" />
<glyph unicode="&#xa2;" horiz-adv-x="954" d="M90 365q0 95 14.5 175t38.5 136.5t58 102t69 73.5t76 48.5t74.5 30t68.5 15.5l19 150h160l-19 -150q47 -6 88.5 -22t83 -47.5t66 -88.5t24.5 -133l-192 -12q-5 137 -160 137q-23 0 -44.5 -3t-50.5 -13.5t-53.5 -27t-49 -47.5t-41.5 -71.5t-28 -101.5t-11 -135 q0 -73 17 -121.5t47.5 -70.5t58.5 -29.5t65 -7.5q175 0 215 147l193 -12q-17 -65 -48 -117t-65.5 -84t-77.5 -54.5t-79.5 -32.5t-74.5 -15l-18 -148h-160l19 152q-40 7 -76 20t-75.5 41.5t-67.5 68t-46 103.5t-18 144z" />
<glyph unicode="&#xa3;" horiz-adv-x="1007" d="M41 0l22 184h46q60 0 86.5 24t35.5 95l33 275h-153l20 157h154l37 299q2 20 5 38.5t13.5 51t26 59.5t45 57.5t68 51.5t96.5 35t129 14t126.5 -14t89 -34.5t57 -52t33.5 -57.5t14 -59.5t3.5 -51t-2.5 -38.5l-207 -10q19 139 -125 139q-39 0 -70 -11t-48 -26.5t-29 -36.5 t-15.5 -36t-5.5 -29l-34 -289h292l-20 -157h-293l-27 -226q-7 -63 -36 -113t-82 -57h610l-21 -182h-874z" />
<glyph unicode="&#xa5;" horiz-adv-x="1083" d="M92 252l19 158h338l20 168h-338l21 157h249l-262 606h226l225 -575l366 575h236l-410 -606h219l-20 -157h-305l-21 -168h306l-19 -158h-305l-31 -252h-207l31 252h-338z" />
<glyph unicode="&#xa6;" horiz-adv-x="479" d="M92 -164l86 705h172l-86 -705h-172zM211 801l86 704h172l-86 -704h-172z" />
<glyph unicode="&#xa7;" horiz-adv-x="1128" d="M127 471q0 121 72 228t194 155q-88 73 -88 209q0 130 113 215.5t282 85.5q62 0 113.5 -9.5t97 -32t76 -58t46.5 -90t11 -125.5l-194 -11q5 74 -31 110t-127 36q-31 0 -61 -5t-61.5 -16t-51.5 -35t-20 -57q0 -37 23.5 -61t86.5 -47l191 -70q248 -91 248 -320 q0 -122 -69.5 -225.5t-186.5 -161.5q133 -80 133 -233q0 -144 -120.5 -232t-297.5 -88q-80 0 -147 18t-121 55t-80.5 102t-16.5 151l199 10q-11 -82 38 -118.5t130 -36.5q36 0 71 6t70 20t56.5 41t21.5 64q0 32 -28.5 60.5t-106.5 55.5l-191 68q-124 44 -199 130.5 t-75 211.5zM330 487q0 -107 112 -157q102 -45 156 -45q96 0 169 78t73 178q0 56 -36 106.5t-124 79.5q-61 21 -109 21q-97 0 -169 -79.5t-72 -181.5z" />
<glyph unicode="&#xa8;" horiz-adv-x="944" d="M266 1208q0 55 41.5 96.5t95.5 41.5q45 0 76 -31t31 -76q0 -55 -40.5 -96t-92.5 -41q-47 0 -79 31t-32 75zM649 1208q0 55 41 96.5t94 41.5q46 0 77.5 -31.5t31.5 -75.5q0 -55 -41 -96t-94 -41q-46 0 -77.5 31t-31.5 75z" />
<glyph unicode="&#xa9;" horiz-adv-x="1720" d="M147 561q0 168 68.5 323.5t182.5 267.5t267.5 179.5t317.5 67.5q190 0 342.5 -86t238 -236.5t85.5 -335.5q0 -167 -69.5 -321.5t-184.5 -266t-268 -178.5t-314 -67q-190 0 -342.5 85t-238 234.5t-85.5 333.5zM268 559q0 -148 69 -268.5t194.5 -191t283.5 -70.5 q143 0 274.5 56.5t227.5 151.5t153.5 227.5t57.5 276.5q0 111 -40.5 209.5t-112 170.5t-174 114t-220.5 43q-139 1 -270 -56t-228 -153t-156 -230t-59 -280zM477 551q0 115 22 208.5t55 153.5t80.5 104.5t90.5 67t93 35.5t79.5 16t58.5 3q25 0 49.5 -2t60 -9t65.5 -19 t62 -34.5t54 -52.5t36.5 -76.5t14.5 -103.5l-192 -13q-5 138 -160 138q-23 0 -44.5 -3t-50.5 -13.5t-53.5 -27.5t-49 -47.5t-41.5 -71.5t-28 -102t-11 -135q0 -73 17 -121.5t47.5 -70.5t58.5 -29.5t65 -7.5q175 0 215 147l193 -12q-20 -78 -61 -136.5t-84.5 -90t-97 -51 t-91 -24.5t-74.5 -5q-27 0 -51 1.5t-64.5 10.5t-73.5 23.5t-70 43.5t-62 68t-41.5 100.5t-16.5 137.5z" />
<glyph unicode="&#xaa;" horiz-adv-x="645" d="M135 920q0 140 187 188l190 45q5 49 -15.5 73.5t-72.5 24.5t-82.5 -20t-42.5 -66l-125 13q50 184 254 184q105 0 163 -53.5t44 -165.5l-47 -371h-113v37q-71 -49 -149 -49q-85 0 -138 41.5t-53 118.5zM264 928q0 -60 76 -60q54 0 99.5 34.5t52.5 92.5l6 45 q-83 -18 -146 -34q-88 -22 -88 -78z" />
<glyph unicode="&#xab;" horiz-adv-x="1189" d="M184 418l15 121l405 376l96 -112l-364 -336l274 -328l-112 -98zM594 418l14 121l406 376l96 -112l-365 -336l275 -328l-113 -98z" />
<glyph unicode="&#xac;" horiz-adv-x="1310" d="M180 551l19 166h1003l-72 -584h-165l53 418h-838z" />
<glyph unicode="&#xad;" horiz-adv-x="933" d="M168 467l22 176h633l-22 -176h-633z" />
<glyph unicode="&#xae;" horiz-adv-x="1720" d="M147 561q0 168 68.5 323.5t182.5 267.5t267.5 179.5t317.5 67.5q190 0 342.5 -86t238 -236.5t85.5 -335.5q0 -167 -69.5 -321.5t-184.5 -266t-268 -178.5t-314 -67q-190 0 -342.5 85t-238 234.5t-85.5 333.5zM268 559q0 -148 69 -268.5t194.5 -191t283.5 -70.5 q143 0 274.5 56.5t227.5 151.5t153.5 227.5t57.5 276.5q0 111 -40.5 209.5t-112 170.5t-174 114t-220.5 43q-139 1 -270 -56t-228 -153t-156 -230t-59 -280zM557 193l115 925h270q164 0 242 -63t78 -189q0 -94 -51.5 -169.5t-149.5 -114.5l131 -389h-188l-111 358h-21h-94 l-45 -358h-176zM799 723h108q92 0 133 33.5t41 99.5q0 92 -145 92h-111z" />
<glyph unicode="&#xaf;" horiz-adv-x="952" d="M270 1141l19 149h608l-18 -149h-609z" />
<glyph unicode="&#xb0;" horiz-adv-x="884" d="M250 1116q0 134 94 227t227 93q110 0 185 -74t75 -182q0 -134 -94.5 -228t-224.5 -94q-112 0 -187 74.5t-75 183.5zM367 1126q0 -67 40 -109t109 -42q83 0 141 55t58 139q0 67 -40.5 108.5t-107.5 41.5q-81 0 -140.5 -56t-59.5 -137z" />
<glyph unicode="&#xb1;" horiz-adv-x="1310" d="M92 -160l21 160h1003l-20 -160h-1004zM180 551l19 166h417l54 420h166l-54 -420h420l-18 -166h-420l-53 -418h-166l53 418h-418z" />
<glyph unicode="&#xb2;" horiz-adv-x="628" d="M113 662l14 110l66 55q178 150 237 215.5t59 126.5q0 68 -81 68q-95 0 -109 -88l-127 4q3 23 10.5 47.5t26 54.5t44 53t68.5 38.5t95 15.5q102 0 155.5 -48.5t53.5 -129.5q0 -84 -68 -171.5t-242 -224.5h265l-17 -126h-450z" />
<glyph unicode="&#xb3;" horiz-adv-x="657" d="M141 862l131 12q-11 -102 97 -102q62 0 92.5 27.5t30.5 68.5q0 80 -111 80h-39l16 123h23q60 0 94.5 21.5t34.5 64.5q0 74 -86 74q-88 0 -102 -84l-134 2q13 89 74.5 148t167.5 59q108 0 160.5 -48.5t52.5 -123.5q0 -111 -98 -168q80 -39 80 -135q0 -90 -68.5 -162 t-194.5 -72q-104 0 -167 59t-54 156z" />
<glyph unicode="&#xb4;" horiz-adv-x="718" d="M242 1069l219 293h233l-239 -293h-213z" />
<glyph unicode="&#xb5;" horiz-adv-x="1056" d="M31 -410l164 1342h194l-67 -563q-8 -58 3 -100.5t30.5 -64t50.5 -33.5t51.5 -14.5t46.5 -2.5q23 0 45 3t56 16t60 34.5t48.5 63.5t29.5 98l68 563h195l-113 -932h-188l6 86q-44 -52 -104.5 -79t-117.5 -27q-140 0 -204 96l-60 -486h-194z" />
<glyph unicode="&#xb6;" horiz-adv-x="1132" d="M229 922q0 186 122.5 302.5t355.5 116.5h127l-164 -1341h-207l72 592q-306 47 -306 330zM434 932q0 -125 125 -141l43 344q-81 -9 -124.5 -66t-43.5 -137zM815 0l164 1341h207l-164 -1341h-207z" />
<glyph unicode="&#xb7;" horiz-adv-x="579" d="M195 666q0 63 45.5 109t107.5 46q52 0 86.5 -35t34.5 -86q0 -60 -48 -105.5t-106 -45.5q-52 0 -86 33.5t-34 83.5z" />
<glyph unicode="&#xb8;" horiz-adv-x="575" d="M53 -338l41 131q43 -14 86 -14q34 0 57 19t23 59q0 39 -37.5 80t-89.5 63h203q3 -2 8 -5.5t18.5 -17t23.5 -29t18 -41t8 -54.5q0 -98 -66.5 -156.5t-157.5 -58.5q-34 0 -67.5 6t-50.5 12z" />
<glyph unicode="&#xb9;" horiz-adv-x="618" d="M231 1139l13 96q34 0 62.5 11t44 26.5t26.5 31t15 26.5l3 11h117l-84 -679h-133l59 477h-123z" />
<glyph unicode="&#xba;" horiz-adv-x="690" d="M160 995q0 72 14 131t35 96t51 65t56.5 41.5t58.5 22t50 10t36 1.5q25 0 48.5 -2.5t61 -16.5t64.5 -37.5t47 -71t20 -112.5q0 -72 -14 -130.5t-35.5 -96t-52 -65t-57.5 -41.5t-58.5 -22t-49.5 -9.5t-36 -1.5q-26 0 -49 2.5t-60.5 16t-63.5 37t-46 71t-20 112.5zM291 1008 q0 -136 112 -136q20 0 38.5 4t43.5 18.5t42.5 38.5t30.5 69t13 106q0 135 -114 135q-20 0 -38 -3.5t-43 -18t-42.5 -38.5t-30 -69t-12.5 -106z" />
<glyph unicode="&#xbb;" horiz-adv-x="1210" d="M115 150l364 339l-276 326l112 100l316 -376l-15 -121l-407 -377zM545 150l364 339l-276 326l112 100l316 -376l-14 -121l-408 -377z" />
<glyph unicode="&#xbc;" horiz-adv-x="1425" d="M190 1139l13 96q34 0 62.5 11t44 26.5t26.5 31t14 26.5l4 11h117l-84 -679h-133l59 477h-123zM221 20l776 1371l117 -66l-774 -1366zM680 127l12 109l355 450h133l-54 -434h95l-15 -125h-94l-16 -129h-133l16 129h-299zM825 252h168l33 258z" />
<glyph unicode="&#xbd;" horiz-adv-x="1429" d="M190 1139l13 96q34 0 62.5 11t44 26.5t26.5 31t14 26.5l4 11h117l-84 -679h-133l59 477h-123zM223 20l776 1371l117 -66l-774 -1366zM795 -2l14 111l65 55q179 151 238 216t59 126q0 67 -81 67q-95 0 -109 -88l-127 4q3 23 10.5 47.5t26 54.5t44 53t68.5 38.5t95 15.5 q102 0 155.5 -48.5t53.5 -129.5q0 -84 -68 -171t-242 -224h265l-17 -127h-450z" />
<glyph unicode="&#xbe;" horiz-adv-x="1525" d="M100 862l131 12q-11 -102 97 -102q62 0 92.5 27.5t30.5 68.5q0 80 -111 80h-39l16 123h23q60 0 94.5 21.5t34.5 64.5q0 74 -86 74q-88 0 -102 -84l-134 2q13 89 74.5 148t167.5 59q108 0 160.5 -48.5t52.5 -123.5q0 -111 -98 -168q80 -39 80 -135q0 -90 -68 -162 t-194 -72q-105 0 -168 59t-54 156zM332 20l776 1371l117 -66l-774 -1366zM797 127l12 109l354 450h133l-53 -434h94l-14 -125h-94l-17 -129h-133l17 129h-299zM942 252h168l33 258z" />
<glyph unicode="&#xbf;" horiz-adv-x="1095" d="M94 -96q0 74 22.5 138t58.5 110t79.5 87.5t87.5 80t81 77.5t61 90t26 109h186q-4 -78 -28 -144t-60 -113t-78 -88.5t-84 -78t-76 -73t-55.5 -82t-21.5 -97.5q0 -78 35.5 -121t132.5 -43q216 0 233 230l195 -11q-6 -82 -34 -152t-78.5 -127t-132 -89.5t-185.5 -32.5 q-182 0 -273.5 91.5t-91.5 238.5zM483 803q0 60 41.5 104.5t104.5 44.5q52 0 85.5 -32t33.5 -82q0 -60 -45.5 -103t-102.5 -43q-50 0 -83.5 32.5t-33.5 78.5z" />
<glyph unicode="&#xc0;" horiz-adv-x="1183" d="M-59 0l604 1341h258l276 -1341h-211l-53 279h-534l-121 -279h-219zM362 467h418l-127 670zM438 1772h221l150 -293h-201z" />
<glyph unicode="&#xc1;" horiz-adv-x="1183" d="M-59 0l604 1341h258l276 -1341h-211l-53 279h-534l-121 -279h-219zM362 467h418l-127 670zM582 1479l219 293h233l-239 -293h-213z" />
<glyph unicode="&#xc2;" horiz-adv-x="1183" d="M-59 0l604 1341h258l276 -1341h-211l-53 279h-534l-121 -279h-219zM362 467h418l-127 670zM387 1475l207 276h252l141 -276h-174l-100 178l-140 -178h-186z" />
<glyph unicode="&#xc3;" horiz-adv-x="1183" d="M-59 0l604 1341h258l276 -1341h-211l-53 279h-534l-121 -279h-219zM360 1532q41 90 95.5 139t138.5 49q34 0 66.5 -14.5t53 -31.5t47 -31.5t50.5 -14.5q64 0 107 98l122 -38q-33 -90 -94 -148.5t-149 -58.5q-35 0 -67 14.5t-52.5 31.5t-47 31.5t-52.5 14.5 q-32 0 -57 -26.5t-40 -67.5zM362 467h418l-127 670z" />
<glyph unicode="&#xc4;" horiz-adv-x="1183" d="M-59 0l604 1341h258l276 -1341h-211l-53 279h-534l-121 -279h-219zM362 467h418l-127 670zM391 1618q0 55 41.5 96t95.5 41q46 0 76.5 -30.5t30.5 -75.5q0 -55 -40.5 -96.5t-92.5 -41.5q-47 0 -79 31t-32 76zM774 1618q0 55 41 96t94 41q46 0 77.5 -31t31.5 -75 q0 -55 -41 -96.5t-94 -41.5q-46 0 -77.5 31.5t-31.5 75.5z" />
<glyph unicode="&#xc5;" horiz-adv-x="1183" d="M-18 0l604 1341q-68 55 -68 148q0 98 70 167.5t166 69.5q81 0 137.5 -55t56.5 -133q0 -60 -28.5 -112t-75.5 -85l276 -1341h-211l-53 279h-534l-121 -279h-219zM403 467h418l-127 670zM635 1497q0 -37 22.5 -60.5t59.5 -23.5q47 0 79.5 34.5t32.5 82.5q0 36 -22.5 59 t-58.5 23q-48 0 -80.5 -34.5t-32.5 -80.5z" />
<glyph unicode="&#xc6;" horiz-adv-x="1484" d="M-18 0l604 1341h909l-25 -198h-464l-43 -359h444l-25 -196h-444l-49 -389h475l-23 -199h-682l33 279h-370l-119 -279h-221zM403 467h312l84 676h-99z" />
<glyph unicode="&#xc7;" horiz-adv-x="1126" d="M121 479q0 142 18.5 266t63 239t112 197.5t173.5 131.5t241 49q113 0 194.5 -31t126.5 -87.5t65.5 -124t21.5 -150.5l-211 -11q0 104 -48 158.5t-163 54.5q-67 0 -123 -23.5t-95 -63t-69 -95.5t-47.5 -115.5t-29 -129.5t-15.5 -131t-4 -126q0 -71 10.5 -124.5t37 -99 t76.5 -69.5t124 -24q122 0 190 60t92 173l209 -10q-13 -72 -41.5 -135.5t-75 -120t-119 -96t-163.5 -53.5q59 -53 59 -135q0 -98 -66 -156.5t-157 -58.5q-34 0 -67.5 6t-50.5 12l-17 6l41 131q43 -14 86 -14q34 0 57 19t23 59q0 32 -27.5 67.5t-69.5 61.5q-362 45 -362 493z " />
<glyph unicode="&#xc8;" horiz-adv-x="1062" d="M74 0l164 1341h794l-24 -198h-588l-43 -359h567l-24 -196h-568l-49 -389h598l-22 -199h-805zM461 1772h221l149 -293h-200z" />
<glyph unicode="&#xc9;" horiz-adv-x="1062" d="M74 0l164 1341h794l-24 -198h-588l-43 -359h567l-24 -196h-568l-49 -389h598l-22 -199h-805zM440 1479l219 293h234l-240 -293h-213z" />
<glyph unicode="&#xca;" horiz-adv-x="1062" d="M74 0l164 1341h794l-24 -198h-588l-43 -359h567l-24 -196h-568l-49 -389h598l-22 -199h-805zM369 1485l206 276h252l142 -276h-174l-101 178l-139 -178h-186z" />
<glyph unicode="&#xcb;" horiz-adv-x="1062" d="M74 0l164 1341h794l-24 -198h-588l-43 -359h567l-24 -196h-568l-49 -389h598l-22 -199h-805zM358 1608q0 55 42 96t96 41q45 0 75.5 -31t30.5 -76q0 -55 -40.5 -96t-92.5 -41q-47 0 -79 31t-32 76zM741 1608q0 55 41.5 96t94.5 41q45 0 76.5 -31.5t31.5 -75.5 q0 -55 -41 -96t-94 -41q-46 0 -77.5 31.5t-31.5 75.5z" />
<glyph unicode="&#xcc;" horiz-adv-x="522" d="M76 0l164 1341h209l-164 -1341h-209zM92 1772h221l150 -293h-201z" />
<glyph unicode="&#xcd;" horiz-adv-x="522" d="M76 0l164 1341h209l-164 -1341h-209zM260 1479l219 293h234l-240 -293h-213z" />
<glyph unicode="&#xce;" horiz-adv-x="522" d="M61 1485l207 276h252l142 -276h-175l-100 178l-139 -178h-187zM76 0l164 1341h209l-164 -1341h-209z" />
<glyph unicode="&#xcf;" horiz-adv-x="522" d="M63 1608q0 55 42 96t96 41q45 0 75.5 -31t30.5 -76q0 -55 -40.5 -96t-92.5 -41q-47 0 -79 31t-32 76zM76 0l164 1341h209l-164 -1341h-209zM446 1608q0 55 41.5 96t94.5 41q46 0 77 -31.5t31 -75.5q0 -55 -41 -96t-94 -41q-46 0 -77.5 31.5t-31.5 75.5z" />
<glyph unicode="&#xd0;" horiz-adv-x="1220" d="M31 596l22 176h158l70 569h452q106 0 187 -31t129 -79.5t78 -118t40.5 -136.5t10.5 -145q0 -86 -9 -168t-30.5 -165.5t-53.5 -156t-81 -136t-110.5 -108.5t-145 -71t-181.5 -26h-450l71 596h-157zM346 199h248q65 0 119.5 22t92.5 58t67 87.5t46.5 106t28.5 118t15 118.5 t4 112q0 55 -6.5 100t-23.5 87.5t-45 71t-73.5 46t-105.5 17.5h-250l-47 -371h311l-22 -176h-310z" />
<glyph unicode="&#xd1;" horiz-adv-x="1253" d="M74 0l164 1341h221l391 -993l123 993h207l-164 -1341h-221l-394 981l-120 -981h-207zM395 1532q41 90 95.5 139t138.5 49q34 0 66.5 -14.5t53 -31.5t47 -31.5t50.5 -14.5q63 0 106 98l123 -38q-33 -90 -94.5 -148.5t-149.5 -58.5q-35 0 -67 14.5t-52.5 31.5t-47 31.5 t-52.5 14.5q-32 0 -56.5 -26.5t-39.5 -67.5z" />
<glyph unicode="&#xd2;" horiz-adv-x="1214" d="M79.5 461q-5.5 122 10.5 245.5t56.5 242.5t97.5 198q156 215 436 215q115 0 195.5 -31t125.5 -80.5t82 -128.5q52 -112 53 -295t-47.5 -364t-130.5 -283q-76 -95 -177.5 -149t-248.5 -54q-171 0 -275 78.5t-142 194.5q-30 89 -35.5 211zM298 688q-35 -245 7 -369 q24 -74 79.5 -112.5t152.5 -38.5q93 0 148.5 28t96.5 76q51 60 87 171t49 224.5t9 217t-26 153.5q-59 133 -225 133q-171 0 -262 -127q-81 -111 -116 -356zM475 1772h221l150 -293h-201z" />
<glyph unicode="&#xd3;" horiz-adv-x="1214" d="M79.5 461q-5.5 122 10.5 245.5t56.5 242.5t97.5 198q156 215 436 215q115 0 195.5 -31t125.5 -80.5t82 -128.5q52 -112 53 -295t-47.5 -364t-130.5 -283q-76 -95 -177.5 -149t-248.5 -54q-171 0 -275 78.5t-142 194.5q-30 89 -35.5 211zM298 688q-35 -245 7 -369 q24 -74 79.5 -112.5t152.5 -38.5q93 0 148.5 28t96.5 76q51 60 87 171t49 224.5t9 217t-26 153.5q-59 133 -225 133q-171 0 -262 -127q-81 -111 -116 -356zM557 1479l219 293h234l-240 -293h-213z" />
<glyph unicode="&#xd4;" horiz-adv-x="1214" d="M79.5 461q-5.5 122 10.5 245.5t56.5 242.5t97.5 198q156 215 436 215q115 0 195.5 -31t125.5 -80.5t82 -128.5q52 -112 53 -295t-47.5 -364t-130.5 -283q-76 -95 -177.5 -149t-248.5 -54q-171 0 -275 78.5t-142 194.5q-30 89 -35.5 211zM298 688q-35 -245 7 -369 q24 -74 79.5 -112.5t152.5 -38.5q93 0 148.5 28t96.5 76q51 60 87 171t49 224.5t9 217t-26 153.5q-59 133 -225 133q-171 0 -262 -127q-81 -111 -116 -356zM412 1485l206 276h252l142 -276h-174l-101 178l-139 -178h-186z" />
<glyph unicode="&#xd5;" horiz-adv-x="1214" d="M79.5 461q-5.5 122 10.5 245.5t56.5 242.5t97.5 198q156 215 436 215q115 0 195.5 -31t125.5 -80.5t82 -128.5q52 -112 53 -295t-47.5 -364t-130.5 -283q-76 -95 -177.5 -149t-248.5 -54q-171 0 -275 78.5t-142 194.5q-30 89 -35.5 211zM298 688q-35 -245 7 -369 q24 -74 79.5 -112.5t152.5 -38.5q93 0 148.5 28t96.5 76q51 60 87 171t49 224.5t9 217t-26 153.5q-59 133 -225 133q-171 0 -262 -127q-81 -111 -116 -356zM377 1532q41 90 95.5 139t137.5 49q34 0 66.5 -14.5t53 -31.5t47 -31.5t50.5 -14.5q64 0 107 98l123 -38 q-33 -90 -94.5 -148.5t-149.5 -58.5q-35 0 -67 14.5t-52.5 31.5t-47 31.5t-52.5 14.5q-32 0 -56.5 -26.5t-39.5 -67.5z" />
<glyph unicode="&#xd6;" horiz-adv-x="1214" d="M79.5 461q-5.5 122 10.5 245.5t56.5 242.5t97.5 198q156 215 436 215q115 0 195.5 -31t125.5 -80.5t82 -128.5q52 -112 53 -295t-47.5 -364t-130.5 -283q-76 -95 -177.5 -149t-248.5 -54q-171 0 -275 78.5t-142 194.5q-30 89 -35.5 211zM298 688q-35 -245 7 -369 q24 -74 79.5 -112.5t152.5 -38.5q93 0 148.5 28t96.5 76q51 60 87 171t49 224.5t9 217t-26 153.5q-59 133 -225 133q-171 0 -262 -127q-81 -111 -116 -356zM408 1608q0 55 41.5 96t95.5 41q45 0 75.5 -31t30.5 -76q0 -55 -40.5 -96t-92.5 -41q-47 0 -78.5 31t-31.5 76z M791 1608q0 55 41 96t94 41q46 0 77 -31.5t31 -75.5q0 -55 -41 -96t-94 -41q-45 0 -76.5 31.5t-31.5 75.5z" />
<glyph unicode="&#xd7;" horiz-adv-x="1198" d="M145 305l375 334l-284 324l124 112l285 -325l369 329l106 -121l-368 -329l288 -328l-125 -113l-288 330l-375 -334z" />
<glyph unicode="&#xd8;" horiz-adv-x="1220" d="M119 -102l119 211q-56 62 -82 141q-30 89 -35.5 211t10.5 245.5t56.5 242.5t97.5 198q156 215 436 215q123 0 207 -35l112 199l138 -76l-123 -215q35 -40 69 -113q52 -112 53 -295t-47.5 -364t-130.5 -283q-76 -95 -177.5 -149t-248.5 -54q-109 0 -206 39l-113 -198z M321 469.5q2 -105.5 29 -162.5l477 844q-44 20 -110 20q-171 0 -262 -127q-37 -51 -69 -151.5t-49.5 -209t-15.5 -214zM463 186q47 -18 115 -18q93 0 148.5 28t96.5 76q50 59 85.5 169t48.5 222.5t9.5 215.5t-24.5 155z" />
<glyph unicode="&#xd9;" horiz-adv-x="1173" d="M100.5 358.5q-0.5 38.5 1 59t4.5 45.5l109 878h207l-109 -878q-3 -25 -4 -38t-2.5 -40.5t0.5 -44.5t7.5 -42.5t15 -41.5t26 -34.5t38.5 -29t53.5 -17.5t70.5 -7q58 0 104.5 14t76 40t50 53.5t32.5 65t17 63.5t9 59l108 878h207l-108 -878q-4 -35 -8.5 -62t-19.5 -80.5 t-35.5 -94.5t-60 -89.5t-89.5 -80.5t-126.5 -54t-168.5 -22q-72 0 -131.5 13.5t-100.5 34.5t-72.5 53.5t-50 63.5t-30 72t-16 72t-5 69.5zM455 1772h221l149 -293h-200z" />
<glyph unicode="&#xda;" horiz-adv-x="1173" d="M100.5 358.5q-0.5 38.5 1 59t4.5 45.5l109 878h207l-109 -878q-3 -25 -4 -38t-2.5 -40.5t0.5 -44.5t7.5 -42.5t15 -41.5t26 -34.5t38.5 -29t53.5 -17.5t70.5 -7q58 0 104.5 14t76 40t50 53.5t32.5 65t17 63.5t9 59l108 878h207l-108 -878q-4 -35 -8.5 -62t-19.5 -80.5 t-35.5 -94.5t-60 -89.5t-89.5 -80.5t-126.5 -54t-168.5 -22q-72 0 -131.5 13.5t-100.5 34.5t-72.5 53.5t-50 63.5t-30 72t-16 72t-5 69.5zM537 1479l219 293h233l-239 -293h-213z" />
<glyph unicode="&#xdb;" horiz-adv-x="1173" d="M100.5 358.5q-0.5 38.5 1 59t4.5 45.5l109 878h207l-109 -878q-3 -25 -4 -38t-2.5 -40.5t0.5 -44.5t7.5 -42.5t15 -41.5t26 -34.5t38.5 -29t53.5 -17.5t70.5 -7q58 0 104.5 14t76 40t50 53.5t32.5 65t17 63.5t9 59l108 878h207l-108 -878q-4 -35 -8.5 -62t-19.5 -80.5 t-35.5 -94.5t-60 -89.5t-89.5 -80.5t-126.5 -54t-168.5 -22q-72 0 -131.5 13.5t-100.5 34.5t-72.5 53.5t-50 63.5t-30 72t-16 72t-5 69.5zM383 1485l207 276h252l141 -276h-174l-100 178l-140 -178h-186z" />
<glyph unicode="&#xdc;" horiz-adv-x="1173" d="M100.5 358.5q-0.5 38.5 1 59t4.5 45.5l109 878h207l-109 -878q-3 -25 -4 -38t-2.5 -40.5t0.5 -44.5t7.5 -42.5t15 -41.5t26 -34.5t38.5 -29t53.5 -17.5t70.5 -7q58 0 104.5 14t76 40t50 53.5t32.5 65t17 63.5t9 59l108 878h207l-108 -878q-4 -35 -8.5 -62t-19.5 -80.5 t-35.5 -94.5t-60 -89.5t-89.5 -80.5t-126.5 -54t-168.5 -22q-72 0 -131.5 13.5t-100.5 34.5t-72.5 53.5t-50 63.5t-30 72t-16 72t-5 69.5zM385 1608q0 55 41.5 96t95.5 41q45 0 76 -31t31 -76q0 -55 -40.5 -96t-92.5 -41q-47 0 -79 31t-32 76zM768 1608q0 55 41 96t94 41 q46 0 77.5 -31.5t31.5 -75.5q0 -55 -41 -96t-94 -41q-46 0 -77.5 31.5t-31.5 75.5z" />
<glyph unicode="&#xdd;" horiz-adv-x="1083" d="M94 1341h232l225 -579l367 579h237l-522 -780l-68 -561h-207l68 561zM432 1479l219 293h234l-240 -293h-213z" />
<glyph unicode="&#xde;" horiz-adv-x="1134" d="M117 0l164 1341h206l-32 -270h266q195 0 293 -84t98 -237q0 -90 -29.5 -167.5t-86.5 -137.5t-149.5 -94t-209.5 -34h-275l-38 -317h-207zM385 514h272q60 0 105 13.5t71 35t42.5 51t22 57.5t5.5 60q0 29 -7 50.5t-26 44t-61 34.5t-104 12h-277z" />
<glyph unicode="&#xdf;" horiz-adv-x="1140" d="M127 0l117 965q12 107 34 162q86 219 402 219q94 0 165.5 -23t111 -57.5t64.5 -81t32.5 -85.5t7.5 -79q0 -106 -58.5 -192t-152.5 -123q69 -21 117 -69t67 -100t19 -106q0 -189 -139 -309.5t-351 -120.5h-76l23 184h63q121 0 199 62.5t78 177.5q0 24 -4.5 46t-18.5 47.5 t-37 43.5t-63.5 30.5t-93.5 12.5h-45l22 187q115 0 182.5 55t67.5 164q0 151 -192 151q-42 0 -76 -8t-56 -19t-39.5 -30.5t-26 -34t-15.5 -38.5t-8.5 -35t-4.5 -31l-116 -965h-199z" />
<glyph unicode="&#xe0;" d="M41 434q9 122 56 240t122 182q111 96 268 96q167 0 246 -118l17 98h182l-115 -932h-184l10 100q-102 -120 -262 -120q-111 0 -195 55q-80 52 -117 164.5t-28 234.5zM240 339q10 -108 65 -153q39 -32 115 -32q34 0 65.5 7t72.5 32t70 66t49.5 117.5t20.5 178.5 q0 57 -12 99t-29.5 65t-44 37t-49.5 18t-51 4q-96 0 -160 -59q-57 -53 -89.5 -162.5t-22.5 -217.5zM340 1362h221l150 -293h-201z" />
<glyph unicode="&#xe1;" d="M41 434q9 122 56 240t122 182q111 96 268 96q167 0 246 -118l17 98h182l-115 -932h-184l10 100q-102 -120 -262 -120q-111 0 -195 55q-80 52 -117 164.5t-28 234.5zM240 339q10 -108 65 -153q39 -32 115 -32q34 0 65.5 7t72.5 32t70 66t49.5 117.5t20.5 178.5 q0 57 -12 99t-29.5 65t-44 37t-49.5 18t-51 4q-96 0 -160 -59q-57 -53 -89.5 -162.5t-22.5 -217.5zM399 1069l219 293h234l-240 -293h-213z" />
<glyph unicode="&#xe2;" d="M41 434q9 122 56 240t122 182q111 96 268 96q167 0 246 -118l17 98h182l-115 -932h-184l10 100q-102 -120 -262 -120q-111 0 -195 55q-80 52 -117 164.5t-28 234.5zM240 339q10 -108 65 -153q39 -32 115 -32q34 0 65.5 7t72.5 32t70 66t49.5 117.5t20.5 178.5 q0 57 -12 99t-29.5 65t-44 37t-49.5 18t-51 4q-96 0 -160 -59q-57 -53 -89.5 -162.5t-22.5 -217.5zM272 1085l207 277h252l141 -277h-174l-100 179l-139 -179h-187z" />
<glyph unicode="&#xe3;" d="M41 434q9 122 56 240t122 182q111 96 268 96q167 0 246 -118l17 98h182l-115 -932h-184l10 100q-102 -120 -262 -120q-111 0 -195 55q-80 52 -117 164.5t-28 234.5zM240 339q10 -108 65 -153q39 -32 115 -32q34 0 65.5 7t72.5 32t70 66t49.5 117.5t20.5 178.5 q0 57 -12 99t-29.5 65t-44 37t-49.5 18t-51 4q-96 0 -160 -59q-57 -53 -89.5 -162.5t-22.5 -217.5zM244 1133q41 90 95.5 139t137.5 49q34 0 66.5 -14.5t53 -31.5t47 -31.5t50.5 -14.5q64 0 107 98l123 -39q-33 -90 -94.5 -148.5t-149.5 -58.5q-44 0 -82.5 23.5t-71.5 46.5 t-65 23q-62 0 -96 -95z" />
<glyph unicode="&#xe4;" d="M41 434q9 122 56 240t122 182q111 96 268 96q167 0 246 -118l17 98h182l-115 -932h-184l10 100q-102 -120 -262 -120q-111 0 -195 55q-80 52 -117 164.5t-28 234.5zM240 339q10 -108 65 -153q39 -32 115 -32q34 0 65.5 7t72.5 32t70 66t49.5 117.5t20.5 178.5 q0 57 -12 99t-29.5 65t-44 37t-49.5 18t-51 4q-96 0 -160 -59q-57 -53 -89.5 -162.5t-22.5 -217.5zM264 1208q0 55 41.5 96.5t95.5 41.5q45 0 76 -31t31 -76q0 -55 -40.5 -96t-92.5 -41q-47 0 -79 31t-32 75zM647 1208q0 55 41 96.5t94 41.5q46 0 77.5 -31.5t31.5 -75.5 q0 -55 -41 -96t-94 -41q-46 0 -77.5 31t-31.5 75z" />
<glyph unicode="&#xe5;" horiz-adv-x="1021" d="M39 434q9 122 56 240t122 182q111 96 268 96q167 0 246 -118l17 98h182l-115 -932h-184l10 100q-102 -120 -262 -120q-111 0 -195 55q-80 52 -117 164.5t-28 234.5zM238 339q10 -108 65 -153q39 -32 115 -32q34 0 65.5 7t72.5 32t70 66t49.5 117.5t20.5 178.5 q0 57 -12 99t-29.5 65t-44 37t-49.5 18t-51 4q-96 0 -160 -59q-57 -53 -89.5 -162.5t-22.5 -217.5zM362 1217q0 98 70 167.5t166 69.5q82 0 138.5 -55t56.5 -133q0 -96 -71 -167t-167 -71q-82 0 -137.5 54.5t-55.5 134.5zM479 1225q0 -37 22.5 -60.5t59.5 -23.5q47 0 80 34 t33 82q0 36 -23 59t-59 23q-48 0 -80.5 -34t-32.5 -80z" />
<glyph unicode="&#xe6;" horiz-adv-x="1566" d="M61 242q0 64 24.5 115.5t70 86.5t101 58.5t124.5 38.5l297 61l2 14q10 91 -27.5 129.5t-128.5 38.5q-97 0 -142.5 -31t-64.5 -110l-184 16q60 293 399 293q213 0 281 -139q52 55 122 88t119.5 42t96.5 9q31 0 58.5 -2.5t64.5 -12t67.5 -24.5t61.5 -43t52 -65.5 t34.5 -94.5t13.5 -126q0 -39 -4.5 -85.5t-8.5 -72.5l-5 -27h-639v-22q0 -225 205 -225q88 0 142 32.5t79 114.5l190 -12q-22 -73 -60.5 -129t-80.5 -89t-93 -54t-95 -28t-89 -7q-228 0 -321 159q-61 -81 -153.5 -120t-190.5 -39q-148 0 -233 68t-85 194zM252 248 q0 -50 35.5 -77.5t103.5 -27.5q100 0 173 56.5t87 169.5l8 67q-159 -28 -270 -57q-68 -18 -102.5 -48.5t-34.5 -82.5zM868 565h439q13 95 -27.5 155t-136.5 60q-215 0 -275 -215z" />
<glyph unicode="&#xe7;" horiz-adv-x="944" d="M90 365q0 115 22 208.5t55 153.5t80.5 104.5t90.5 66.5t93 35.5t79.5 16t58.5 2.5q25 0 49.5 -2t60 -9t65.5 -19t62 -34.5t54 -52.5t36.5 -76.5t14.5 -103.5l-192 -12q-5 137 -160 137q-23 0 -44.5 -3t-50.5 -13.5t-53.5 -27t-49 -47.5t-41.5 -71.5t-28 -101.5t-11 -135 q0 -73 17 -121.5t47.5 -70.5t58.5 -29.5t65 -7.5q175 0 215 147l193 -12q-20 -77 -58.5 -135t-86.5 -91t-92.5 -50t-92.5 -25q57 -45 57 -133q0 -98 -66 -156.5t-157 -58.5q-34 0 -67.5 6t-50.5 12l-17 6l41 131q43 -14 86 -14q34 0 57 19t23 59q0 37 -33 76t-82 63 q-248 63 -248 369z" />
<glyph unicode="&#xe8;" horiz-adv-x="999" d="M49 369q0 108 21 197.5t54.5 148.5t79.5 104t91 69.5t95 39.5t85 19.5t68 4.5q31 0 58.5 -2.5t64.5 -12t67.5 -24.5t61.5 -43t52 -65.5t34.5 -94.5t13.5 -126q0 -39 -4.5 -85.5t-8.5 -72.5l-5 -27h-639v-22q0 -225 204 -225q88 0 142.5 32.5t79.5 114.5l190 -12 q-22 -73 -60.5 -129t-80.5 -89t-93 -54t-95 -28t-89 -7q-49 0 -95 7.5t-101.5 33t-95.5 66t-67.5 113.5t-27.5 169zM258 561h440q14 97 -25.5 158t-137.5 61q-217 0 -277 -219zM360 1362h222l149 -293h-201z" />
<glyph unicode="&#xe9;" horiz-adv-x="999" d="M49 369q0 108 21 197.5t54.5 148.5t79.5 104t91 69.5t95 39.5t85 19.5t68 4.5q31 0 58.5 -2.5t64.5 -12t67.5 -24.5t61.5 -43t52 -65.5t34.5 -94.5t13.5 -126q0 -39 -4.5 -85.5t-8.5 -72.5l-5 -27h-639v-22q0 -225 204 -225q88 0 142.5 32.5t79.5 114.5l190 -12 q-22 -73 -60.5 -129t-80.5 -89t-93 -54t-95 -28t-89 -7q-49 0 -95 7.5t-101.5 33t-95.5 66t-67.5 113.5t-27.5 169zM258 561h440q14 97 -25.5 158t-137.5 61q-217 0 -277 -219zM401 1069l220 293h233l-240 -293h-213z" />
<glyph unicode="&#xea;" horiz-adv-x="999" d="M49 369q0 108 21 197.5t54.5 148.5t79.5 104t91 69.5t95 39.5t85 19.5t68 4.5q31 0 58.5 -2.5t64.5 -12t67.5 -24.5t61.5 -43t52 -65.5t34.5 -94.5t13.5 -126q0 -39 -4.5 -85.5t-8.5 -72.5l-5 -27h-639v-22q0 -225 204 -225q88 0 142.5 32.5t79.5 114.5l190 -12 q-22 -73 -60.5 -129t-80.5 -89t-93 -54t-95 -28t-89 -7q-49 0 -95 7.5t-101.5 33t-95.5 66t-67.5 113.5t-27.5 169zM258 561h440q14 97 -25.5 158t-137.5 61q-217 0 -277 -219zM268 1085l207 277h252l141 -277h-174l-100 179l-139 -179h-187z" />
<glyph unicode="&#xeb;" horiz-adv-x="999" d="M49 369q0 108 21 197.5t54.5 148.5t79.5 104t91 69.5t95 39.5t85 19.5t68 4.5q31 0 58.5 -2.5t64.5 -12t67.5 -24.5t61.5 -43t52 -65.5t34.5 -94.5t13.5 -126q0 -39 -4.5 -85.5t-8.5 -72.5l-5 -27h-639v-22q0 -225 204 -225q88 0 142.5 32.5t79.5 114.5l190 -12 q-22 -73 -60.5 -129t-80.5 -89t-93 -54t-95 -28t-89 -7q-49 0 -95 7.5t-101.5 33t-95.5 66t-67.5 113.5t-27.5 169zM258 561h440q14 97 -25.5 158t-137.5 61q-217 0 -277 -219zM268 1208q0 55 42 96.5t96 41.5q45 0 75.5 -31t30.5 -76q0 -55 -40.5 -96t-92.5 -41 q-47 0 -79 31t-32 75zM651 1208q0 55 41 96.5t94 41.5q46 0 77.5 -31.5t31.5 -75.5q0 -55 -41 -96t-94 -41q-46 0 -77.5 31t-31.5 75z" />
<glyph unicode="&#xec;" horiz-adv-x="440" d="M-4 1362h221l150 -293h-201zM41 0l113 932h194l-112 -932h-195z" />
<glyph unicode="&#xed;" horiz-adv-x="440" d="M41 0l113 932h194l-112 -932h-195zM172 1069l219 293h234l-240 -293h-213z" />
<glyph unicode="&#xee;" horiz-adv-x="440" d="M-29 1085l207 277h252l141 -277h-174l-100 179l-139 -179h-187zM41 0l113 932h194l-112 -932h-195z" />
<glyph unicode="&#xef;" horiz-adv-x="440" d="M-27 1208q0 55 42 96.5t96 41.5q45 0 75.5 -31t30.5 -76q0 -55 -40.5 -96t-92.5 -41q-47 0 -79 31t-32 75zM41 0l113 932h194l-112 -932h-195zM356 1208q0 55 41.5 96.5t94.5 41.5q46 0 77 -31t31 -76q0 -55 -41 -96t-94 -41q-46 0 -77.5 31t-31.5 75z" />
<glyph unicode="&#xf0;" horiz-adv-x="1087" d="M115 385q0 98 21.5 178t54.5 131.5t80 90t90 58t93 31.5t80.5 14.5t59.5 2.5q66 0 138.5 -28.5t113.5 -84.5q0 12 1 38t1 38q0 156 -72 240l-106 -119l-101 88l90 98q-44 13 -92 13q-42 0 -88.5 -6t-72.5 -12l-25 -5l-8 188q90 23 205 23q138 0 225 -43l137 151l98 -88 l-125 -139q136 -139 136 -444q0 -187 -29.5 -331.5t-79 -235t-121 -148.5t-148 -81t-167.5 -23q-25 0 -52 2.5t-67 12.5t-75 26.5t-72 47.5t-63 72t-43 104t-17 140zM324 387q0 -64 17 -109.5t46.5 -68t60 -32t66.5 -9.5q33 0 64.5 5t75 25t75.5 54t55 98.5t23 151.5 q0 58 -19.5 100.5t-52 65t-65.5 33t-68 10.5q-36 0 -68.5 -6t-72.5 -26.5t-69 -54t-48.5 -95t-19.5 -142.5z" />
<glyph unicode="&#xf1;" horiz-adv-x="1009" d="M41 0l113 932h188l-2 -88q97 108 252 108q43 0 77.5 -4.5t83.5 -26.5t79.5 -61t47 -115.5t3.5 -181.5l-68 -563h-194l67 563q6 34 4 61.5t-4 48.5t-11.5 37t-17 27t-21 18.5t-23.5 12t-24.5 7t-24 3t-21.5 0.5q-23 0 -44.5 -2.5t-56 -13.5t-60.5 -31t-49 -59.5t-30 -93.5 l-69 -578h-195zM227 1133q41 90 95.5 139t138.5 49q34 0 66.5 -14.5t53 -31.5t47 -31.5t50.5 -14.5q63 0 106 98l123 -39q-33 -90 -94 -148.5t-149 -58.5q-35 0 -67 14.5t-52.5 32t-47.5 32t-53 14.5q-62 0 -96 -95z" />
<glyph unicode="&#xf2;" horiz-adv-x="1015" d="M48 366.5q-5 149.5 47 285t141 206.5q117 94 299 94q220 0 315 -145q62 -95 67.5 -241t-49 -287t-155.5 -216q-45 -34 -106.5 -54t-100 -24.5t-72.5 -4.5q-222 0 -313 135q-68 102 -73 251.5zM236 378.5q2 -101.5 43 -159.5q48 -67 161 -67q101 0 168 53q38 31 67 95.5 t42 136t8 145t-31 120.5q-24 43 -70.5 60.5t-95.5 17.5q-112 0 -184 -67q-48 -45 -79 -139t-29 -195.5zM328 1362h221l149 -293h-200z" />
<glyph unicode="&#xf3;" horiz-adv-x="1015" d="M48 366.5q-5 149.5 47 285t141 206.5q117 94 299 94q220 0 315 -145q62 -95 67.5 -241t-49 -287t-155.5 -216q-45 -34 -106.5 -54t-100 -24.5t-72.5 -4.5q-222 0 -313 135q-68 102 -73 251.5zM236 378.5q2 -101.5 43 -159.5q48 -67 161 -67q101 0 168 53q38 31 67 95.5 t42 136t8 145t-31 120.5q-24 43 -70.5 60.5t-95.5 17.5q-112 0 -184 -67q-48 -45 -79 -139t-29 -195.5zM410 1069l219 293h233l-239 -293h-213z" />
<glyph unicode="&#xf4;" horiz-adv-x="1015" d="M48 366.5q-5 149.5 47 285t141 206.5q117 94 299 94q220 0 315 -145q62 -95 67.5 -241t-49 -287t-155.5 -216q-45 -34 -106.5 -54t-100 -24.5t-72.5 -4.5q-222 0 -313 135q-68 102 -73 251.5zM236 378.5q2 -101.5 43 -159.5q48 -67 161 -67q101 0 168 53q38 31 67 95.5 t42 136t8 145t-31 120.5q-24 43 -70.5 60.5t-95.5 17.5q-112 0 -184 -67q-48 -45 -79 -139t-29 -195.5zM262 1085l207 277h252l141 -277h-174l-100 179l-139 -179h-187z" />
<glyph unicode="&#xf5;" horiz-adv-x="1015" d="M48 366.5q-5 149.5 47 285t141 206.5q117 94 299 94q220 0 315 -145q62 -95 67.5 -241t-49 -287t-155.5 -216q-45 -34 -106.5 -54t-100 -24.5t-72.5 -4.5q-222 0 -313 135q-68 102 -73 251.5zM231 1133q41 90 95.5 139t138.5 49q34 0 66.5 -14.5t53 -31.5t47 -31.5 t50.5 -14.5q63 0 106 98l123 -39q-33 -90 -94 -148.5t-149 -58.5q-44 0 -82.5 23.5t-71.5 46.5t-65 23t-57 -27t-40 -68zM236 378.5q2 -101.5 43 -159.5q48 -67 161 -67q101 0 168 53q38 31 67 95.5t42 136t8 145t-31 120.5q-24 43 -70.5 60.5t-95.5 17.5q-112 0 -184 -67 q-48 -45 -79 -139t-29 -195.5z" />
<glyph unicode="&#xf6;" horiz-adv-x="1015" d="M48 366.5q-5 149.5 47 285t141 206.5q117 94 299 94q220 0 315 -145q62 -95 67.5 -241t-49 -287t-155.5 -216q-45 -34 -106.5 -54t-100 -24.5t-72.5 -4.5q-222 0 -313 135q-68 102 -73 251.5zM236 378.5q2 -101.5 43 -159.5q48 -67 161 -67q101 0 168 53q38 31 67 95.5 t42 136t8 145t-31 120.5q-24 43 -70.5 60.5t-95.5 17.5q-112 0 -184 -67q-48 -45 -79 -139t-29 -195.5zM264 1208q0 55 41.5 96.5t95.5 41.5q45 0 76 -31t31 -76q0 -55 -40.5 -96t-92.5 -41q-47 0 -79 31t-32 75zM647 1208q0 55 41 96.5t94 41.5q46 0 77.5 -31.5t31.5 -75.5 q0 -55 -41 -96t-94 -41q-46 0 -77.5 31t-31.5 75z" />
<glyph unicode="&#xf7;" horiz-adv-x="1218" d="M139 555l21 166h911l-20 -166h-912zM420 279q0 62 48.5 107.5t109.5 45.5q52 0 85 -34t33 -85q0 -63 -45 -109t-108 -46q-53 0 -88 35t-35 86zM502 948q0 62 48 108t109 46q52 0 85.5 -34t33.5 -85q0 -63 -45 -109.5t-108 -46.5q-53 0 -88 34.5t-35 86.5z" />
<glyph unicode="&#xf8;" horiz-adv-x="1015" d="M88.5 366.5q-5.5 149.5 46.5 285.5t141 206q117 94 299 94q72 0 134 -18l84 149l118 -65l-82 -144q36 -28 62 -67q62 -95 67.5 -241t-49 -287t-155.5 -216q-45 -34 -106.5 -54t-100 -24.5t-72.5 -4.5q-79 0 -141 18l-78 -139l-119 67l74 133q-28 22 -49 56 q-68 102 -73.5 251.5zM275.5 394.5q-0.5 -91.5 33.5 -161.5l309 543q-36 4 -49 4q-112 0 -184 -67q-46 -43 -77.5 -135t-32 -183.5zM424 156q20 -4 57 -4q101 0 168 53q38 31 67 95.5t42 136t8 145t-31 120.5q-2 1 -2 3z" />
<glyph unicode="&#xf9;" horiz-adv-x="1009" d="M76 369l67 563h195l-68 -563q-6 -34 -4 -61.5t4 -48.5t11.5 -37t17.5 -27t21 -18.5t23.5 -12t24.5 -7t24 -3t22 -0.5q23 0 44 2.5t56 13.5t60.5 31t48.5 59.5t30 93.5l70 578h195l-113 -932h-189l2 86q-95 -106 -251 -106q-43 0 -77.5 4.5t-83.5 26.5t-79.5 61t-47 115.5 t-3.5 181.5zM346 1362h221l150 -293h-201z" />
<glyph unicode="&#xfa;" horiz-adv-x="1009" d="M76 369l67 563h195l-68 -563q-6 -34 -4 -61.5t4 -48.5t11.5 -37t17.5 -27t21 -18.5t23.5 -12t24.5 -7t24 -3t22 -0.5q23 0 44 2.5t56 13.5t60.5 31t48.5 59.5t30 93.5l70 578h195l-113 -932h-189l2 86q-95 -106 -251 -106q-43 0 -77.5 4.5t-83.5 26.5t-79.5 61t-47 115.5 t-3.5 181.5zM387 1069l219 293h234l-240 -293h-213z" />
<glyph unicode="&#xfb;" horiz-adv-x="1009" d="M76 369l67 563h195l-68 -563q-6 -34 -4 -61.5t4 -48.5t11.5 -37t17.5 -27t21 -18.5t23.5 -12t24.5 -7t24 -3t22 -0.5q23 0 44 2.5t56 13.5t60.5 31t48.5 59.5t30 93.5l70 578h195l-113 -932h-189l2 86q-95 -106 -251 -106q-43 0 -77.5 4.5t-83.5 26.5t-79.5 61t-47 115.5 t-3.5 181.5zM256 1085l207 277h252l141 -277h-174l-100 179l-140 -179h-186z" />
<glyph unicode="&#xfc;" horiz-adv-x="1009" d="M76 369l67 563h195l-68 -563q-6 -34 -4 -61.5t4 -48.5t11.5 -37t17.5 -27t21 -18.5t23.5 -12t24.5 -7t24 -3t22 -0.5q23 0 44 2.5t56 13.5t60.5 31t48.5 59.5t30 93.5l70 578h195l-113 -932h-189l2 86q-95 -106 -251 -106q-43 0 -77.5 4.5t-83.5 26.5t-79.5 61t-47 115.5 t-3.5 181.5zM258 1208q0 55 41.5 96.5t95.5 41.5q45 0 76 -31t31 -76q0 -55 -40.5 -96t-92.5 -41q-47 0 -79 31t-32 75zM641 1208q0 55 41 96.5t94 41.5q46 0 77.5 -31.5t31.5 -75.5q0 -55 -41 -96t-94 -41q-46 0 -77.5 31t-31.5 75z" />
<glyph unicode="&#xfd;" horiz-adv-x="876" d="M-66 -424l23 176q42 -4 73 -5t58 4t44.5 9t35 19t27 25t23.5 36.5t22 44t24 56.5l25 59h-49l-193 932h201l129 -737l307 737h207l-479 -1075q-57 -129 -111 -190t-138 -83t-229 -8zM279 1069l219 293h233l-239 -293h-213z" />
<glyph unicode="&#xfe;" d="M31 -410l215 1751h194l-61 -503q100 114 258 114q29 0 52.5 -2t59 -10.5t63 -23.5t57 -44.5t49 -69.5t32.5 -102t13 -139q0 -104 -17.5 -190.5t-45.5 -145.5t-66.5 -104t-77.5 -71t-82 -42.5t-76 -22t-63 -5.5q-176 0 -248 116l-62 -506h-194zM313 379q0 -225 191 -225 q264 0 264 407q0 68 -14 113t-41 66.5t-55.5 29.5t-67.5 8q-22 0 -44 -3t-50.5 -14t-52.5 -28t-49 -48t-42 -71.5t-28 -100.5t-11 -134z" />
<glyph unicode="&#xff;" horiz-adv-x="876" d="M-66 -424l23 176q42 -4 73 -5t58 4t44.5 9t35 19t27 25t23.5 36.5t22 44t24 56.5l25 59h-49l-193 932h201l129 -737l307 737h207l-479 -1075q-57 -129 -111 -190t-138 -83t-229 -8zM193 1208q0 55 41.5 96.5t95.5 41.5q45 0 75.5 -31t30.5 -76q0 -55 -40.5 -96t-92.5 -41 q-47 0 -78.5 30.5t-31.5 75.5zM575 1208q0 55 41.5 96.5t94.5 41.5q45 0 76.5 -31t31.5 -76q0 -55 -41 -96t-94 -41q-46 0 -77.5 31t-31.5 75z" />
<glyph unicode="&#x152;" horiz-adv-x="1581" d="M131 459q0 160 19.5 295.5t62.5 248.5t107.5 192t157 123t208.5 44q60 0 122.5 -21.5t102.5 -58.5l9 59h671l-24 -198h-465l-43 -359h444l-24 -196h-445l-49 -389h475l-22 -199h-682l6 61q-101 -81 -234 -81q-95 0 -167 29t-115 74.5t-69.5 110.5t-36 128.5t-9.5 136.5z M340 451q0 -132 44.5 -206.5t154.5 -74.5q49 0 89 15.5t68 39.5t51 65.5t37 79t26.5 95.5t19 100.5t14.5 106.5q20 168 20 248q0 119 -42 185t-148 66q-68 0 -122 -33.5t-89.5 -92t-60.5 -129t-38 -155.5t-18.5 -159t-5.5 -151z" />
<glyph unicode="&#x153;" horiz-adv-x="1656" d="M88 391q0 140 51 269.5t137 197.5q117 94 299 94q220 0 304 -164q41 50 92 84.5t102 50.5t91 22.5t77 6.5q31 0 58.5 -2.5t64.5 -12t67.5 -24.5t61.5 -43t52 -65.5t34.5 -94.5t13.5 -126q0 -39 -4.5 -85.5t-8.5 -72.5l-5 -27h-639v-22q0 -225 205 -225q88 0 142 32.5 t79 114.5l190 -12q-28 -90 -77.5 -154t-110 -95.5t-116 -44.5t-113.5 -13q-233 0 -324 161q-122 -161 -336 -161q-30 0 -59 3t-69 13.5t-74 27.5t-69 48.5t-60 73.5t-40.5 105t-15.5 140zM276 391q0 -69 17.5 -118t48 -74.5t64.5 -36t75 -10.5q101 0 168 53q53 42 86 140.5 t33 199.5q0 235 -199 235q-112 0 -184 -67q-47 -44 -78 -136.5t-31 -185.5zM958 565h439q2 14 2 45q0 77 -41 123.5t-125 46.5q-215 0 -275 -215z" />
<glyph unicode="&#x178;" horiz-adv-x="1083" d="M94 1341h232l225 -579l367 579h237l-522 -780l-68 -561h-207l68 561zM342 1608q0 55 41.5 96t95.5 41q45 0 76 -31t31 -76q0 -55 -40.5 -96t-92.5 -41q-47 0 -79 31t-32 76zM725 1608q0 55 41 96t94 41q46 0 77.5 -31.5t31.5 -75.5q0 -55 -41 -96t-94 -41 q-46 0 -77.5 31.5t-31.5 75.5z" />
<glyph unicode="&#x2c6;" horiz-adv-x="940" d="M262 1085l207 277h252l141 -277h-174l-100 179l-139 -179h-187z" />
<glyph unicode="&#x2dc;" horiz-adv-x="987" d="M258 1133q41 90 95.5 139t138.5 49q34 0 66.5 -14.5t53 -31.5t47 -31.5t50.5 -14.5q63 0 106 98l123 -39q-33 -90 -94.5 -148.5t-149.5 -58.5q-44 0 -82.5 23.5t-71.5 46.5t-65 23q-62 0 -96 -95z" />
<glyph unicode="&#x2000;" horiz-adv-x="886" />
<glyph unicode="&#x2001;" horiz-adv-x="1772" />
<glyph unicode="&#x2002;" horiz-adv-x="886" />
<glyph unicode="&#x2003;" horiz-adv-x="1772" />
<glyph unicode="&#x2004;" horiz-adv-x="590" />
<glyph unicode="&#x2005;" horiz-adv-x="443" />
<glyph unicode="&#x2006;" horiz-adv-x="295" />
<glyph unicode="&#x2007;" horiz-adv-x="295" />
<glyph unicode="&#x2008;" horiz-adv-x="221" />
<glyph unicode="&#x2009;" horiz-adv-x="354" />
<glyph unicode="&#x200a;" horiz-adv-x="98" />
<glyph unicode="&#x2010;" horiz-adv-x="933" d="M168 467l22 176h633l-22 -176h-633z" />
<glyph unicode="&#x2011;" horiz-adv-x="933" d="M168 467l22 176h633l-22 -176h-633z" />
<glyph unicode="&#x2012;" horiz-adv-x="933" d="M168 467l22 176h633l-22 -176h-633z" />
<glyph unicode="&#x2013;" horiz-adv-x="1259" d="M168 467l22 176h953l-23 -176h-952z" />
<glyph unicode="&#x2014;" horiz-adv-x="2209" d="M168 467l22 176h1903l-22 -176h-1903z" />
<glyph unicode="&#x2018;" horiz-adv-x="569" d="M242 1057q0 140 78.5 222.5t179.5 82.5l39 -4l2 -88q-15 2 -27 2q-59 0 -91 -33t-32 -82v-8h15q49 0 82.5 -32.5t33.5 -78.5q0 -58 -41 -99.5t-102 -41.5q-59 0 -98 42.5t-39 117.5z" />
<glyph unicode="&#x2019;" horiz-adv-x="569" d="M180 989q15 -2 27 -2q59 0 91 33t32 82v8h-15q-49 0 -82.5 32.5t-33.5 78.5q0 58 41 99.5t102 41.5q59 0 98 -42.5t39 -117.5q0 -140 -78.5 -222.5t-179.5 -82.5l-39 4z" />
<glyph unicode="&#x201a;" horiz-adv-x="561" d="M47 -117q15 -2 25 -2q57 0 89 32t32 79v8h-15q-47 0 -81 31t-34 75q0 56 41 97t99 41t95.5 -40.5t37.5 -113.5q0 -136 -76.5 -216.5t-173.5 -80.5l-37 4z" />
<glyph unicode="&#x201c;" horiz-adv-x="958" d="M180 1057q0 140 78.5 222.5t179.5 82.5l39 -4l2 -88q-14 2 -26 2q-59 0 -91 -33t-32 -82v-8h14q49 0 83 -32.5t34 -78.5q0 -58 -41.5 -99.5t-102.5 -41.5q-59 0 -98 42.5t-39 117.5zM569 1057q0 140 78.5 222.5t179.5 82.5l39 -4l2 -88q-14 2 -26 2q-59 0 -91 -33 t-32 -82v-8h14q49 0 83 -32.5t34 -78.5q0 -58 -41 -99.5t-102 -41.5q-60 0 -99 42.5t-39 117.5z" />
<glyph unicode="&#x201d;" horiz-adv-x="958" d="M180 989q15 -2 27 -2q59 0 91 33t32 82v8h-15q-49 0 -82.5 32.5t-33.5 78.5q0 58 41 99.5t102 41.5q59 0 98 -42.5t39 -117.5q0 -140 -78.5 -222.5t-179.5 -82.5l-39 4zM569 989q15 -2 27 -2q59 0 91 33t32 82v8h-14q-49 0 -83 32.5t-34 78.5q0 58 41 99.5t102 41.5 q59 0 98 -42.5t39 -117.5q0 -140 -78.5 -222.5t-179.5 -82.5l-39 4z" />
<glyph unicode="&#x201e;" horiz-adv-x="950" d="M47 -117q15 -2 25 -2q57 0 89 32t32 79v8h-15q-47 0 -81 31t-34 75q0 56 41 97t99 41t95.5 -40.5t37.5 -113.5q0 -136 -76.5 -216.5t-173.5 -80.5l-37 4zM436 -117q15 -2 25 -2q57 0 89 32t32 79v8h-15q-47 0 -80.5 31t-33.5 75q0 56 40.5 97t98.5 41t95.5 -40.5 t37.5 -113.5q0 -136 -76.5 -216.5t-173.5 -80.5l-37 4z" />
<glyph unicode="&#x2022;" horiz-adv-x="778" d="M190 625q0 105 81 184.5t186 79.5q90 0 149.5 -60.5t59.5 -148.5q0 -104 -82 -183t-185 -79q-89 0 -149 59.5t-60 147.5z" />
<glyph unicode="&#x2026;" horiz-adv-x="1738" d="M82 115q0 62 48.5 107.5t109.5 45.5q52 0 85 -33.5t33 -84.5q0 -63 -45 -109.5t-108 -46.5q-53 0 -88 35t-35 86zM655 115q0 62 48.5 107.5t109.5 45.5q52 0 85.5 -33.5t33.5 -84.5q0 -63 -45.5 -109.5t-108.5 -46.5q-54 0 -88.5 35t-34.5 86zM1249 115q0 62 48.5 107.5 t109.5 45.5q52 0 85.5 -33.5t33.5 -84.5q0 -63 -45.5 -109.5t-108.5 -46.5q-54 0 -88.5 35t-34.5 86z" />
<glyph unicode="&#x202f;" horiz-adv-x="354" />
<glyph unicode="&#x2039;" horiz-adv-x="739" d="M164 418l14 121l406 376l96 -112l-365 -336l275 -328l-113 -98z" />
<glyph unicode="&#x203a;" horiz-adv-x="739" d="M94 150l365 339l-277 326l113 100l315 -376l-14 -121l-408 -377z" />
<glyph unicode="&#x205f;" horiz-adv-x="443" />
<glyph unicode="&#x20ac;" horiz-adv-x="1253" d="M82 420l18 158h179q8 121 16 178h-172l18 157h185q62 226 193.5 337.5t322.5 111.5q111 0 191.5 -31.5t125 -87.5t65 -123.5t21.5 -150.5l-209 -11q0 106 -44 161t-156 55q-214 0 -297 -261h354l-19 -157h-370q-15 -96 -17 -178h365l-18 -158h-347q4 -77 23.5 -129.5 t51.5 -78t65.5 -35t77.5 -9.5t79.5 7.5t76.5 30t73 72.5t51 125l203 -10q-17 -82 -52 -151.5t-92.5 -130.5t-147.5 -96t-204 -35q-195 0 -300 111.5t-116 328.5h-194z" />
<glyph unicode="&#x2122;" horiz-adv-x="1265" d="M176 1243l14 109h406l-14 -109h-148l-57 -465h-113l58 465h-146zM637 778l72 574h133l80 -357l168 357h145l-72 -574h-112l43 342l-136 -289h-106l-61 295l-43 -348h-111z" />
<glyph unicode="&#x25fc;" horiz-adv-x="931" d="M0 0v932h932v-932h-932z" />
</font>
</defs>
</svg>
